<svg xmlns="http://www.w3.org/2000/svg" width="99.653" height="85.89" viewBox="0 0 99.653 85.89">
  <g id="Layer_x0020_1" transform="translate(0)">
    <g id="XMLID_515_" transform="translate(27.292 22.13)">
      <path id="XMLID_632_" d="M2494.1,5505.7h20.3a.851.851,0,0,1,.847.848v1.627H2493.26v-1.627A.844.844,0,0,1,2494.1,5505.7Z" transform="translate(-2481.387 -5444.416)" fill="#2c3e48"/>
      <g id="XMLID_514_" transform="translate(0)">
        <path id="XMLID_551_" d="M2736.144,4172.8h1.3a2.036,2.036,0,0,0,2.035-1.936l.59-11.9h2.841l.59,11.9a2.036,2.036,0,0,0,2.035,1.936h1.3a.67.67,0,0,1,.673.673v1.486h-12.028v-1.486a.67.67,0,0,1,.673-.673Z" transform="translate(-2718.622 -4125.386)" fill="#ffcb05"/>
        <g id="XMLID_282_" transform="translate(28.702)">
          <path id="XMLID_567_" d="M1919.3,2557.216a3.371,3.371,0,0,0,2.625-1.512,1.015,1.015,0,1,0-1.628-1.213c-.4.531-.889.8-1.2.648-.365-.174-.573-.93-.266-2.027.457-1.653,2.808-3.9,5.524-6.521a87.687,87.687,0,0,0,6.114-6.3,13.388,13.388,0,0,0,2.974-5.565,7.067,7.067,0,0,0-.415-4.793,4.823,4.823,0,0,0-4.809-2.65,3.926,3.926,0,0,0-3.14,1.653c-1.537,2.218-.54,5.723-.424,6.113a1.014,1.014,0,1,0,1.944-.581c-.241-.814-.682-3.181.149-4.386a1.983,1.983,0,0,1,1.611-.781,2.791,2.791,0,0,1,2.858,1.537c.8,1.587.673,4.66-2.293,8.132-1.952,2.284-4.1,4.345-5.981,6.156-3.057,2.932-5.466,5.25-6.072,7.443-.673,2.425.291,3.879,1.329,4.394a2.627,2.627,0,0,0,1.1.258Z" transform="translate(-1916.645 -2527.264)" fill="#f8991d"/>
        </g>
        <g id="XMLID_568_">
          <path id="XMLID_571_" d="M3325.96,2557.216a3.371,3.371,0,0,1-2.625-1.512,1.015,1.015,0,1,1,1.628-1.213c.4.531.889.8,1.2.648.365-.174.573-.93.266-2.027-.457-1.653-2.808-3.9-5.524-6.521a87.609,87.609,0,0,1-6.114-6.3,13.384,13.384,0,0,1-2.974-5.565,7.066,7.066,0,0,1,.415-4.793,4.823,4.823,0,0,1,4.81-2.65,3.925,3.925,0,0,1,3.14,1.653c1.537,2.218.54,5.723.424,6.113a1.014,1.014,0,1,1-1.944-.581c.241-.814.681-3.181-.149-4.386a1.984,1.984,0,0,0-1.612-.781,2.79,2.79,0,0,0-2.857,1.537c-.8,1.587-.673,4.66,2.292,8.132,1.952,2.284,4.1,4.345,5.981,6.156,3.057,2.932,5.466,5.25,6.072,7.443.673,2.425-.291,3.879-1.329,4.394a2.627,2.627,0,0,1-1.1.258Z" transform="translate(-3311.595 -2527.264)" fill="#f8991d"/>
        </g>
        <path id="XMLID_642_" d="M2347.3,2574.01h14.3s-.449,16.862-10.774,27.968h-7.052c-10.325-11.106-10.773-27.968-10.773-27.968h14.3Z" transform="translate(-2324.441 -2573.048)" fill="#ffcb05"/>
        <path id="XMLID_637_" d="M2837.7,3912.279h7.044a.4.4,0,0,1,.34.6c-.614,1.063-2.043,2.127-2.2,3.19h-3.323c-.158-1.072-1.587-2.135-2.2-3.19A.4.4,0,0,1,2837.7,3912.279Z" transform="translate(-2818.356 -3883.781)" fill="#f8991d"/>
        <path id="XMLID_634_" d="M2591.107,4911.85h13.706a2.178,2.178,0,0,1,2.176,2.176v1.072h-18.05v-1.072a2.177,2.177,0,0,1,2.168-2.176Z" transform="translate(-2575.098 -4862.785)" fill="#f8991d"/>
        <path id="XMLID_633_" d="M2560.793,5045.07h9.2a.612.612,0,0,1,.615.614v9.238H2551v-9.238a.613.613,0,0,1,.615-.614h9.179Z" transform="translate(-2537.931 -4993.264)" fill="#2c3e48"/>
        <path id="XMLID_281_" d="M2936.372,4099.329h3.281a.241.241,0,0,0,.241-.241v-2.076a.241.241,0,0,0-.241-.242h-3.281a.241.241,0,0,0-.241.242v2.076A.241.241,0,0,0,2936.372,4099.329Z" transform="translate(-2915.145 -4064.476)" fill="#ffcb05"/>
      </g>
    </g>
    <g id="XMLID_672_" transform="translate(29.256 0)">
      <path id="XMLID_671_" d="M719.516,1523.98l-.058,1.753-1.678.49,1.645.59-.05,1.753,1.072-1.387,1.645.59-.98-1.445,1.072-1.387-1.686.49Z" transform="translate(-653.754 -1522.493)" fill="#e7f4e9"/>
      <path id="XMLID_656_" d="M1883.9,3035.44l-1.013,2.235-2.434-.274,1.811,1.653-1.013,2.226,2.126-1.213,1.811,1.653-.49-2.392,2.126-1.213-2.434-.274Z" transform="translate(-1842.315 -3002.853)" fill="#e7f4e9"/>
      <path id="XMLID_654_" d="M3759,5151.25l-.05,1.753-1.686.49,1.653.589-.058,1.753,1.071-1.387,1.645.589-.98-1.445,1.072-1.379-1.678.482Z" transform="translate(-3755.774 -5075.129)" fill="#e7f4e9"/>
      <path id="XMLID_651_" d="M2738.19,2083.91l-1.03,1.412-1.661-.54,1.022,1.412-1.03,1.412,1.67-.532,1.022,1.412.008-1.744,1.661-.54-1.661-.54Z" transform="translate(-2712.938 -2070.902)" fill="#d32627"/>
      <path id="XMLID_583_" d="M3618.106,4220.709l-.058,1.745-1.678.49,1.645.589-.05,1.753,1.071-1.387,1.645.6-.98-1.454,1.072-1.379-1.687.49Z" transform="translate(-3611.984 -4163.735)" fill="#ffc516"/>
      <path id="XMLID_238_" d="M3685.526,1635.4l-.058,1.745-1.678.49,1.645.6-.05,1.745,1.072-1.379,1.644.59-.988-1.446,1.072-1.387-1.678.49Z" transform="translate(-3680.783 -1631.621)" fill="#ffc516"/>
      <path id="XMLID_235_" d="M707.736,5151.649l-1.1,1.362-1.636-.623.964,1.462-1.1,1.371,1.686-.465.964,1.462.083-1.745,1.686-.457-1.636-.623Z" transform="translate(-640.594 -5075.52)" fill="#ffc516"/>
      <ellipse id="XMLID_231_" cx="1.462" cy="1.462" rx="1.462" ry="1.462" transform="translate(52.514 10.591)" fill="#ffc516"/>
      <ellipse id="XMLID_226_" cx="1.03" cy="1.03" rx="1.03" ry="1.03" transform="translate(16.007 67.042)" fill="#d32627"/>
      <ellipse id="XMLID_225_" cx="0.515" cy="0.515" rx="0.515" ry="0.515" transform="translate(11.587 16.945)" fill="#e7f4e9"/>
      <ellipse id="XMLID_224_" cx="0.515" cy="0.515" rx="0.515" ry="0.515" transform="translate(37.62 15.292)" fill="#e7f4e9"/>
      <ellipse id="XMLID_164_" cx="1.121" cy="1.121" rx="1.121" ry="1.121" transform="translate(68.155 46.932)" fill="#ffc516"/>
      <ellipse id="XMLID_163_" cx="1.113" cy="1.113" rx="1.113" ry="1.113" transform="translate(55.238 69.733)" fill="#e7f4e9"/>
      <ellipse id="XMLID_162_" cx="1.113" cy="1.113" rx="1.113" ry="1.113" transform="translate(19.927 2.666)" fill="#e7f4e9"/>
      <ellipse id="XMLID_161_" cx="0.93" cy="0.93" rx="0.93" ry="0.93" transform="translate(37.504)" fill="#e7f4e9"/>
      <ellipse id="XMLID_145_" cx="0.748" cy="0.748" rx="0.748" ry="0.748" transform="translate(0 12.053)" fill="#ffc516"/>
      <ellipse id="XMLID_144_" cx="0.598" cy="0.598" rx="0.598" ry="0.598" transform="translate(4.61 49.291)" fill="#e7f4e9"/>
    </g>
    <g id="XMLID_687_" transform="translate(0 6.072)">
      <path id="XMLID_724_" d="M5170.63,1845.158l1.752.058.49,1.678.59-1.645,1.744.05-1.378-1.072.589-1.645-1.445.988-1.387-1.072.49,1.678Z" transform="translate(-5169.143 -1840.531)" fill="#e7f4e9"/>
      <path id="XMLID_723_" d="M3986.571,3480.424l2.226,1.013-.274,2.434,1.653-1.811,2.226,1.014-1.2-2.127,1.645-1.811-2.392.49-1.213-2.127-.274,2.434Z" transform="translate(-3962.416 -3441.89)" fill="#e7f4e9"/>
      <path id="XMLID_722_" d="M1543.35,4884.237l1.753.058.49,1.678.59-1.645,1.744.05-1.379-1.071.59-1.645-1.445.98-1.387-1.072.49,1.687Z" transform="translate(-1467.229 -4817.07)" fill="#e7f4e9"/>
      <path id="XMLID_719_" d="M4610.691,3861.461l1.412,1.03-.548,1.669,1.42-1.03,1.412,1.03-.531-1.661,1.412-1.03h-1.745l-.54-1.67-.548,1.661Z" transform="translate(-4597.683 -3816.323)" fill="#d32627"/>
      <path id="XMLID_713_" d="M2473.89,4743.756l1.753.05.49,1.678.59-1.645,1.753.049-1.387-1.071.59-1.645-1.446.989-1.379-1.072.49,1.678Z" transform="translate(-2416.924 -4679.48)" fill="#ffc516"/>
      <path id="XMLID_710_" d="M5059.2,4810.767l1.744.05.49,1.678.59-1.645,1.752.058-1.387-1.071.6-1.653-1.445.988-1.387-1.071.49,1.678Z" transform="translate(-5055.42 -4745.112)" fill="#ffc516"/>
      <path id="XMLID_707_" d="M1543.35,1830.733l1.37,1.1-.623,1.636,1.462-.955,1.362,1.088-.457-1.686,1.462-.955-1.744-.083-.465-1.694-.615,1.636Z" transform="translate(-1467.229 -1827.485)" fill="#ffc516"/>
      <ellipse id="XMLID_704_" cx="1.462" cy="1.462" rx="1.462" ry="1.462" transform="translate(10.591 14.952)" fill="#ffc516"/>
      <ellipse id="XMLID_701_" cx="1.03" cy="1.03" rx="1.03" ry="1.03" transform="translate(67.033 52.323)" fill="#d32627"/>
      <ellipse id="XMLID_699_" cx="0.515" cy="0.515" rx="0.515" ry="0.515" transform="translate(16.945 57.772)" fill="#e7f4e9"/>
      <ellipse id="XMLID_698_" cx="0.515" cy="0.515" rx="0.515" ry="0.515" transform="translate(15.292 31.739)" fill="#e7f4e9"/>
      <ellipse id="XMLID_695_" cx="1.121" cy="1.121" rx="1.121" ry="1.121" transform="translate(46.923)" fill="#ffc516"/>
      <ellipse id="XMLID_694_" cx="1.113" cy="1.113" rx="1.113" ry="1.113" transform="translate(69.733 12.925)" fill="#e7f4e9"/>
      <ellipse id="XMLID_693_" cx="1.113" cy="1.113" rx="1.113" ry="1.113" transform="translate(2.666 48.244)" fill="#e7f4e9"/>
      <ellipse id="XMLID_692_" cx="0.93" cy="0.93" rx="0.93" ry="0.93" transform="translate(0 31.025)" fill="#e7f4e9"/>
      <ellipse id="XMLID_689_" cx="0.748" cy="0.748" rx="0.748" ry="0.748" transform="translate(12.053 68.903)" fill="#ffc516"/>
      <ellipse id="XMLID_688_" cx="0.598" cy="0.598" rx="0.598" ry="0.598" transform="translate(49.291 64.592)" fill="#e7f4e9"/>
    </g>
  </g>
</svg>
