<?xml version="1.0" encoding="UTF-8"?>
<!DOCTYPE svg PUBLIC "-//W3C//DTD SVG 1.1//EN" "http://www.w3.org/Graphics/SVG/1.1/DTD/svg11.dtd">
<!-- Creator: CorelDRAW 2021 (64-Bit) -->
<svg xmlns="http://www.w3.org/2000/svg" xml:space="preserve" width="1.1811in" height="1.1811in" version="1.1" style="shape-rendering:geometricPrecision; text-rendering:geometricPrecision; image-rendering:optimizeQuality; fill-rule:evenodd; clip-rule:evenodd"
viewBox="0 0 167.24 167.24"
 xmlns:xlink="http://www.w3.org/1999/xlink"
 xmlns:xodm="http://www.corel.com/coreldraw/odm/2003">
 <defs>
  <style type="text/css">
   <![CDATA[
    .fil0 {fill:none}
    .fil14 {fill:#FEFEFE;fill-rule:nonzero}
    .fil2 {fill:#FFFEFA;fill-rule:nonzero}
    .fil15 {fill:#FBB058;fill-rule:nonzero}
    .fil1 {fill:#F283AE;fill-rule:nonzero}
    .fil16 {fill:#F37567;fill-rule:nonzero}
    .fil8 {fill:#F8F6E2;fill-rule:nonzero}
    .fil5 {fill:#DB8CB5;fill-rule:nonzero}
    .fil4 {fill:#DDF1F4;fill-rule:nonzero}
    .fil7 {fill:#DDF1F2;fill-rule:nonzero}
    .fil3 {fill:#BFE5EB;fill-rule:nonzero}
    .fil6 {fill:#ADDFE6;fill-rule:nonzero}
    .fil10 {fill:#95D7E1;fill-rule:nonzero}
    .fil9 {fill:#6CCBDE;fill-rule:nonzero}
    .fil12 {fill:#59B8C4;fill-rule:nonzero}
    .fil11 {fill:#3E919E;fill-rule:nonzero}
    .fil13 {fill:#368187;fill-rule:nonzero}
    .fil18 {fill:#7E4F1A;fill-rule:nonzero}
    .fil19 {fill:#DF9E2F;fill-rule:nonzero}
    .fil17 {fill:#EDC32F;fill-rule:nonzero}
    .fil20 {fill:#FBE44F;fill-rule:nonzero}
   ]]>
  </style>
 </defs>
 <g id="Layer_x0020_1">
  <metadata id="CorelCorpID_0Corel-Layer"/>
  <g id="_2939255155232">
   <rect class="fil0" width="167.24" height="167.24"/>
   <g>
    <g>
     <path class="fil1" d="M138.81 83.62c0,28.75 -24.44,52.06 -54.59,52.06 -30.15,0 -54.59,-23.31 -54.59,-52.06 0,-28.75 24.44,-52.06 54.59,-52.06 30.15,0 54.59,23.31 54.59,52.06z"/>
     <path class="fil2" d="M45.97 48.44c0,0 17.37,-11.88 28.02,19.45 0,0 13.29,-16.24 37.94,-9.31l-1.38 9.18 -41.2 8.95 -23.37 -28.27z"/>
     <path class="fil3" d="M69.97 76.57c-1.05,-2.63 -2.42,-5.04 -3.99,-7.26l4.43 2.15c-3.53,-11.78 -13.31,-19.65 -21.55,-24.4 1.3,-0.45 2.97,-0.84 4.87,-0.84 5.97,0 14.2,3.84 20.26,21.66 0,0 9.02,-11.03 25.99,-11.03 3.62,0 7.61,0.5 11.95,1.72l-1.38 9.18 -40.57 8.81z"/>
     <path class="fil2" d="M75.32 66.5c-0.43,0.87 -0.86,1.74 -1.3,2.6 0.32,-0.24 0.65,-0.48 0.98,-0.71 3.96,-2.77 8.49,-4.48 13.04,-6.02 6.91,-2.35 14.09,-3.97 21.37,-4.42 -18.66,-4.2 -30.33,4.93 -34.08,8.55z"/>
     <path class="fil2" d="M89.12 66.07c-4.44,1.53 -8.92,3.21 -12.69,6.06 -1.65,1.25 -3.19,2.63 -4.7,4.05l38.81 -8.43 0.91 -6.02c-7.6,0.24 -15.16,1.86 -22.33,4.33z"/>
     <path class="fil2" d="M70.41 71.47c-6.53,-21.8 -34.46,-30.21 -34.46,-30.21l0.59 13.74 33.87 16.47z"/>
     <path class="fil4" d="M36.84 57.75l-0.11 -2.65 1.37 0.67c-0.43,0.65 -0.85,1.31 -1.26,1.99z"/>
     <path class="fil5" d="M70.93 79.3l-33.87 -16.47 -0.22 -5.09c0.4,-0.67 0.82,-1.33 1.26,-1.99l23.28 11.32 7.96 9.63 0.63 -0.14c0.36,0.89 0.67,1.8 0.95,2.73z"/>
     <path class="fil6" d="M69.34 76.71l-7.96 -9.63 4.6 2.24c1.57,2.21 2.94,4.63 3.99,7.26l-0.63 0.14z"/>
     <path class="fil7" d="M65.98 69.32l-4.6 -2.24 -23.28 -11.32 -1.37 -0.67 -0.26 -6c0,0 19.23,5.79 29.51,20.22z"/>
     <path class="fil2" d="M118.07 67.7c0,0 -23.58,-14.11 -46.16,4.66 0,0 -35.27,-26.21 -50.35,-17.74l-0.12 2.52 47.08 22.43 9.92 0.06 39.63 -11.92z"/>
     <path class="fil8" d="M71.47 72.03c-4.04,-2.92 -34.83,-24.63 -49.23,-17.77 3.41,1.47 7.09,2.27 10.63,3.48 5.62,1.93 11.27,3.81 16.87,5.8 7.03,2.5 14.02,5.31 20.67,8.75 0.36,-0.09 0.71,-0.17 1.07,-0.26z"/>
     <path class="fil9" d="M15.05 55.74l12.49 50.24 34.75 7.14 1.99 -39.39c0,0 -36.84,-16.53 -49.22,-17.99z"/>
     <path class="fil10" d="M21.18 57.06c-2.38,-0.66 -4.47,-1.12 -6.13,-1.32l10.36 41.69c-0.84,-13.52 -2.1,-27 -4.23,-40.37z"/>
     <path class="fil11" d="M74.26 117.57l3.08 -42.02c0,0 -5.66,2.53 -13.58,0.22l-2.15 38.56c0,0 7.49,3.06 12.64,3.25z"/>
     <path class="fil12" d="M67.01 76.48c-1.03,-0.15 -2.11,-0.38 -3.24,-0.71l-2.15 38.56c0,0 0.26,0.11 0.71,0.28 1.82,-12.67 3.52,-25.36 4.68,-38.12z"/>
     <path class="fil9" d="M120.09 66.2l-14.42 2.43 -17.9 3.01 0 -0 -13.28 2.23 0 0 2.85 1.67 -4.38 38.75c0.07,0.04 0.16,0.09 0.25,0.14l0.09 0.04 0.21 0.1 0.12 0.05 0.23 0.09 0.14 0.06 0.25 0.09 0.16 0.06c0.09,0.03 0.18,0.07 0.28,0.1l0.16 0.05c0.1,0.03 0.21,0.07 0.32,0.1l0.16 0.05c0.12,0.04 0.23,0.07 0.36,0.11l0.16 0.05c0.13,0.04 0.26,0.08 0.4,0.12l0.16 0.05c0.14,0.04 0.29,0.08 0.43,0.12l0.16 0.04c0.15,0.04 0.31,0.08 0.47,0.13l0.15 0.04c0.17,0.04 0.35,0.09 0.52,0.13l0.14 0.03c0.18,0.05 0.37,0.09 0.57,0.14l0.12 0.03c0.2,0.05 0.41,0.1 0.62,0.15l0.09 0.02c0.22,0.05 0.45,0.11 0.68,0.16l0.06 0.02c0.24,0.06 0.49,0.11 0.74,0.17l0.03 0.01c12.37,2.82 33.56,6.17 33.89,6.24l3.79 -42.91 1.23 -13.87z"/>
     <path class="fil2" d="M71.47 72.03c-4.04,-2.92 -34.83,-24.63 -49.23,-17.77 3.41,1.47 7.09,2.27 10.63,3.48 5.62,1.93 11.27,3.81 16.87,5.8 7.03,2.5 14.02,5.31 20.67,8.75 0.36,-0.09 0.71,-0.17 1.07,-0.26z"/>
     <path class="fil13" d="M73.9 76.46c-1.64,13.46 -3.59,26.93 -3.91,40.49 1.47,0.33 2.95,0.57 4.27,0.61l3.08 -42.02c0,0 -1.27,0.57 -3.44,0.92z"/>
     <path class="fil14" d="M80.96 105.83l0 0c0,-4.3 -3.48,-7.78 -7.78,-7.78 4.3,0 7.78,-3.48 7.78,-7.78 0,4.3 3.48,7.78 7.78,7.78 -4.3,0 -7.78,3.48 -7.78,7.78z"/>
     <path class="fil14" d="M91.38 92.77l0 0c0,-2.84 -2.31,-5.15 -5.15,-5.15 2.84,0 5.15,-2.31 5.15,-5.15 0,2.84 2.31,5.15 5.15,5.15 -2.84,0 -5.15,2.31 -5.15,5.15z"/>
     <path class="fil15" d="M16.75 113.97l0 0c0,-2.84 -2.31,-5.15 -5.15,-5.15 2.84,0 5.15,-2.31 5.15,-5.15 0,2.84 2.31,5.15 5.15,5.15 -2.84,0 -5.15,2.31 -5.15,5.15z"/>
     <path class="fil15" d="M17.03 66.65l0 0c0,-4.79 -3.88,-8.67 -8.67,-8.67 4.79,0 8.67,-3.88 8.67,-8.67 0,4.79 3.88,8.67 8.67,8.67 -4.79,0 -8.67,3.88 -8.67,8.67z"/>
     <path class="fil14" d="M78.43 51.96c-1.18,-3.24 -2.35,-6.48 -3.53,-9.71 -0.61,-1.68 -3.32,-0.96 -2.7,0.74 1.18,3.24 2.35,6.48 3.53,9.71 0.61,1.68 3.32,0.96 2.7,-0.74z"/>
     <path class="fil14" d="M83.97 50.84c0.98,-3.55 2.23,-6.99 3.78,-10.32 0.76,-1.62 -1.66,-3.05 -2.41,-1.41 -1.65,3.55 -3.02,7.21 -4.06,10.99 -0.48,1.74 2.22,2.48 2.7,0.74z"/>
     <path class="fil14" d="M90.34 50.97c3.01,-1.89 6.02,-3.77 9.02,-5.66 1.52,-0.96 0.12,-3.38 -1.41,-2.42 -3.01,1.89 -6.02,3.77 -9.02,5.66 -1.52,0.96 -0.12,3.38 1.41,2.42z"/>
     <path class="fil15" d="M104.62 97c5.64,-6.25 9.88,-0.69 16.05,-0.2 4.71,0.38 7.71,-2.25 11.37,-4.85 7.67,-5.47 21.49,6.96 26.64,-4.77 1.08,-2.45 -2.54,-4.59 -3.62,-2.12 -2.87,6.54 -12.27,1.48 -17.46,0.93 -4.23,-0.45 -7.65,2.29 -10.81,4.64 -5.72,4.25 -9.18,-0.94 -14.96,-0.99 -4.07,-0.04 -7.44,1.36 -10.18,4.39 -1.81,2 1.15,4.98 2.97,2.97z"/>
     <path class="fil16" d="M47.68 80.35c-6.36,-1.16 -12.74,-1.95 -19.19,-2.36 -5.72,-0.36 -11.37,-0.51 -16.64,2.02 -1.63,0.78 -0.21,3.19 1.41,2.42 4.79,-2.31 10.06,-1.9 15.22,-1.64 6.19,0.31 12.35,1.14 18.44,2.26 1.76,0.32 2.52,-2.37 0.74,-2.7z"/>
     <path class="fil16" d="M35.11 89.91c-7.06,-0.83 -13.87,0.53 -20.11,3.91 -1.59,0.86 -0.17,3.28 1.41,2.42 5.84,-3.16 12.12,-4.31 18.7,-3.53 1.79,0.21 1.77,-2.59 0,-2.8z"/>
    </g>
    <g>
     <g>
      <path class="fil17" d="M109.99 47.31c0.14,0.04 0.28,0.09 0.42,0.14 0.04,0.02 0.43,0.15 0.23,0.09 0.15,0.04 0.28,0.17 0.35,0.32 0.55,0.15 0.54,1.04 0.59,1.5 0.06,0.57 0.12,1.14 0.18,1.7 0.03,0.25 0.03,0.53 0.13,0.76 0.05,0.12 0.09,0.16 0.17,0.22 0.21,0.14 0.51,0.16 0.78,0.09 0.31,-0.08 0.65,-0.35 0.9,-0.66 0.3,-0.35 0.53,-0.77 0.75,-1.17 0.26,-0.46 0.5,-0.94 0.71,-1.42 0.21,-0.48 0.4,-0.97 0.67,-1.43 0.11,-0.2 0.36,-0.22 0.53,-0.14 0.31,-0.09 0.55,0.05 0.84,0.17 0.22,0.09 0.44,0.17 0.67,0.24 0.45,0.14 0.92,0.25 1.38,0.31 0.99,0.12 1.97,0.11 2.94,-0.13 0.37,-0.09 0.65,-0.21 0.68,-0.63 0.04,-0.43 -0.24,-0.8 -0.53,-1.09 -0.37,-0.38 -0.82,-0.68 -1.26,-0.96 -0.46,-0.28 -0.99,-0.48 -1.33,-0.91 -0.03,-0.03 -0.04,-0.08 -0.06,-0.12 -0.28,-0.13 -0.44,-0.52 -0.27,-0.82 0.38,-0.66 0.73,-1.28 0.93,-2.01 0.17,-0.63 0.31,-1.4 0.17,-2.05 -0.04,-0.2 -0.11,-0.42 -0.34,-0.46 -0.29,-0.05 -0.62,0.16 -0.87,0.28 -0.42,0.21 -0.84,0.42 -1.26,0.64 -0.41,0.21 -0.86,0.51 -1.31,0.58 -0.22,0.04 -0.42,-0.09 -0.5,-0.27 -0.07,0.03 -0.14,0.05 -0.22,0.03 -0.48,-0.16 -0.94,-0.52 -1.36,-0.81 -0.43,-0.3 -0.86,-0.6 -1.28,-0.91 -0.38,-0.28 -0.74,-0.58 -1.14,-0.82 -0.26,-0.15 -0.57,-0.29 -0.87,-0.16 -0.75,0.32 -0.69,1.42 -0.67,2.07 0.01,0.52 0.03,1.03 0.06,1.55 0.01,0.28 0.02,0.56 0.03,0.84 0.01,0.13 0.01,0.26 0.02,0.39 0,0 0,0.02 0,0.03 0.05,0.07 0.07,0.15 0.08,0.23 0,0.09 -0.08,0.34 -0.06,0.19 -0.04,0.36 -0.31,0.66 -0.69,0.66 -0.08,-0 -0.15,-0.03 -0.22,-0.05 -0.67,0.29 -1.34,0.61 -1.96,1 -0.36,0.23 -0.7,0.48 -1.02,0.76 -0.3,0.26 -0.65,0.54 -0.83,0.9 -0.02,0.04 -0.04,0.1 -0.06,0.16 0,0 -0,0.01 -0,0.01 0.01,0 0.01,0.01 0.02,0.01 0.07,0.04 0.11,0.05 0.21,0.08 0.48,0.15 0.97,0.29 1.45,0.43 0.49,0.15 0.99,0.29 1.48,0.44 0.25,0.07 0.49,0.15 0.74,0.22z"/>
     </g>
     <path class="fil18" d="M109.71 48.66c0.14,0.04 0.28,0.08 0.43,0.11 0.01,0.28 0.06,0.57 0.08,0.77l0.19 1.7c0.06,0.56 0.14,1.1 0.5,1.55 0.24,0.31 0.6,0.52 0.97,0.63 0.86,0.24 1.73,-0.05 2.38,-0.64 0.68,-0.61 1.09,-1.49 1.47,-2.31 0.27,-0.6 0.54,-1.23 0.72,-1.87 0.09,0.05 0.19,0.09 0.3,0.14 0.29,0.12 0.59,0.22 0.89,0.31 0.62,0.18 1.27,0.29 1.91,0.33 0.65,0.05 1.3,-0.01 1.94,-0.09 0.6,-0.08 1.29,-0.19 1.82,-0.51 1.2,-0.75 0.91,-2.35 0.1,-3.26 -0.44,-0.5 -1.01,-0.9 -1.57,-1.25 -0.4,-0.25 -0.8,-0.48 -1.24,-0.58 0.38,-0.59 0.63,-1.3 0.79,-1.96 0.17,-0.68 0.27,-1.4 0.24,-2.1 -0.03,-0.7 -0.27,-1.45 -0.98,-1.72 -0.7,-0.26 -1.41,0.14 -2.02,0.46 -0.37,0.19 -0.75,0.38 -1.12,0.58 -0.37,0.19 -0.8,0.36 -1.1,0.65 -0.34,-0.49 -0.9,-0.89 -1.35,-1.27 -0.47,-0.4 -0.95,-0.78 -1.43,-1.16 -0.79,-0.61 -1.7,-1.23 -2.73,-0.77 -1.01,0.46 -1.34,1.6 -1.39,2.61 -0.03,0.58 -0.03,1.15 -0.04,1.73 -0,0.52 -0,1.05 0.03,1.57 -0.77,0.17 -1.5,0.48 -2.19,0.89 -0.77,0.46 -1.57,1.03 -2.12,1.75 -0.58,0.74 -0.71,1.87 0.24,2.39 0.42,0.23 0.91,0.33 1.36,0.46l1.48 0.45c0.47,0.14 0.95,0.29 1.42,0.43zm-3.38 -2.45l0 0c-0.1,-0.03 -0.14,-0.04 -0.21,-0.08 -0.01,-0.01 -0.02,-0.01 -0.02,-0.01 0,-0 0,-0.01 0,-0.01 0.02,-0.06 0.04,-0.11 0.06,-0.16 0.18,-0.35 0.53,-0.63 0.83,-0.9 0.32,-0.28 0.66,-0.53 1.02,-0.76 0.62,-0.39 1.29,-0.7 1.96,-1 0.07,0.03 0.14,0.05 0.22,0.05 0.38,0.01 0.65,-0.29 0.69,-0.66 -0.02,0.14 0.07,-0.1 0.06,-0.19 -0,-0.08 -0.03,-0.16 -0.08,-0.23 -0,-0.01 -0,-0.02 -0,-0.03 -0.01,-0.13 -0.01,-0.26 -0.02,-0.39 -0.01,-0.28 -0.02,-0.56 -0.03,-0.84 -0.02,-0.52 -0.04,-1.03 -0.06,-1.55 -0.01,-0.66 -0.08,-1.76 0.67,-2.07 0.3,-0.13 0.61,0.01 0.87,0.16 0.4,0.24 0.76,0.54 1.14,0.82 0.42,0.31 0.85,0.61 1.28,0.91 0.42,0.29 0.88,0.65 1.36,0.81 0.08,0.03 0.15,0.01 0.22,-0.03 0.08,0.17 0.27,0.3 0.5,0.27 0.45,-0.07 0.9,-0.37 1.31,-0.58 0.42,-0.21 0.84,-0.43 1.26,-0.64 0.24,-0.12 0.58,-0.33 0.87,-0.28 0.23,0.04 0.3,0.26 0.34,0.46 0.14,0.65 0.01,1.42 -0.17,2.05 -0.2,0.74 -0.55,1.36 -0.93,2.01 -0.17,0.3 -0.02,0.69 0.27,0.82 0.02,0.04 0.03,0.09 0.06,0.12 0.34,0.43 0.87,0.63 1.33,0.91 0.45,0.28 0.89,0.59 1.26,0.96 0.29,0.29 0.56,0.66 0.53,1.09 -0.03,0.42 -0.31,0.54 -0.68,0.63 -0.97,0.24 -1.95,0.25 -2.94,0.13 -0.47,-0.06 -0.93,-0.17 -1.38,-0.31 -0.23,-0.07 -0.45,-0.15 -0.67,-0.24 -0.29,-0.12 -0.52,-0.26 -0.84,-0.17 -0.18,-0.09 -0.42,-0.06 -0.53,0.14 -0.27,0.45 -0.46,0.94 -0.67,1.43 -0.22,0.48 -0.46,0.96 -0.71,1.42 -0.22,0.4 -0.45,0.82 -0.75,1.17 -0.26,0.3 -0.59,0.58 -0.9,0.66 -0.27,0.07 -0.57,0.05 -0.78,-0.09 -0.08,-0.05 -0.12,-0.09 -0.17,-0.22 -0.1,-0.23 -0.11,-0.51 -0.13,-0.76 -0.06,-0.57 -0.12,-1.14 -0.18,-1.7 -0.05,-0.46 -0.04,-1.35 -0.59,-1.5 -0.07,-0.15 -0.21,-0.27 -0.35,-0.32 0.21,0.06 -0.19,-0.07 -0.23,-0.09 -0.14,-0.05 -0.28,-0.09 -0.42,-0.14 -0.25,-0.07 -0.49,-0.15 -0.74,-0.22 -0.49,-0.15 -0.99,-0.29 -1.48,-0.44 -0.48,-0.14 -0.97,-0.28 -1.45,-0.43z"/>
     <g>
      <path class="fil19" d="M112.77 52.12c0.02,-0.01 0.05,0 0.07,-0.01 0.31,-0.08 0.65,-0.35 0.9,-0.66 0.3,-0.35 0.53,-0.77 0.75,-1.17 0.26,-0.46 0.5,-0.94 0.71,-1.42 0.21,-0.48 0.4,-0.97 0.67,-1.43 0.11,-0.2 0.36,-0.22 0.53,-0.14 0.14,-0.04 0.27,-0.03 0.4,0 -0.22,-0.16 -0.45,-0.32 -0.71,-0.43 -0.57,-0.25 -1.3,-0.26 -1.73,0.18 -0.22,0.22 -0.33,0.52 -0.44,0.82 -0.36,1.04 -0.65,2.1 -0.87,3.17 -0.07,0.36 -0.14,0.73 -0.28,1.07z"/>
      <path class="fil19" d="M110.87 42.69c-0,0.02 -0.01,0.04 -0.02,0.06 0.13,-0.05 0.26,-0.09 0.4,-0.14 0.37,-0.13 0.76,-0.27 1.02,-0.57 0.58,-0.66 0.26,-1.68 -0.09,-2.48 -0.3,-0.7 -0.6,-1.39 -0.9,-2.08 -0.6,0.39 -0.55,1.38 -0.54,1.99 0.01,0.52 0.03,1.03 0.06,1.55 0.01,0.28 0.02,0.56 0.03,0.84 0.01,0.13 0.01,0.26 0.02,0.39 0,0 0,0.02 0,0.03 0.05,0.07 0.07,0.15 0.08,0.23 0,0.09 -0.08,0.34 -0.06,0.19z"/>
      <path class="fil19" d="M109.25 47.09c0.25,0.07 0.49,0.15 0.74,0.22 0.14,0.04 0.28,0.09 0.42,0.14 0.04,0.02 0.43,0.15 0.23,0.09 0.15,0.04 0.28,0.17 0.35,0.32 0.09,0.02 0.16,0.07 0.22,0.13 0.03,-0.36 0.06,-0.73 0.06,-1.1 0,-0.24 -0,-0.48 -0.12,-0.69 -0.28,-0.5 -0.99,-0.5 -1.57,-0.44 -1.15,0.12 -2.3,0.19 -3.45,0.21 -0.02,0.04 -0.04,0.09 -0.05,0.14 0,0 -0,0.01 -0,0.01 0.01,0 0.01,0.01 0.02,0.01 0.07,0.04 0.11,0.05 0.21,0.08 0.48,0.15 0.97,0.29 1.45,0.43 0.49,0.15 0.99,0.29 1.48,0.44z"/>
      <path class="fil19" d="M116.8 40.34c-0.1,0.02 -0.2,-0 -0.28,-0.05 0.17,0.35 0.39,0.66 0.69,0.91 0.14,0.11 0.3,0.22 0.47,0.22 0.2,0 0.38,-0.13 0.53,-0.26 0.8,-0.67 1.51,-1.45 2.12,-2.29 -0.03,-0.01 -0.06,-0.03 -0.09,-0.04 -0.29,-0.05 -0.62,0.16 -0.87,0.28 -0.42,0.21 -0.84,0.42 -1.26,0.64 -0.41,0.21 -0.86,0.51 -1.31,0.58z"/>
      <path class="fil19" d="M119.8 44.3c-0.03,-0.03 -0.04,-0.08 -0.06,-0.12 -0.13,-0.06 -0.24,-0.18 -0.29,-0.33 -0.15,0.19 -0.29,0.39 -0.4,0.61 -0.28,0.58 -0.3,1.34 0.13,1.82 0.51,0.56 1.38,0.5 2.14,0.53 0.54,0.02 1.07,0.11 1.58,0.25 -0.05,-0.34 -0.27,-0.64 -0.51,-0.88 -0.37,-0.38 -0.82,-0.68 -1.26,-0.96 -0.46,-0.28 -0.99,-0.48 -1.33,-0.91z"/>
     </g>
     <path class="fil20" d="M114.02 39.62c-0.02,-0.06 -0.05,-0.12 -0.08,-0.18 -0.05,-0.1 -0.14,-0.18 -0.24,-0.24 -0.06,-0.04 -0.11,-0.07 -0.16,-0.11 0.04,0.03 0.07,0.06 0.11,0.09 -0.06,-0.05 -0.12,-0.09 -0.18,-0.14 -0.05,-0.04 -0.11,-0.09 -0.16,-0.13 -0.03,-0.02 -0.05,-0.05 -0.08,-0.08 -0.06,-0.06 -0.11,-0.1 -0.17,-0.15 0.03,0.03 0.07,0.05 0.1,0.08 -0.19,-0.15 -0.44,-0.44 -0.71,-0.28 -0.22,0.13 -0.2,0.44 -0.14,0.65 0.03,0.1 0.06,0.19 0.11,0.28 0.05,0.07 0.1,0.14 0.15,0.21 0.11,0.14 0.21,0.26 0.35,0.37 0.07,0.05 0.14,0.1 0.21,0.15 0.16,0.1 0.35,0.12 0.53,0.07 0.24,-0.06 0.42,-0.35 0.34,-0.59z"/>
     <path class="fil20" d="M114.89 40.66c-0.01,-0.09 -0.02,-0.17 -0.07,-0.25 -0.03,-0.06 -0.07,-0.12 -0.12,-0.17 -0.02,-0.02 -0.05,-0.05 -0.07,-0.07 -0.06,-0.06 -0.13,-0.11 -0.21,-0.13 -0.05,-0.01 -0.09,-0.02 -0.14,-0.02l-0.11 0.01c-0.05,0.01 -0.1,0.04 -0.14,0.07 -0.03,0.02 -0.05,0.04 -0.07,0.07 -0.04,0.04 -0.06,0.08 -0.07,0.14 -0,0.01 -0,0.01 -0,0.02 -0.01,0.03 -0.02,0.09 -0.02,0.12 0.01,0.04 0.01,0.08 0.02,0.11l0.04 0.1c0,0.01 0.01,0.02 0.01,0.02 0.01,0.03 0.03,0.06 0.04,0.09 0.02,0.03 0.05,0.07 0.08,0.1 0.01,0.01 0.01,0.01 0.02,0.02 0.01,0.01 0.02,0.02 0.03,0.04 0.01,0.02 0.03,0.03 0.05,0.04 0.02,0.01 0.03,0.03 0.05,0.04 0.01,0 0.01,0.01 0.02,0.01 0.02,0.01 0.03,0.01 0.05,0.02 0.06,0.04 0.13,0.06 0.21,0.06 0.07,-0 0.14,-0.02 0.21,-0.06 0.06,-0.04 0.11,-0.09 0.15,-0.15 0.04,-0.06 0.06,-0.13 0.06,-0.21l-0 -0.04z"/>
     <path class="fil20" d="M109.53 44.49c0,-0.08 -0.06,-0.15 -0.13,-0.17 -0.02,-0.01 -0.09,-0.02 -0.05,-0.01 0.03,0.01 -0.01,-0 -0.01,-0 0.04,0.02 0.07,0.04 0.11,0.06 -0.07,-0.06 -0.13,-0.09 -0.22,-0.1 -0.11,-0.02 -0.11,-0.02 -0.22,-0 -0.02,0 -0.05,0.01 -0.07,0.01 -0.09,0.02 -0.17,0.06 -0.26,0.09 -0.12,0.04 -0.24,0.09 -0.34,0.17 -0.08,0.05 -0.16,0.1 -0.24,0.15 -0.13,0.07 -0.21,0.26 -0.17,0.41 0.05,0.14 0.19,0.27 0.35,0.26 0.25,-0.02 0.52,-0.02 0.74,-0.16 0.1,-0.06 0.22,-0.13 0.31,-0.22 0.11,-0.11 0.2,-0.27 0.19,-0.42 0,-0.02 0.01,-0.04 0.01,-0.07z"/>
     <path class="fil20" d="M113.04 48.36c-0,-0.06 -0,-0.12 -0,-0.19 0,-0.1 -0.03,-0.2 -0.04,-0.3 0.01,0.04 0.01,0.08 0.02,0.12 -0.01,-0.05 -0.01,-0.1 -0.02,-0.15 -0.01,-0.05 -0.04,-0.1 -0.06,-0.14 -0.02,-0.03 -0.03,-0.06 -0.04,-0.09 0.01,0.02 0.02,0.04 0.03,0.06 -0.04,-0.1 -0.1,-0.19 -0.22,-0.22 -0.11,-0.03 -0.23,0 -0.3,0.08 -0.03,0.03 -0.05,0.06 -0.08,0.09 -0.07,0.08 -0.11,0.15 -0.15,0.25 -0.02,0.04 -0.04,0.09 -0.05,0.14 -0.03,0.08 -0.03,0.16 -0.04,0.24 -0.01,0.11 -0.02,0.22 -0.01,0.33 0.01,0.06 0.02,0.12 0.04,0.18 0.04,0.14 0.11,0.24 0.24,0.32 0.08,0.05 0.18,0.06 0.27,0.05 0.1,-0.01 0.17,-0.05 0.24,-0.12 0.1,-0.09 0.14,-0.2 0.16,-0.32 0.01,-0.07 0.03,-0.13 0.02,-0.2 -0,-0.04 -0,-0.07 -0,-0.1z"/>
     <g>
      <path class="fil20" d="M118.41 46.63c0.02,0 0.03,0 0.05,0.01 0.01,-0 0.02,-0 0.02,-0 -0.02,0 -0.05,-0 -0.07,-0z"/>
      <path class="fil20" d="M119.24 46.82c-0.08,-0.08 -0.17,-0.11 -0.27,-0.13 0,0 0,0 -0,0 -0.04,-0.01 -0.08,-0.02 -0.13,-0.03 -0.09,-0.03 -0.18,-0.01 -0.28,-0.02 0.02,0 0.04,0.01 0.06,0.01 -0.09,-0.02 -0.17,-0.02 -0.26,0 0.03,-0 0.06,-0.01 0.09,-0.01 -0.15,-0.03 -0.3,0.02 -0.4,0.14 -0.05,0.06 -0.07,0.12 -0.08,0.19 -0.01,0.04 -0.01,0.07 0,0.11 0,0.05 0.02,0.1 0.05,0.15 0.06,0.13 0.16,0.24 0.28,0.31 0.17,0.1 0.37,0.16 0.56,0.1 0.07,-0.02 0.14,-0.05 0.2,-0.08 0.06,-0.03 0.12,-0.07 0.17,-0.12 0.08,-0.09 0.14,-0.2 0.14,-0.32 0,-0.11 -0.05,-0.23 -0.13,-0.3z"/>
      <path class="fil20" d="M118.48 46.63c-0.01,-0 -0.01,0 -0.01,0 0.02,0 0.04,0.01 0.06,0.01 -0.02,-0 -0.03,-0.01 -0.05,-0.01z"/>
      <path class="fil20" d="M118.46 46.63c-0,0 -0.01,0 -0.01,0 0,0 0.01,-0 0.01,-0 -0,0 -0,-0 -0,-0z"/>
     </g>
     <path class="fil20" d="M120.14 41.13c0,-0.1 -0.03,-0.19 -0.1,-0.26 -0,-0 -0.01,-0.01 -0.01,-0.01 -0.07,-0.06 -0.06,-0.05 -0.13,-0.08 -0.02,-0.01 -0.03,-0.02 -0.05,-0.02 -0.04,-0.01 -0.07,-0.01 -0.11,-0.01 -0.02,-0 -0.04,-0 -0.06,-0 -0.04,0 -0.1,0.01 -0.13,0.02 -0,0 -0.01,0 -0.01,0 -0.05,0.02 -0.09,0.04 -0.14,0.06 -0.01,0 -0.01,0.01 -0.02,0.01 -0.03,0.02 -0.07,0.05 -0.1,0.08 -0.01,0.01 -0.02,0.02 -0.03,0.03 -0.05,0.05 -0.09,0.1 -0.12,0.15 -0.01,0.01 -0.02,0.02 -0.02,0.03 -0.01,0.02 -0.02,0.04 -0.03,0.06 -0.01,0.02 -0.02,0.04 -0.03,0.07 -0,0.01 -0,0.01 -0.01,0.02 -0.01,0.03 -0.01,0.07 -0.02,0.1 -0.01,0.02 -0.01,0.05 -0.01,0.07 0.01,0.04 0.01,0.09 0.02,0.13 0,0.01 0,0.01 0,0.02 0.01,0.02 0.01,0.05 0.02,0.07 0.02,0.04 0.03,0.07 0.05,0.11l0.07 0.09 0.09 0.07c0.05,0.03 0.11,0.05 0.17,0.05 0.04,0.01 0.08,0.01 0.12,0 0.04,0 0.08,-0.01 0.11,-0.03 0.04,-0.01 0.07,-0.03 0.1,-0.06 0.05,-0.03 0.09,-0.07 0.12,-0.13 0.01,-0.02 0.03,-0.04 0.04,-0.06 -0.03,0.03 -0.05,0.06 -0.08,0.1 0.03,-0.04 0.07,-0.08 0.1,-0.13 0.01,-0.02 0.01,-0.03 0.02,-0.05 0.02,-0.04 0.03,-0.08 0.05,-0.12 0,-0.01 0.01,-0.01 0.01,-0.02 0.03,-0.05 0.05,-0.1 0.07,-0.16 -0.02,0.04 -0.03,0.07 -0.05,0.11 0.02,-0.05 0.05,-0.1 0.07,-0.15 0,-0.02 0.01,-0.03 0.02,-0.04 -0.01,0.03 -0.03,0.07 -0.04,0.1 0.04,-0.08 0.06,-0.14 0.06,-0.23z"/>
    </g>
   </g>
  </g>
 </g>
</svg>
