<?xml version="1.0" encoding="UTF-8"?>
<!DOCTYPE svg PUBLIC "-//W3C//DTD SVG 1.1//EN" "http://www.w3.org/Graphics/SVG/1.1/DTD/svg11.dtd">
<!-- Creator: CorelDRAW 2021 (64-Bit) -->
<svg xmlns="http://www.w3.org/2000/svg" xml:space="preserve" width="1.1811in" height="1.1811in" version="1.1" style="shape-rendering:geometricPrecision; text-rendering:geometricPrecision; image-rendering:optimizeQuality; fill-rule:evenodd; clip-rule:evenodd"
viewBox="0 0 6621.27 6621.27"
 xmlns:xlink="http://www.w3.org/1999/xlink"
 xmlns:xodm="http://www.corel.com/coreldraw/odm/2003">
 <defs>
  <style type="text/css">
   <![CDATA[
    .fil0 {fill:none}
    .fil1 {fill:#FFCC29;fill-rule:nonzero}
    .fil11 {fill:#345254;fill-rule:nonzero}
    .fil7 {fill:#418280;fill-rule:nonzero}
    .fil9 {fill:#529597;fill-rule:nonzero}
    .fil10 {fill:#77B8BF;fill-rule:nonzero}
    .fil3 {fill:#7E4F1A;fill-rule:nonzero}
    .fil13 {fill:#97C8D4;fill-rule:nonzero}
    .fil15 {fill:#B3C362;fill-rule:nonzero}
    .fil4 {fill:#DF9E2F;fill-rule:nonzero}
    .fil8 {fill:#E2E279;fill-rule:nonzero}
    .fil14 {fill:#E8BCAC;fill-rule:nonzero}
    .fil2 {fill:#EDC32F;fill-rule:nonzero}
    .fil6 {fill:#F2DDD1;fill-rule:nonzero}
    .fil16 {fill:#F4F2B8;fill-rule:nonzero}
    .fil5 {fill:#FBE44F;fill-rule:nonzero}
    .fil12 {fill:white;fill-rule:nonzero}
   ]]>
  </style>
 </defs>
 <g id="Layer_x0020_1">
  <metadata id="CorelCorpID_0Corel-Layer"/>
  <g id="_2939256092624">
   <rect class="fil0" width="6621.27" height="6621.27"/>
   <g>
    <polygon class="fil1" points="5485.22,3310.64 5652.8,2939.73 5379.36,2638.42 5423.66,2233.93 5070.13,2032.42 4987.21,1634.04 4588.83,1551.14 4387.32,1197.61 3982.85,1241.91 3681.54,968.47 3310.66,1136.03 2939.76,968.47 2638.44,1241.91 2233.97,1197.61 2032.44,1551.14 1634.09,1634.06 1551.17,2032.44 1197.63,2233.97 1241.93,2638.42 968.49,2939.73 1136.08,3310.64 968.49,3681.52 1241.93,3982.83 1197.63,4387.32 1551.17,4588.83 1634.09,4987.19 2032.49,5070.11 2233.99,5423.64 2638.44,5379.34 2939.76,5652.78 3310.66,5485.19 3681.54,5652.78 3982.85,5379.34 4387.34,5423.64 4588.85,5070.08 4987.23,4987.19 5070.13,4588.81 5423.66,4387.28 5379.36,3982.83 5652.8,3681.52 "/>
    <g>
     <g>
      <g>
       <path class="fil2" d="M4607.68 1903.09c5.34,1.59 10.57,3.22 15.8,5.14 1.57,0.57 16.38,5.58 8.59,3.27 5.63,1.68 10.68,6.36 13.35,11.96 20.72,5.63 20.44,39.2 22.25,56.55 2.23,21.41 4.46,42.82 6.67,64.23 0.97,9.27 1.19,20.04 4.99,28.65 2.05,4.63 3.51,6.09 6.53,8.1 7.92,5.23 19.22,5.89 29.33,3.35 11.68,-2.91 24.34,-13.26 34.03,-24.72 11.19,-13.26 19.8,-28.93 28.18,-44.03 9.71,-17.52 18.8,-35.4 26.95,-53.7 8.08,-18.1 15.23,-36.62 25.27,-53.74 4.3,-7.37 13.4,-8.45 20.15,-5.23 11.83,-3.35 20.75,1.96 31.58,6.4 8.25,3.4 16.64,6.4 25.14,9.07 17.02,5.32 34.5,9.49 52.2,11.68 37.19,4.59 74.4,4.11 110.88,-4.97 14.1,-3.51 24.48,-7.86 25.78,-23.73 1.32,-16.24 -9.05,-30.13 -19.91,-41.05 -14.06,-14.15 -30.74,-25.8 -47.67,-36.24 -17.37,-10.7 -37.34,-18.12 -50.17,-34.45 -1.02,-1.28 -1.5,-2.98 -2.12,-4.59 -10.7,-4.92 -16.51,-19.51 -10.06,-30.77 14.24,-24.74 27.43,-48.14 35.11,-75.9 6.56,-23.73 11.61,-52.71 6.38,-77.12 -1.63,-7.64 -4.28,-15.85 -12.89,-17.35 -10.88,-1.83 -23.53,6.09 -32.75,10.73 -15.85,7.99 -31.67,16.02 -47.52,24.01 -15.32,7.75 -32.33,19.14 -49.39,21.87 -8.48,1.35 -15.78,-3.49 -18.8,-10.06 -2.6,1.3 -5.45,1.96 -8.43,0.99 -18.27,-6.03 -35.64,-19.69 -51.29,-30.63 -16.18,-11.34 -32.27,-22.73 -48.2,-34.41 -14.15,-10.37 -27.77,-21.98 -42.91,-30.9 -9.78,-5.76 -21.54,-10.93 -32.78,-6.18 -28.16,11.94 -25.82,53.43 -25.29,78.15 0.44,19.49 1.26,38.98 2.1,58.44 0.44,10.57 0.86,21.1 1.26,31.65 0.2,4.86 0.42,9.73 0.62,14.59 0.02,0.18 0.04,0.71 0.04,0.99 1.74,2.52 2.74,5.78 2.87,8.7 0.18,3.38 -3.02,12.71 -2.45,7.35 -1.43,13.57 -11.5,25.03 -25.96,24.68 -3.16,-0.09 -5.8,-0.93 -8.34,-1.9 -25.36,11.08 -50.54,23 -73.94,37.65 -13.6,8.52 -26.46,17.97 -38.56,28.52 -11.34,9.87 -24.56,20.55 -31.41,33.81 -0.84,1.68 -1.57,3.64 -2.16,6 0,0.07 -0.02,0.4 -0.02,0.51 0.33,0.15 0.46,0.24 0.9,0.46 2.78,1.3 4.08,1.81 7.9,3 18.1,5.72 36.42,10.84 54.6,16.27 18.56,5.54 37.15,11.06 55.71,16.6 9.29,2.78 18.58,5.54 27.85,8.3z"/>
      </g>
      <path class="fil3" d="M4597.02 1954.2c5.1,1.54 10.62,3.2 16.18,4.02 0.4,10.59 2.34,21.39 3.18,29.02l7.11 64.25c2.32,21.01 5.25,41.32 18.87,58.42 9.2,11.54 22.56,19.73 36.75,23.7 32.42,9.03 65.2,-2.03 89.67,-24.01 25.58,-22.95 41.29,-56.24 55.31,-86.98 10.29,-22.53 20.5,-46.26 27.13,-70.63 3.47,1.79 7.22,3.44 11.5,5.19 11.01,4.46 22.25,8.32 33.66,11.57 23.46,6.64 47.83,10.79 72.15,12.6 24.34,1.79 48.84,-0.31 72.97,-3.53 22.69,-3.02 48.82,-7.08 68.55,-19.38 45.36,-28.27 34.3,-88.46 3.93,-122.96 -16.44,-18.72 -38.14,-33.9 -59.17,-47.03 -14.96,-9.36 -30.19,-18.1 -46.7,-21.92 14.15,-22.31 23.88,-48.84 29.97,-73.96 6.25,-25.65 10.2,-52.77 9.03,-79.21 -1.17,-26.42 -10.04,-54.65 -36.99,-64.84 -26.26,-9.93 -53.17,5.47 -75.99,17.17 -14.1,7.24 -28.21,14.46 -42.31,21.7 -13.9,7.13 -30.08,13.57 -41.58,24.39 -12.85,-18.56 -33.75,-33.53 -50.85,-47.85 -17.77,-14.88 -35.73,-29.51 -53.99,-43.79 -29.66,-23.15 -64.29,-46.44 -102.81,-28.89 -37.94,17.28 -50.5,60.19 -52.55,98.44 -1.17,21.7 -1.24,43.52 -1.32,65.24 -0.07,19.58 -0.15,39.55 1.04,59.24 -29.11,6.36 -56.46,17.97 -82.5,33.61 -28.93,17.37 -59.19,39 -80.05,65.86 -21.67,27.94 -26.66,70.6 9.23,90.01 15.78,8.52 34.28,12.4 51.29,17.55l55.66 16.82c17.88,5.41 35.78,10.79 53.65,16.2zm-127.5 -92.28l0 0c-3.82,-1.19 -5.12,-1.7 -7.9,-3 -0.44,-0.22 -0.57,-0.31 -0.9,-0.46 0,-0.11 0.02,-0.44 0.02,-0.51 0.6,-2.36 1.32,-4.33 2.16,-6 6.84,-13.26 20.06,-23.95 31.41,-33.81 12.09,-10.55 24.96,-20 38.56,-28.52 23.4,-14.66 48.58,-26.57 73.94,-37.65 2.54,0.97 5.19,1.81 8.34,1.9 14.46,0.35 24.52,-11.1 25.96,-24.68 -0.57,5.36 2.63,-3.97 2.45,-7.35 -0.13,-2.91 -1.13,-6.18 -2.87,-8.7 0,-0.29 -0.02,-0.82 -0.04,-0.99 -0.2,-4.86 -0.42,-9.73 -0.62,-14.59 -0.4,-10.55 -0.82,-21.08 -1.26,-31.65 -0.84,-19.47 -1.66,-38.96 -2.1,-58.44 -0.53,-24.72 -2.87,-66.21 25.29,-78.15 11.23,-4.75 23,0.42 32.78,6.18 15.14,8.92 28.76,20.53 42.91,30.9 15.94,11.68 32.02,23.06 48.2,34.41 15.65,10.95 33.02,24.61 51.29,30.63 2.98,0.97 5.83,0.31 8.43,-0.99 3.02,6.58 10.33,11.41 18.8,10.06 17.06,-2.74 34.08,-14.13 49.39,-21.87 15.85,-7.99 31.67,-16.02 47.52,-24.01 9.23,-4.63 21.87,-12.56 32.75,-10.73 8.61,1.5 11.26,9.71 12.89,17.35 5.23,24.41 0.18,53.39 -6.38,77.12 -7.68,27.77 -20.88,51.16 -35.11,75.9 -6.44,11.26 -0.64,25.85 10.06,30.77 0.62,1.61 1.1,3.31 2.12,4.59 12.82,16.33 32.8,23.75 50.17,34.45 16.93,10.44 33.61,22.09 47.67,36.24 10.86,10.93 21.23,24.81 19.91,41.05 -1.3,15.87 -11.68,20.22 -25.78,23.73 -36.48,9.07 -73.69,9.56 -110.88,4.97 -17.7,-2.19 -35.18,-6.36 -52.2,-11.68 -8.5,-2.67 -16.88,-5.67 -25.14,-9.07 -10.84,-4.44 -19.75,-9.76 -31.58,-6.4 -6.75,-3.22 -15.85,-2.14 -20.15,5.23 -10.04,17.13 -17.19,35.64 -25.27,53.74 -8.14,18.3 -17.24,36.17 -26.95,53.7 -8.39,15.1 -16.99,30.77 -28.18,44.03 -9.69,11.45 -22.36,21.81 -34.03,24.72 -10.11,2.54 -21.41,1.88 -29.33,-3.35 -3.02,-2.01 -4.48,-3.47 -6.53,-8.1 -3.8,-8.61 -4.02,-19.38 -4.99,-28.65 -2.21,-21.41 -4.44,-42.82 -6.67,-64.23 -1.81,-17.35 -1.52,-50.92 -22.25,-56.55 -2.67,-5.61 -7.72,-10.29 -13.35,-11.96 7.79,2.32 -7.02,-2.69 -8.59,-3.27 -5.23,-1.92 -10.46,-3.55 -15.8,-5.14 -9.27,-2.76 -18.56,-5.52 -27.85,-8.3 -18.56,-5.54 -37.15,-11.06 -55.71,-16.6 -18.19,-5.43 -36.51,-10.55 -54.6,-16.27z"/>
      <g>
       <path class="fil4" d="M4712.54 2084.55c0.88,-0.18 1.79,0.02 2.65,-0.22 11.68,-2.91 24.34,-13.26 34.03,-24.72 11.19,-13.26 19.8,-28.93 28.18,-44.03 9.71,-17.52 18.8,-35.4 26.95,-53.7 8.08,-18.1 15.23,-36.62 25.27,-53.74 4.3,-7.37 13.4,-8.45 20.15,-5.23 5.45,-1.54 10.29,-1.15 14.96,0.09 -8.43,-6.18 -17.1,-11.92 -26.68,-16.11 -21.36,-9.36 -48.98,-9.71 -65.4,6.84 -8.28,8.34 -12.58,19.73 -16.46,30.81 -13.64,39.11 -24.68,79.1 -32.97,119.67 -2.78,13.62 -5.39,27.61 -10.68,40.35z"/>
       <path class="fil4" d="M4641.09 1729.19c-0.09,0.77 -0.46,1.43 -0.6,2.19 4.99,-1.74 9.98,-3.49 14.96,-5.23 14.06,-4.92 28.76,-10.26 38.62,-21.41 21.94,-24.76 9.89,-63.28 -3.22,-93.65 -11.32,-26.2 -22.64,-52.4 -33.95,-78.59 -22.49,14.68 -20.75,51.95 -20.26,74.97 0.44,19.49 1.26,38.98 2.1,58.44 0.44,10.57 0.86,21.1 1.26,31.65 0.2,4.86 0.42,9.73 0.62,14.59 0.02,0.18 0.04,0.71 0.04,0.99 1.74,2.52 2.74,5.78 2.87,8.7 0.18,3.38 -3.02,12.71 -2.45,7.35z"/>
       <path class="fil4" d="M4579.82 1894.79c9.29,2.78 18.58,5.54 27.85,8.3 5.34,1.59 10.57,3.22 15.8,5.14 1.57,0.57 16.38,5.58 8.59,3.27 5.63,1.68 10.68,6.36 13.35,11.96 3.38,0.95 6.05,2.78 8.39,5.01 1.32,-13.75 2.27,-27.5 2.43,-41.32 0.11,-8.89 -0.15,-18.21 -4.46,-26 -10.51,-19.03 -37.41,-18.78 -59.02,-16.46 -43.21,4.61 -86.63,7.26 -130.09,7.92 -0.75,1.54 -1.41,3.24 -1.94,5.34 0,0.07 -0.02,0.4 -0.02,0.51 0.33,0.15 0.46,0.24 0.9,0.46 2.78,1.3 4.08,1.81 7.9,3 18.1,5.72 36.42,10.84 54.6,16.27 18.56,5.54 37.15,11.06 55.71,16.6z"/>
       <path class="fil4" d="M4864.36 1640.51c-3.86,0.62 -7.42,-0.18 -10.48,-1.7 6.27,13 14.68,24.87 25.91,34.36 5.12,4.35 11.15,8.32 17.88,8.36 7.61,0.02 14.21,-4.97 20.04,-9.84 30.13,-25.25 56.74,-54.49 79.79,-86.34 -1.08,-0.55 -2.1,-1.21 -3.47,-1.46 -10.88,-1.83 -23.53,6.09 -32.75,10.73 -15.85,7.99 -31.67,16.02 -47.52,24.01 -15.32,7.75 -32.33,19.14 -49.39,21.87z"/>
       <path class="fil4" d="M4977.61 1789.62c-1.02,-1.28 -1.5,-2.98 -2.12,-4.59 -5.08,-2.34 -8.94,-6.93 -11.01,-12.25 -5.74,7.22 -11.06,14.74 -15.05,23.09 -10.51,21.92 -11.39,50.56 5.08,68.44 19.31,20.92 52.07,18.89 80.54,19.89 20.15,0.71 40.17,4.08 59.64,9.42 -1.88,-12.89 -10.17,-24.19 -19.22,-33.3 -14.06,-14.15 -30.74,-25.8 -47.67,-36.24 -17.37,-10.7 -37.34,-18.12 -50.17,-34.45z"/>
      </g>
      <path class="fil5" d="M4759.59 1613.12c-0.77,-2.32 -1.88,-4.55 -2.89,-6.75 -1.81,-3.88 -5.39,-6.67 -8.89,-8.89 -2.1,-1.3 -4.13,-2.74 -6.09,-4.24 1.39,1.06 2.78,2.12 4.15,3.2 -2.25,-1.74 -4.55,-3.44 -6.84,-5.14 -2.01,-1.61 -3.99,-3.24 -5.87,-5.03 -0.97,-0.93 -1.92,-1.9 -2.85,-2.87 -2.07,-2.16 -4.04,-3.84 -6.53,-5.74 1.24,0.97 2.49,1.92 3.73,2.87 -7.06,-5.52 -16.73,-16.4 -26.68,-10.42 -8.25,4.99 -7.55,16.64 -5.21,24.65 1.06,3.6 2.27,7.24 4.3,10.42 1.77,2.76 3.73,5.39 5.74,7.97 3.99,5.19 8.08,9.89 13.26,13.9 2.58,1.99 5.16,3.93 7.9,5.69 6.07,3.86 13.26,4.37 20.11,2.67 9.14,-2.25 15.71,-13.15 12.67,-22.29z"/>
      <path class="fil5" d="M4792.34 1652.4c-0.4,-3.53 -0.66,-6.38 -2.52,-9.53 -1.26,-2.21 -2.69,-4.59 -4.48,-6.36 -0.88,-0.9 -1.83,-1.72 -2.76,-2.56 -2.34,-2.16 -4.88,-4.22 -8.06,-4.99 -1.7,-0.42 -3.51,-0.57 -5.27,-0.71l-3.99 0.53c-1.96,0.46 -3.69,1.37 -5.14,2.71 -1.13,0.66 -2.03,1.57 -2.69,2.69 -1.35,1.48 -2.25,3.18 -2.71,5.14 -0.04,0.2 -0.11,0.4 -0.15,0.6 -0.29,1.3 -0.62,3.38 -0.6,4.7 0.2,1.43 0.38,2.89 0.57,4.33l1.63 3.88c0.13,0.31 0.29,0.6 0.42,0.9 0.53,1.15 1.02,2.34 1.59,3.47 0.66,1.3 1.96,2.71 2.89,3.84 0.22,0.24 0.44,0.51 0.66,0.75 0.38,0.44 0.77,0.9 1.17,1.35 0.53,0.66 1.19,1.21 1.99,1.61 0.6,0.51 1.21,0.99 1.85,1.46 0.26,0.15 0.53,0.26 0.84,0.4 0.55,0.26 1.1,0.51 1.68,0.75 2.41,1.41 5.01,2.1 7.79,2.1 2.8,0 5.41,-0.68 7.81,-2.1 2.32,-1.37 4.17,-3.22 5.54,-5.54 1.39,-2.41 2.1,-5.01 2.1,-7.79l-0.15 -1.63z"/>
      <path class="fil5" d="M4590.44 1796.9c0.15,-2.96 -2.19,-5.5 -4.83,-6.36 -0.66,-0.2 -3.49,-0.6 -1.85,-0.33 1.24,0.22 -0.35,-0.04 -0.49,-0.07 1.35,0.77 2.69,1.57 4.02,2.34 -2.47,-2.34 -4.97,-3.38 -8.19,-3.88 -3.97,-0.6 -4.3,-0.73 -8.32,-0.02 -0.9,0.15 -1.83,0.33 -2.76,0.53 -3.31,0.71 -6.53,2.32 -9.78,3.35 -4.35,1.41 -8.87,3.58 -12.65,6.22 -2.94,2.03 -5.92,3.93 -9.05,5.63 -5.05,2.74 -8.03,9.8 -6.22,15.32 1.77,5.47 7,10.37 13.09,9.98 9.49,-0.6 19.6,-0.93 27.99,-6 3.91,-2.36 8.36,-4.9 11.57,-8.14 4.02,-4.06 7.46,-10.02 7.02,-15.98 0.18,-0.86 0.42,-1.68 0.46,-2.58z"/>
      <path class="fil5" d="M4722.86 1942.84c-0.07,-2.36 0,-4.7 0,-7.04 -0.02,-3.82 -0.99,-7.64 -1.5,-11.41 0.2,1.46 0.38,2.91 0.57,4.37 -0.24,-1.92 -0.35,-3.93 -0.77,-5.83 -0.4,-1.88 -1.32,-3.58 -2.19,-5.3 -0.57,-1.17 -1.1,-2.36 -1.61,-3.58 0.31,0.75 0.64,1.5 0.95,2.25 -1.66,-3.93 -3.88,-7.04 -8.23,-8.23 -4.04,-1.1 -8.54,0.04 -11.5,3.02 -1.06,1.08 -2.05,2.16 -3.09,3.27 -2.74,2.89 -4.13,5.61 -5.61,9.29 -0.68,1.68 -1.32,3.38 -1.92,5.1 -0.99,2.87 -1.13,5.98 -1.43,8.98 -0.4,4.06 -0.84,8.21 -0.29,12.27 0.31,2.41 0.75,4.61 1.46,6.91 1.68,5.41 4.33,8.96 9.16,12.12 2.94,1.92 6.73,2.34 10.09,1.88 3.6,-0.49 6.36,-1.92 9.09,-4.35 3.69,-3.24 5.12,-7.61 6.07,-12.23 0.51,-2.49 0.99,-5.03 0.93,-7.57 -0.04,-1.32 -0.13,-2.63 -0.18,-3.93z"/>
      <g>
       <path class="fil5" d="M4925.34 1877.46c0.62,0.07 1.24,0.15 1.85,0.24 0.29,-0.04 0.6,-0.09 0.88,-0.11 -0.93,0.02 -1.83,-0.02 -2.74,-0.13z"/>
       <path class="fil5" d="M4956.6 1884.79c-2.94,-2.91 -6.44,-4.17 -10.37,-4.72 0,0 0,0 0,0 -1.66,-0.29 -3.2,-0.75 -4.79,-1.3 -3.4,-1.17 -6.93,-0.44 -10.4,-0.86 0.77,0.11 1.57,0.2 2.36,0.31 -3.4,-0.62 -6.58,-0.88 -10,0 1.17,-0.15 2.34,-0.31 3.51,-0.46 -5.78,-0.97 -11.48,0.66 -15.14,5.43 -1.7,2.19 -2.65,4.48 -3,7.22 -0.38,1.37 -0.38,2.74 0,4.06 0.09,2.05 0.68,3.93 1.81,5.69 2.16,4.83 5.85,9.16 10.46,11.74 6.42,3.62 13.77,5.94 21.12,3.82 2.58,-0.75 5.16,-1.9 7.55,-3 2.32,-1.1 4.72,-2.63 6.42,-4.44 3.09,-3.31 5.16,-7.42 5.21,-12.01 0.04,-4.19 -1.79,-8.54 -4.75,-11.48z"/>
       <path class="fil5" d="M4927.84 1877.7c-0.18,-0.04 -0.33,0.04 -0.49,0.02 0.77,0.09 1.52,0.2 2.3,0.31 -0.62,-0.09 -1.21,-0.2 -1.81,-0.33z"/>
       <path class="fil5" d="M4927.2 1877.7c-0.09,0 -0.2,0.02 -0.29,0.04 0.15,0.02 0.29,-0.04 0.44,-0.02 -0.07,-0.02 -0.11,-0.02 -0.15,-0.02z"/>
      </g>
      <path class="fil5" d="M4990.47 1670.22c0,-3.6 -1.17,-7.28 -3.84,-9.8 -0.13,-0.13 -0.26,-0.24 -0.4,-0.35 -2.56,-2.23 -2.34,-2.05 -4.81,-3.09 -0.6,-0.42 -1.26,-0.66 -1.96,-0.79 -1.32,-0.18 -2.65,-0.33 -3.97,-0.51 -0.82,-0.09 -1.63,-0.09 -2.45,-0.07 -1.39,0.11 -3.62,0.26 -4.94,0.71 -0.18,0.04 -0.35,0.11 -0.51,0.18 -1.74,0.66 -3.47,1.41 -5.16,2.16 -0.26,0.13 -0.51,0.26 -0.75,0.4 -1.24,0.73 -2.78,2.07 -3.86,3 -0.4,0.35 -0.82,0.73 -1.19,1.1 -1.72,1.72 -3.22,3.86 -4.63,5.74 -0.29,0.4 -0.6,0.82 -0.86,1.24 -0.44,0.73 -0.79,1.52 -1.02,2.38 -0.46,0.79 -0.79,1.66 -1.04,2.54 -0.07,0.24 -0.13,0.49 -0.18,0.73 -0.31,1.26 -0.44,2.49 -0.62,3.8 -0.29,0.9 -0.4,1.83 -0.29,2.74 0.2,1.66 0.42,3.29 0.64,4.94 0.04,0.2 0.09,0.42 0.13,0.64 0.2,0.93 0.49,1.83 0.84,2.71 0.57,1.35 1.13,2.69 1.7,4.04l2.63 3.4 3.42 2.65c1.94,1.21 4.02,1.9 6.27,1.99 1.5,0.4 2.98,0.4 4.48,0 1.52,0 2.94,-0.38 4.26,-1.15 1.43,-0.4 2.67,-1.13 3.71,-2.16 1.83,-1.19 3.29,-2.76 4.35,-4.72 0.44,-0.82 0.95,-1.57 1.5,-2.3 -0.95,1.21 -1.88,2.43 -2.83,3.66 1.24,-1.59 2.74,-3.07 3.66,-4.86 0.29,-0.57 0.55,-1.15 0.86,-1.72 0.84,-1.52 1.26,-3.05 1.79,-4.57 0.11,-0.24 0.22,-0.49 0.35,-0.73 1.06,-1.85 1.77,-3.88 2.58,-5.87 -0.6,1.39 -1.17,2.78 -1.77,4.17 0.84,-1.92 1.81,-3.66 2.45,-5.69 0.18,-0.55 0.35,-1.1 0.57,-1.63 -0.51,1.24 -1.04,2.45 -1.54,3.69 1.32,-3.07 2.41,-5.14 2.43,-8.59z"/>
     </g>
     <g>
      <g>
       <path class="fil2" d="M1202.4 3038.02c4.15,3.75 8.14,7.46 12.05,11.45 1.17,1.19 12.36,12.12 6.33,6.64 4.35,3.95 6.89,10.35 6.89,16.58 16.29,13.99 1.57,44.16 -4.28,60.61 -7.22,20.26 -14.43,40.54 -21.65,60.83 -3.13,8.78 -7.55,18.58 -7.86,27.99 -0.13,5.08 0.53,7.02 2.43,10.13 4.9,8.12 14.81,13.6 25.03,15.67 11.79,2.41 27.68,-1.5 41.34,-7.66 15.82,-7.13 30.35,-17.57 44.43,-27.59 16.29,-11.61 32.2,-23.86 47.43,-36.84 15.1,-12.85 29.53,-26.46 45.97,-37.61 7.06,-4.79 15.74,-1.88 20.42,3.95 12.14,2.07 17.9,10.7 25.78,19.4 5.96,6.6 12.25,12.93 18.76,19 13.04,12.14 27.04,23.44 42.09,33.02 31.58,20.17 65.37,35.75 102.19,43.3 14.24,2.91 25.47,3.44 33.48,-10.31 8.19,-14.08 4.81,-31.1 -0.26,-45.62 -6.6,-18.83 -16.64,-36.53 -27.41,-53.24 -11.06,-17.15 -25.89,-32.44 -30.44,-52.73 -0.35,-1.57 -0.07,-3.33 0.07,-5.03 -7.53,-9.07 -6.49,-24.74 4.17,-32.09 23.51,-16.22 45.49,-31.65 64.4,-53.39 16.13,-18.58 33.17,-42.55 38.98,-66.83 1.83,-7.61 2.96,-16.18 -4.17,-21.21 -9,-6.36 -23.84,-4.66 -34.17,-4.44 -17.75,0.38 -35.49,0.79 -53.24,1.19 -17.17,0.4 -37.43,3.33 -53.99,-1.57 -8.25,-2.43 -12.73,-9.91 -12.65,-17.15 -2.91,0.04 -5.76,-0.6 -8.03,-2.76 -13.9,-13.31 -23.68,-33.11 -33.08,-49.75 -9.71,-17.19 -19.33,-34.41 -28.67,-51.8 -8.3,-15.47 -15.58,-31.8 -25.43,-46.39 -6.33,-9.38 -14.72,-19.14 -26.9,-19.67 -30.55,-1.37 -46.33,37.1 -56.5,59.64 -7.99,17.77 -15.65,35.71 -23.28,53.63 -4.15,9.71 -8.32,19.4 -12.49,29.11 -1.92,4.46 -3.84,8.94 -5.74,13.42 -0.04,0.15 -0.26,0.64 -0.38,0.93 0.49,3.02 -0.02,6.38 -1.17,9.07 -1.3,3.13 -8.19,10.17 -5.36,5.56 -7.15,11.65 -21.17,17.63 -34.06,11.1 -2.83,-1.43 -4.83,-3.35 -6.71,-5.32 -27.68,-0.9 -55.53,-1.02 -82.94,2.12 -15.96,1.83 -31.63,4.83 -47.1,9.14 -14.5,4.02 -30.99,7.95 -42.91,16.99 -1.48,1.13 -2.98,2.6 -4.55,4.48 0,0.04 -0.18,0.35 -0.24,0.44 0.24,0.29 0.33,0.42 0.64,0.79 1.94,2.38 2.91,3.4 5.83,6.11 13.88,12.98 28.18,25.49 42.27,38.2 14.37,13 28.76,26 43.13,39 7.2,6.49 14.37,12.98 21.56,19.47z"/>
      </g>
      <path class="fil3" d="M1170.75 3079.55c3.93,3.6 8.21,7.48 12.87,10.62 -4.19,9.73 -7.11,20.28 -9.64,27.57l-21.25 61.03c-6.95,19.97 -13.07,39.55 -8.14,60.85 3.31,14.39 11.85,27.52 22.95,37.21 25.36,22.12 59.7,26.26 91.26,16.99 32.97,-9.71 61.49,-32.97 87.4,-54.67 18.98,-15.91 38.43,-32.93 54.91,-52.07 2.36,3.11 5.03,6.22 8.12,9.64 8.01,8.76 16.49,17.08 25.4,24.92 18.3,16.11 38.51,30.35 59.68,42.46 21.19,12.09 44.21,20.77 67.36,28.25 21.78,7.04 47.1,14.63 70.21,12.05 53.1,-5.96 69.08,-65.04 56.55,-109.27 -6.8,-23.97 -19.84,-47.03 -33.15,-67.93 -9.47,-14.88 -19.44,-29.33 -32.71,-39.88 22.38,-14.06 42.6,-33.79 58.93,-53.83 16.66,-20.46 31.94,-43.24 42.27,-67.6 10.33,-24.34 14.48,-53.65 -5.43,-74.45 -19.44,-20.28 -50.37,-17.99 -75.99,-17.26 -15.85,0.44 -31.69,0.88 -47.52,1.35 -15.65,0.44 -33,-0.71 -48.05,4.11 -3.6,-22.29 -16.02,-44.8 -25.27,-65.09 -9.62,-21.1 -19.51,-42.02 -29.86,-62.77 -16.77,-33.68 -37.98,-69.61 -80.32,-70.38 -41.69,-0.75 -71.49,32.58 -89.83,66.19 -10.4,19.07 -19.89,38.76 -29.31,58.33 -8.48,17.61 -17.17,35.6 -24.59,53.9 -29.02,-6.82 -58.69,-8.12 -88.92,-5.23 -33.61,3.22 -70.23,9.71 -100.62,24.96 -31.61,15.87 -54.47,52.24 -30.46,85.19 10.57,14.48 25.58,25.96 38.73,37.94l42.99 39.13c13.79,12.58 27.61,25.18 41.43,37.74zm-75.31 -138.21l0 0c-2.91,-2.71 -3.88,-3.73 -5.83,-6.11 -0.31,-0.38 -0.4,-0.51 -0.64,-0.79 0.07,-0.09 0.24,-0.4 0.24,-0.44 1.57,-1.88 3.07,-3.35 4.55,-4.48 11.92,-9.05 28.41,-12.98 42.91,-16.99 15.47,-4.3 31.14,-7.31 47.1,-9.14 27.41,-3.13 55.27,-3.02 82.94,-2.12 1.88,1.96 3.88,3.88 6.71,5.32 12.89,6.53 26.9,0.55 34.06,-11.1 -2.83,4.61 4.06,-2.43 5.36,-5.56 1.15,-2.69 1.66,-6.05 1.17,-9.07 0.11,-0.29 0.33,-0.77 0.38,-0.93 1.9,-4.48 3.82,-8.96 5.74,-13.42 4.17,-9.71 8.34,-19.4 12.49,-29.11 7.64,-17.92 15.3,-35.87 23.28,-53.63 10.17,-22.53 25.96,-61 56.5,-59.64 12.18,0.53 20.57,10.29 26.9,19.67 9.84,14.59 17.13,30.92 25.43,46.39 9.34,17.39 18.96,34.61 28.67,51.8 9.4,16.64 19.18,36.44 33.08,49.75 2.27,2.16 5.12,2.8 8.03,2.76 -0.09,7.24 4.39,14.72 12.65,17.15 16.55,4.9 36.81,1.96 53.99,1.57 17.75,-0.4 35.49,-0.82 53.24,-1.19 10.33,-0.22 25.16,-1.92 34.17,4.44 7.13,5.03 6,13.6 4.17,21.21 -5.8,24.28 -22.84,48.25 -38.98,66.83 -18.91,21.74 -40.9,37.17 -64.4,53.39 -10.66,7.35 -11.7,23.02 -4.17,32.09 -0.13,1.7 -0.42,3.47 -0.07,5.03 4.55,20.28 19.38,35.58 30.44,52.73 10.77,16.71 20.81,34.41 27.41,53.24 5.08,14.52 8.45,31.54 0.26,45.62 -8.01,13.75 -19.25,13.22 -33.48,10.31 -36.81,-7.55 -70.6,-23.13 -102.19,-43.3 -15.05,-9.58 -29.05,-20.88 -42.09,-33.02 -6.51,-6.07 -12.8,-12.4 -18.76,-19 -7.88,-8.7 -13.64,-17.33 -25.78,-19.4 -4.68,-5.83 -13.35,-8.74 -20.42,-3.95 -16.44,11.15 -30.88,24.76 -45.97,37.61 -15.23,12.98 -31.14,25.23 -47.43,36.84 -14.08,10.02 -28.6,20.46 -44.43,27.59 -13.66,6.16 -29.55,10.06 -41.34,7.66 -10.22,-2.07 -20.13,-7.55 -25.03,-15.67 -1.9,-3.11 -2.56,-5.05 -2.43,-10.13 0.31,-9.4 4.72,-19.2 7.86,-27.99 7.22,-20.28 14.43,-40.57 21.65,-60.83 5.85,-16.44 20.57,-46.61 4.28,-60.61 0,-6.22 -2.54,-12.62 -6.89,-16.58 6.03,5.47 -5.16,-5.45 -6.33,-6.64 -3.91,-3.99 -7.9,-7.7 -12.05,-11.45 -7.2,-6.49 -14.37,-12.98 -21.56,-19.47 -14.37,-13 -28.76,-26 -43.13,-39 -14.08,-12.71 -28.38,-25.23 -42.27,-38.2z"/>
      <g>
       <path class="fil4" d="M1218.84 3246.96c0.86,0.22 1.61,0.77 2.49,0.95 11.79,2.41 27.68,-1.5 41.34,-7.66 15.82,-7.13 30.35,-17.57 44.43,-27.59 16.29,-11.61 32.2,-23.86 47.43,-36.84 15.1,-12.85 29.53,-26.46 45.97,-37.61 7.06,-4.79 15.74,-1.88 20.42,3.95 5.61,0.97 9.8,3.4 13.51,6.53 -4.94,-9.23 -10.33,-18.14 -17.17,-26.04 -15.23,-17.63 -39.99,-29.86 -61.95,-22 -11.06,3.97 -19.86,12.38 -28.12,20.72 -29.18,29.4 -56.37,60.76 -81.33,93.78 -8.39,11.1 -16.73,22.6 -27.01,31.8z"/>
       <path class="fil4" d="M1307.48 2895.48c-0.4,0.66 -1.04,1.1 -1.5,1.72 5.27,0.57 10.53,1.15 15.78,1.74 14.79,1.61 30.37,3.11 44.08,-2.69 30.46,-12.89 36.2,-52.84 37.43,-85.9 1.08,-28.52 2.16,-57.03 3.22,-85.55 -26.62,3.55 -41.12,37.94 -50.59,58.95 -7.99,17.77 -15.65,35.71 -23.28,53.63 -4.15,9.71 -8.32,19.4 -12.49,29.11 -1.92,4.46 -3.84,8.94 -5.74,13.42 -0.04,0.15 -0.26,0.64 -0.38,0.93 0.49,3.02 -0.02,6.38 -1.17,9.07 -1.3,3.13 -8.19,10.17 -5.36,5.56z"/>
       <path class="fil4" d="M1180.84 3018.55c7.2,6.49 14.37,12.98 21.56,19.47 4.15,3.75 8.14,7.46 12.05,11.45 1.17,1.19 12.36,12.12 6.33,6.64 4.35,3.95 6.89,10.35 6.89,16.58 2.65,2.3 4.26,5.1 5.43,8.12 7.11,-11.83 13.88,-23.84 19.97,-36.24 3.93,-7.99 7.72,-16.51 7.2,-25.38 -1.3,-21.7 -25.69,-33.06 -46.19,-40.3 -40.96,-14.46 -81.29,-30.77 -120.79,-48.89 -1.32,1.08 -2.67,2.32 -4.06,3.99 0,0.04 -0.18,0.35 -0.24,0.44 0.24,0.29 0.33,0.42 0.64,0.79 1.94,2.38 2.91,3.4 5.83,6.11 13.88,12.98 28.18,25.49 42.27,38.2 14.37,13 28.76,26 43.13,39z"/>
       <path class="fil4" d="M1547.17 2911.64c-3.75,-1.1 -6.62,-3.33 -8.74,-6.05 0.04,14.46 2.54,28.78 8.59,42.18 2.74,6.14 6.47,12.34 12.54,15.25 6.84,3.31 14.96,1.66 22.31,-0.24 38.05,-9.78 74.69,-24.72 109.21,-43.52 -0.75,-0.97 -1.37,-2.01 -2.52,-2.8 -9,-6.36 -23.84,-4.66 -34.17,-4.44 -17.75,0.38 -35.49,0.79 -53.24,1.19 -17.17,0.4 -37.43,3.33 -53.99,-1.57z"/>
       <path class="fil4" d="M1585.11 3095c-0.35,-1.57 -0.07,-3.33 0.07,-5.03 -3.58,-4.33 -5.08,-10.13 -4.66,-15.8 -8.28,4.04 -16.31,8.54 -23.53,14.35 -18.91,15.25 -32.07,40.72 -24.9,63.94 8.39,27.21 38.84,39.48 64.09,52.64 17.9,9.34 34.5,21.01 49.77,34.21 3.86,-12.45 1.24,-26.22 -3,-38.34 -6.6,-18.83 -16.64,-36.53 -27.41,-53.24 -11.06,-17.15 -25.89,-32.44 -30.44,-52.73z"/>
      </g>
      <path class="fil5" d="M1464.4 2841.81c0.31,-2.43 0.29,-4.9 0.31,-7.35 0.04,-4.28 -1.99,-8.32 -4.19,-11.85 -1.32,-2.1 -2.54,-4.24 -3.66,-6.44 0.79,1.54 1.57,3.11 2.36,4.68 -1.28,-2.56 -2.63,-5.08 -3.95,-7.59 -1.13,-2.32 -2.21,-4.66 -3.13,-7.08 -0.49,-1.24 -0.93,-2.52 -1.35,-3.8 -0.93,-2.87 -2.01,-5.21 -3.42,-7.99 0.73,1.39 1.41,2.8 2.12,4.19 -3.99,-8.03 -8.01,-22.03 -19.55,-20.9 -9.62,0.93 -13.99,11.76 -15.34,20 -0.6,3.71 -1.06,7.5 -0.62,11.23 0.4,3.27 1.06,6.49 1.74,9.69 1.39,6.4 3.05,12.4 6,18.27 1.46,2.89 2.96,5.76 4.66,8.52 3.8,6.11 10.09,9.67 16.99,11.08 9.23,1.9 19.86,-5.1 21.03,-14.66z"/>
      <path class="fil5" d="M1477.03 2891.38c1.19,-3.38 2.16,-6.05 1.88,-9.69 -0.2,-2.54 -0.46,-5.32 -1.32,-7.68 -0.42,-1.19 -0.93,-2.34 -1.39,-3.51 -1.19,-2.96 -2.58,-5.87 -5.12,-7.97 -1.35,-1.08 -2.91,-2.03 -4.44,-2.89l-3.86 -1.26c-1.96,-0.42 -3.91,-0.33 -5.78,0.22 -1.32,0.13 -2.52,0.55 -3.62,1.3 -1.83,0.73 -3.38,1.88 -4.63,3.44 -0.15,0.18 -0.29,0.33 -0.4,0.51 -0.84,1.04 -2.03,2.76 -2.58,3.97 -0.44,1.37 -0.9,2.76 -1.35,4.15l-0.18 4.19c-0.02,0.35 -0.02,0.68 -0.02,1.02 -0.02,1.26 -0.09,2.54 -0.07,3.8 0.04,1.46 0.6,3.31 0.95,4.72 0.09,0.31 0.18,0.64 0.26,0.95 0.18,0.57 0.31,1.15 0.49,1.72 0.2,0.84 0.57,1.61 1.08,2.32 0.33,0.73 0.68,1.41 1.08,2.12 0.18,0.24 0.35,0.46 0.57,0.71 0.38,0.46 0.79,0.95 1.19,1.41 1.57,2.3 3.6,4.04 6.11,5.25 2.54,1.21 5.19,1.7 7.95,1.46 2.69,-0.24 5.16,-1.1 7.39,-2.6 2.3,-1.57 4.06,-3.62 5.27,-6.14l0.53 -1.52z"/>
      <path class="fil5" d="M1232.59 2934.77c1.41,-2.6 0.4,-5.89 -1.63,-7.81 -0.51,-0.46 -2.87,-2.05 -1.54,-1.08 1.04,0.71 -0.26,-0.2 -0.38,-0.29 0.86,1.28 1.74,2.58 2.6,3.84 -1.21,-3.18 -3.05,-5.19 -5.72,-7.02 -3.31,-2.25 -3.58,-2.52 -7.5,-3.6 -0.88,-0.26 -1.81,-0.51 -2.71,-0.73 -3.29,-0.79 -6.89,-0.73 -10.26,-1.19 -4.52,-0.6 -9.56,-0.6 -14.1,0.18 -3.53,0.57 -7.02,0.99 -10.57,1.19 -5.76,0.29 -11.48,5.36 -12.25,11.15 -0.75,5.67 1.85,12.36 7.53,14.63 8.83,3.55 18.1,7.61 27.83,6.64 4.55,-0.46 9.67,-0.84 13.97,-2.38 5.36,-1.92 11.06,-5.83 13.2,-11.39 0.53,-0.71 1.1,-1.35 1.54,-2.14z"/>
      <path class="fil5" d="M1289.23 3123.52c0.95,-2.14 2.01,-4.24 3.02,-6.36 1.63,-3.44 2.38,-7.31 3.55,-10.95 -0.44,1.41 -0.9,2.8 -1.35,4.22 0.6,-1.85 1.35,-3.71 1.81,-5.58 0.44,-1.88 0.33,-3.82 0.31,-5.74 -0.02,-1.3 0.02,-2.63 0.07,-3.93 -0.02,0.82 -0.07,1.63 -0.11,2.45 0.22,-4.26 -0.46,-8.03 -3.86,-10.99 -3.18,-2.74 -7.75,-3.62 -11.7,-2.21 -1.39,0.51 -2.78,1.06 -4.19,1.61 -3.71,1.43 -6.14,3.29 -9.05,5.96 -1.35,1.24 -2.67,2.47 -3.93,3.77 -2.14,2.16 -3.6,4.92 -5.16,7.5 -2.12,3.51 -4.3,7.04 -5.56,10.95 -0.73,2.3 -1.3,4.48 -1.66,6.86 -0.82,5.61 0.04,9.93 3.05,14.88 1.83,3 5.08,5.01 8.3,6.05 3.47,1.1 6.56,0.99 10.09,-0.02 4.72,-1.35 7.9,-4.66 10.73,-8.41 1.54,-2.03 3.07,-4.13 4.11,-6.44 0.53,-1.19 1.02,-2.41 1.54,-3.62z"/>
      <g>
       <path class="fil5" d="M1500.12 3151.77c0.51,0.33 1.04,0.68 1.57,1.02 0.29,0.09 0.55,0.18 0.84,0.26 -0.84,-0.35 -1.63,-0.79 -2.41,-1.28z"/>
       <path class="fil5" d="M1525.14 3171.85c-1.39,-3.91 -3.99,-6.56 -7.31,-8.74 -0.02,0 -0.02,0 -0.02,0 -1.35,-0.97 -2.56,-2.05 -3.75,-3.24 -2.56,-2.54 -6.05,-3.38 -9,-5.25 0.66,0.44 1.32,0.86 1.99,1.3 -2.78,-2.01 -5.54,-3.64 -9,-4.3 1.1,0.35 2.23,0.71 3.35,1.08 -4.79,-3.35 -10.64,-4.33 -16,-1.61 -2.47,1.24 -4.3,2.89 -5.83,5.23 -0.93,1.06 -1.5,2.27 -1.74,3.64 -0.79,1.88 -1.08,3.86 -0.82,5.92 -0.13,5.3 1.32,10.81 4.37,15.12 4.26,6.03 9.89,11.28 17.44,12.54 2.65,0.44 5.47,0.53 8.1,0.53 2.56,0.02 5.39,-0.33 7.7,-1.24 4.24,-1.63 7.86,-4.46 9.89,-8.59 1.83,-3.75 2.05,-8.48 0.64,-12.38z"/>
       <path class="fil5" d="M1502.26 3153.05c-0.13,-0.09 -0.31,-0.09 -0.44,-0.18 0.64,0.42 1.28,0.84 1.92,1.26 -0.51,-0.33 -0.99,-0.71 -1.48,-1.08z"/>
       <path class="fil5" d="M1501.68 3152.78c-0.11,-0.04 -0.2,-0.07 -0.29,-0.09 0.13,0.09 0.29,0.09 0.42,0.18 -0.07,-0.04 -0.09,-0.07 -0.13,-0.09z"/>
      </g>
      <path class="fil5" d="M1648.17 2992.79c1.57,-3.24 2.1,-7.06 0.75,-10.51 -0.04,-0.15 -0.13,-0.31 -0.2,-0.46 -1.35,-3.13 -1.21,-2.87 -3,-4.86 -0.38,-0.64 -0.86,-1.17 -1.43,-1.57 -1.13,-0.73 -2.25,-1.46 -3.35,-2.19 -0.71,-0.42 -1.43,-0.79 -2.19,-1.1 -1.3,-0.51 -3.4,-1.32 -4.77,-1.5 -0.18,-0.02 -0.38,-0.04 -0.53,-0.07 -1.88,-0.15 -3.75,-0.22 -5.61,-0.26 -0.29,0 -0.57,0.02 -0.86,0.04 -1.41,0.11 -3.38,0.66 -4.77,1.04 -0.51,0.13 -1.04,0.29 -1.54,0.49 -2.3,0.82 -4.59,2.1 -6.67,3.18 -0.44,0.24 -0.88,0.49 -1.3,0.75 -0.73,0.46 -1.39,1.04 -1.94,1.7 -0.77,0.53 -1.43,1.15 -2.03,1.85 -0.18,0.18 -0.33,0.38 -0.49,0.57 -0.79,0.99 -1.46,2.07 -2.16,3.16 -0.66,0.71 -1.17,1.48 -1.48,2.36 -0.51,1.57 -1.02,3.16 -1.52,4.72 -0.04,0.22 -0.11,0.42 -0.15,0.64 -0.22,0.93 -0.35,1.85 -0.42,2.83 -0.07,1.46 -0.13,2.89 -0.2,4.35l0.9 4.24 1.94 3.84c1.21,1.94 2.8,3.44 4.79,4.5 1.17,0.99 2.52,1.66 4.04,1.92 1.37,0.66 2.83,0.93 4.35,0.79 1.46,0.26 2.89,0.15 4.28,-0.35 2.19,-0.29 4.15,-1.08 5.96,-2.38 0.75,-0.53 1.54,-1.02 2.34,-1.43 -1.37,0.68 -2.74,1.39 -4.13,2.1 1.81,-0.9 3.77,-1.57 5.39,-2.8 0.51,-0.4 0.99,-0.79 1.52,-1.17 1.41,-1.04 2.47,-2.21 3.58,-3.38 0.22,-0.15 0.42,-0.33 0.64,-0.49 1.77,-1.21 3.27,-2.76 4.88,-4.19 -1.15,0.99 -2.25,1.99 -3.4,3 1.57,-1.37 3.2,-2.52 4.66,-4.06 0.4,-0.44 0.79,-0.86 1.24,-1.24 -0.99,0.88 -2.01,1.77 -3,2.65 2.54,-2.21 4.39,-3.6 5.89,-6.71z"/>
     </g>
     <g>
      <g>
       <path class="fil2" d="M4880.61 4904.13c5.96,2.76 11.76,5.56 17.52,8.7 1.74,0.95 18.14,9.34 9.45,5.27 6.27,2.94 11.37,9.27 13.51,16.27 23.17,10.11 17.08,49.17 16.2,69.7 -1.08,25.34 -2.16,50.65 -3.24,75.99 -0.46,10.97 -2.05,23.53 0.88,34.23 1.59,5.76 3.02,7.7 6.22,10.57 8.32,7.44 21.39,10.15 33.59,8.94 14.13,-1.39 30.66,-11.28 43.9,-22.95 15.34,-13.53 28.05,-30.3 40.41,-46.48 14.32,-18.74 28.01,-38.03 40.63,-57.91 12.51,-19.71 24.06,-40.06 38.67,-58.29 6.31,-7.86 17.08,-7.57 24.39,-2.63 14.37,-1.9 23.86,5.83 35.73,12.89 9,5.34 18.27,10.31 27.72,14.88 18.89,9.14 38.56,16.99 58.82,22.58 42.53,11.72 86.01,17.55 130.04,13.26 17.06,-1.68 29.88,-4.97 34.12,-23.22 4.33,-18.69 -5.36,-36.68 -16.13,-51.27 -13.95,-18.89 -31.38,-35.36 -49.33,-50.41 -18.41,-15.47 -40.39,-27.54 -52.55,-48.78 -0.93,-1.66 -1.24,-3.73 -1.66,-5.69 -11.65,-7.59 -15.89,-25.58 -6.44,-37.59 20.83,-26.42 40.21,-51.38 53.96,-82.43 11.7,-26.49 22.56,-59.41 20.68,-88.75 -0.6,-9.18 -2.27,-19.22 -12.05,-22.42 -12.36,-4.04 -28.45,3.05 -39.99,6.86 -19.84,6.58 -39.68,13.22 -59.53,19.82 -19.18,6.38 -40.96,16.73 -61.31,16.97 -10.11,0.13 -17.77,-6.75 -20.17,-14.94 -3.27,1.06 -6.71,1.35 -10,-0.29 -20.26,-10.17 -38.14,-29.07 -54.49,-44.54 -16.91,-15.96 -33.7,-32 -50.26,-48.34 -14.7,-14.54 -28.58,-30.39 -44.72,-43.39 -10.37,-8.39 -23.22,-16.44 -37.12,-12.82 -34.85,9.05 -39.26,57.83 -42.88,86.74 -2.85,22.76 -5.23,45.62 -7.61,68.44 -1.3,12.38 -2.63,24.72 -3.95,37.08 -0.62,5.72 -1.21,11.43 -1.79,17.13 -0.02,0.18 -0.09,0.82 -0.13,1.15 1.61,3.24 2.19,7.22 1.85,10.62 -0.4,3.99 -5.72,14.32 -4.13,8.14 -4.02,15.58 -17.7,27.21 -34.5,24.3 -3.64,-0.62 -6.58,-2.07 -9.38,-3.64 -31.45,8.56 -62.86,18.12 -92.63,31.16 -17.3,7.59 -33.92,16.42 -49.84,26.62 -14.92,9.56 -32.14,19.71 -42.4,34.01 -1.28,1.79 -2.45,3.97 -3.55,6.62 0,0.07 -0.09,0.46 -0.11,0.6 0.35,0.24 0.49,0.35 0.97,0.66 3.02,2.01 4.46,2.83 8.7,4.88 20.11,9.78 40.57,18.89 60.83,28.34 20.7,9.64 41.38,19.27 62.06,28.91 10.35,4.81 20.7,9.64 31.03,14.46z"/>
      </g>
      <path class="fil3" d="M4859.4 4961.85c5.67,2.69 11.85,5.56 18.16,7.48 -1.35,12.4 -0.95,25.32 -1.28,34.36l-2.76 76.08c-0.9,24.9 -0.97,49.06 11.94,71.31 8.74,15.05 22.91,26.9 38.76,33.95 36.24,16.09 76.32,8.83 108.63,-12.56 33.75,-22.36 57.78,-58.47 79.39,-91.86 15.87,-24.5 31.85,-50.39 43.74,-77.65 3.75,2.67 7.84,5.27 12.51,8.01 12.05,7.11 24.48,13.53 37.23,19.25 26.2,11.79 53.88,20.81 81.88,27.08 28.07,6.29 56.97,8.06 85.66,8.45 26.95,0.38 58.09,0.13 83.21,-10.81 57.72,-25.14 55.18,-97.18 25.71,-142.6 -15.96,-24.63 -38.62,-46.06 -60.87,-64.98 -15.82,-13.46 -32.07,-26.26 -50.67,-33.55 20.33,-23.59 36.22,-52.84 47.65,-81.04 11.68,-28.82 20.95,-59.75 24.12,-90.76 3.18,-30.99 -2.32,-65.42 -31.94,-81.91 -28.93,-16.09 -62.92,-2.78 -91.53,6.93 -17.68,6 -35.36,12.01 -53.01,18.01 -17.46,5.94 -37.39,10.66 -52.66,21.28 -11.79,-23.84 -33.57,-44.85 -51.05,-64.49 -18.12,-20.39 -36.55,-40.52 -55.35,-60.28 -30.59,-32.09 -66.94,-65.18 -114.86,-51.34 -47.19,13.62 -69.17,61.45 -78.13,105.65 -5.1,25.07 -8.94,50.5 -12.73,75.81 -3.44,22.78 -7,46.04 -8.98,69.19 -35.03,2.43 -68.88,11.23 -101.95,24.98 -36.68,15.3 -75.66,35.29 -104.57,63.03 -30.08,28.82 -43.19,77.69 -4.7,106.45 16.91,12.65 37.79,20.33 56.74,29.24l61.95 29.16c19.93,9.36 39.84,18.74 59.75,28.1zm-132.71 -129.42l0 0c-4.24,-2.05 -5.67,-2.87 -8.7,-4.88 -0.49,-0.31 -0.62,-0.42 -0.97,-0.66 0.02,-0.13 0.11,-0.53 0.11,-0.6 1.1,-2.65 2.27,-4.83 3.55,-6.62 10.26,-14.3 27.48,-24.45 42.4,-34.01 15.91,-10.2 32.53,-19.03 49.84,-26.62 29.77,-13.04 61.18,-22.6 92.63,-31.16 2.8,1.57 5.74,3.02 9.38,3.64 16.8,2.91 30.48,-8.72 34.5,-24.3 -1.59,6.18 3.73,-4.15 4.13,-8.14 0.33,-3.4 -0.24,-7.37 -1.85,-10.62 0.04,-0.33 0.11,-0.97 0.13,-1.15 0.57,-5.69 1.17,-11.41 1.79,-17.13 1.32,-12.36 2.65,-24.7 3.95,-37.08 2.38,-22.82 4.77,-45.69 7.61,-68.44 3.62,-28.91 8.03,-77.69 42.88,-86.74 13.9,-3.62 26.75,4.44 37.12,12.82 16.13,13 30.02,28.85 44.72,43.39 16.55,16.33 33.35,32.38 50.26,48.34 16.35,15.47 34.23,34.36 54.49,44.54 3.29,1.63 6.73,1.35 10,0.29 2.41,8.19 10.06,15.07 20.17,14.94 20.35,-0.24 42.13,-10.59 61.31,-16.97 19.84,-6.6 39.68,-13.24 59.53,-19.82 11.54,-3.82 27.63,-10.9 39.99,-6.86 9.78,3.2 11.45,13.24 12.05,22.42 1.88,29.33 -8.98,62.26 -20.68,88.75 -13.75,31.05 -33.13,56.02 -53.96,82.43 -9.45,12.01 -5.21,29.99 6.44,37.59 0.42,1.96 0.73,4.04 1.66,5.69 12.16,21.23 34.14,33.3 52.55,48.78 17.94,15.05 35.38,31.52 49.33,50.41 10.77,14.59 20.46,32.58 16.13,51.27 -4.24,18.25 -17.06,21.54 -34.12,23.22 -44.03,4.28 -87.51,-1.54 -130.04,-13.26 -20.26,-5.58 -39.93,-13.44 -58.82,-22.58 -9.45,-4.57 -18.72,-9.53 -27.72,-14.88 -11.87,-7.06 -21.36,-14.79 -35.73,-12.89 -7.31,-4.94 -18.08,-5.23 -24.39,2.63 -14.61,18.23 -26.15,38.58 -38.67,58.29 -12.62,19.89 -26.31,39.18 -40.63,57.91 -12.36,16.18 -25.07,32.95 -40.41,46.48 -13.24,11.68 -29.77,21.56 -43.9,22.95 -12.21,1.21 -25.27,-1.5 -33.59,-8.94 -3.2,-2.87 -4.63,-4.81 -6.22,-10.57 -2.94,-10.7 -1.35,-23.26 -0.88,-34.23 1.08,-25.34 2.16,-50.65 3.24,-75.99 0.88,-20.53 6.97,-59.59 -16.2,-69.7 -2.14,-7 -7.24,-13.33 -13.51,-16.27 8.7,4.06 -7.7,-4.33 -9.45,-5.27 -5.76,-3.13 -11.57,-5.94 -17.52,-8.7 -10.33,-4.81 -20.68,-9.64 -31.03,-14.46 -20.68,-9.64 -41.36,-19.27 -62.06,-28.91 -20.26,-9.45 -40.72,-18.56 -60.83,-28.34z"/>
      <g>
       <path class="fil4" d="M4971.6 5133.6c1.06,-0.04 2.1,0.33 3.13,0.2 14.13,-1.39 30.66,-11.28 43.9,-22.95 15.34,-13.53 28.05,-30.3 40.41,-46.48 14.32,-18.74 28.01,-38.03 40.63,-57.91 12.51,-19.71 24.06,-40.06 38.67,-58.29 6.31,-7.86 17.08,-7.57 24.39,-2.63 6.62,-0.88 12.18,0.42 17.44,2.65 -8.76,-8.65 -17.9,-16.82 -28.34,-23.35 -23.26,-14.57 -55.4,-19.73 -77.38,-3.27 -11.08,8.3 -18.05,20.83 -24.48,33.08 -22.62,43.21 -42.33,87.93 -58.97,133.77 -5.58,15.41 -11.01,31.23 -19.4,45.18z"/>
       <path class="fil4" d="M4949.42 4707.22c-0.22,0.88 -0.77,1.61 -1.06,2.47 6.11,-1.19 12.23,-2.36 18.32,-3.53 17.24,-3.33 35.29,-7.02 48.71,-18.3 29.8,-25.09 22.38,-72.06 12.32,-109.71 -8.67,-32.47 -17.37,-64.93 -26.04,-97.4 -28.74,13.24 -33.11,56.99 -36.48,83.91 -2.85,22.76 -5.23,45.62 -7.61,68.44 -1.3,12.38 -2.63,24.72 -3.95,37.08 -0.62,5.72 -1.21,11.43 -1.79,17.13 -0.02,0.18 -0.09,0.82 -0.13,1.15 1.61,3.24 2.19,7.22 1.85,10.62 -0.4,3.99 -5.72,14.32 -4.13,8.14z"/>
       <path class="fil4" d="M4849.57 4889.68c10.35,4.81 20.7,9.64 31.03,14.46 5.96,2.76 11.76,5.56 17.52,8.7 1.74,0.95 18.14,9.34 9.45,5.27 6.27,2.94 11.37,9.27 13.51,16.27 3.77,1.66 6.56,4.28 8.94,7.26 3.88,-15.78 7.35,-31.65 9.91,-47.72 1.66,-10.35 2.96,-21.25 -0.73,-31.08 -8.98,-23.97 -40.39,-28.29 -65.97,-29.33 -51.14,-2.03 -102.19,-6.42 -152.93,-13.11 -1.13,1.68 -2.21,3.53 -3.18,5.89 0,0.07 -0.09,0.46 -0.11,0.6 0.35,0.24 0.49,0.35 0.97,0.66 3.02,2.01 4.46,2.83 8.7,4.88 20.11,9.78 40.57,18.89 60.83,28.34 20.7,9.64 41.38,19.27 62.06,28.91z"/>
       <path class="fil4" d="M5224.82 4642.24c-4.61,0.07 -8.59,-1.46 -11.92,-3.77 5.05,16.24 12.82,31.5 24.28,44.52 5.23,5.92 11.59,11.61 19.42,12.8 8.85,1.35 17.39,-3.33 25.03,-8.01 39.44,-24.23 75.48,-53.76 107.82,-86.92 -1.17,-0.82 -2.23,-1.77 -3.8,-2.27 -12.36,-4.04 -28.45,3.05 -39.99,6.86 -19.84,6.58 -39.68,13.22 -59.53,19.82 -19.18,6.38 -40.96,16.73 -61.31,16.97z"/>
       <path class="fil4" d="M5331.16 4835.47c-0.93,-1.66 -1.24,-3.73 -1.66,-5.69 -5.54,-3.62 -9.23,-9.64 -10.75,-16.18 -7.92,7.44 -15.41,15.27 -21.5,24.32 -16,23.7 -21.96,56.94 -5.85,80.6 18.91,27.72 57.43,30.97 90.42,37.01 23.37,4.3 46.13,11.68 67.89,21.23 0.02,-15.34 -7.7,-29.93 -16.69,-42.11 -13.95,-18.89 -31.38,-35.36 -49.33,-50.41 -18.41,-15.47 -40.39,-27.54 -52.55,-48.78z"/>
      </g>
      <path class="fil5" d="M5107.45 4592.34c-0.51,-2.83 -1.39,-5.61 -2.21,-8.36 -1.43,-4.83 -5.12,-8.67 -8.85,-11.9 -2.21,-1.88 -4.33,-3.91 -6.36,-5.98 1.43,1.48 2.85,2.96 4.28,4.46 -2.32,-2.45 -4.7,-4.81 -7.08,-7.2 -2.07,-2.21 -4.11,-4.46 -5.98,-6.86 -0.97,-1.24 -1.9,-2.54 -2.83,-3.82 -2.03,-2.89 -4.06,-5.16 -6.62,-7.81 1.28,1.32 2.56,2.65 3.84,3.99 -7.28,-7.68 -16.69,-22 -29.29,-16.73 -10.48,4.37 -11.65,18.08 -10.31,27.81 0.62,4.39 1.39,8.83 3.2,12.87 1.59,3.55 3.44,6.93 5.32,10.29 3.77,6.75 7.75,12.93 13.11,18.5 2.65,2.76 5.32,5.45 8.21,7.97 6.4,5.56 14.68,7.39 22.98,6.58 11.01,-1.06 20.59,-12.62 18.58,-23.79z"/>
      <path class="fil5" d="M5138.86 4643.76c0.18,-4.19 0.33,-7.57 -1.28,-11.57 -1.1,-2.78 -2.36,-5.83 -4.13,-8.19 -0.88,-1.19 -1.85,-2.3 -2.78,-3.44 -2.36,-2.91 -4.97,-5.74 -8.52,-7.2 -1.92,-0.77 -4.02,-1.28 -6.03,-1.74l-4.77 -0.04c-2.36,0.2 -4.5,0.95 -6.44,2.25 -1.43,0.6 -2.65,1.5 -3.62,2.69 -1.81,1.48 -3.13,3.31 -4.02,5.52 -0.11,0.22 -0.2,0.46 -0.29,0.68 -0.55,1.46 -1.32,3.82 -1.52,5.36 -0.02,1.72 -0.04,3.44 -0.07,5.14l1.24 4.81c0.11,0.38 0.24,0.75 0.33,1.13 0.42,1.43 0.79,2.89 1.28,4.3 0.53,1.63 1.79,3.51 2.69,4.97 0.2,0.35 0.42,0.66 0.64,0.99 0.38,0.6 0.73,1.19 1.13,1.79 0.53,0.86 1.19,1.59 2.03,2.23 0.62,0.68 1.26,1.35 1.94,1.99 0.26,0.24 0.57,0.42 0.88,0.62 0.62,0.4 1.21,0.77 1.83,1.17 2.56,2.03 5.47,3.29 8.72,3.8 3.27,0.46 6.42,0.09 9.47,-1.13 2.94,-1.21 5.41,-3.02 7.39,-5.52 2.05,-2.56 3.31,-5.47 3.82,-8.72l0.07 -1.9z"/>
      <path class="fil5" d="M4878.75 4777.42c0.71,-3.42 -1.57,-6.78 -4.52,-8.21 -0.75,-0.38 -3.95,-1.32 -2.12,-0.71 1.41,0.46 -0.4,-0.13 -0.53,-0.18 1.41,1.13 2.85,2.27 4.28,3.42 -2.49,-3.16 -5.23,-4.79 -8.89,-5.92 -4.52,-1.41 -4.88,-1.61 -9.67,-1.46 -1.1,0.02 -2.23,0.07 -3.33,0.13 -3.97,0.24 -8.01,1.54 -11.94,2.21 -5.32,0.9 -10.97,2.65 -15.85,5.08 -3.73,1.88 -7.55,3.58 -11.48,5.03 -6.38,2.32 -11.06,10.02 -9.91,16.77 1.13,6.67 6.38,13.29 13.55,13.86 11.17,0.95 23.02,2.3 33.61,-2.19 4.97,-2.1 10.62,-4.28 14.9,-7.5 5.39,-4.04 10.42,-10.4 10.9,-17.41 0.38,-0.95 0.79,-1.9 0.99,-2.94z"/>
      <path class="fil5" d="M5008.02 4970.24c0.33,-2.76 0.77,-5.47 1.19,-8.21 0.64,-4.44 0.15,-9.05 0.2,-13.55 -0.02,1.74 -0.04,3.47 -0.07,5.21 0.04,-2.3 0.24,-4.63 0.11,-6.93 -0.15,-2.25 -0.95,-4.39 -1.66,-6.53 -0.46,-1.48 -0.86,-2.96 -1.26,-4.46 0.24,0.93 0.49,1.85 0.73,2.8 -1.26,-4.88 -3.31,-8.87 -8.19,-11.04 -4.52,-1.99 -9.95,-1.41 -13.9,1.57 -1.41,1.06 -2.78,2.16 -4.17,3.24 -3.69,2.91 -5.78,5.85 -8.12,9.89 -1.08,1.83 -2.14,3.71 -3.13,5.61 -1.66,3.18 -2.32,6.78 -3.2,10.24 -1.17,4.66 -2.38,9.4 -2.45,14.24 -0.04,2.85 0.09,5.5 0.53,8.3 1.02,6.6 3.49,11.17 8.59,15.69 3.09,2.74 7.44,3.88 11.43,3.93 4.26,0.04 7.72,-1.15 11.34,-3.51 4.83,-3.18 7.26,-8.01 9.16,-13.2 1.02,-2.83 2.03,-5.72 2.38,-8.67 0.18,-1.54 0.29,-3.07 0.49,-4.61z"/>
      <g>
       <path class="fil5" d="M5255.17 4928.85c0.71,0.2 1.41,0.4 2.12,0.6 0.35,0 0.71,0.02 1.06,0.02 -1.08,-0.11 -2.12,-0.33 -3.18,-0.62z"/>
       <path class="fil5" d="M5290.33 4942.78c-2.91,-3.93 -6.78,-6 -11.26,-7.28 0,0 0,-0.02 -0.02,-0.02 -1.85,-0.62 -3.6,-1.41 -5.34,-2.34 -3.77,-1.96 -7.99,-1.7 -11.96,-2.8 0.88,0.26 1.79,0.53 2.67,0.77 -3.84,-1.28 -7.5,-2.16 -11.63,-1.7 1.39,0 2.78,0.02 4.17,0.04 -6.56,-2.12 -13.49,-1.19 -18.58,3.73 -2.36,2.27 -3.84,4.77 -4.75,7.9 -0.66,1.52 -0.88,3.11 -0.68,4.75 -0.24,2.38 0.11,4.7 1.13,6.93 1.68,6 5.25,11.7 10.17,15.49 6.89,5.3 15.03,9.27 23.97,8.08 3.13,-0.42 6.33,-1.32 9.31,-2.23 2.87,-0.88 5.94,-2.23 8.25,-4.06 4.17,-3.33 7.28,-7.75 8.12,-13.11 0.75,-4.86 -0.62,-10.22 -3.58,-14.15z"/>
       <path class="fil5" d="M5258.04 4929.56c-0.2,-0.07 -0.38,0 -0.57,-0.07 0.88,0.26 1.77,0.51 2.63,0.75 -0.71,-0.2 -1.39,-0.42 -2.05,-0.68z"/>
       <path class="fil5" d="M5257.29 4929.45c-0.11,0 -0.22,0 -0.33,0 0.18,0.04 0.33,0 0.51,0.04 -0.04,0 -0.11,-0.02 -0.18,-0.04z"/>
      </g>
      <path class="fil5" d="M5366.67 4698.54c0.64,-4.19 -0.09,-8.67 -2.78,-12.09 -0.13,-0.15 -0.29,-0.31 -0.4,-0.46 -2.6,-3.05 -2.38,-2.78 -5.08,-4.44 -0.64,-0.57 -1.37,-0.99 -2.16,-1.24 -1.5,-0.44 -3.02,-0.88 -4.52,-1.3 -0.93,-0.22 -1.9,-0.4 -2.85,-0.49 -1.63,-0.11 -4.28,-0.29 -5.89,-0.02 -0.2,0.02 -0.42,0.07 -0.62,0.11 -2.14,0.46 -4.28,1.04 -6.4,1.63 -0.33,0.11 -0.62,0.22 -0.95,0.33 -1.54,0.64 -3.58,1.94 -4.99,2.83 -0.55,0.35 -1.08,0.71 -1.59,1.08 -2.3,1.72 -4.41,3.95 -6.38,5.92 -0.42,0.4 -0.84,0.84 -1.21,1.28 -0.66,0.77 -1.19,1.66 -1.61,2.6 -0.66,0.86 -1.21,1.79 -1.63,2.78 -0.13,0.26 -0.24,0.53 -0.35,0.79 -0.55,1.43 -0.93,2.87 -1.35,4.33 -0.51,1.02 -0.77,2.07 -0.82,3.16 -0.04,1.96 -0.07,3.91 -0.09,5.87 0,0.24 0.02,0.51 0.04,0.75 0.07,1.13 0.24,2.23 0.49,3.33 0.44,1.66 0.88,3.33 1.3,4.97l2.49 4.44 3.51 3.66c2.05,1.77 4.37,2.91 6.97,3.4 1.66,0.73 3.4,0.99 5.21,0.79 1.77,0.24 3.49,0.04 5.16,-0.62 1.72,-0.22 3.29,-0.86 4.7,-1.9 2.34,-1.06 4.3,-2.65 5.87,-4.77 0.66,-0.86 1.37,-1.66 2.14,-2.41 -1.3,1.26 -2.6,2.52 -3.93,3.77 1.72,-1.63 3.73,-3.09 5.1,-5.01 0.44,-0.62 0.84,-1.26 1.3,-1.85 1.24,-1.66 2.01,-3.33 2.87,-5.03 0.18,-0.26 0.35,-0.53 0.53,-0.77 1.57,-1.99 2.74,-4.24 4.04,-6.42 -0.93,1.52 -1.85,3.05 -2.76,4.57 1.28,-2.07 2.71,-3.95 3.82,-6.2 0.31,-0.62 0.6,-1.21 0.95,-1.81 -0.82,1.35 -1.63,2.67 -2.45,4.02 2.1,-3.33 3.69,-5.56 4.3,-9.58z"/>
     </g>
     <g>
      <g>
       <path class="fil2" d="M1493.71 5201.94c4.26,4.99 8.39,9.95 12.32,15.21 1.19,1.59 12.6,16.05 6.38,8.72 4.48,5.3 6.49,13.15 5.54,20.42 16.86,18.85 -4.94,51.82 -14.28,70.12 -11.52,22.6 -23.04,45.18 -34.56,67.76 -4.99,9.78 -11.68,20.55 -13.44,31.5 -0.95,5.89 -0.46,8.28 1.26,12.21 4.48,10.22 15.25,18.12 26.84,22.12 13.42,4.61 32.58,2.47 49.46,-2.63 19.58,-5.92 38.12,-15.89 56.08,-25.45 20.83,-11.08 41.29,-22.93 61.07,-35.75 19.58,-12.73 38.51,-26.44 59.41,-36.92 8.98,-4.52 18.67,0.22 23.26,7.72 13.84,4.28 19.25,15.25 27.1,26.6 5.98,8.63 12.36,16.99 19.03,25.07 13.4,16.16 28.01,31.5 44.1,44.98 33.81,28.36 70.91,51.76 112.74,66.19 16.2,5.58 29.24,7.92 40.7,-6.93 11.72,-15.21 10.37,-35.58 6.64,-53.32 -4.81,-23 -13.82,-45.2 -23.86,-66.37 -10.31,-21.72 -25.29,-41.85 -27.5,-66.21 -0.18,-1.9 0.42,-3.91 0.84,-5.89 -7.42,-11.74 -3.8,-29.86 9.78,-36.84 29.93,-15.36 57.98,-29.99 83.36,-52.51 21.7,-19.22 45.25,-44.65 55.73,-72.11 3.29,-8.61 5.94,-18.45 -1.61,-25.4 -9.56,-8.81 -27.15,-9.07 -39.24,-10.4 -20.77,-2.27 -41.56,-4.5 -62.35,-6.75 -20.11,-2.16 -44.23,-1.81 -62.84,-10.06 -9.25,-4.08 -13.35,-13.53 -12.12,-21.98 -3.42,-0.4 -6.67,-1.54 -8.98,-4.44 -14.19,-17.66 -22.6,-42.29 -31.03,-63.14 -8.72,-21.54 -17.33,-43.13 -25.58,-64.87 -7.33,-19.36 -13.35,-39.53 -22.6,-58.07 -5.96,-11.94 -14.3,-24.61 -28.43,-27.1 -35.49,-6.27 -59.77,36.24 -75.09,61.03 -12.07,19.51 -23.75,39.31 -35.4,59.08 -6.33,10.7 -12.67,21.39 -19.03,32.09 -2.94,4.92 -5.85,9.87 -8.74,14.81 -0.11,0.15 -0.42,0.71 -0.6,0.99 0.09,3.62 -1.02,7.48 -2.74,10.44 -2.03,3.47 -11.15,10.64 -7.13,5.67 -10.13,12.51 -27.41,17.37 -41.49,7.77 -3.05,-2.1 -5.12,-4.63 -7,-7.24 -32.18,-5.3 -64.71,-9.67 -97.22,-10.2 -18.89,-0.29 -37.68,0.82 -56.39,3.49 -17.55,2.47 -37.41,4.55 -52.68,13.29 -1.92,1.1 -3.88,2.58 -6,4.52 -0.02,0.07 -0.29,0.4 -0.35,0.51 0.22,0.38 0.31,0.53 0.62,1.02 1.92,3.09 2.87,4.41 5.87,8.03 14.21,17.26 29.02,34.08 43.52,51.09 14.81,17.37 29.62,34.74 44.43,52.11 7.39,8.67 14.79,17.37 22.2,26.04z"/>
      </g>
      <path class="fil3" d="M1450.41 5245.61c4.04,4.79 8.43,9.98 13.4,14.35 -6.38,10.73 -11.39,22.62 -15.45,30.72l-34.17 68.04c-11.19,22.27 -21.3,44.21 -18.8,69.81 1.68,17.33 9.64,33.97 21.12,46.99 26.26,29.69 65.73,39.77 104,33.77 39.99,-6.29 76.85,-29.13 110.42,-50.5 24.61,-15.67 49.92,-32.58 72.08,-52.42 2.3,3.97 4.92,8.03 8.03,12.49 8.01,11.45 16.64,22.49 25.85,33 18.91,21.61 40.35,41.34 63.21,58.71 22.91,17.37 48.47,31.01 74.38,43.28 24.34,11.57 52.77,24.28 80.16,24.79 62.92,1.17 90.6,-65.4 82.7,-118.96 -4.26,-29.05 -15.96,-57.96 -28.32,-84.42 -8.78,-18.83 -18.23,-37.23 -32.11,-51.58 28.27,-13 54.89,-32.97 77.03,-53.88 22.6,-21.34 43.92,-45.62 59.7,-72.5 15.78,-26.84 25.09,-60.45 5.01,-87.75 -19.6,-26.66 -56.04,-28.71 -86.12,-31.78 -18.56,-1.88 -37.12,-3.77 -55.68,-5.67 -18.34,-1.88 -38.43,-5.87 -56.74,-2.56 -0.79,-26.57 -11.85,-54.76 -19.58,-79.87 -8.01,-26.11 -16.38,-52.07 -25.27,-77.87 -14.46,-41.89 -33.75,-87.11 -83.07,-94.46 -48.58,-7.24 -88.48,27.13 -115.01,63.59 -15.07,20.68 -29.13,42.22 -43.13,63.63 -12.6,19.31 -25.51,38.98 -36.97,59.19 -32.84,-12.36 -67.29,-18.43 -103.07,-19.69 -39.73,-1.37 -83.49,0.62 -121.32,13.82 -39.33,13.71 -71.6,52.66 -48.56,94.84 10.11,18.54 25.89,34.21 39.44,50.21l44.21 52.29c14.21,16.8 28.43,33.61 42.64,50.41zm-66.85 -172.93l0 0c-3,-3.62 -3.95,-4.94 -5.87,-8.03 -0.31,-0.49 -0.4,-0.64 -0.62,-1.02 0.07,-0.11 0.33,-0.44 0.35,-0.51 2.12,-1.94 4.08,-3.42 6,-4.52 15.27,-8.74 35.14,-10.81 52.68,-13.29 18.72,-2.67 37.5,-3.77 56.39,-3.49 32.51,0.53 65.04,4.9 97.22,10.2 1.88,2.6 3.95,5.14 7,7.24 14.08,9.6 31.36,4.75 41.49,-7.77 -4.02,4.97 5.1,-2.21 7.13,-5.67 1.72,-2.96 2.83,-6.82 2.74,-10.44 0.18,-0.29 0.49,-0.84 0.6,-0.99 2.89,-4.94 5.8,-9.89 8.74,-14.81 6.36,-10.7 12.69,-21.39 19.03,-32.09 11.65,-19.78 23.33,-39.57 35.4,-59.08 15.32,-24.79 39.6,-67.29 75.09,-61.03 14.13,2.49 22.47,15.16 28.43,27.1 9.25,18.54 15.27,38.71 22.6,58.07 8.25,21.74 16.86,43.33 25.58,64.87 8.43,20.86 16.84,45.49 31.03,63.14 2.32,2.89 5.56,4.04 8.98,4.44 -1.24,8.45 2.87,17.9 12.12,21.98 18.61,8.25 42.73,7.9 62.84,10.06 20.79,2.25 41.58,4.48 62.35,6.75 12.09,1.32 29.69,1.59 39.24,10.4 7.55,6.95 4.9,16.8 1.61,25.4 -10.48,27.46 -34.03,52.88 -55.73,72.11 -25.38,22.51 -53.43,37.15 -83.36,52.51 -13.57,6.97 -17.19,25.09 -9.78,36.84 -0.42,1.99 -1.02,3.99 -0.84,5.89 2.21,24.37 17.19,44.49 27.5,66.21 10.04,21.17 19.05,43.37 23.86,66.37 3.73,17.75 5.08,38.12 -6.64,53.32 -11.45,14.85 -24.5,12.51 -40.7,6.93 -41.82,-14.43 -78.93,-37.83 -112.74,-66.19 -16.09,-13.49 -30.7,-28.82 -44.1,-44.98 -6.67,-8.08 -13.04,-16.44 -19.03,-25.07 -7.86,-11.34 -13.26,-22.31 -27.1,-26.6 -4.59,-7.5 -14.28,-12.25 -23.26,-7.72 -20.9,10.48 -39.84,24.19 -59.41,36.92 -19.78,12.82 -40.24,24.68 -61.07,35.75 -17.97,9.56 -36.51,19.53 -56.08,25.45 -16.88,5.1 -36.04,7.24 -49.46,2.63 -11.59,-3.99 -22.36,-11.9 -26.84,-22.12 -1.72,-3.93 -2.21,-6.31 -1.26,-12.21 1.77,-10.95 8.45,-21.72 13.44,-31.5 11.52,-22.58 23.04,-45.16 34.56,-67.76 9.34,-18.3 31.14,-51.27 14.28,-70.12 0.95,-7.26 -1.06,-15.12 -5.54,-20.42 6.22,7.33 -5.19,-7.13 -6.38,-8.72 -3.93,-5.25 -8.06,-10.22 -12.32,-15.21 -7.42,-8.67 -14.81,-17.37 -22.2,-26.04 -14.81,-17.37 -29.62,-34.74 -44.43,-52.11 -14.5,-17.02 -29.31,-33.83 -43.52,-51.09z"/>
      <g>
       <path class="fil4" d="M1481 5448.47c0.97,0.4 1.77,1.17 2.76,1.5 13.42,4.61 32.58,2.47 49.46,-2.63 19.58,-5.92 38.12,-15.89 56.08,-25.45 20.83,-11.08 41.29,-22.93 61.07,-35.75 19.58,-12.73 38.51,-26.44 59.41,-36.92 8.98,-4.52 18.67,0.22 23.26,7.72 6.38,1.99 10.88,5.47 14.74,9.69 -4.37,-11.5 -9.27,-22.76 -16.05,-33.02 -15.12,-22.93 -42.18,-40.99 -69.02,-35.16 -13.53,2.94 -25.07,11.41 -36.02,19.89 -38.56,29.88 -75.09,62.35 -109.3,97.13 -11.5,11.68 -23.02,23.81 -36.42,33z"/>
       <path class="fil4" d="M1638.21 5051.5c-0.57,0.73 -1.39,1.15 -2.01,1.79 6.05,1.48 12.09,2.96 18.14,4.44 17.04,4.15 35,8.3 51.89,3.6 37.56,-10.42 50.34,-56.19 56.85,-94.6 5.61,-33.15 11.23,-66.3 16.84,-99.45 -31.63,0.09 -53.83,38.05 -68.09,61.14 -12.07,19.51 -23.75,39.31 -35.4,59.08 -6.33,10.7 -12.67,21.39 -19.03,32.09 -2.94,4.92 -5.85,9.87 -8.74,14.81 -0.11,0.15 -0.42,0.71 -0.6,0.99 0.09,3.62 -1.02,7.48 -2.74,10.44 -2.03,3.47 -11.15,10.64 -7.13,5.67z"/>
       <path class="fil4" d="M1471.51 5175.89c7.39,8.67 14.79,17.37 22.2,26.04 4.26,4.99 8.39,9.95 12.32,15.21 1.19,1.59 12.6,16.05 6.38,8.72 4.48,5.3 6.49,13.15 5.54,20.42 2.74,3.07 4.17,6.62 5.08,10.33 10.11,-12.73 19.89,-25.73 28.87,-39.29 5.8,-8.72 11.54,-18.1 12.27,-28.56 1.81,-25.51 -24.94,-42.53 -47.78,-54.1 -45.66,-23.15 -90.25,-48.36 -133.62,-75.55 -1.72,1.04 -3.47,2.3 -5.34,4.02 -0.02,0.07 -0.29,0.4 -0.35,0.51 0.22,0.38 0.31,0.53 0.62,1.02 1.92,3.09 2.87,4.41 5.87,8.03 14.21,17.26 29.02,34.08 43.52,51.09 14.81,17.37 29.62,34.74 44.43,52.11z"/>
       <path class="fil4" d="M1915.67 5106.99c-4.22,-1.85 -7.2,-4.9 -9.27,-8.39 -2.14,16.86 -1.43,33.97 3.58,50.56 2.3,7.57 5.69,15.38 12.32,19.73 7.48,4.92 17.22,4.22 26.11,3.13 45.95,-5.65 91.02,-17.5 134.19,-34.19 -0.73,-1.24 -1.3,-2.54 -2.49,-3.64 -9.56,-8.81 -27.15,-9.07 -39.24,-10.4 -20.77,-2.27 -41.56,-4.5 -62.35,-6.75 -20.11,-2.16 -44.23,-1.81 -62.84,-10.06z"/>
       <path class="fil4" d="M1932 5326.95c-0.18,-1.9 0.42,-3.91 0.84,-5.89 -3.53,-5.56 -4.37,-12.58 -3.05,-19.16 -10.29,3.47 -20.35,7.48 -29.64,13.15 -24.43,14.92 -43.68,42.66 -38.87,70.89 5.67,33.06 39.35,52.04 66.83,71.27 19.47,13.64 37.1,29.8 52.9,47.54 6.42,-13.93 5.45,-30.41 2.34,-45.22 -4.81,-23 -13.82,-45.2 -23.86,-66.37 -10.31,-21.72 -25.29,-41.85 -27.5,-66.21z"/>
      </g>
      <path class="fil5" d="M1829.7 5012.77c0.71,-2.78 1.06,-5.67 1.48,-8.52 0.71,-4.99 -1.06,-10.02 -3.11,-14.48 -1.21,-2.65 -2.3,-5.34 -3.29,-8.1 0.68,1.94 1.37,3.88 2.05,5.83 -1.1,-3.18 -2.3,-6.31 -3.47,-9.47 -0.97,-2.87 -1.88,-5.78 -2.56,-8.74 -0.38,-1.54 -0.71,-3.09 -0.99,-4.66 -0.66,-3.47 -1.54,-6.38 -2.78,-9.84 0.62,1.72 1.24,3.47 1.83,5.23 -3.42,-10 -6,-26.95 -19.67,-27.41 -11.37,-0.38 -18.12,11.61 -20.95,21.03 -1.28,4.22 -2.41,8.59 -2.43,13.02 -0.04,3.86 0.22,7.7 0.55,11.57 0.64,7.7 1.66,14.96 4.22,22.27 1.26,3.6 2.56,7.17 4.15,10.64 3.49,7.75 10.26,12.85 18.14,15.56 10.46,3.62 23.99,-2.94 26.82,-13.93z"/>
      <path class="fil5" d="M1836.85 5072.6c1.92,-3.75 3.47,-6.73 3.66,-11.04 0.15,-3 0.26,-6.27 -0.35,-9.16 -0.31,-1.46 -0.73,-2.87 -1.1,-4.3 -0.93,-3.64 -2.12,-7.26 -4.75,-10.09 -1.41,-1.5 -3.11,-2.83 -4.75,-4.06l-4.3 -2.05c-2.25,-0.79 -4.52,-1.02 -6.82,-0.62 -1.54,-0.07 -3.02,0.24 -4.41,0.95 -2.25,0.57 -4.24,1.68 -5.96,3.33 -0.18,0.15 -0.35,0.33 -0.53,0.51 -1.13,1.08 -2.78,2.91 -3.62,4.24 -0.73,1.54 -1.48,3.11 -2.21,4.66l-0.86 4.88c-0.07,0.4 -0.11,0.77 -0.15,1.17 -0.22,1.48 -0.51,2.96 -0.66,4.44 -0.18,1.7 0.18,3.95 0.4,5.65 0.04,0.38 0.11,0.77 0.15,1.15 0.11,0.71 0.2,1.39 0.31,2.1 0.11,0.99 0.4,1.96 0.9,2.87 0.29,0.88 0.57,1.77 0.93,2.63 0.18,0.33 0.35,0.62 0.55,0.93 0.4,0.6 0.79,1.21 1.19,1.81 1.48,2.94 3.6,5.3 6.36,7.08 2.76,1.79 5.78,2.76 9.05,2.94 3.18,0.11 6.2,-0.53 9.05,-1.94 2.91,-1.48 5.27,-3.6 7.08,-6.36l0.84 -1.7z"/>
      <path class="fil5" d="M1544.74 5085.95c2.05,-2.83 1.37,-6.82 -0.71,-9.36 -0.53,-0.64 -3.05,-2.85 -1.63,-1.52 1.08,0.99 -0.31,-0.29 -0.42,-0.38 0.84,1.61 1.66,3.24 2.47,4.88 -0.95,-3.91 -2.76,-6.51 -5.61,-9.07 -3.53,-3.16 -3.8,-3.49 -8.21,-5.36 -0.99,-0.44 -2.03,-0.86 -3.07,-1.26 -3.73,-1.41 -7.92,-1.9 -11.81,-2.94 -5.19,-1.41 -11.06,-2.16 -16.51,-1.99 -4.17,0.15 -8.34,0.11 -12.51,-0.22 -6.78,-0.53 -14.21,4.52 -16,11.17 -1.74,6.51 0.29,14.7 6.56,18.23 9.78,5.52 19.97,11.65 31.5,12.01 5.39,0.15 11.41,0.51 16.66,-0.64 6.58,-1.43 13.79,-5.12 17.17,-11.3 0.71,-0.73 1.48,-1.39 2.12,-2.25z"/>
      <path class="fil5" d="M1582.06 5315.07c1.43,-2.38 3,-4.66 4.5,-7 2.43,-3.75 3.91,-8.17 5.83,-12.23 -0.75,1.57 -1.48,3.13 -2.23,4.7 0.99,-2.07 2.16,-4.11 2.98,-6.25 0.79,-2.12 0.97,-4.39 1.24,-6.62 0.15,-1.54 0.42,-3.07 0.68,-4.59 -0.15,0.95 -0.33,1.9 -0.51,2.85 0.88,-4.94 0.68,-9.45 -2.85,-13.42 -3.29,-3.69 -8.48,-5.43 -13.31,-4.37 -1.72,0.38 -3.42,0.82 -5.14,1.21 -4.55,1.13 -7.68,2.91 -11.5,5.61 -1.74,1.21 -3.49,2.47 -5.16,3.8 -2.83,2.21 -4.92,5.19 -7.17,7.97 -3,3.77 -6.09,7.57 -8.14,11.94 -1.24,2.58 -2.21,5.03 -3,7.77 -1.79,6.42 -1.46,11.61 1.3,17.83 1.66,3.77 5.14,6.62 8.76,8.34 3.86,1.81 7.5,2.16 11.76,1.5 5.74,-0.84 9.95,-4.24 13.84,-8.19 2.1,-2.12 4.19,-4.35 5.76,-6.89 0.82,-1.32 1.54,-2.67 2.36,-3.97z"/>
      <g>
       <path class="fil5" d="M1824.05 5380.25c0.55,0.46 1.1,0.95 1.68,1.41 0.31,0.15 0.62,0.31 0.95,0.46 -0.93,-0.53 -1.81,-1.19 -2.63,-1.88z"/>
       <path class="fil5" d="M1850.23 5407.53c-1.04,-4.77 -3.69,-8.25 -7.22,-11.3 0,0 0,0 -0.02,0 -1.43,-1.37 -2.67,-2.8 -3.88,-4.37 -2.6,-3.35 -6.56,-4.88 -9.71,-7.53 0.71,0.62 1.41,1.21 2.12,1.83 -2.96,-2.78 -5.92,-5.1 -9.87,-6.42 1.26,0.6 2.52,1.19 3.77,1.79 -5.1,-4.66 -11.76,-6.69 -18.45,-4.35 -3.09,1.1 -5.5,2.76 -7.61,5.23 -1.24,1.1 -2.1,2.45 -2.6,4.02 -1.21,2.07 -1.83,4.33 -1.85,6.78 -0.95,6.16 -0.09,12.8 2.83,18.32 4.04,7.7 9.8,14.68 18.43,17.3 3.02,0.93 6.31,1.46 9.4,1.88 2.96,0.4 6.31,0.42 9.18,-0.29 5.16,-1.28 9.84,-3.99 12.85,-8.52 2.71,-4.11 3.69,-9.58 2.65,-14.37z"/>
       <path class="fil5" d="M1826.35 5382.08c-0.13,-0.13 -0.33,-0.15 -0.49,-0.29 0.68,0.6 1.37,1.19 2.07,1.77 -0.55,-0.46 -1.08,-0.97 -1.59,-1.48z"/>
       <path class="fil5" d="M1825.73 5381.66c-0.11,-0.04 -0.22,-0.09 -0.31,-0.13 0.13,0.13 0.31,0.13 0.44,0.26 -0.04,-0.04 -0.09,-0.09 -0.13,-0.13z"/>
      </g>
      <path class="fil5" d="M2021.23 5217.21c2.34,-3.55 3.53,-7.95 2.52,-12.16 -0.07,-0.2 -0.13,-0.4 -0.18,-0.6 -1.1,-3.84 -0.99,-3.51 -2.76,-6.14 -0.35,-0.79 -0.84,-1.48 -1.46,-2.03 -1.19,-1.02 -2.38,-2.05 -3.58,-3.07 -0.75,-0.6 -1.57,-1.13 -2.41,-1.61 -1.41,-0.79 -3.75,-2.05 -5.32,-2.49 -0.2,-0.04 -0.42,-0.11 -0.62,-0.15 -2.14,-0.46 -4.33,-0.82 -6.51,-1.17 -0.33,-0.04 -0.64,-0.07 -0.99,-0.09 -1.68,-0.09 -4.06,0.29 -5.72,0.49 -0.64,0.09 -1.26,0.2 -1.9,0.33 -2.8,0.62 -5.65,1.74 -8.25,2.71 -0.55,0.2 -1.1,0.4 -1.63,0.66 -0.93,0.44 -1.79,0.99 -2.54,1.7 -0.97,0.51 -1.85,1.13 -2.65,1.85 -0.24,0.18 -0.44,0.4 -0.66,0.6 -1.1,1.04 -2.03,2.21 -3.02,3.35 -0.86,0.71 -1.57,1.54 -2.05,2.52 -0.86,1.77 -1.68,3.53 -2.52,5.3 -0.09,0.24 -0.2,0.46 -0.29,0.71 -0.4,1.06 -0.68,2.14 -0.93,3.24 -0.29,1.68 -0.6,3.38 -0.9,5.08l0.42 5.05 1.7 4.79c1.13,2.45 2.76,4.46 4.9,6 1.21,1.35 2.69,2.3 4.44,2.87 1.5,0.95 3.13,1.5 4.92,1.59 1.68,0.51 3.38,0.6 5.08,0.24 2.58,0 5.01,-0.64 7.33,-1.9 0.95,-0.51 1.94,-0.95 2.96,-1.3 -1.72,0.6 -3.42,1.19 -5.14,1.81 2.25,-0.77 4.66,-1.26 6.71,-2.45 0.66,-0.38 1.28,-0.77 1.94,-1.15 1.83,-0.97 3.24,-2.21 4.72,-3.38 0.26,-0.15 0.53,-0.33 0.82,-0.49 2.25,-1.15 4.24,-2.71 6.31,-4.15 -1.46,0.99 -2.94,1.99 -4.39,2.98 2.03,-1.35 4.11,-2.43 6.05,-4.02 0.53,-0.44 1.04,-0.88 1.61,-1.26 -1.3,0.88 -2.58,1.74 -3.88,2.63 3.29,-2.16 5.67,-3.53 7.88,-6.91z"/>
     </g>
     <g>
      <g>
       <path class="fil6" d="M3087.3 1509.27c-115.19,91.31 -231.15,181.67 -347.79,271.14 -116.62,89.43 -233.95,178.16 -352.67,264.78 -94.97,69.3 -192.57,134.28 -302.33,176.02 26.42,19.16 50.19,41.74 72.57,65.51 1.39,-1.57 2.45,-3.2 4.26,-4.61 123.27,-94.44 264.08,-170.19 395.62,-252.51 230.35,-144.15 462.78,-285 692.56,-430.05 56.83,-35.89 113.82,-71.47 170.92,-106.89 -1.21,-4.94 -2.23,-9.93 -3.27,-14.83 -5.72,-26.4 -11.23,-52.82 -16.8,-79.26 -5.98,-28.34 -11.83,-56.68 -17.44,-85.08 -2.43,-12.29 -4.86,-24.61 -7.28,-36.92 -9.95,9.34 -20.95,17.97 -32.4,27.28 -26.99,21.96 -54.07,43.85 -81.15,65.71 -58.07,46.83 -116.34,93.38 -174.8,139.73z"/>
      </g>
      <g>
       <path class="fil6" d="M2978.09 1851.22c-130.99,80.6 -262.18,160.83 -393.68,240.59 -129.2,78.37 -256.91,167.5 -392.88,233.71 0.66,0.88 1.52,1.63 2.21,2.52 10.97,14.17 20.42,29.13 29.97,44.01 0.44,-0.46 0.29,-0.99 0.77,-1.43 30.15,-27.39 56.85,-43.63 93.6,-61.64 32.09,-15.76 64.18,-31.5 96.27,-47.23 68.8,-33.77 137.88,-66.96 206.85,-100.33 133.4,-64.47 266.73,-129.05 400.01,-193.76 207.89,-100.93 416.32,-200.73 624.36,-301.38 -1.52,-3.44 -2.71,-7.08 -3,-11.12 -3.42,-47.36 3.09,-172.51 -77.78,-156.2 -35.34,7.13 -70.76,37.56 -100.91,56.02 -30.61,18.74 -61.16,37.56 -91.81,56.17 -131.43,79.87 -263,159.51 -393.99,240.09z"/>
      </g>
      <g>
       <path class="fil6" d="M2657.01 2222.65c-69.21,33 -138.38,66.12 -207.78,98.7 -67.21,31.56 -132.32,70.12 -205.74,81.88 -0.35,0.07 -0.68,-0.18 -1.04,-0.15 9.14,16.4 17.26,33.24 24.74,50.32 63.28,-30.26 131.19,-46.64 198.68,-65.77 69.28,-19.62 138.3,-40.12 207.05,-61.47 142.11,-44.14 283.04,-92.04 422.79,-143.15 273.94,-100.18 538.33,-217.46 800.36,-344.86 -21.59,-29.2 -24.63,-66.08 -33.64,-100.47 -6.91,-26.46 -16.29,-51.69 -26.77,-76.61 -259.53,122.43 -517.74,247.64 -777.01,370.61 -133.95,63.52 -267.81,127.19 -401.65,190.96z"/>
      </g>
      <g>
       <path class="fil6" d="M2706.4 1723.76c116.03,-89.19 231.3,-179.41 345.85,-270.52 58.38,-46.39 116.53,-93.07 174.54,-140 13.68,-11.06 27.32,-22.16 40.99,-33.28 -9.56,-0.71 -17.66,-4.97 -23.48,-13.09 -6.07,-8.48 -6.93,-18.89 -8.96,-28.85 -1.77,-8.65 -3.44,-17.3 -4.97,-26 -2.83,-16.16 -5.67,-32.36 -9.47,-48.31 -3.8,-15.89 -8.1,-31.72 -12.58,-47.43 -0.66,-2.3 -1.32,-4.55 -2.01,-6.82 -112.32,108.24 -242.76,200.01 -365.19,296.24 -128.21,100.75 -255.32,202.92 -381.41,306.3 -110.82,90.89 -220.75,182.86 -329.76,275.86 -59.68,50.94 -130.24,103.58 -184.51,166.3 33.99,8.72 66.28,22.64 96.74,39.99 236.25,-134.19 449.3,-305.2 664.22,-470.4z"/>
      </g>
      <g>
       <path class="fil6" d="M2704.24 2385.6c-73.41,22.51 -147.12,44.05 -221.11,64.62 -66.21,18.41 -132.07,37.54 -200.58,42.05 11.48,32.82 19.89,66.74 24.52,101.75 13.18,-2.23 26.35,-4.59 39.4,-7.5 140.66,-31.25 276.02,-88.17 411.27,-136.91l420.41 -151.47 427.65 -154.1 210.23 -75.75 108.72 -39.18c9.89,-3.58 19.78,-7.13 29.66,-10.68 -5.54,-12.16 -9.78,-25.34 -14.57,-38.78 -7.72,-21.63 -15.43,-43.24 -23.17,-64.87 -256.75,122.69 -522.35,231.24 -789.32,328.92 -139.71,51.14 -280.87,98.28 -423.1,141.89z"/>
      </g>
      <path class="fil7" d="M1977.73 2535.48c72.3,51.91 156.26,69.26 241.52,67.05 -10.95,-82.68 -42.2,-163.13 -90.67,-230.62 -54.93,-76.5 -131.63,-133 -214.02,-177.69 -13.73,20 -26.09,40.72 -35.16,63.08 -43.19,106.65 9.51,214.42 98.33,278.18z"/>
      <g>
       <path class="fil8" d="M4423.56 4064.33c189.06,-117.77 366.66,-253.55 527.23,-408.05 158.34,-152.36 325.9,-337.73 326.25,-571.17 0.15,-102.14 -36.11,-200.05 -111.08,-270.66 -65.2,-61.4 -150.9,-95.68 -237.31,-114.55 -92.85,-20.31 -189.28,-22.71 -283.79,-15.3 -113.27,8.89 -225.26,29.4 -335.01,58.51 24.83,79.63 49.53,159.33 74.29,238.98 16.55,-10.37 34.19,-18.32 54.07,-22.18 119.16,-23.2 235.74,58.69 265.29,173.92 35.56,138.61 -35.89,275.8 -134.46,369.38 -51.25,48.69 -109.74,89.39 -168.53,128.34 -64.23,42.55 -130.11,82.68 -197.18,120.62 -133.04,75.22 -270.88,141.67 -411.38,201.75 -141.01,60.3 -284.43,114.61 -429.28,165.02 -149.44,52 -300.01,102.34 -453.69,140.48 -155.67,38.65 -316.23,64.6 -477.04,60.36 -129.23,-3.4 -267.72,-22.18 -376.95,-97.16 -46.37,-31.83 -86.54,-72.52 -109.21,-124.66 -29.46,-67.82 -26.18,-143.33 -7.46,-213.62 32.18,-120.82 109.89,-237.22 216.58,-304.62 -21.39,-63.41 -42.44,-126.93 -62.75,-190.69 -28.78,19.64 -57.19,39.9 -84.51,61.34 -162.53,127.59 -287.69,305.2 -351.26,501.96 -32.38,100.2 -50.9,209.12 -34.61,314.2 16.66,107.44 71.13,200.21 160.3,263.28 92.28,65.29 203.05,101.59 312.48,125.83 120.11,26.6 243.33,35.27 366.16,32.53 241.99,-5.41 481.68,-53.65 715.89,-111.77 437.64,-108.54 863.41,-273.19 1246.94,-512.09z"/>
      </g>
      <path class="fil9" d="M4658.11 4087.07c-8.32,-25.58 -16.58,-51.18 -24.85,-76.78 -94.84,67.36 -193.08,129.91 -294.07,187.51 -413.59,235.89 -870.28,393.48 -1335.47,490.35 -105.59,21.98 -212.79,40.7 -320.58,53.35 80.76,116.73 222.32,154.36 359.67,169.77 317.75,35.6 635.13,-58.82 921.64,-189.37 144.1,-65.66 283.79,-140.66 422.72,-216.49 119.71,-65.33 230.6,-140 340.07,-220.09 -11.96,-20.11 -18.47,-42.82 -26.62,-67.82 -14.17,-43.46 -28.36,-86.92 -42.51,-130.42z"/>
      <g>
       <g>
        <path class="fil10" d="M2141.23 3341.91c3.8,11.92 7.42,23.88 11.26,35.8 95.19,295.46 200.73,587.55 316.03,875.77 40.01,-0.73 79.79,-2.94 118.61,-6.33 66.61,-5.85 132.62,-16.51 198.13,-29.84 -31.56,-52.18 -59.94,-104.17 -83.3,-161.14 -23.35,-56.92 -45.11,-114.55 -67.63,-171.8 -46,-116.82 -90.2,-234.35 -135.01,-351.63 -44.8,-117.26 -89.61,-234.53 -134.41,-351.79 -22.84,-59.83 -45.95,-119.58 -68.55,-179.48 -22.09,-58.6 -50.06,-119.78 -61.67,-181.38 -2.96,-15.71 17.06,-24.98 25.98,-10.97 33.3,52.4 54.29,115.45 78.11,172.7 23.64,56.92 46.5,114.15 69.77,171.23 47.47,116.53 94.93,233.05 142.4,349.58 47.47,116.51 95.72,232.72 142,349.69 23.57,59.61 47.74,119.07 70.78,178.88 22.82,59.28 37.87,118.45 50.7,180.19 68.18,-14.83 135.76,-32.58 202.59,-52.13 268.6,-78.64 535.06,-174.29 791.04,-287.52 127.92,-56.59 253.55,-118.7 375.03,-188.09 97.35,-55.6 198.95,-114.11 286.86,-185.88 -60.08,-190.96 -119.73,-382.09 -179.15,-573.27 -47.47,-152.82 -94.93,-305.64 -140.02,-459.19 -22.2,-75.55 -44.74,-150.99 -66.21,-226.71 -11.76,-41.56 -23.48,-83.1 -35.18,-124.66 -4.37,-15.49 -9.03,-29.95 -11.83,-44.47 -1.81,0.82 -3.53,1.92 -5.36,2.63 -45.38,17.75 -91.9,33 -137.77,49.44 -183.7,65.95 -367.37,131.9 -551.07,197.82 -164.36,59.02 -328.7,118.01 -493.06,176.99 -156.84,56.3 -314.05,123.71 -476.82,160.85 -22.53,5.16 -45.42,9.14 -68.42,12.49 -13.09,19.69 -43.02,26.15 -63.5,10.81 -1.63,-1.19 -2.74,-2.78 -4.13,-4.17 -97.2,5.05 -194.22,-10.7 -278.91,-64.25 -14.7,-9.29 -28.74,-19.86 -42.33,-31.08 70.34,254.9 144.45,508.58 224.95,760.63 0.02,0.11 0.07,0.18 0.09,0.26zm678.66 -291.78l0 0c156.57,-95.77 340.8,-143.95 513.06,-203.82 89.1,-30.99 178.55,-61.03 267.87,-91.46 40.32,-13.73 80.78,-27.1 120.42,-42.77 28.69,-11.32 61.71,-24.19 88.79,-6.95 17.37,4.22 22.84,14.66 18.08,32.02 1.52,72.64 -132.71,98.26 -184.4,115.81 -89.34,30.35 -178.55,60.98 -268.01,90.95 -177.01,59.24 -356.09,134.01 -542.81,154.28 -26.79,2.91 -33.15,-35.73 -13,-48.05z"/>
       </g>
      </g>
      <g>
       <g>
        <path class="fil10" d="M2141.23 3341.91c3.8,11.92 7.42,23.88 11.26,35.8 95.19,295.46 200.73,587.55 316.03,875.77 40.01,-0.73 79.79,-2.94 118.61,-6.33 66.61,-5.85 132.62,-16.51 198.13,-29.84 -31.56,-52.18 -59.94,-104.17 -83.3,-161.14 -23.35,-56.92 -45.11,-114.55 -67.63,-171.8 -46,-116.82 -90.2,-234.35 -135.01,-351.63 -44.8,-117.26 -89.61,-234.53 -134.41,-351.79 -22.84,-59.83 -45.95,-119.58 -68.55,-179.48 -22.09,-58.6 -50.06,-119.78 -61.67,-181.38 -2.96,-15.71 17.06,-24.98 25.98,-10.97 33.3,52.4 54.29,115.45 78.11,172.7 23.64,56.92 46.5,114.15 69.77,171.23 47.47,116.53 94.93,233.05 142.4,349.58 47.47,116.51 95.72,232.72 142,349.69 23.57,59.61 47.74,119.07 70.78,178.88 22.82,59.28 37.87,118.45 50.7,180.19 68.18,-14.83 135.76,-32.58 202.59,-52.13 268.6,-78.64 535.06,-174.29 791.04,-287.52 127.92,-56.59 253.55,-118.7 375.03,-188.09 97.35,-55.6 198.95,-114.11 286.86,-185.88 -60.08,-190.96 -119.73,-382.09 -179.15,-573.27 -47.47,-152.82 -94.93,-305.64 -140.02,-459.19 -22.2,-75.55 -44.74,-150.99 -66.21,-226.71 -11.76,-41.56 -23.48,-83.1 -35.18,-124.66 -4.37,-15.49 -9.03,-29.95 -11.83,-44.47 -1.81,0.82 -3.53,1.92 -5.36,2.63 -45.38,17.75 -91.9,33 -137.77,49.44 -183.7,65.95 -367.37,131.9 -551.07,197.82 -164.36,59.02 -328.7,118.01 -493.06,176.99 -156.84,56.3 -314.05,123.71 -476.82,160.85 -22.53,5.16 -45.42,9.14 -68.42,12.49 -13.09,19.69 -43.02,26.15 -63.5,10.81 -1.63,-1.19 -2.74,-2.78 -4.13,-4.17 -97.2,5.05 -194.22,-10.7 -278.91,-64.25 -14.7,-9.29 -28.74,-19.86 -42.33,-31.08 70.34,254.9 144.45,508.58 224.95,760.63 0.02,0.11 0.07,0.18 0.09,0.26zm678.66 -291.78l0 0c156.57,-95.77 340.8,-143.95 513.06,-203.82 89.1,-30.99 178.55,-61.03 267.87,-91.46 40.32,-13.73 80.78,-27.1 120.42,-42.77 28.69,-11.32 61.71,-24.19 88.79,-6.95 17.37,4.22 22.84,14.66 18.08,32.02 1.52,72.64 -132.71,98.26 -184.4,115.81 -89.34,30.35 -178.55,60.98 -268.01,90.95 -177.01,59.24 -356.09,134.01 -542.81,154.28 -26.79,2.91 -33.15,-35.73 -13,-48.05z"/>
       </g>
      </g>
      <g>
       <g>
        <path class="fil11" d="M4794.79 4260.17c-2.6,-18.61 -9.09,-36.68 -15.6,-56.44 -12.73,-38.6 -25.38,-77.23 -38.03,-115.85 -13.9,-42.42 -27.7,-84.84 -41.52,-127.28 73.05,-54.63 144.54,-111.35 212.72,-171.95 173.46,-154.23 363.79,-336.96 419.35,-570.97 27.59,-116.2 21.36,-242.91 -35.95,-349.49 -46.06,-85.64 -123.44,-151.08 -211.35,-190.91 -201.9,-91.46 -436.1,-74.53 -648.33,-34.85 -49.53,9.25 -98.5,21.08 -147.17,34.12 -17.88,-57.12 -35.78,-114.22 -54.03,-171.2 -27.15,-84.69 -53.83,-169.55 -80.93,-254.26 -13.93,-43.57 -28.23,-87.05 -42.31,-130.59 -9.53,-29.44 -15.98,-60.85 -32.75,-86.39 3.88,-8.45 6.14,-17.77 3.66,-29.02 -7.33,-33.81 -38.07,-37.48 -59.48,-27.08 -3.13,-8.85 -6.51,-17.68 -9.69,-26.55 -12.12,-33.61 -24.19,-67.23 -36.28,-100.86 -4.3,-11.94 -12.32,-20.26 -21.98,-24.68 11.06,-38.78 -2.1,-79.92 -14.92,-117 -14.26,-41.18 -31.19,-81.57 -50.83,-120.49 -10.06,-19.93 -35.69,-23 -53.81,-14.08 -40.08,19.6 -80.36,38.82 -120.51,58.31 6.91,-90.69 -23.26,-204.86 -130.02,-211.53 -33,-2.05 -63.59,10.15 -92.52,26.37 -2.8,-8.74 -5.72,-17.04 -7.72,-24.26 -7.26,-25.98 -14.52,-51.93 -21.78,-77.91 -7.77,-27.81 -16.07,-55.49 -24.19,-83.21 -7.17,-24.45 -11.34,-64.09 -41.89,-69.39 -13.37,-2.32 -30.72,3.4 -34.17,18.52 -20.22,7.55 -36.26,20.97 -54.91,36.17 -3.11,2.54 -6.22,5.08 -9.36,7.59 2.25,-17.9 -4.28,-38.43 -9.42,-55.27 -5.14,-16.88 -10.9,-33.55 -16.35,-50.32 -5.45,-16.8 -10.99,-33.53 -16.99,-50.12 -3,-8.32 -6.2,-16.55 -9.47,-24.76 -3.93,-9.84 -8.48,-17.48 -15.16,-25.73 -11.41,-13.99 -34.74,-2.1 -34.59,14.32 0,0.42 0.18,0.82 0.2,1.21 -0.9,0.35 -1.81,0.4 -2.74,0.9 -143.88,79.61 -273.99,188.93 -403.43,289.84 -132.56,103.34 -263.88,208.17 -393.9,314.69 -129.98,106.49 -258.78,214.44 -386.28,323.89 -99.14,85.13 -206.94,183.3 -220.16,321.51 -7.15,74.78 19.71,144.48 64.03,202.06 62.55,278.49 138.41,554.11 224.02,826.71 -181.31,94.71 -331.79,258.89 -422.97,439.98 -97.82,194.29 -157.37,448.61 -47.89,650.8 54.23,100.16 149.38,170.17 251.63,215.94 116.95,52.33 243.02,81.51 369.95,96.3 128.54,14.96 257.99,13.53 386.79,1.88 28.45,49.62 63.54,93.51 111.55,127.13 56.61,39.62 124.08,62.95 190.96,78.31 318.31,73.12 649.79,7.72 948.12,-111.63 171.07,-68.46 334.93,-152.89 497.15,-239.89 151.52,-81.2 319.52,-159.73 439.96,-285.42 17.06,-17.79 8.48,-45.62 -8.67,-57.16zm-854.96 -2280.52l0 0c4.79,13.44 9.03,26.62 14.57,38.78 -9.89,3.55 -19.78,7.11 -29.66,10.68l-108.72 39.18 -210.23 75.75 -427.65 154.1 -420.41 151.47c-135.25,48.73 -270.61,105.65 -411.27,136.91 -13.04,2.91 -26.22,5.27 -39.4,7.5 -4.63,-35 -13.04,-68.93 -24.52,-101.75 68.51,-4.5 134.37,-23.64 200.58,-42.05 73.98,-20.57 147.7,-42.11 221.11,-64.62 142.22,-43.61 283.39,-90.76 423.1,-141.89 266.97,-97.69 532.57,-206.23 789.32,-328.92 7.75,21.63 15.45,43.24 23.17,64.87zm-104.17 -318.57l0 0c10.48,24.92 19.86,50.15 26.77,76.61 9,34.39 12.05,71.27 33.64,100.47 -262.03,127.39 -526.41,244.68 -800.36,344.86 -139.75,51.12 -280.68,99.01 -422.79,143.15 -68.75,21.34 -137.77,41.85 -207.05,61.47 -67.49,19.14 -135.4,35.51 -198.68,65.77 -7.48,-17.08 -15.6,-33.92 -24.74,-50.32 0.35,-0.02 0.68,0.22 1.04,0.15 73.43,-11.76 138.54,-50.32 205.74,-81.88 69.39,-32.58 138.56,-65.71 207.78,-98.7 133.84,-63.76 267.7,-127.44 401.65,-190.96 259.27,-122.98 517.47,-248.19 777.01,-370.61zm-371.76 -106.12l0 0c30.15,-18.45 65.57,-48.89 100.91,-56.02 80.87,-16.31 74.36,108.83 77.78,156.2 0.29,4.04 1.48,7.68 3,11.12 -208.04,100.64 -416.48,200.45 -624.36,301.38 -133.29,64.71 -266.62,129.29 -400.01,193.76 -68.97,33.37 -138.05,66.57 -206.85,100.33 -32.09,15.74 -64.18,31.47 -96.27,47.23 -36.75,18.01 -63.45,34.25 -93.6,61.64 -0.49,0.44 -0.33,0.97 -0.77,1.43 -9.56,-14.88 -19,-29.84 -29.97,-44.01 -0.68,-0.88 -1.54,-1.63 -2.21,-2.52 135.98,-66.21 263.68,-155.34 392.88,-233.71 131.5,-79.76 262.69,-159.99 393.68,-240.59 130.99,-80.58 262.56,-160.21 393.99,-240.09 30.66,-18.61 61.2,-37.43 91.81,-56.17zm-120.64 -251.12l0 0c11.45,-9.31 22.45,-17.94 32.4,-27.28 2.43,12.32 4.86,24.63 7.28,36.92 5.61,28.41 11.45,56.74 17.44,85.08 5.56,26.44 11.08,52.86 16.8,79.26 1.04,4.9 2.05,9.89 3.27,14.83 -57.1,35.42 -114.08,71 -170.92,106.89 -229.78,145.05 -462.21,285.91 -692.56,430.05 -131.54,82.32 -272.35,158.07 -395.62,252.51 -1.81,1.41 -2.87,3.05 -4.26,4.61 -22.38,-23.77 -46.15,-46.35 -72.57,-65.51 109.76,-41.74 207.36,-106.71 302.33,-176.02 118.72,-86.63 236.05,-175.35 352.67,-264.78 116.64,-89.48 232.61,-179.83 347.79,-271.14 58.47,-46.35 116.73,-92.9 174.8,-139.73 27.08,-21.85 54.16,-43.74 81.15,-65.71zm-1213.3 684.02l0 0c109.01,-93.01 218.94,-184.98 329.76,-275.86 126.09,-103.38 253.2,-205.55 381.41,-306.3 122.43,-96.23 252.87,-188 365.19,-296.24 0.68,2.27 1.35,4.52 2.01,6.82 4.48,15.71 8.78,31.54 12.58,47.43 3.8,15.96 6.64,32.16 9.47,48.31 1.52,8.7 3.2,17.35 4.97,26 2.03,9.95 2.89,20.37 8.96,28.85 5.83,8.12 13.93,12.38 23.48,13.09 -13.66,11.12 -27.3,22.23 -40.99,33.28 -58,46.92 -116.16,93.6 -174.54,140 -114.55,91.11 -229.82,181.33 -345.85,270.52 -214.93,165.2 -427.98,336.21 -664.22,470.4 -30.46,-17.35 -62.75,-31.27 -96.74,-39.99 54.27,-62.73 124.83,-115.36 184.51,-166.3zm-250.55 269.44l0 0c9.07,-22.36 21.43,-43.08 35.16,-63.08 82.39,44.69 159.09,101.2 214.02,177.69 48.47,67.49 79.72,147.94 90.67,230.62 -85.26,2.21 -169.22,-15.14 -241.52,-67.05 -88.81,-63.76 -141.52,-171.54 -98.33,-278.18zm79.12 354.79l0 0c84.69,53.54 181.71,69.3 278.91,64.25 1.39,1.39 2.49,2.98 4.13,4.17 20.48,15.34 50.41,8.87 63.5,-10.81 23,-3.35 45.89,-7.33 68.42,-12.49 162.77,-37.15 319.98,-104.55 476.82,-160.85 164.36,-58.97 328.7,-117.97 493.06,-176.99 183.7,-65.93 367.37,-131.87 551.07,-197.82 45.86,-16.44 92.39,-31.69 137.77,-49.44 1.83,-0.71 3.55,-1.81 5.36,-2.63 2.8,14.52 7.46,28.98 11.83,44.47 11.7,41.56 23.42,83.1 35.18,124.66 21.47,75.73 44.01,151.16 66.21,226.71 45.09,153.55 92.54,306.37 140.02,459.19 59.41,191.18 119.07,382.31 179.15,573.27 -87.91,71.77 -189.5,130.28 -286.86,185.88 -121.48,69.39 -247.11,131.5 -375.03,188.09 -255.98,113.22 -522.44,208.88 -791.04,287.52 -66.83,19.55 -134.41,37.3 -202.59,52.13 -12.82,-61.73 -27.88,-120.9 -50.7,-180.19 -23.04,-59.81 -47.21,-119.27 -70.78,-178.88 -46.28,-116.98 -94.53,-233.18 -142,-349.69 -47.47,-116.53 -94.93,-233.05 -142.4,-349.58 -23.26,-57.08 -46.13,-114.31 -69.77,-171.23 -23.81,-57.25 -44.8,-120.31 -78.11,-172.7 -8.92,-14.02 -28.93,-4.75 -25.98,10.97 11.61,61.6 39.57,122.78 61.67,181.38 22.6,59.9 45.71,119.65 68.55,179.48 44.8,117.26 89.61,234.53 134.41,351.79 44.8,117.28 89.01,234.81 135.01,351.63 22.51,57.25 44.27,114.88 67.63,171.8 23.35,56.97 51.73,108.96 83.3,161.14 -65.51,13.33 -131.52,23.99 -198.13,29.84 -38.82,3.4 -78.59,5.61 -118.61,6.33 -115.3,-288.22 -220.84,-580.31 -316.03,-875.77 -3.84,-11.92 -7.46,-23.88 -11.26,-35.8 -0.02,-0.09 -0.07,-0.15 -0.09,-0.26 -80.49,-252.05 -154.61,-505.73 -224.95,-760.63 13.6,11.21 27.63,21.78 42.33,31.08zm2572.47 831.21l0 0c-3.97,-12.21 -7.92,-24.43 -11.94,-36.64 -39.26,-119.14 -76.92,-238.79 -114.28,-358.52 81,-54.67 193.03,-4.26 225.52,83.03 42.49,114.19 -19.53,231.39 -99.3,312.13zm-2128.43 809.74l0 0c-72.28,-2.38 -144.3,-11.23 -212.34,-31.12 -55.11,-16.09 -110.07,-41.14 -151.14,-82.17 -50.1,-50.01 -67.93,-116.6 -61.14,-186.23 13.07,-133.77 91.93,-246.64 190.49,-332.9 72.66,212.92 151.19,423.78 234.13,632.42zm-308 402.62l0 0c-109.43,-24.23 -220.2,-60.54 -312.48,-125.83 -89.17,-63.08 -143.64,-155.84 -160.3,-263.28 -16.29,-105.08 2.23,-214 34.61,-314.2 63.56,-196.76 188.73,-374.37 351.26,-501.96 27.32,-21.43 55.73,-41.69 84.51,-61.34 20.31,63.76 41.36,127.28 62.75,190.69 -106.69,67.4 -184.4,183.81 -216.58,304.62 -18.72,70.3 -22,145.8 7.46,213.62 22.67,52.13 62.84,92.83 109.21,124.66 109.23,74.97 247.72,93.76 376.95,97.16 160.81,4.24 321.37,-21.72 477.04,-60.36 153.68,-38.14 304.25,-88.48 453.69,-140.48 144.85,-50.41 288.27,-104.73 429.28,-165.02 140.5,-60.08 278.34,-126.53 411.38,-201.75 67.07,-37.94 132.96,-78.06 197.18,-120.62 58.8,-38.96 117.28,-79.65 168.53,-128.34 98.57,-93.58 170.01,-230.77 134.46,-369.38 -29.55,-115.23 -146.13,-197.12 -265.29,-173.92 -19.89,3.86 -37.52,11.81 -54.07,22.18 -24.76,-79.65 -49.46,-159.35 -74.29,-238.98 109.76,-29.11 221.75,-49.62 335.01,-58.51 94.51,-7.42 190.94,-5.01 283.79,15.3 86.41,18.87 172.11,53.15 237.31,114.55 74.97,70.6 111.24,168.51 111.08,270.66 -0.35,233.44 -167.92,418.82 -326.25,571.17 -160.57,154.5 -338.17,290.28 -527.23,408.05 -383.53,238.9 -809.3,403.54 -1246.94,512.09 -234.22,58.11 -473.91,106.36 -715.89,111.77 -122.82,2.74 -246.05,-5.94 -366.16,-32.53zm2292.59 -150.26l0 0c-138.94,75.84 -278.62,150.83 -422.72,216.49 -286.5,130.55 -603.88,224.97 -921.64,189.37 -137.35,-15.41 -278.91,-53.04 -359.67,-169.77 107.79,-12.65 214.99,-31.36 320.58,-53.35 465.19,-96.87 921.88,-254.46 1335.47,-490.35 101,-57.61 199.23,-120.15 294.07,-187.51 8.28,25.6 16.53,51.2 24.85,76.78 14.15,43.5 28.34,86.96 42.51,130.42 8.14,25.01 14.66,47.72 26.62,67.82 -109.47,80.1 -220.36,154.76 -340.07,220.09z"/>
       </g>
      </g>
      <g>
       <path class="fil12" d="M2832.89 3098.18c186.72,-20.26 365.8,-95.04 542.81,-154.28 89.45,-29.97 178.66,-60.61 268.01,-90.95 51.69,-17.55 185.93,-43.17 184.4,-115.81 4.77,-17.37 -0.71,-27.81 -18.08,-32.02 -27.08,-17.24 -60.1,-4.37 -88.79,6.95 -39.64,15.67 -80.1,29.05 -120.42,42.77 -89.32,30.44 -178.77,60.47 -267.87,91.46 -172.26,59.88 -356.49,108.06 -513.06,203.82 -20.15,12.32 -13.79,50.96 13,48.05z"/>
      </g>
      <path class="fil9" d="M2260.68 2809.12c33.3,52.4 54.29,115.45 78.11,172.7 23.64,56.92 46.5,114.15 69.77,171.23 47.47,116.53 94.93,233.05 142.4,349.58 47.47,116.51 95.72,232.72 142,349.69 23.57,59.61 47.74,119.07 70.78,178.88 22.82,59.28 37.87,118.45 50.7,180.19 68.18,-14.83 135.76,-32.58 202.59,-52.13 268.6,-78.64 535.06,-174.29 791.04,-287.52 127.92,-56.59 253.55,-118.7 375.03,-188.09 97.35,-55.6 198.95,-114.11 286.86,-185.88 -7.68,-24.41 -15.23,-48.86 -22.91,-73.3 -179.37,129.95 -369.56,243.04 -578.26,315 -327.33,112.83 -710.68,111.3 -999.19,-80.1 -322.57,-214 -463.75,-625 -445.52,-1014.86 -16.82,4.46 -33.66,8.83 -50.59,12.69 -22.53,5.16 -45.42,9.14 -68.42,12.49 -13.09,19.69 -43.02,26.15 -63.5,10.81 -1.63,-1.19 -2.74,-2.78 -4.13,-4.17 -97.2,5.05 -194.22,-10.7 -278.91,-64.25 -14.7,-9.29 -28.74,-19.86 -42.33,-31.08 70.34,254.9 144.45,508.58 224.95,760.63 0.02,0.11 0.07,0.18 0.09,0.26 3.8,11.92 7.42,23.88 11.26,35.8 95.19,295.46 200.73,587.55 316.03,875.77 40.01,-0.73 79.79,-2.94 118.61,-6.33 66.61,-5.85 132.62,-16.51 198.13,-29.84 -31.56,-52.18 -59.94,-104.17 -83.3,-161.14 -23.35,-56.92 -45.11,-114.55 -67.63,-171.8 -46,-116.82 -90.2,-234.35 -135.01,-351.63 -44.8,-117.26 -89.61,-234.53 -134.41,-351.79 -22.84,-59.83 -45.95,-119.58 -68.55,-179.48 -22.09,-58.6 -50.06,-119.78 -61.67,-181.38 -2.96,-15.71 17.06,-24.98 25.98,-10.97z"/>
      <g>
       <path class="fil7" d="M2785.26 4217.31c-31.56,-52.18 -59.94,-104.17 -83.3,-161.14 -23.35,-56.92 -45.11,-114.55 -67.63,-171.8 -13.04,-33.08 -25.71,-66.32 -38.49,-99.5 -34.61,-31.25 -67.96,-63.9 -98.24,-99.63 -103.05,-121.61 -176.74,-265.03 -244.74,-409.22 -92.19,-195.44 -177.05,-404.23 -188.49,-617.21 -36.7,-10.42 -72.28,-25.49 -105.85,-46.72 -14.7,-9.29 -28.74,-19.86 -42.33,-31.08 70.34,254.9 144.45,508.58 224.95,760.63 0.02,0.11 0.07,0.18 0.09,0.26 3.8,11.92 7.42,23.88 11.26,35.8 95.19,295.46 200.73,587.55 316.03,875.77 40.01,-0.73 79.79,-2.94 118.61,-6.33 66.61,-5.85 132.62,-16.51 198.13,-29.84z"/>
       <path class="fil7" d="M3246.34 4087.31c-6.51,-1.06 -13.09,-1.61 -19.58,-2.76 -188.77,-33.42 -372.05,-106.87 -527.94,-217.35 21.72,54.63 43.79,109.16 64.91,164.01 22.82,59.28 37.87,118.45 50.7,180.19 68.18,-14.83 135.76,-32.58 202.59,-52.13 76.72,-22.47 153.15,-46.7 229.32,-71.95z"/>
      </g>
      <path class="fil7" d="M3988.68 4374.48c-315.13,140.75 -647.69,243.44 -984.96,313.67 -105.59,21.98 -212.79,40.7 -320.58,53.35 80.76,116.73 222.32,154.36 359.67,169.77 317.75,35.6 635.13,-58.82 921.64,-189.37 144.1,-65.66 283.79,-140.66 422.72,-216.49 119.71,-65.33 230.6,-140 340.07,-220.09 -3.69,-6.18 -6.22,-13.09 -9.07,-19.75 -231.68,87.53 -482.29,124.72 -729.49,108.92z"/>
      <path class="fil13" d="M4398.58 3269.34c-35.95,-114.92 -72.04,-229.85 -107.77,-344.84 -47.47,-152.82 -94.93,-305.64 -140.02,-459.19 -22.2,-75.55 -44.74,-150.99 -66.21,-226.71 -11.76,-41.56 -23.48,-83.1 -35.18,-124.66 -4.37,-15.49 -9.03,-29.95 -11.83,-44.47 -1.81,0.82 -3.53,1.92 -5.36,2.63 -45.38,17.75 -91.9,33 -137.77,49.44 -183.7,65.95 -367.37,131.9 -551.07,197.82 -82.9,29.75 -165.8,59.53 -248.69,89.28 272.95,-65.18 545.92,-130.35 818.87,-195.53 9.89,-2.36 20.61,-4.68 29.95,-0.66 10.02,4.28 15.8,14.63 20.83,24.3 172.9,332.28 317.78,679.1 432.59,1035.61 0.57,-0.99 1.08,-2.03 1.66,-3.02z"/>
      <path class="fil14" d="M3057.2 1449.26c-252.2,164.96 -518.47,308.22 -794.99,427.98 -44.01,36.97 -88.53,73.32 -132.25,110.62 -59.68,50.94 -130.24,103.58 -184.51,166.3 33.99,8.72 66.28,22.64 96.74,39.99 236.25,-134.19 449.3,-305.2 664.22,-470.4 116.03,-89.19 231.3,-179.41 345.85,-270.52 1.66,-1.3 3.29,-2.65 4.94,-3.97z"/>
      <path class="fil14" d="M3160.93 1654.68c-206.87,94.42 -414.51,187.16 -622.84,278.36 -50.23,37.65 -100.56,75.17 -151.25,112.16 -94.97,69.3 -192.57,134.28 -302.33,176.02 26.42,19.16 50.19,41.74 72.57,65.51 1.39,-1.57 2.45,-3.2 4.26,-4.61 123.27,-94.44 264.08,-170.19 395.62,-252.51 200.87,-125.69 403.08,-249.27 603.97,-374.92z"/>
      <path class="fil14" d="M2787.2 1967.89c-67.58,41.32 -135.05,82.83 -202.79,123.93 -129.2,78.37 -256.91,167.5 -392.88,233.71 0.66,0.88 1.52,1.63 2.21,2.52 10.97,14.17 20.42,29.13 29.97,44.01 0.44,-0.46 0.29,-0.99 0.77,-1.43 30.15,-27.39 56.85,-43.63 93.6,-61.64 32.09,-15.76 64.18,-31.5 96.27,-47.23 68.8,-33.77 137.88,-66.96 206.85,-100.33 133.4,-64.47 266.73,-129.05 400.01,-193.76 142.31,-69.1 284.91,-137.66 427.45,-206.32 -220.49,68.86 -440.98,137.7 -661.46,206.56z"/>
      <path class="fil14" d="M3849.85 1860.09c-244.94,40.5 -488.69,88.11 -730.88,142.78 -20.11,9.58 -40.19,19.27 -60.32,28.82 -133.95,63.52 -267.81,127.19 -401.65,190.96 -69.21,33 -138.38,66.12 -207.78,98.7 -67.21,31.56 -132.32,70.12 -205.74,81.88 -0.35,0.07 -0.68,-0.18 -1.04,-0.15 9.14,16.4 17.26,33.24 24.74,50.32 63.28,-30.26 131.19,-46.64 198.68,-65.77 69.28,-19.62 138.3,-40.12 207.05,-61.47 142.11,-44.14 283.04,-92.04 422.79,-143.15 257.88,-94.31 507.19,-204.13 754.14,-322.92z"/>
      <path class="fil14" d="M3705.11 2108.26c-150.06,29.62 -300.23,58.71 -450.45,87.44 -42.42,16.13 -84.82,32.44 -127.33,48 -139.71,51.14 -280.87,98.28 -423.1,141.89 -73.41,22.51 -147.12,44.05 -221.11,64.62 -66.21,18.41 -132.07,37.54 -200.58,42.05 11.48,32.82 19.89,66.74 24.52,101.75 13.18,-2.23 26.35,-4.59 39.4,-7.5 140.66,-31.25 276.02,-88.17 411.27,-136.91l420.41 -151.47 427.65 -154.1 99.32 -35.78z"/>
      <path class="fil15" d="M4668.17 2846c-106.4,-20.37 -215.5,-6.89 -322.83,11.26 12.91,41.63 25.87,83.23 38.8,124.86 16.55,-10.37 34.19,-18.32 54.07,-22.18 119.16,-23.2 235.74,58.69 265.29,173.92 35.56,138.61 -35.89,275.8 -134.46,369.38 -51.25,48.69 -109.74,89.39 -168.53,128.34 -64.23,42.55 -130.11,82.68 -197.18,120.62 -133.04,75.22 -270.88,141.67 -411.38,201.75 -141.01,60.3 -284.43,114.61 -429.28,165.02 -149.44,52 -300.01,102.34 -453.69,140.48 -155.67,38.65 -316.23,64.6 -477.04,60.36 -129.23,-3.4 -267.72,-22.18 -376.95,-97.16 -46.37,-31.83 -86.54,-72.52 -109.21,-124.66 -29.46,-67.82 -26.18,-143.33 -7.46,-213.62 32.18,-120.82 109.89,-237.22 216.58,-304.62 -6.44,-19.14 -12.56,-38.38 -18.94,-57.54 -69.32,50.74 -134.79,107.49 -185.33,176.72 -56.85,77.91 -93.74,169.77 -110.07,264.81 -11.04,64.14 -12.62,131.56 9.27,192.83 17.3,48.4 48.53,90.84 84.73,127.33 101.44,102.32 241.76,159.86 384.28,181.16 142.49,21.3 287.96,8.72 430.34,-13.4 607.15,-94.29 1175.83,-358.78 1703.45,-673.69 110.84,-66.17 221.28,-135.45 313.5,-225.81 92.19,-90.38 165.88,-204.33 187.51,-331.59 8.54,-50.12 8.76,-102.36 -5.69,-151.1 -35.71,-120.37 -156.48,-199.83 -279.79,-223.47z"/>
      <path class="fil16" d="M5165.96 2814.46c-65.2,-61.4 -150.9,-95.68 -237.31,-114.55 -46.33,-10.13 -93.56,-15.8 -140.97,-18.03 88.92,22.27 169.24,62.5 229.98,132.65 137.99,159.35 108.37,409.77 3.18,592.43 -188.79,327.89 -558.33,499.38 -904.95,651 -189.9,83.05 -379.77,166.11 -569.65,249.18 -152.31,66.61 -305.09,133.4 -464.39,180.89 -181.86,54.25 -371.37,82.88 -561.13,84.77 -166.08,1.68 -335.17,-17.83 -487.13,-84.86 -151.96,-67.01 -285.82,-185.9 -345.65,-340.84 -21.59,-55.86 -32.71,-113.67 -38.23,-172.57 -28.03,94 -43.02,194.62 -27.92,292.02 16.66,107.44 71.13,200.21 160.3,263.28 92.28,65.29 203.05,101.59 312.48,125.83 120.11,26.6 243.33,35.27 366.16,32.53 241.99,-5.41 481.68,-53.65 715.89,-111.77 437.64,-108.54 863.41,-273.19 1246.94,-512.09 189.06,-117.77 366.66,-253.55 527.23,-408.05 158.34,-152.36 325.9,-337.73 326.25,-571.17 0.15,-102.14 -36.11,-200.05 -111.08,-270.66z"/>
      <path class="fil12" d="M1809.17 4110.15c-0.04,-0.04 -0.07,-0.09 -0.09,-0.13 -1.85,-3.09 -4.33,-5.56 -7.44,-7.42 -3.22,-1.88 -6.71,-2.83 -10.44,-2.83 -1.83,0.24 -3.66,0.49 -5.5,0.73 -3.51,0.99 -6.56,2.76 -9.14,5.34 -2.03,1.85 -3.44,4.08 -4.28,6.64 -1.3,2.47 -1.9,5.14 -1.79,7.97 0.02,3.75 0.95,7.24 2.83,10.46 1.83,3.11 4.33,5.58 7.42,7.44 0.04,0.02 0.09,0.04 0.13,0.09 1.66,0.68 3.29,1.37 4.94,2.07 2.74,0.86 5.5,0.97 8.23,0.38 1.88,0 3.62,-0.49 5.21,-1.43 2.58,-0.82 4.79,-2.23 6.67,-4.26 1.08,-1.39 2.16,-2.8 3.24,-4.19 0.68,-1.63 1.39,-3.29 2.07,-4.92 0.86,-2.76 0.99,-5.5 0.38,-8.25 -0.13,-2.76 -0.95,-5.32 -2.45,-7.68z"/>
      <path class="fil12" d="M2019.55 4295.55c0.07,-1.77 -0.31,-3.42 -1.1,-4.94 -0.31,-1.08 -0.86,-2.03 -1.66,-2.85 -0.9,-1.39 -2.1,-2.49 -3.6,-3.29 -1.04,-0.44 -2.05,-0.88 -3.07,-1.3 -1.13,-0.15 -2.27,-0.31 -3.42,-0.46 -1.77,-0.07 -3.42,0.31 -4.94,1.1 -1.59,0.53 -2.96,1.41 -4.13,2.65 -0.62,0.64 -1.24,1.28 -1.88,1.92 -0.15,0.13 -0.33,0.24 -0.49,0.38 -1.37,1.28 -2.32,2.78 -2.89,4.5 -0.64,1.1 -0.95,2.27 -0.95,3.53 -0.35,1.24 -0.35,2.47 0,3.71 0,1.28 0.31,2.45 0.95,3.53 0.33,1.19 0.93,2.23 1.79,3.11 0.99,1.5 2.3,2.71 3.93,3.6l3.33 1.39c1.26,0.18 2.49,0.35 3.73,0.51 1.24,-0.15 2.47,-0.33 3.73,-0.51l3.33 -1.39 2.83 -2.21c1.37,-1.26 2.34,-2.76 2.91,-4.5 0.42,-0.75 0.51,-1.59 0.64,-2.43l0 0.51c0.07,-0.38 0.13,-0.77 0.2,-1.19 0,-0.13 0.11,-0.24 0.11,-0.42 0.02,-0.07 -0.04,-0.15 -0.02,-0.22 0.07,-0.44 0.13,-0.88 0.2,-1.32 0.15,-1.13 0.31,-2.25 0.46,-3.4z"/>
      <path class="fil12" d="M2510.87 4544.49c-0.84,-1.96 -1.68,-3.95 -2.52,-5.94 -1.3,-1.7 -2.6,-3.38 -3.91,-5.05 -2.25,-2.43 -4.92,-4.15 -8.01,-5.14 -1.94,-1.13 -4.04,-1.7 -6.29,-1.72 -2.21,-0.57 -4.41,-0.57 -6.62,0 -2.25,0.02 -4.35,0.6 -6.29,1.72 -1.94,0.62 -3.42,2.03 -5.03,3.22l0.79 -0.62c-0.24,0.2 -0.51,0.38 -0.79,0.53 -1.74,0.99 -2.67,1.32 -4.26,2.76 -0.22,0.11 -0.44,0.2 -0.66,0.31 -1.63,1.24 -3.24,2.49 -4.86,3.75 -1.28,1.63 -2.52,3.24 -3.77,4.88 -1.77,2.76 -2.71,5.74 -2.87,8.94 -0.55,2.14 -0.55,4.28 0,6.4 0.02,2.19 0.57,4.19 1.66,6.09 0.57,2.03 1.61,3.82 3.09,5.3 1.7,2.63 3.95,4.7 6.75,6.2 2.03,0.88 4.13,1.85 6.2,2.6 0.2,0.07 0.4,0.13 0.6,0.2 0.2,0.04 0.38,0.09 0.55,0.11 2.1,0.38 4.61,0.66 6.73,0.9 0.13,0.02 0.24,0.02 0.35,0.04 0.4,0.04 0.79,0.04 1.19,0.02 0.09,0 0.18,-0.02 0.26,-0.02 2.19,-0.22 4.75,-0.62 6.91,-0.95 0.22,-0.02 0.44,-0.07 0.66,-0.11 1.26,-0.26 2.36,-0.9 3.58,-1.41 3.64,-1.54 5.1,-1.96 8.34,-5.39 0.07,-0.09 0.13,-0.15 0.2,-0.24 1.7,-1.9 3.31,-3.91 4.68,-6.05 0.09,-0.18 0.2,-0.33 0.29,-0.51 0.04,-0.11 0.09,-0.2 0.13,-0.29 0.86,-1.85 1.85,-4.26 2.6,-6.18 0.93,-2.38 1.1,-5.63 1.19,-7.72 -0.29,-2.21 -0.6,-4.44 -0.88,-6.64z"/>
      <path class="fil12" d="M2942.47 4360.15c-1.17,0 -2.3,0.09 -3.38,0.55 -0.66,0.29 -1.32,0.6 -1.99,0.93 -0.22,-0.09 -0.42,-0.18 -0.62,-0.26 -0.73,-0.29 -0.64,-0.13 -2.07,-0.33 -1.88,-0.42 -3.73,-0.33 -5.58,0.24 -1.13,0.46 -2.25,0.95 -3.35,1.41 -1.63,0.88 -2.94,2.1 -3.93,3.62 -1.24,1.35 -2.07,2.94 -2.52,4.75 -0.15,1.26 -0.33,2.49 -0.49,3.73 0,2.54 0.64,4.9 1.9,7.06 0.73,0.97 1.46,1.9 2.21,2.85 1.26,1.37 2.76,2.32 4.5,2.89 1.68,0.88 3.47,1.28 5.39,1.21 1.24,-0.18 2.49,-0.33 3.73,-0.51 1.83,-0.42 3.42,-1.26 4.77,-2.49 1.52,-0.99 2.74,-2.32 3.62,-3.95 0.46,-1.1 0.93,-2.23 1.39,-3.33 0.68,-2.49 0.68,-4.97 0,-7.46 -0.11,-0.26 -0.22,-0.53 -0.33,-0.82 0.2,-0.42 0.42,-0.86 0.64,-1.3 0.51,-1.15 0.84,-2.03 0.84,-3.33 0,-0.24 0,-0.49 0,-0.73 0.02,-2.56 -2.19,-4.75 -4.72,-4.72z"/>
      <path class="fil12" d="M3076.13 4407.85c-0.07,-0.2 -0.15,-0.4 -0.24,-0.57 -0.02,-0.18 -0.07,-0.44 -0.11,-0.57 -0.02,-0.24 -0.07,-0.46 -0.13,-0.68 -0.53,-1.66 -1.24,-3.22 -2.01,-4.77 -0.11,-0.22 -0.24,-0.44 -0.4,-0.64l-2.65 -3.44c-1.15,-0.88 -2.3,-1.77 -3.44,-2.65 -1.35,-0.55 -2.69,-1.13 -4.06,-1.7 -2.25,-0.73 -4.5,-0.82 -6.75,-0.31 -1.54,0 -2.96,0.38 -4.3,1.15 -1.43,0.42 -2.69,1.13 -3.73,2.19 -0.49,0.31 -0.77,0.82 -1.17,1.17 -1.21,0.71 -2.56,1.21 -3.55,2.27 -1.02,1.32 -2.03,2.63 -3.05,3.95 -1.77,3.02 -2.65,6.31 -2.65,9.82 0,0.09 0,0.18 0,0.24 0.02,0.02 0.02,0.04 0,0.07 -0.02,1.7 0.2,3.4 0.68,5.1 0.64,1.52 1.28,3.02 1.92,4.55 0.46,0.68 0.95,1.32 1.5,1.92 1.77,2.3 2.27,3.31 5.34,4.92 0.31,0.15 4.33,1.88 4.63,1.94 0.07,0.02 0.13,0.04 0.2,0.04 3.47,0.93 6.91,0.93 10.37,0 2.52,-0.6 4.72,-1.77 6.62,-3.49 2.12,-1.37 3.8,-3.2 5.01,-5.45 1.77,-3.05 2.65,-6.31 2.67,-9.84 -0.02,-0.38 -0.62,-4.83 -0.71,-5.21z"/>
      <path class="fil12" d="M3685.89 4126.84c-1.57,-2.43 -3.64,-4.35 -6.25,-5.74 -3.49,-2.01 -7.24,-3.02 -11.26,-3.05 1.94,0.26 3.86,0.53 5.8,0.77 -0.02,0 -0.07,0 -0.09,0 -1.9,-0.31 -3.82,-0.57 -5.72,-0.77 0,0 0,0 0,0 -0.04,0 -0.09,0 -0.11,-0.02 -0.07,0 -0.13,-0.02 -0.2,-0.02 -1.99,0.26 -3.99,0.55 -6,0.82 -3.35,0.75 -4.7,1.77 -6.62,3.24 0.2,-0.15 0.4,-0.31 0.62,-0.49 -0.49,0.38 -1.02,0.71 -1.59,0.95 0.26,-0.11 0.53,-0.22 0.77,-0.33 -0.31,0.24 -0.53,0.4 -0.9,0.66 -0.4,0.31 -0.53,0.4 -0.77,0.6 -0.6,0.4 -1.37,0.51 -1.92,0.99 -2.41,1.57 -4.28,3.62 -5.67,6.18 -0.73,1.77 -1.48,3.51 -2.21,5.25 -0.93,2.91 -1.06,5.85 -0.4,8.76 0,1.99 0.51,3.84 1.5,5.56 0.88,2.71 2.41,5.1 4.55,7.08 1.48,1.15 2.96,2.3 4.46,3.44 3.42,1.96 7.13,2.98 11.1,2.98 0.29,0.04 0.62,0.04 0.93,0 0.07,0 0.15,-0.02 0.24,-0.02 1.96,-0.22 4.15,-0.51 6.09,-0.82 0.15,-0.02 0.33,-0.07 0.51,-0.09 0.31,-0.09 0.64,-0.18 0.95,-0.29 0.07,-0.02 0.15,-0.07 0.22,-0.09 0.02,-0.02 0.07,-0.02 0.11,-0.04 1.79,-0.75 3.6,-1.52 5.39,-2.27 1.52,-1.17 3.05,-2.36 4.57,-3.53 1.19,-1.52 2.36,-3.05 3.53,-4.57 0.57,-0.82 0.97,-1.72 1.17,-2.74 0.35,-0.84 0.95,-1.79 1.15,-2.76 0.02,-0.07 0.04,-0.15 0.04,-0.22 1.08,-3.95 1.08,-7.9 0,-11.85 -0.68,-2.91 -2.01,-5.43 -3.99,-7.59z"/>
      <path class="fil12" d="M4102.83 4086.14c0,-0.99 -0.24,-1.94 -0.75,-2.8 -0.44,-1.37 -1.21,-2.56 -2.3,-3.55 -0.75,-0.6 -1.5,-1.17 -2.23,-1.74 -0.88,-0.35 -1.77,-0.75 -2.65,-1.13 -1.48,-0.44 -2.96,-0.51 -4.41,-0.18 -0.9,0.04 -1.7,0.46 -2.52,0.79 -0.24,-0.04 -0.49,-0.07 -0.73,-0.09 -2.05,-0.09 -3.97,0.33 -5.74,1.28 -1.26,0.35 -2.36,0.99 -3.29,1.92 -1.63,1.04 -2.89,2.43 -3.84,4.17 -0.6,0.84 -1.21,1.68 -1.83,2.54 -1.68,2.34 -2.56,5.14 -2.58,8.06 0,0.9 0.53,1.63 0.68,2.45 -0.02,3 0.77,5.98 2.91,8.12 1.7,1.7 3.93,2.56 6.27,2.94 0.11,0.04 0.2,0.11 0.31,0.13 0.64,0.24 1.28,0.33 1.99,0.29 0.66,0.2 1.35,0.29 2.01,0.26 2.91,0.09 5.76,-0.93 8.08,-2.6 0.84,-0.62 1.7,-1.21 2.54,-1.83 0.99,-0.77 2.01,-1.54 3.02,-2.32 1.43,-1.35 2.47,-2.96 3.07,-4.79 0.68,-1.17 1.02,-2.41 1.02,-3.75 0.13,-0.6 -0.11,-1.17 -0.07,-1.74 0.26,-0.68 0.55,-1.35 0.84,-2.01 0.46,-1.48 0.53,-2.96 0.2,-4.41z"/>
      <path class="fil12" d="M4459.29 3748.77c-0.84,-2.6 -2.3,-4.86 -4.33,-6.75 -2.63,-2.6 -5.72,-4.39 -9.27,-5.41l-2.65 -0.79c-7.79,-2.38 -16.71,0.24 -22.38,5.92 -1.92,1.92 -2.78,4.41 -3.86,6.78 0.07,-0.62 0.15,-1.21 0.24,-1.85 -0.4,0.86 -1.04,1.63 -1.52,2.43 -1.85,3.16 -2.78,6.6 -2.78,10.26 -0.11,2.8 0.46,5.43 1.74,7.86 0.82,2.52 2.23,4.72 4.22,6.56 1.7,1.7 3.93,2.54 6.05,3.51 0.13,0.09 0.2,0.26 0.33,0.35 -0.02,0 -0.07,-0.02 -0.11,-0.04 0.04,0.02 0.09,0.04 0.13,0.09 0.09,0.02 0.13,0.13 0.22,0.2 0.24,0.13 0.53,0.07 0.77,0.2 0.57,0.22 0.97,0.77 1.59,0.93l2.65 0.84c-1.39,-0.57 -2.76,-1.15 -4.15,-1.74 3.35,1.79 6.91,2.89 10.75,2.91 4.15,-0.02 8.01,-1.06 11.61,-3.13 3.47,-2.05 6.2,-4.81 8.25,-8.25 0.46,-0.73 0.95,-1.43 1.43,-2.16 1.9,-3.27 2.87,-6.8 2.87,-10.59 0.11,-2.89 -0.49,-5.58 -1.81,-8.08z"/>
      <path class="fil12" d="M4598.65 3748.24c-0.29,-0.82 -0.88,-1.43 -1.39,-2.14 -0.07,-0.93 -0.15,-1.83 -0.57,-2.65 -0.38,-1.08 -0.97,-2.01 -1.81,-2.8 -0.79,-0.84 -1.72,-1.46 -2.8,-1.81 -1.04,-0.53 -2.16,-0.79 -3.35,-0.73 -0.77,0.09 -1.54,0.2 -2.32,0.31 -1.48,0.4 -2.76,1.15 -3.84,2.23 -0.46,0.6 -0.9,1.17 -1.37,1.77 -0.6,1.02 -0.73,2.14 -0.88,3.27 -0.33,0.44 -0.64,0.86 -0.97,1.28l-1.1 2.58c-0.44,1.43 -0.51,2.89 -0.2,4.35 0.02,0.97 0.26,1.88 0.75,2.74 0.26,0.93 0.73,1.72 1.39,2.38 0.49,0.82 1.15,1.48 1.96,1.96 0.66,0.66 1.48,1.15 2.38,1.39 1.3,0.68 2.69,0.99 4.19,0.93 0.95,-0.11 1.92,-0.24 2.89,-0.38 0.86,-0.38 1.72,-0.73 2.58,-1.1 0.75,-0.55 1.48,-1.13 2.21,-1.7 0.57,-0.73 1.13,-1.46 1.7,-2.19 0.35,-0.88 0.73,-1.74 1.1,-2.6 0.44,-1.43 0.51,-2.89 0.2,-4.35 -0.02,-0.97 -0.26,-1.88 -0.75,-2.74z"/>
      <path class="fil12" d="M4866.94 3323.92c-0.18,-0.26 -0.35,-0.51 -0.55,-0.77 -0.75,-0.97 -1.5,-1.94 -2.27,-2.94 -1.88,-2.91 -4.37,-5.21 -7.48,-6.89l-6.38 -2.69c-0.86,-0.22 -6.4,-0.95 -7.26,-0.95 -0.13,0 -0.26,0.02 -0.4,0.02 -0.11,0 -0.22,0 -0.33,0 -1.3,0 -2.6,0.18 -3.88,0.51 -3.82,0.18 -7.37,1.3 -10.66,3.4 -1.94,1.5 -3.86,3 -5.8,4.5l-4.48 5.8 -2.89 6.82 -1.04 7.64c-0.13,3.95 0.68,7.64 2.47,11.04 0.68,2.45 1.92,4.55 3.69,6.33 1.28,2.16 3,3.88 5.14,5.14 1.81,1.79 3.91,3.02 6.33,3.71 3.42,1.79 7.11,2.6 11.06,2.47l7.61 -1.04 6.86 -2.89 5.8 -4.48 4.46 -5.8c2.12,-3.29 3.24,-6.84 3.42,-10.66 0.68,-2.54 0.68,-5.08 0,-7.61 -0.18,-3.84 -1.3,-7.37 -3.42,-10.66z"/>
      <path class="fil12" d="M5092.95 3020.82c0.02,-0.31 0.02,-0.62 0.02,-0.95 0,-0.15 -0.02,-0.33 -0.04,-0.49 -0.07,-0.66 -0.18,-1.41 -0.29,-2.14 -0.09,-0.4 0.07,-0.77 -0.04,-1.15 -0.02,-0.09 -0.11,-0.15 -0.13,-0.22 -0.09,-0.6 -0.15,-1.19 -0.24,-1.72 0,-0.07 -0.02,-0.13 -0.02,-0.22 -0.07,-0.31 -0.15,-0.62 -0.26,-0.93 -0.02,-0.07 -0.07,-0.13 -0.09,-0.22 -0.55,-1.41 -1.26,-3.09 -1.88,-4.46 -0.09,-0.15 -0.15,-0.31 -0.24,-0.46 -0.93,-1.19 -1.85,-2.41 -2.8,-3.62 -1.19,-0.93 -2.41,-1.85 -3.62,-2.78 -1.41,-0.62 -2.83,-1.21 -4.26,-1.81 -2.38,-0.75 -4.75,-0.84 -7.13,-0.31 -1.61,0 -3.11,0.4 -4.5,1.21 -1.52,0.42 -2.83,1.19 -3.95,2.3 -0.64,0.38 -0.99,1.02 -1.5,1.5 -0.57,0.38 -1.26,0.53 -1.74,1.02 -2.25,1.46 -4.02,3.4 -5.32,5.8 -0.44,0.79 -0.79,1.66 -1.08,2.54 -0.93,1.61 -1.41,3.33 -1.41,5.21 -0.44,3.27 -0.82,4.48 0.4,8.25 0,0.04 0.02,0.09 0.04,0.13 0.38,0.97 1.63,3.91 2.05,4.88 0.02,0.02 0.04,0.07 0.07,0.09 0,0 0,0 0,0 0.07,0.11 2.87,3.77 2.96,3.84 0.02,0.02 0.04,0.07 0.07,0.09 0.02,0 0.04,0.02 0.04,0.04 0.04,0.02 4.04,3.13 4.11,3.16 0.15,0.11 4.72,2.03 4.88,2.07 0.04,0 0.07,0.02 0.11,0.02 0.2,0.04 5.27,0.75 5.52,0.75 2.83,0.11 5.47,-0.49 7.92,-1.77 0.95,-0.2 1.81,-0.57 2.54,-1.1 3.11,-1.83 5.58,-4.3 7.42,-7.39 1.5,-2.36 2.32,-4.94 2.45,-7.68 0.29,-1.28 -0.13,-2.58 -0.18,-3.86 0.04,0.13 0.09,0.24 0.15,0.38z"/>
      <path class="fil12" d="M4682.03 2820.9c-0.44,-2.36 -1.32,-4.46 -2.69,-6.29 -0.66,-0.93 -1.37,-1.85 -2.1,-2.71 -1.13,-1.94 -2.67,-3.49 -4.61,-4.63 -1.43,-1.43 -3.2,-2.34 -5.12,-2.98 -0.35,-0.24 -0.51,-0.66 -0.86,-0.86 -1.57,-0.99 -3.29,-1.32 -5.01,-1.61 -0.49,-0.2 -0.97,-0.4 -1.46,-0.62 -3.27,-0.99 -6.51,-1.15 -9.76,-0.42 -2.23,0 -4.28,0.55 -6.2,1.66 -3.05,0.99 -5.67,2.69 -7.88,5.08 -1.28,1.66 -2.56,3.31 -3.84,4.97 -0.82,1.94 -1.63,3.91 -2.47,5.85 -1.02,3.24 -1.15,6.51 -0.42,9.78 0.15,3.24 1.1,6.29 2.89,9.12 0.75,1.3 1.46,2.63 2.19,3.95 1.35,1.74 2.69,3.49 4.04,5.23 1.77,1.35 3.49,2.69 5.23,4.04 2.07,0.86 4.13,1.74 6.18,2.6 3.42,1.08 6.86,1.24 10.31,0.46 2.32,0 4.5,-0.6 6.51,-1.77 2.19,-0.62 4.08,-1.72 5.69,-3.33 1.94,-1.13 3.49,-2.69 4.63,-4.61 2.3,-2.52 3.82,-5.43 4.61,-8.78 0.04,-0.11 0.09,-0.22 0.13,-0.33l0.93 -6.89c-0.31,-2.3 -0.62,-4.59 -0.93,-6.89z"/>
     </g>
     <path class="fil10" d="M1521.5 2356.22c-38.93,0 -39,60.52 0,60.52 38.96,0 39.02,-60.52 0,-60.52z"/>
     <path class="fil10" d="M1436.86 3862.7c-2.89,-10.37 -8.14,-19.36 -15.71,-26.97 -4.13,-3.2 -8.25,-6.38 -12.38,-9.58 -9.53,-5.52 -19.82,-8.3 -30.86,-8.34 -8.41,-0.31 -16.27,1.46 -23.55,5.25 -7.57,2.47 -14.15,6.69 -19.67,12.67 -5.96,5.52 -10.17,12.07 -12.65,19.67 -3.82,7.28 -5.58,15.14 -5.27,23.55 0.73,5.43 1.46,10.84 2.19,16.24 2.91,10.37 8.14,19.36 15.74,26.97 4.11,3.2 8.23,6.38 12.36,9.58 9.53,5.52 19.82,8.32 30.86,8.34 8.43,0.31 16.27,-1.43 23.55,-5.25 7.59,-2.47 14.15,-6.69 19.69,-12.67 5.96,-5.52 10.17,-12.07 12.65,-19.67 3.82,-7.28 5.58,-15.14 5.25,-23.55 -0.73,-5.43 -1.46,-10.84 -2.19,-16.24z"/>
     <path class="fil10" d="M2306.74 4957.04c-0.79,-1.79 -1.59,-3.58 -2.38,-5.36 -3.55,-5.98 -8.32,-10.75 -14.3,-14.3 -6.22,-3.6 -12.91,-5.41 -20.11,-5.43 -3.53,0.46 -7.06,0.93 -10.59,1.41 -6.75,1.9 -12.62,5.32 -17.59,10.24 -3.88,3.62 -6.64,7.9 -8.23,12.82 -2.52,4.77 -3.64,9.87 -3.44,15.36 0.02,7.2 1.83,13.9 5.45,20.11 3.53,6 8.3,10.77 14.28,14.3 1.81,0.79 3.58,1.59 5.39,2.41 3,1.26 6,2.52 9,3.77 4.99,1.59 10,1.81 15.01,0.68 3.4,-0.02 6.58,-0.86 9.51,-2.56 4.66,-1.52 8.7,-4.13 12.12,-7.81 1.96,-2.54 3.93,-5.08 5.89,-7.61 1.26,-3 2.54,-6 3.8,-9 1.57,-5.01 1.79,-10 0.66,-15.01 -0.22,-5.01 -1.7,-9.69 -4.46,-14.02z"/>
     <path class="fil10" d="M4522.26 4829.91c-1.54,-5.47 -4.33,-10.24 -8.34,-14.3 -2.19,-1.68 -4.37,-3.38 -6.56,-5.05 -5.05,-2.91 -10.48,-4.39 -16.33,-4.41 -4.46,-0.15 -8.63,0.77 -12.47,2.8 -4.02,1.3 -7.5,3.53 -10.44,6.67 -3.16,2.94 -5.39,6.42 -6.69,10.44 -2.03,3.86 -2.96,8.01 -2.78,12.47 0.38,2.87 0.75,5.74 1.15,8.61 1.54,5.5 4.33,10.26 8.32,14.3 2.19,1.68 4.37,3.38 6.56,5.05 5.05,2.94 10.51,4.41 16.35,4.44 4.46,0.15 8.61,-0.77 12.47,-2.78 4.02,-1.32 7.48,-3.55 10.42,-6.71 3.18,-2.94 5.41,-6.42 6.71,-10.44 2.03,-3.84 2.96,-8.01 2.78,-12.47 -0.38,-2.87 -0.77,-5.74 -1.15,-8.61z"/>
     <path class="fil10" d="M5323.04 3727.86c-3.05,-10.86 -8.54,-20.31 -16.51,-28.32 -4.3,-3.35 -8.65,-6.69 -12.98,-10.04 -10,-5.8 -20.79,-8.72 -32.38,-8.74 -8.83,-0.35 -17.08,1.5 -24.74,5.52 -7.95,2.58 -14.83,7 -20.64,13.26 -6.27,5.83 -10.68,12.69 -13.26,20.66 -4.02,7.64 -5.87,15.89 -5.54,24.72 0.77,5.69 1.52,11.37 2.3,17.06 3.05,10.86 8.54,20.31 16.51,28.32 4.33,3.35 8.65,6.69 12.98,10.04 10.02,5.8 20.81,8.72 32.4,8.76 8.83,0.33 17.08,-1.52 24.72,-5.54 7.95,-2.58 14.83,-7 20.64,-13.26 6.27,-5.83 10.7,-12.69 13.29,-20.66 4.02,-7.64 5.85,-15.87 5.52,-24.72 -0.75,-5.67 -1.52,-11.37 -2.3,-17.06z"/>
     <path class="fil10" d="M4426.34 2091.39c-5.25,-8.85 -12.32,-15.91 -21.19,-21.19 -6.78,-4.3 -14.08,-6.64 -21.94,-7 -7.86,-1.74 -15.69,-1.39 -23.55,1.06 -10,2.8 -18.67,7.86 -26.04,15.18 -7.31,7.37 -12.38,16.05 -15.18,26.04 -1.63,6.11 -2.03,12.21 -1.74,18.32 0,0.15 0.02,0.31 0,0.46 0.04,10.37 2.65,20.08 7.86,29.05 5.12,8.65 12.01,15.54 20.66,20.66 8.98,5.21 18.67,7.81 29.05,7.86 10.4,-0.04 20.08,-2.65 29.07,-7.86 0.11,-0.07 0.22,-0.15 0.33,-0.22 4.13,-2.96 8.08,-6.14 12.01,-9.27 0.22,-0.18 0.42,-0.35 0.6,-0.53 0.18,-0.18 0.33,-0.33 0.49,-0.51 3.27,-3.91 6.89,-7.99 9.6,-12.47 5.34,-9.2 8.01,-19.14 8.06,-29.8 -0.04,-10.64 -2.71,-20.59 -8.06,-29.8z"/>
    </g>
   </g>
  </g>
 </g>
</svg>
