<?xml version="1.0" encoding="UTF-8"?>
<!DOCTYPE svg PUBLIC "-//W3C//DTD SVG 1.1//EN" "http://www.w3.org/Graphics/SVG/1.1/DTD/svg11.dtd">
<!-- Creator: CorelDRAW 2021 (64-Bit) -->
<svg xmlns="http://www.w3.org/2000/svg" xml:space="preserve" width="1.1811in" height="1.1811in" version="1.1" style="shape-rendering:geometricPrecision; text-rendering:geometricPrecision; image-rendering:optimizeQuality; fill-rule:evenodd; clip-rule:evenodd"
viewBox="0 0 476.65 476.65"
 xmlns:xlink="http://www.w3.org/1999/xlink"
 xmlns:xodm="http://www.corel.com/coreldraw/odm/2003">
 <defs>
  <style type="text/css">
   <![CDATA[
    .fil0 {fill:none}
    .fil1 {fill:#DB7B6B;fill-rule:nonzero}
    .fil11 {fill:#345254;fill-rule:nonzero}
    .fil18 {fill:#578589;fill-rule:nonzero}
    .fil17 {fill:#679CA3;fill-rule:nonzero}
    .fil7 {fill:#77B8BF;fill-rule:nonzero}
    .fil3 {fill:#7E4F1A;fill-rule:nonzero}
    .fil15 {fill:#80874F;fill-rule:nonzero}
    .fil22 {fill:#A1CDDA;fill-rule:nonzero}
    .fil8 {fill:#A8B167;fill-rule:nonzero}
    .fil20 {fill:#C68C2A;fill-rule:nonzero}
    .fil13 {fill:#C88742;fill-rule:nonzero}
    .fil9 {fill:#CF6734;fill-rule:nonzero}
    .fil19 {fill:#DF9C2D;fill-rule:nonzero}
    .fil4 {fill:#DF9E2F;fill-rule:nonzero}
    .fil6 {fill:#E2E279;fill-rule:nonzero}
    .fil12 {fill:#E6AF60;fill-rule:nonzero}
    .fil2 {fill:#EDC32F;fill-rule:nonzero}
    .fil10 {fill:#EDCA85;fill-rule:nonzero}
    .fil5 {fill:#FBE44F;fill-rule:nonzero}
    .fil21 {fill:#FFF295;fill-rule:nonzero}
    .fil16 {fill:#FFF49C;fill-rule:nonzero}
    .fil14 {fill:#FFF6AF;fill-rule:nonzero}
   ]]>
  </style>
 </defs>
 <g id="Layer_x0020_1">
  <metadata id="CorelCorpID_0Corel-Layer"/>
  <g id="_2952776615392">
   <rect class="fil0" width="476.65" height="476.65"/>
   <g>
    <path class="fil1" d="M416.41 229.8c0,16.87 -16.48,31.15 -21.89,46.36 -5.61,15.77 -1.65,36.14 -12.11,49.27 -10.56,13.26 -33.06,16.07 -47.58,25.72 -14.37,9.55 -24.2,28.28 -41.46,33.41 -16.66,4.94 -36.58,-4.77 -55.05,-4.77 -18.46,0 -38.39,9.72 -55.05,4.77 -17.27,-5.12 -27.09,-23.85 -41.46,-33.41 -14.51,-9.65 -37.01,-12.46 -47.58,-25.72 -10.46,-13.13 -6.5,-33.49 -12.11,-49.27 -5.41,-15.21 -21.89,-29.5 -21.89,-46.36 0,-16.86 16.48,-31.14 21.89,-46.36 5.61,-15.77 1.65,-36.14 12.11,-49.27 10.56,-13.26 33.06,-16.07 47.58,-25.72 14.37,-9.55 24.2,-28.28 41.46,-33.4 16.66,-4.94 36.58,4.77 55.05,4.77 18.46,0 38.39,-9.71 55.05,-4.77 17.27,5.12 27.09,23.85 41.46,33.41 14.51,9.65 37.01,12.46 47.57,25.72 10.46,13.13 6.5,33.5 12.11,49.26 5.41,15.22 21.89,29.5 21.89,46.36z"/>
    <g>
     <g>
      <g>
       <path class="fil2" d="M361.33 253.78c0.43,0.2 0.85,0.4 1.26,0.63 0.12,0.07 1.3,0.67 0.68,0.38 0.45,0.21 0.82,0.66 0.97,1.17 1.67,0.73 1.23,3.53 1.16,5.01 -0.08,1.82 -0.16,3.64 -0.23,5.46 -0.03,0.79 -0.15,1.69 0.06,2.46 0.11,0.41 0.22,0.55 0.45,0.76 0.6,0.54 1.54,0.73 2.41,0.64 1.01,-0.1 2.2,-0.81 3.15,-1.65 1.1,-0.97 2.01,-2.18 2.9,-3.34 1.03,-1.34 2.01,-2.73 2.92,-4.16 0.9,-1.42 1.73,-2.88 2.78,-4.19 0.45,-0.56 1.23,-0.54 1.75,-0.19 1.03,-0.14 1.71,0.42 2.57,0.92 0.65,0.39 1.31,0.74 1.99,1.07 1.36,0.66 2.77,1.22 4.22,1.62 3.06,0.84 6.18,1.26 9.34,0.95 1.22,-0.12 2.15,-0.36 2.45,-1.67 0.31,-1.34 -0.39,-2.63 -1.16,-3.68 -1,-1.36 -2.25,-2.54 -3.54,-3.62 -1.32,-1.11 -2.9,-1.98 -3.77,-3.5 -0.07,-0.12 -0.09,-0.27 -0.12,-0.41 -0.84,-0.55 -1.14,-1.84 -0.46,-2.7 1.5,-1.9 2.89,-3.69 3.88,-5.92 0.84,-1.9 1.62,-4.27 1.49,-6.38 -0.04,-0.66 -0.16,-1.38 -0.86,-1.61 -0.89,-0.29 -2.04,0.22 -2.87,0.49 -1.43,0.47 -2.85,0.95 -4.28,1.42 -1.38,0.46 -2.94,1.2 -4.4,1.22 -0.73,0.01 -1.28,-0.48 -1.45,-1.07 -0.23,0.08 -0.48,0.1 -0.72,-0.02 -1.46,-0.73 -2.74,-2.09 -3.91,-3.2 -1.21,-1.15 -2.42,-2.3 -3.61,-3.47 -1.06,-1.04 -2.05,-2.18 -3.21,-3.12 -0.75,-0.6 -1.67,-1.18 -2.67,-0.92 -2.5,0.65 -2.82,4.15 -3.08,6.23 -0.2,1.64 -0.38,3.28 -0.55,4.92 -0.09,0.89 -0.19,1.77 -0.28,2.66 -0.04,0.41 -0.09,0.82 -0.13,1.23 -0,0.01 -0.01,0.06 -0.01,0.08 0.11,0.23 0.16,0.52 0.13,0.76 -0.03,0.29 -0.41,1.03 -0.3,0.58 -0.29,1.12 -1.27,1.95 -2.48,1.75 -0.26,-0.05 -0.47,-0.15 -0.67,-0.26 -2.26,0.62 -4.52,1.3 -6.65,2.24 -1.24,0.54 -2.44,1.18 -3.58,1.91 -1.07,0.68 -2.31,1.42 -3.05,2.44 -0.09,0.13 -0.18,0.28 -0.26,0.47 0,0 -0.01,0.03 -0.01,0.04 0.03,0.02 0.03,0.03 0.07,0.05 0.22,0.14 0.32,0.2 0.62,0.35 1.44,0.7 2.91,1.36 4.37,2.04 1.49,0.69 2.97,1.38 4.46,2.08 0.74,0.35 1.49,0.69 2.23,1.04z"/>
      </g>
      <path class="fil3" d="M359.81 257.93c0.41,0.19 0.85,0.4 1.3,0.54 -0.1,0.89 -0.07,1.82 -0.09,2.47l-0.2 5.46c-0.07,1.79 -0.07,3.52 0.86,5.12 0.63,1.08 1.64,1.93 2.78,2.44 2.6,1.16 5.48,0.63 7.8,-0.9 2.42,-1.6 4.15,-4.2 5.7,-6.6 1.14,-1.76 2.29,-3.62 3.14,-5.58 0.27,0.19 0.56,0.38 0.9,0.58 0.86,0.51 1.76,0.97 2.67,1.38 1.88,0.85 3.87,1.5 5.88,1.94 2.01,0.45 4.09,0.58 6.15,0.61 1.94,0.03 4.17,0.01 5.98,-0.78 4.15,-1.8 3.96,-6.98 1.85,-10.24 -1.15,-1.77 -2.78,-3.31 -4.37,-4.67 -1.14,-0.97 -2.3,-1.89 -3.64,-2.41 1.46,-1.69 2.6,-3.79 3.42,-5.82 0.84,-2.07 1.5,-4.29 1.73,-6.52 0.23,-2.22 -0.17,-4.7 -2.29,-5.88 -2.08,-1.16 -4.52,-0.2 -6.57,0.5 -1.27,0.43 -2.54,0.86 -3.81,1.29 -1.25,0.42 -2.68,0.76 -3.78,1.53 -0.85,-1.71 -2.41,-3.22 -3.67,-4.63 -1.3,-1.46 -2.62,-2.91 -3.98,-4.33 -2.2,-2.3 -4.81,-4.68 -8.25,-3.69 -3.39,0.98 -4.97,4.41 -5.61,7.59 -0.37,1.8 -0.64,3.63 -0.92,5.45 -0.25,1.64 -0.5,3.31 -0.65,4.97 -2.52,0.17 -4.95,0.81 -7.32,1.79 -2.64,1.1 -5.44,2.53 -7.51,4.53 -2.16,2.07 -3.1,5.58 -0.34,7.65 1.21,0.91 2.71,1.46 4.08,2.1l4.45 2.09c1.43,0.67 2.86,1.35 4.29,2.02zm-9.53 -9.3l0 0c-0.3,-0.15 -0.41,-0.21 -0.62,-0.35 -0.03,-0.02 -0.04,-0.03 -0.07,-0.05 0,-0.01 0.01,-0.04 0.01,-0.04 0.08,-0.19 0.17,-0.35 0.26,-0.47 0.74,-1.03 1.97,-1.76 3.05,-2.44 1.14,-0.73 2.34,-1.37 3.58,-1.91 2.14,-0.94 4.39,-1.62 6.65,-2.24 0.2,0.11 0.41,0.22 0.67,0.26 1.21,0.21 2.19,-0.63 2.48,-1.75 -0.11,0.44 0.27,-0.3 0.3,-0.58 0.02,-0.24 -0.02,-0.53 -0.13,-0.76 0,-0.02 0.01,-0.07 0.01,-0.08 0.04,-0.41 0.08,-0.82 0.13,-1.23 0.1,-0.89 0.19,-1.77 0.28,-2.66 0.17,-1.64 0.34,-3.28 0.55,-4.92 0.26,-2.07 0.58,-5.58 3.08,-6.23 1,-0.26 1.92,0.32 2.67,0.92 1.16,0.93 2.16,2.07 3.21,3.12 1.19,1.17 2.4,2.33 3.61,3.47 1.17,1.11 2.46,2.47 3.91,3.2 0.24,0.12 0.48,0.1 0.72,0.02 0.17,0.59 0.72,1.08 1.45,1.07 1.46,-0.02 3.03,-0.76 4.4,-1.22 1.43,-0.47 2.85,-0.95 4.28,-1.42 0.83,-0.27 1.98,-0.78 2.87,-0.49 0.7,0.23 0.82,0.95 0.86,1.61 0.14,2.11 -0.64,4.47 -1.49,6.38 -0.99,2.23 -2.38,4.02 -3.88,5.92 -0.68,0.86 -0.37,2.15 0.46,2.7 0.03,0.14 0.05,0.29 0.12,0.41 0.87,1.53 2.45,2.39 3.77,3.5 1.29,1.08 2.54,2.27 3.54,3.62 0.77,1.05 1.47,2.34 1.16,3.68 -0.3,1.31 -1.23,1.55 -2.45,1.67 -3.16,0.31 -6.29,-0.11 -9.34,-0.95 -1.46,-0.4 -2.87,-0.97 -4.22,-1.62 -0.68,-0.33 -1.34,-0.68 -1.99,-1.07 -0.85,-0.51 -1.53,-1.06 -2.57,-0.92 -0.52,-0.35 -1.3,-0.37 -1.75,0.19 -1.05,1.31 -1.88,2.77 -2.78,4.19 -0.91,1.43 -1.89,2.82 -2.92,4.16 -0.89,1.16 -1.8,2.37 -2.9,3.34 -0.95,0.84 -2.14,1.55 -3.15,1.65 -0.88,0.09 -1.81,-0.11 -2.41,-0.64 -0.23,-0.2 -0.33,-0.35 -0.45,-0.76 -0.21,-0.77 -0.1,-1.67 -0.06,-2.46 0.08,-1.82 0.16,-3.64 0.23,-5.46 0.06,-1.47 0.5,-4.28 -1.16,-5.01 -0.15,-0.5 -0.52,-0.96 -0.97,-1.17 0.62,0.29 -0.55,-0.31 -0.68,-0.38 -0.41,-0.23 -0.83,-0.43 -1.26,-0.63 -0.74,-0.34 -1.49,-0.69 -2.23,-1.04 -1.49,-0.69 -2.97,-1.38 -4.46,-2.08 -1.46,-0.68 -2.93,-1.33 -4.37,-2.04z"/>
      <g>
       <path class="fil4" d="M367.87 270.26c0.08,-0 0.15,0.02 0.23,0.02 1.01,-0.1 2.2,-0.81 3.15,-1.65 1.1,-0.97 2.01,-2.18 2.9,-3.34 1.03,-1.34 2.01,-2.73 2.92,-4.16 0.9,-1.42 1.73,-2.88 2.78,-4.19 0.45,-0.56 1.23,-0.54 1.75,-0.19 0.48,-0.06 0.88,0.03 1.25,0.19 -0.63,-0.62 -1.29,-1.21 -2.04,-1.68 -1.67,-1.05 -3.98,-1.42 -5.56,-0.23 -0.8,0.6 -1.3,1.5 -1.76,2.38 -1.62,3.1 -3.04,6.32 -4.24,9.61 -0.4,1.11 -0.79,2.24 -1.39,3.24z"/>
       <path class="fil4" d="M366.28 239.64c-0.02,0.06 -0.06,0.11 -0.08,0.18 0.44,-0.08 0.88,-0.17 1.32,-0.25 1.24,-0.24 2.53,-0.5 3.5,-1.31 2.14,-1.8 1.61,-5.17 0.89,-7.88 -0.62,-2.33 -1.25,-4.66 -1.87,-7 -2.06,0.95 -2.38,4.09 -2.62,6.02 -0.2,1.64 -0.38,3.28 -0.55,4.92 -0.09,0.89 -0.19,1.77 -0.28,2.66 -0.04,0.41 -0.09,0.82 -0.13,1.23 -0,0.01 -0.01,0.06 -0.01,0.08 0.11,0.23 0.16,0.52 0.13,0.76 -0.03,0.29 -0.41,1.03 -0.3,0.58z"/>
       <path class="fil4" d="M359.1 252.74c0.74,0.35 1.49,0.69 2.23,1.04 0.43,0.2 0.85,0.4 1.26,0.63 0.12,0.07 1.3,0.67 0.68,0.38 0.45,0.21 0.82,0.66 0.97,1.17 0.27,0.12 0.47,0.31 0.64,0.52 0.28,-1.13 0.53,-2.27 0.71,-3.43 0.12,-0.74 0.21,-1.53 -0.05,-2.23 -0.65,-1.72 -2.9,-2.03 -4.74,-2.11 -3.67,-0.15 -7.34,-0.46 -10.99,-0.94 -0.08,0.12 -0.16,0.25 -0.23,0.42 0,0 -0.01,0.03 -0.01,0.04 0.03,0.02 0.03,0.03 0.07,0.05 0.22,0.14 0.32,0.2 0.62,0.35 1.44,0.7 2.91,1.36 4.37,2.04 1.49,0.69 2.97,1.38 4.46,2.08z"/>
       <path class="fil4" d="M386.06 234.97c-0.33,0 -0.62,-0.1 -0.86,-0.27 0.36,1.17 0.92,2.26 1.74,3.2 0.37,0.43 0.83,0.84 1.39,0.92 0.64,0.1 1.25,-0.24 1.8,-0.58 2.83,-1.74 5.42,-3.86 7.74,-6.24 -0.08,-0.06 -0.16,-0.13 -0.27,-0.16 -0.89,-0.29 -2.04,0.22 -2.87,0.49 -1.43,0.47 -2.85,0.95 -4.28,1.42 -1.38,0.46 -2.94,1.2 -4.4,1.22z"/>
       <path class="fil4" d="M393.69 248.85c-0.07,-0.12 -0.09,-0.27 -0.12,-0.41 -0.4,-0.26 -0.66,-0.69 -0.77,-1.16 -0.57,0.53 -1.11,1.1 -1.54,1.75 -1.15,1.7 -1.58,4.09 -0.42,5.79 1.36,1.99 4.12,2.22 6.49,2.66 1.68,0.31 3.31,0.84 4.88,1.53 0,-1.1 -0.55,-2.15 -1.2,-3.02 -1,-1.36 -2.25,-2.54 -3.54,-3.62 -1.32,-1.11 -2.9,-1.98 -3.77,-3.5z"/>
      </g>
      <path class="fil5" d="M377.63 231.39c-0.04,-0.2 -0.1,-0.4 -0.16,-0.6 -0.1,-0.35 -0.37,-0.62 -0.63,-0.85 -0.16,-0.14 -0.31,-0.28 -0.46,-0.43 0.1,0.11 0.2,0.21 0.31,0.32 -0.17,-0.17 -0.34,-0.34 -0.51,-0.51 -0.15,-0.16 -0.3,-0.32 -0.43,-0.49 -0.07,-0.09 -0.14,-0.18 -0.2,-0.27 -0.15,-0.21 -0.29,-0.37 -0.48,-0.56 0.09,0.1 0.18,0.19 0.28,0.29 -0.52,-0.55 -1.2,-1.58 -2.1,-1.2 -0.75,0.31 -0.84,1.3 -0.74,2 0.04,0.31 0.1,0.63 0.23,0.92 0.11,0.25 0.24,0.5 0.38,0.74 0.27,0.48 0.55,0.93 0.94,1.33 0.19,0.2 0.38,0.39 0.59,0.57 0.46,0.4 1.05,0.53 1.65,0.47 0.79,-0.08 1.48,-0.91 1.33,-1.71z"/>
      <path class="fil5" d="M379.88 235.08c0.01,-0.3 0.02,-0.54 -0.09,-0.83 -0.08,-0.2 -0.17,-0.42 -0.3,-0.59 -0.07,-0.08 -0.13,-0.17 -0.2,-0.25 -0.17,-0.21 -0.36,-0.41 -0.61,-0.52 -0.14,-0.06 -0.29,-0.09 -0.43,-0.12l-0.34 -0c-0.17,0.02 -0.32,0.07 -0.46,0.16 -0.1,0.04 -0.19,0.11 -0.26,0.19 -0.13,0.11 -0.23,0.24 -0.29,0.4 -0.01,0.02 -0.01,0.03 -0.02,0.05 -0.04,0.1 -0.09,0.27 -0.11,0.38 -0,0.12 -0,0.25 -0.01,0.37l0.09 0.34c0.01,0.03 0.02,0.05 0.02,0.08 0.03,0.1 0.06,0.21 0.09,0.31 0.04,0.12 0.13,0.25 0.19,0.36 0.01,0.02 0.03,0.05 0.04,0.07 0.03,0.04 0.05,0.08 0.08,0.13 0.04,0.06 0.09,0.12 0.14,0.16 0.04,0.05 0.09,0.1 0.14,0.14 0.02,0.02 0.04,0.03 0.06,0.04 0.04,0.03 0.09,0.06 0.13,0.08 0.18,0.15 0.39,0.24 0.63,0.27 0.23,0.03 0.46,0.01 0.68,-0.08 0.21,-0.09 0.39,-0.22 0.53,-0.39 0.15,-0.19 0.24,-0.39 0.27,-0.63l0.01 -0.14z"/>
      <path class="fil5" d="M361.2 244.68c0.05,-0.25 -0.11,-0.49 -0.33,-0.59 -0.05,-0.03 -0.28,-0.1 -0.15,-0.05 0.1,0.03 -0.03,-0.01 -0.04,-0.01 0.1,0.08 0.2,0.17 0.31,0.25 -0.18,-0.23 -0.37,-0.34 -0.64,-0.42 -0.32,-0.1 -0.35,-0.12 -0.7,-0.11 -0.08,0 -0.16,0 -0.24,0.01 -0.29,0.02 -0.58,0.11 -0.86,0.16 -0.38,0.06 -0.79,0.19 -1.14,0.37 -0.27,0.13 -0.54,0.26 -0.82,0.36 -0.46,0.17 -0.79,0.72 -0.71,1.21 0.08,0.48 0.46,0.95 0.97,1 0.8,0.07 1.65,0.17 2.42,-0.16 0.36,-0.15 0.76,-0.31 1.07,-0.54 0.39,-0.29 0.75,-0.75 0.78,-1.25 0.03,-0.07 0.06,-0.14 0.07,-0.21z"/>
      <path class="fil5" d="M370.48 258.53c0.02,-0.2 0.06,-0.39 0.09,-0.59 0.05,-0.32 0.01,-0.65 0.01,-0.97 -0,0.13 -0,0.25 -0,0.37 0,-0.16 0.02,-0.33 0.01,-0.5 -0.01,-0.16 -0.07,-0.32 -0.12,-0.47 -0.03,-0.11 -0.06,-0.21 -0.09,-0.32 0.02,0.07 0.03,0.13 0.05,0.2 -0.09,-0.35 -0.24,-0.64 -0.59,-0.79 -0.32,-0.14 -0.71,-0.1 -1,0.11 -0.1,0.08 -0.2,0.16 -0.3,0.23 -0.26,0.21 -0.41,0.42 -0.58,0.71 -0.08,0.13 -0.15,0.27 -0.22,0.4 -0.12,0.23 -0.17,0.49 -0.23,0.74 -0.08,0.34 -0.17,0.68 -0.18,1.02 -0,0.2 0.01,0.39 0.04,0.6 0.07,0.47 0.25,0.8 0.62,1.13 0.22,0.2 0.53,0.28 0.82,0.28 0.31,0 0.55,-0.08 0.81,-0.25 0.35,-0.23 0.52,-0.58 0.66,-0.95 0.07,-0.2 0.14,-0.41 0.17,-0.62 0.01,-0.11 0.02,-0.22 0.03,-0.33z"/>
      <g>
       <path class="fil5" d="M388.24 255.56c0.05,0.01 0.1,0.03 0.15,0.04 0.03,0 0.05,0 0.08,0 -0.08,-0.01 -0.15,-0.02 -0.23,-0.04z"/>
       <path class="fil5" d="M390.76 256.56c-0.21,-0.28 -0.49,-0.43 -0.81,-0.52 -0,0 -0,0 -0,0 -0.14,-0.04 -0.26,-0.1 -0.38,-0.17 -0.27,-0.14 -0.57,-0.12 -0.86,-0.2 0.07,0.02 0.13,0.04 0.19,0.06 -0.28,-0.09 -0.54,-0.16 -0.84,-0.12 0.1,0 0.2,0 0.3,0 -0.47,-0.15 -0.97,-0.09 -1.33,0.27 -0.17,0.16 -0.28,0.34 -0.34,0.57 -0.05,0.11 -0.06,0.22 -0.05,0.34 -0.02,0.17 0.01,0.34 0.08,0.5 0.12,0.43 0.38,0.84 0.73,1.11 0.49,0.38 1.08,0.67 1.72,0.58 0.23,-0.03 0.46,-0.09 0.67,-0.16 0.2,-0.06 0.43,-0.16 0.59,-0.29 0.3,-0.24 0.52,-0.56 0.58,-0.94 0.05,-0.35 -0.04,-0.74 -0.26,-1.02z"/>
       <path class="fil5" d="M388.44 255.61c-0.01,-0 -0.03,0 -0.04,-0 0.06,0.02 0.13,0.04 0.19,0.05 -0.05,-0.01 -0.1,-0.03 -0.15,-0.05z"/>
       <path class="fil5" d="M388.39 255.6c-0.01,0 -0.02,0 -0.02,0 0.01,0 0.02,0 0.04,0 -0,-0 -0.01,-0 -0.01,-0z"/>
      </g>
      <path class="fil5" d="M396.24 239.02c0.05,-0.3 -0.01,-0.62 -0.2,-0.87 -0.01,-0.01 -0.02,-0.02 -0.03,-0.03 -0.19,-0.22 -0.17,-0.2 -0.37,-0.32 -0.04,-0.04 -0.1,-0.07 -0.15,-0.09 -0.11,-0.03 -0.22,-0.06 -0.33,-0.09 -0.07,-0.02 -0.14,-0.03 -0.2,-0.03 -0.12,-0.01 -0.31,-0.02 -0.42,-0 -0.01,0 -0.03,0 -0.04,0.01 -0.15,0.03 -0.31,0.08 -0.46,0.12 -0.02,0.01 -0.04,0.01 -0.07,0.02 -0.11,0.04 -0.26,0.14 -0.36,0.2 -0.04,0.03 -0.08,0.05 -0.11,0.08 -0.16,0.12 -0.32,0.28 -0.46,0.43 -0.03,0.03 -0.06,0.06 -0.09,0.09 -0.05,0.06 -0.09,0.12 -0.12,0.19 -0.05,0.06 -0.09,0.13 -0.12,0.2 -0.01,0.02 -0.02,0.04 -0.02,0.06 -0.04,0.1 -0.07,0.2 -0.1,0.31 -0.04,0.07 -0.06,0.15 -0.06,0.23 -0,0.14 -0,0.28 -0,0.42 0,0.02 0,0.04 0,0.05 0,0.08 0.02,0.16 0.04,0.24 0.03,0.12 0.06,0.24 0.09,0.36l0.18 0.32 0.25 0.26c0.15,0.13 0.31,0.21 0.5,0.24 0.12,0.05 0.24,0.07 0.37,0.05 0.13,0.02 0.25,0 0.37,-0.04 0.12,-0.02 0.24,-0.06 0.34,-0.14 0.17,-0.08 0.31,-0.19 0.42,-0.34 0.05,-0.06 0.1,-0.12 0.15,-0.17 -0.09,0.09 -0.19,0.18 -0.28,0.27 0.12,-0.12 0.27,-0.22 0.37,-0.36 0.03,-0.04 0.06,-0.09 0.09,-0.13 0.09,-0.12 0.14,-0.24 0.2,-0.36 0.01,-0.02 0.03,-0.04 0.04,-0.06 0.11,-0.14 0.2,-0.31 0.29,-0.46 -0.07,0.11 -0.13,0.22 -0.2,0.33 0.09,-0.15 0.2,-0.28 0.27,-0.44 0.02,-0.04 0.04,-0.09 0.07,-0.13 -0.06,0.1 -0.12,0.19 -0.18,0.29 0.15,-0.24 0.27,-0.4 0.31,-0.69z"/>
     </g>
     <g>
      <g>
       <path class="fil2" d="M97.07 247.5c0.32,0.35 0.63,0.69 0.92,1.06 0.09,0.11 0.95,1.12 0.48,0.61 0.34,0.37 0.5,0.93 0.45,1.45 1.26,1.3 -0.21,3.73 -0.83,5.07 -0.77,1.65 -1.53,3.3 -2.3,4.96 -0.33,0.71 -0.78,1.51 -0.88,2.3 -0.05,0.42 -0.01,0.59 0.13,0.87 0.35,0.72 1.14,1.26 1.99,1.51 0.98,0.29 2.35,0.09 3.54,-0.32 1.39,-0.48 2.69,-1.25 3.96,-1.98 1.46,-0.85 2.9,-1.76 4.28,-2.73 1.37,-0.97 2.69,-2 4.16,-2.81 0.63,-0.35 1.34,-0.03 1.69,0.49 1.01,0.27 1.43,1.04 2.02,1.83 0.45,0.6 0.93,1.19 1.43,1.75 1.01,1.12 2.1,2.18 3.29,3.11 2.5,1.94 5.23,3.52 8.27,4.44 1.18,0.36 2.12,0.49 2.9,-0.61 0.8,-1.12 0.65,-2.58 0.33,-3.85 -0.41,-1.64 -1.12,-3.21 -1.9,-4.7 -0.8,-1.53 -1.93,-2.93 -2.15,-4.68 -0.02,-0.14 0.02,-0.28 0.04,-0.43 -0.56,-0.82 -0.35,-2.13 0.6,-2.67 2.11,-1.18 4.08,-2.31 5.84,-4 1.5,-1.44 3.13,-3.33 3.8,-5.33 0.21,-0.63 0.37,-1.34 -0.19,-1.82 -0.71,-0.61 -1.97,-0.58 -2.84,-0.64 -1.5,-0.1 -3,-0.21 -4.49,-0.31 -1.45,-0.1 -3.18,-0.01 -4.54,-0.55 -0.68,-0.27 -1,-0.94 -0.93,-1.54 -0.25,-0.02 -0.48,-0.09 -0.66,-0.29 -1.07,-1.23 -1.74,-2.97 -2.4,-4.45 -0.68,-1.52 -1.36,-3.05 -2.01,-4.59 -0.58,-1.37 -1.07,-2.8 -1.78,-4.1 -0.46,-0.84 -1.09,-1.73 -2.11,-1.87 -2.56,-0.35 -4.19,2.77 -5.22,4.59 -0.81,1.43 -1.6,2.89 -2.38,4.34 -0.43,0.79 -0.85,1.57 -1.28,2.35 -0.2,0.36 -0.39,0.72 -0.59,1.09 -0.01,0.01 -0.03,0.05 -0.04,0.07 0.02,0.26 -0.05,0.54 -0.17,0.76 -0.14,0.25 -0.77,0.79 -0.5,0.43 -0.69,0.93 -1.92,1.32 -2.96,0.67 -0.22,-0.14 -0.38,-0.32 -0.52,-0.5 -2.32,-0.29 -4.67,-0.52 -7.01,-0.46 -1.36,0.03 -2.7,0.16 -4.04,0.4 -1.25,0.23 -2.67,0.43 -3.74,1.1 -0.13,0.08 -0.27,0.2 -0.42,0.34 -0,0 -0.02,0.03 -0.02,0.04 0.02,0.03 0.02,0.04 0.05,0.07 0.15,0.22 0.22,0.31 0.44,0.56 1.07,1.2 2.18,2.37 3.26,3.55 1.11,1.21 2.22,2.41 3.33,3.62 0.55,0.6 1.11,1.21 1.67,1.81z"/>
      </g>
      <path class="fil3" d="M94.08 250.75c0.31,0.33 0.63,0.69 1,0.99 -0.43,0.79 -0.76,1.66 -1.03,2.25l-2.26 4.98c-0.74,1.63 -1.41,3.23 -1.16,5.06 0.17,1.24 0.78,2.41 1.64,3.31 1.97,2.06 4.83,2.68 7.56,2.14 2.85,-0.56 5.44,-2.3 7.79,-3.93 1.72,-1.19 3.49,-2.48 5.03,-3.96 0.18,0.28 0.38,0.56 0.61,0.87 0.61,0.8 1.26,1.57 1.94,2.3 1.42,1.5 3.01,2.86 4.7,4.04 1.69,1.19 3.56,2.09 5.46,2.9 1.78,0.76 3.85,1.6 5.82,1.56 4.52,-0.09 6.32,-4.94 5.61,-8.77 -0.39,-2.07 -1.3,-4.12 -2.26,-5.98 -0.68,-1.33 -1.41,-2.62 -2.45,-3.61 1.99,-1.01 3.85,-2.52 5.38,-4.08 1.56,-1.59 3.03,-3.4 4.08,-5.37 1.06,-1.97 1.63,-4.41 0.12,-6.31 -1.48,-1.86 -4.1,-1.91 -6.27,-2.04 -1.34,-0.08 -2.68,-0.17 -4.01,-0.26 -1.32,-0.08 -2.77,-0.31 -4.08,-0.03 -0.13,-1.91 -1,-3.9 -1.63,-5.68 -0.65,-1.85 -1.32,-3.69 -2.03,-5.52 -1.15,-2.97 -2.66,-6.16 -6.22,-6.55 -3.5,-0.39 -6.27,2.19 -8.08,4.88 -1.02,1.53 -1.97,3.11 -2.92,4.69 -0.85,1.42 -1.72,2.87 -2.49,4.35 -2.39,-0.8 -4.88,-1.14 -7.45,-1.13 -2.86,0.01 -5.99,0.27 -8.67,1.32 -2.79,1.09 -5,3.98 -3.23,6.94 0.78,1.3 1.95,2.38 2.97,3.5l3.32 3.63c1.07,1.17 2.13,2.33 3.2,3.5zm-5.27 -12.23l0 0c-0.23,-0.25 -0.3,-0.34 -0.44,-0.56 -0.02,-0.03 -0.03,-0.04 -0.05,-0.07 0,-0.01 0.02,-0.03 0.02,-0.04 0.15,-0.15 0.28,-0.26 0.42,-0.34 1.07,-0.67 2.49,-0.87 3.74,-1.1 1.34,-0.24 2.68,-0.37 4.04,-0.4 2.33,-0.05 4.68,0.17 7.01,0.46 0.14,0.18 0.3,0.36 0.52,0.5 1.04,0.65 2.26,0.26 2.96,-0.67 -0.27,0.37 0.36,-0.17 0.5,-0.43 0.12,-0.22 0.18,-0.5 0.17,-0.76 0.01,-0.02 0.03,-0.06 0.04,-0.07 0.2,-0.36 0.39,-0.72 0.59,-1.09 0.43,-0.78 0.85,-1.57 1.28,-2.35 0.78,-1.45 1.57,-2.9 2.38,-4.34 1.03,-1.82 2.66,-4.94 5.22,-4.59 1.02,0.14 1.65,1.03 2.11,1.87 0.71,1.3 1.2,2.74 1.78,4.1 0.65,1.54 1.33,3.06 2.01,4.59 0.66,1.47 1.33,3.22 2.4,4.45 0.17,0.2 0.41,0.27 0.66,0.29 -0.07,0.61 0.26,1.28 0.93,1.54 1.36,0.54 3.09,0.45 4.54,0.55 1.5,0.1 3,0.21 4.49,0.31 0.87,0.06 2.13,0.03 2.84,0.64 0.56,0.48 0.4,1.19 0.19,1.82 -0.68,2 -2.3,3.89 -3.8,5.33 -1.76,1.69 -3.73,2.81 -5.84,4 -0.96,0.54 -1.17,1.85 -0.6,2.67 -0.03,0.14 -0.06,0.29 -0.04,0.43 0.23,1.74 1.36,3.15 2.15,4.68 0.78,1.49 1.49,3.06 1.9,4.7 0.32,1.26 0.47,2.72 -0.33,3.85 -0.78,1.1 -1.72,0.96 -2.9,0.61 -3.04,-0.92 -5.77,-2.5 -8.27,-4.44 -1.19,-0.92 -2.28,-1.98 -3.29,-3.11 -0.5,-0.56 -0.98,-1.14 -1.43,-1.75 -0.6,-0.79 -1.02,-1.56 -2.02,-1.83 -0.35,-0.53 -1.06,-0.84 -1.69,-0.49 -1.47,0.81 -2.79,1.85 -4.16,2.81 -1.38,0.97 -2.82,1.88 -4.28,2.73 -1.26,0.73 -2.57,1.5 -3.96,1.98 -1.2,0.41 -2.57,0.62 -3.54,0.32 -0.84,-0.25 -1.64,-0.79 -1.99,-1.51 -0.14,-0.28 -0.18,-0.45 -0.13,-0.87 0.1,-0.79 0.55,-1.58 0.88,-2.3 0.77,-1.65 1.53,-3.3 2.3,-4.96 0.62,-1.34 2.09,-3.77 0.83,-5.07 0.05,-0.52 -0.12,-1.08 -0.45,-1.45 0.47,0.51 -0.39,-0.5 -0.48,-0.61 -0.3,-0.37 -0.61,-0.71 -0.92,-1.06 -0.56,-0.6 -1.11,-1.21 -1.67,-1.81 -1.11,-1.21 -2.22,-2.41 -3.33,-3.62 -1.09,-1.18 -2.2,-2.35 -3.26,-3.55z"/>
      <g>
       <path class="fil4" d="M96.83 265.22c0.07,0.03 0.13,0.08 0.2,0.1 0.98,0.29 2.35,0.09 3.54,-0.32 1.39,-0.48 2.69,-1.25 3.96,-1.98 1.46,-0.85 2.9,-1.76 4.28,-2.73 1.37,-0.97 2.69,-2 4.16,-2.81 0.63,-0.35 1.34,-0.03 1.69,0.49 0.46,0.12 0.8,0.36 1.09,0.65 -0.35,-0.82 -0.73,-1.61 -1.24,-2.33 -1.15,-1.6 -3.14,-2.83 -5.05,-2.33 -0.96,0.25 -1.77,0.89 -2.53,1.53 -2.69,2.25 -5.22,4.68 -7.58,7.27 -0.79,0.87 -1.59,1.77 -2.52,2.47z"/>
       <path class="fil4" d="M107.02 236.3c-0.04,0.05 -0.1,0.09 -0.14,0.14 0.44,0.09 0.88,0.18 1.31,0.27 1.23,0.25 2.53,0.5 3.74,0.12 2.67,-0.85 3.46,-4.17 3.82,-6.95 0.31,-2.39 0.62,-4.79 0.94,-7.18 -2.27,0.09 -3.76,2.88 -4.72,4.57 -0.81,1.43 -1.6,2.89 -2.38,4.34 -0.43,0.79 -0.85,1.57 -1.28,2.35 -0.2,0.36 -0.39,0.72 -0.59,1.09 -0.01,0.01 -0.03,0.05 -0.04,0.07 0.02,0.26 -0.05,0.54 -0.17,0.76 -0.14,0.25 -0.77,0.79 -0.5,0.43z"/>
       <path class="fil4" d="M95.4 245.69c0.55,0.6 1.11,1.21 1.67,1.81 0.32,0.35 0.63,0.69 0.92,1.06 0.09,0.11 0.95,1.12 0.48,0.61 0.34,0.37 0.5,0.93 0.45,1.45 0.21,0.21 0.32,0.46 0.39,0.73 0.69,-0.94 1.36,-1.9 1.97,-2.9 0.39,-0.64 0.78,-1.33 0.8,-2.08 0.06,-1.84 -1.91,-2.99 -3.58,-3.75 -3.34,-1.53 -6.61,-3.22 -9.8,-5.06 -0.12,0.08 -0.24,0.17 -0.37,0.3 -0,0 -0.02,0.03 -0.02,0.04 0.02,0.03 0.02,0.04 0.05,0.07 0.15,0.22 0.22,0.31 0.44,0.56 1.07,1.2 2.18,2.37 3.26,3.55 1.11,1.21 2.22,2.41 3.33,3.62z"/>
       <path class="fil4" d="M127.09 239.52c-0.31,-0.12 -0.53,-0.33 -0.69,-0.58 -0.11,1.22 -0.01,2.44 0.39,3.62 0.19,0.54 0.45,1.09 0.94,1.38 0.55,0.33 1.25,0.25 1.88,0.15 3.28,-0.53 6.49,-1.5 9.54,-2.82 -0.06,-0.09 -0.1,-0.18 -0.19,-0.26 -0.71,-0.61 -1.97,-0.58 -2.84,-0.64 -1.5,-0.1 -3,-0.21 -4.49,-0.31 -1.45,-0.1 -3.18,-0.01 -4.54,-0.55z"/>
       <path class="fil4" d="M128.87 255.26c-0.02,-0.14 0.02,-0.28 0.04,-0.43 -0.27,-0.39 -0.35,-0.89 -0.27,-1.37 -0.73,0.28 -1.44,0.59 -2.09,1.03 -1.71,1.14 -3.02,3.18 -2.59,5.19 0.5,2.36 2.97,3.63 4.99,4.93 1.43,0.93 2.74,2.04 3.93,3.27 0.42,-1.02 0.31,-2.2 0.04,-3.25 -0.41,-1.64 -1.12,-3.21 -1.9,-4.7 -0.8,-1.53 -1.93,-2.93 -2.15,-4.68z"/>
      </g>
      <path class="fil5" d="M120.66 233c0.04,-0.2 0.06,-0.41 0.08,-0.61 0.04,-0.36 -0.1,-0.72 -0.26,-1.03 -0.1,-0.19 -0.18,-0.38 -0.26,-0.57 0.05,0.14 0.11,0.27 0.16,0.41 -0.09,-0.22 -0.18,-0.45 -0.27,-0.67 -0.08,-0.2 -0.15,-0.41 -0.21,-0.62 -0.03,-0.11 -0.06,-0.22 -0.08,-0.33 -0.06,-0.25 -0.13,-0.45 -0.23,-0.7 0.05,0.12 0.1,0.25 0.14,0.37 -0.27,-0.71 -0.51,-1.92 -1.49,-1.91 -0.82,0 -1.27,0.88 -1.45,1.56 -0.08,0.31 -0.15,0.62 -0.14,0.94 0.01,0.28 0.04,0.55 0.07,0.83 0.07,0.55 0.16,1.07 0.36,1.59 0.1,0.26 0.2,0.51 0.33,0.75 0.27,0.54 0.77,0.89 1.35,1.07 0.76,0.23 1.71,-0.27 1.88,-1.07z"/>
      <path class="fil5" d="M121.34 237.27c0.13,-0.27 0.23,-0.49 0.23,-0.8 0,-0.22 0,-0.45 -0.05,-0.66 -0.03,-0.1 -0.06,-0.2 -0.09,-0.31 -0.08,-0.26 -0.17,-0.52 -0.37,-0.71 -0.1,-0.1 -0.23,-0.2 -0.35,-0.28l-0.31 -0.14c-0.16,-0.05 -0.33,-0.06 -0.49,-0.03 -0.11,0 -0.22,0.03 -0.31,0.08 -0.16,0.05 -0.3,0.13 -0.42,0.26 -0.01,0.01 -0.02,0.03 -0.04,0.04 -0.08,0.08 -0.19,0.22 -0.25,0.31 -0.05,0.11 -0.1,0.23 -0.14,0.34l-0.05 0.35c-0,0.03 -0.01,0.06 -0.01,0.08 -0.01,0.11 -0.03,0.21 -0.03,0.32 -0.01,0.12 0.02,0.28 0.04,0.41 0,0.03 0.01,0.06 0.01,0.08 0.01,0.05 0.02,0.1 0.03,0.15 0.01,0.07 0.03,0.14 0.07,0.2 0.02,0.06 0.05,0.12 0.07,0.19 0.01,0.02 0.03,0.04 0.04,0.07 0.03,0.04 0.06,0.08 0.09,0.13 0.11,0.21 0.27,0.37 0.48,0.49 0.2,0.12 0.42,0.18 0.66,0.18 0.23,0 0.44,-0.05 0.64,-0.16 0.2,-0.11 0.37,-0.27 0.49,-0.48l0.06 -0.13z"/>
      <path class="fil5" d="M100.41 239.03c0.14,-0.21 0.08,-0.49 -0.08,-0.67 -0.04,-0.04 -0.23,-0.2 -0.12,-0.1 0.08,0.07 -0.02,-0.02 -0.03,-0.03 0.06,0.11 0.13,0.23 0.19,0.34 -0.08,-0.28 -0.22,-0.46 -0.43,-0.64 -0.26,-0.22 -0.28,-0.24 -0.6,-0.36 -0.07,-0.03 -0.15,-0.06 -0.22,-0.08 -0.27,-0.09 -0.58,-0.12 -0.85,-0.18 -0.38,-0.09 -0.8,-0.13 -1.19,-0.1 -0.3,0.02 -0.6,0.03 -0.9,0.02 -0.49,-0.02 -1.01,0.36 -1.12,0.84 -0.11,0.47 0.06,1.06 0.52,1.29 0.71,0.37 1.46,0.78 2.29,0.78 0.39,-0 0.82,0 1.19,-0.09 0.47,-0.12 0.98,-0.41 1.2,-0.86 0.05,-0.05 0.1,-0.1 0.15,-0.17z"/>
      <path class="fil5" d="M103.72 255.37c0.1,-0.17 0.2,-0.34 0.3,-0.51 0.16,-0.28 0.26,-0.6 0.38,-0.89 -0.05,0.11 -0.1,0.23 -0.15,0.34 0.07,-0.15 0.14,-0.3 0.2,-0.46 0.05,-0.15 0.06,-0.32 0.07,-0.48 0.01,-0.11 0.02,-0.22 0.04,-0.33 -0.01,0.07 -0.02,0.14 -0.03,0.21 0.05,-0.36 0.02,-0.68 -0.24,-0.96 -0.25,-0.26 -0.62,-0.37 -0.97,-0.28 -0.12,0.03 -0.24,0.07 -0.36,0.1 -0.32,0.09 -0.54,0.23 -0.81,0.43 -0.12,0.09 -0.24,0.19 -0.36,0.29 -0.2,0.17 -0.34,0.39 -0.49,0.59 -0.21,0.28 -0.42,0.56 -0.55,0.88 -0.08,0.19 -0.14,0.37 -0.19,0.57 -0.11,0.47 -0.07,0.84 0.14,1.28 0.13,0.27 0.39,0.46 0.65,0.57 0.28,0.12 0.54,0.14 0.85,0.08 0.41,-0.08 0.7,-0.33 0.97,-0.63 0.14,-0.16 0.29,-0.32 0.4,-0.51 0.05,-0.1 0.1,-0.2 0.16,-0.29z"/>
      <g>
       <path class="fil5" d="M121.26 259.39c0.04,0.03 0.08,0.07 0.12,0.1 0.02,0.01 0.05,0.02 0.07,0.03 -0.07,-0.04 -0.13,-0.08 -0.19,-0.13z"/>
       <path class="fil5" d="M123.22 261.27c-0.09,-0.34 -0.29,-0.58 -0.55,-0.79 -0,0 -0,0 -0,0 -0.11,-0.09 -0.2,-0.19 -0.29,-0.3 -0.2,-0.23 -0.48,-0.33 -0.72,-0.51 0.05,0.04 0.1,0.08 0.16,0.13 -0.22,-0.19 -0.44,-0.35 -0.73,-0.43 0.09,0.04 0.18,0.08 0.27,0.12 -0.38,-0.32 -0.86,-0.45 -1.33,-0.26 -0.22,0.09 -0.39,0.21 -0.53,0.4 -0.09,0.08 -0.14,0.18 -0.18,0.3 -0.08,0.15 -0.12,0.32 -0.11,0.49 -0.05,0.44 0.03,0.92 0.25,1.31 0.31,0.54 0.75,1.03 1.37,1.19 0.22,0.06 0.46,0.09 0.68,0.11 0.21,0.02 0.46,0.01 0.66,-0.04 0.37,-0.11 0.7,-0.31 0.9,-0.65 0.18,-0.3 0.24,-0.7 0.15,-1.04z"/>
       <path class="fil5" d="M121.43 259.51c-0.01,-0.01 -0.03,-0.01 -0.04,-0.02 0.05,0.04 0.1,0.08 0.15,0.12 -0.04,-0.03 -0.08,-0.07 -0.12,-0.1z"/>
       <path class="fil5" d="M121.39 259.48c-0.01,-0 -0.02,-0.01 -0.02,-0.01 0.01,0.01 0.02,0.01 0.03,0.02 -0,-0 -0.01,-0.01 -0.01,-0.01z"/>
      </g>
      <path class="fil5" d="M134.97 247.14c0.16,-0.26 0.23,-0.58 0.15,-0.88 -0,-0.01 -0.01,-0.03 -0.01,-0.04 -0.09,-0.27 -0.08,-0.25 -0.21,-0.43 -0.03,-0.06 -0.06,-0.1 -0.11,-0.14 -0.09,-0.07 -0.18,-0.14 -0.27,-0.21 -0.06,-0.04 -0.11,-0.08 -0.18,-0.11 -0.1,-0.05 -0.27,-0.14 -0.39,-0.17 -0.02,-0 -0.03,-0.01 -0.04,-0.01 -0.16,-0.03 -0.31,-0.05 -0.47,-0.07 -0.02,-0 -0.05,-0 -0.07,-0 -0.12,-0 -0.29,0.03 -0.41,0.05 -0.04,0.01 -0.09,0.02 -0.14,0.03 -0.2,0.05 -0.4,0.14 -0.58,0.22 -0.04,0.02 -0.08,0.03 -0.12,0.05 -0.07,0.03 -0.12,0.08 -0.18,0.13 -0.07,0.04 -0.13,0.09 -0.19,0.14 -0.01,0.01 -0.03,0.03 -0.04,0.04 -0.08,0.08 -0.14,0.16 -0.21,0.25 -0.06,0.05 -0.11,0.12 -0.14,0.19 -0.06,0.13 -0.11,0.26 -0.17,0.39 -0.01,0.02 -0.01,0.03 -0.02,0.05 -0.03,0.08 -0.04,0.15 -0.06,0.24 -0.02,0.12 -0.03,0.24 -0.05,0.37l0.04 0.36 0.13 0.34c0.09,0.17 0.21,0.31 0.37,0.42 0.09,0.09 0.2,0.16 0.33,0.19 0.11,0.07 0.23,0.1 0.36,0.1 0.12,0.03 0.24,0.03 0.36,0 0.18,-0.01 0.36,-0.06 0.52,-0.15 0.07,-0.04 0.14,-0.07 0.21,-0.1 -0.12,0.05 -0.24,0.1 -0.37,0.14 0.16,-0.06 0.33,-0.1 0.48,-0.19 0.05,-0.03 0.09,-0.06 0.14,-0.09 0.13,-0.08 0.23,-0.17 0.33,-0.26 0.02,-0.01 0.04,-0.03 0.06,-0.04 0.16,-0.09 0.3,-0.21 0.44,-0.32 -0.1,0.08 -0.2,0.15 -0.31,0.23 0.14,-0.1 0.29,-0.19 0.42,-0.31 0.04,-0.03 0.07,-0.07 0.11,-0.09 -0.09,0.07 -0.18,0.13 -0.27,0.2 0.23,-0.17 0.4,-0.27 0.55,-0.52z"/>
     </g>
     <g>
      <g>
       <path class="fil2" d="M221.29 124.89c0.32,0.35 0.63,0.69 0.92,1.06 0.09,0.11 0.95,1.12 0.48,0.61 0.34,0.37 0.5,0.93 0.45,1.45 1.26,1.31 -0.21,3.73 -0.83,5.07 -0.76,1.65 -1.53,3.31 -2.3,4.96 -0.33,0.71 -0.78,1.51 -0.88,2.3 -0.05,0.42 -0.01,0.59 0.12,0.87 0.35,0.72 1.14,1.26 1.99,1.51 0.98,0.3 2.35,0.09 3.54,-0.32 1.39,-0.48 2.69,-1.25 3.96,-1.98 1.46,-0.85 2.9,-1.76 4.28,-2.73 1.37,-0.97 2.69,-2 4.16,-2.81 0.63,-0.35 1.34,-0.03 1.69,0.49 1.01,0.27 1.43,1.04 2.02,1.83 0.45,0.6 0.93,1.19 1.43,1.75 1,1.12 2.1,2.18 3.29,3.11 2.5,1.94 5.23,3.52 8.27,4.44 1.18,0.36 2.12,0.49 2.9,-0.61 0.8,-1.12 0.65,-2.58 0.33,-3.85 -0.41,-1.64 -1.12,-3.21 -1.9,-4.7 -0.8,-1.53 -1.93,-2.93 -2.16,-4.68 -0.02,-0.14 0.02,-0.28 0.04,-0.42 -0.56,-0.82 -0.35,-2.13 0.6,-2.67 2.11,-1.18 4.08,-2.31 5.84,-4 1.5,-1.44 3.13,-3.33 3.8,-5.33 0.21,-0.63 0.37,-1.34 -0.19,-1.82 -0.71,-0.61 -1.97,-0.58 -2.84,-0.64 -1.5,-0.11 -3,-0.21 -4.49,-0.31 -1.45,-0.1 -3.18,-0.01 -4.54,-0.55 -0.68,-0.27 -1,-0.94 -0.93,-1.54 -0.25,-0.02 -0.48,-0.09 -0.66,-0.29 -1.07,-1.23 -1.74,-2.97 -2.4,-4.45 -0.68,-1.52 -1.36,-3.05 -2.01,-4.59 -0.58,-1.37 -1.07,-2.8 -1.78,-4.11 -0.46,-0.84 -1.09,-1.73 -2.11,-1.87 -2.56,-0.35 -4.19,2.77 -5.22,4.59 -0.81,1.43 -1.6,2.89 -2.38,4.34 -0.42,0.78 -0.85,1.57 -1.28,2.35 -0.2,0.36 -0.39,0.72 -0.59,1.09 -0.01,0.01 -0.03,0.05 -0.04,0.07 0.02,0.26 -0.05,0.54 -0.17,0.75 -0.14,0.25 -0.77,0.79 -0.5,0.43 -0.69,0.93 -1.92,1.32 -2.96,0.67 -0.23,-0.14 -0.38,-0.32 -0.52,-0.5 -2.32,-0.29 -4.67,-0.52 -7.01,-0.47 -1.36,0.03 -2.7,0.16 -4.04,0.4 -1.25,0.23 -2.67,0.43 -3.74,1.1 -0.13,0.08 -0.27,0.2 -0.42,0.34 -0,0 -0.02,0.03 -0.02,0.04 0.02,0.03 0.02,0.04 0.05,0.07 0.15,0.22 0.22,0.31 0.44,0.56 1.07,1.2 2.18,2.37 3.26,3.55 1.11,1.21 2.22,2.41 3.33,3.62 0.55,0.6 1.11,1.21 1.67,1.81z"/>
      </g>
      <path class="fil3" d="M218.3 128.15c0.3,0.33 0.63,0.69 1,0.99 -0.43,0.79 -0.75,1.65 -1.02,2.25l-2.27 4.98c-0.74,1.63 -1.41,3.23 -1.16,5.06 0.17,1.24 0.78,2.41 1.65,3.31 1.97,2.06 4.83,2.67 7.56,2.14 2.85,-0.56 5.44,-2.3 7.79,-3.93 1.72,-1.19 3.49,-2.48 5.03,-3.96 0.17,0.28 0.37,0.56 0.61,0.88 0.61,0.8 1.26,1.57 1.94,2.3 1.42,1.5 3.01,2.86 4.7,4.04 1.69,1.19 3.56,2.09 5.46,2.9 1.78,0.76 3.85,1.6 5.82,1.56 4.52,-0.09 6.32,-4.94 5.61,-8.77 -0.39,-2.07 -1.3,-4.12 -2.26,-5.98 -0.68,-1.33 -1.41,-2.62 -2.45,-3.61 2,-1.01 3.85,-2.52 5.38,-4.08 1.56,-1.6 3.03,-3.4 4.09,-5.37 1.06,-1.97 1.64,-4.41 0.12,-6.31 -1.48,-1.86 -4.1,-1.91 -6.27,-2.04 -1.34,-0.08 -2.68,-0.17 -4.01,-0.26 -1.32,-0.08 -2.77,-0.32 -4.08,-0.03 -0.13,-1.91 -1,-3.9 -1.63,-5.68 -0.65,-1.85 -1.32,-3.69 -2.03,-5.52 -1.15,-2.97 -2.66,-6.16 -6.22,-6.55 -3.51,-0.39 -6.28,2.19 -8.08,4.88 -1.02,1.53 -1.97,3.11 -2.92,4.69 -0.85,1.42 -1.72,2.87 -2.49,4.35 -2.39,-0.8 -4.88,-1.14 -7.45,-1.13 -2.86,0.01 -5.99,0.27 -8.67,1.32 -2.79,1.09 -4.99,3.98 -3.23,6.94 0.78,1.3 1.95,2.38 2.97,3.5l3.32 3.63c1.07,1.17 2.13,2.34 3.2,3.5zm-5.27 -12.23l0 0c-0.23,-0.25 -0.3,-0.34 -0.44,-0.56 -0.02,-0.03 -0.03,-0.05 -0.05,-0.07 0,-0.01 0.02,-0.03 0.02,-0.04 0.15,-0.15 0.28,-0.26 0.42,-0.34 1.07,-0.67 2.49,-0.87 3.74,-1.1 1.34,-0.24 2.68,-0.37 4.04,-0.4 2.33,-0.05 4.68,0.17 7.01,0.47 0.14,0.18 0.3,0.36 0.52,0.5 1.04,0.65 2.26,0.26 2.96,-0.67 -0.27,0.37 0.36,-0.17 0.5,-0.43 0.12,-0.22 0.18,-0.5 0.17,-0.75 0.01,-0.02 0.03,-0.06 0.04,-0.07 0.2,-0.36 0.39,-0.73 0.59,-1.09 0.43,-0.78 0.85,-1.57 1.28,-2.35 0.78,-1.45 1.57,-2.9 2.38,-4.34 1.03,-1.82 2.66,-4.94 5.22,-4.59 1.02,0.14 1.65,1.03 2.11,1.87 0.71,1.31 1.2,2.74 1.78,4.11 0.65,1.54 1.33,3.06 2.01,4.59 0.66,1.47 1.33,3.22 2.4,4.45 0.17,0.2 0.41,0.27 0.66,0.29 -0.07,0.61 0.26,1.28 0.93,1.54 1.36,0.54 3.09,0.45 4.54,0.55 1.5,0.1 3,0.21 4.49,0.31 0.87,0.06 2.13,0.03 2.84,0.64 0.56,0.48 0.4,1.19 0.19,1.82 -0.68,2 -2.3,3.89 -3.8,5.33 -1.76,1.69 -3.73,2.81 -5.84,4 -0.96,0.54 -1.17,1.85 -0.6,2.67 -0.02,0.14 -0.06,0.29 -0.04,0.42 0.23,1.74 1.36,3.15 2.16,4.68 0.78,1.49 1.49,3.06 1.9,4.7 0.31,1.26 0.47,2.72 -0.33,3.85 -0.78,1.1 -1.72,0.96 -2.9,0.61 -3.04,-0.92 -5.77,-2.5 -8.27,-4.44 -1.19,-0.92 -2.28,-1.99 -3.29,-3.11 -0.5,-0.56 -0.98,-1.14 -1.43,-1.75 -0.6,-0.79 -1.02,-1.57 -2.02,-1.83 -0.35,-0.53 -1.06,-0.84 -1.69,-0.49 -1.47,0.81 -2.79,1.85 -4.16,2.81 -1.38,0.98 -2.82,1.88 -4.28,2.73 -1.26,0.74 -2.57,1.5 -3.96,1.98 -1.2,0.41 -2.57,0.62 -3.54,0.32 -0.84,-0.25 -1.64,-0.79 -1.99,-1.51 -0.14,-0.28 -0.18,-0.45 -0.12,-0.87 0.1,-0.79 0.55,-1.58 0.88,-2.3 0.77,-1.65 1.53,-3.3 2.3,-4.96 0.62,-1.34 2.09,-3.77 0.83,-5.07 0.05,-0.52 -0.12,-1.08 -0.45,-1.45 0.47,0.51 -0.39,-0.5 -0.48,-0.61 -0.3,-0.37 -0.61,-0.71 -0.92,-1.06 -0.56,-0.6 -1.11,-1.21 -1.67,-1.81 -1.11,-1.21 -2.22,-2.41 -3.33,-3.62 -1.09,-1.18 -2.2,-2.35 -3.26,-3.55z"/>
      <g>
       <path class="fil4" d="M221.06 142.62c0.07,0.03 0.13,0.08 0.2,0.1 0.98,0.3 2.35,0.09 3.54,-0.32 1.39,-0.48 2.69,-1.25 3.96,-1.98 1.46,-0.85 2.9,-1.76 4.28,-2.73 1.37,-0.97 2.69,-2 4.16,-2.81 0.63,-0.35 1.34,-0.03 1.69,0.49 0.47,0.12 0.8,0.36 1.09,0.65 -0.34,-0.81 -0.73,-1.61 -1.24,-2.33 -1.15,-1.6 -3.14,-2.83 -5.05,-2.33 -0.96,0.25 -1.77,0.89 -2.53,1.53 -2.69,2.25 -5.22,4.68 -7.58,7.27 -0.79,0.87 -1.59,1.77 -2.52,2.47z"/>
       <path class="fil4" d="M231.25 113.7c-0.04,0.05 -0.1,0.09 -0.14,0.13 0.44,0.09 0.88,0.18 1.31,0.27 1.23,0.25 2.53,0.5 3.74,0.12 2.67,-0.85 3.46,-4.17 3.82,-6.95 0.31,-2.39 0.62,-4.79 0.94,-7.18 -2.27,0.09 -3.76,2.88 -4.72,4.57 -0.81,1.43 -1.6,2.89 -2.38,4.34 -0.42,0.78 -0.85,1.57 -1.28,2.35 -0.2,0.36 -0.39,0.72 -0.59,1.09 -0.01,0.01 -0.03,0.05 -0.04,0.07 0.02,0.26 -0.05,0.54 -0.17,0.75 -0.14,0.25 -0.77,0.79 -0.5,0.43z"/>
       <path class="fil4" d="M219.63 123.09c0.55,0.6 1.11,1.21 1.67,1.81 0.32,0.35 0.63,0.69 0.92,1.06 0.09,0.11 0.95,1.12 0.48,0.61 0.34,0.37 0.5,0.93 0.45,1.45 0.2,0.21 0.32,0.46 0.39,0.73 0.69,-0.94 1.36,-1.9 1.96,-2.9 0.39,-0.64 0.78,-1.33 0.8,-2.08 0.06,-1.84 -1.91,-2.99 -3.58,-3.75 -3.34,-1.54 -6.61,-3.22 -9.8,-5.06 -0.12,0.08 -0.24,0.17 -0.37,0.3 -0,0 -0.02,0.03 -0.02,0.04 0.02,0.03 0.02,0.04 0.05,0.07 0.15,0.22 0.22,0.31 0.44,0.56 1.07,1.2 2.18,2.37 3.26,3.55 1.11,1.21 2.22,2.41 3.33,3.62z"/>
       <path class="fil4" d="M251.32 116.92c-0.31,-0.12 -0.53,-0.33 -0.69,-0.58 -0.11,1.22 -0.01,2.44 0.39,3.62 0.19,0.54 0.45,1.09 0.94,1.38 0.55,0.33 1.25,0.26 1.88,0.15 3.28,-0.53 6.48,-1.5 9.54,-2.82 -0.06,-0.09 -0.1,-0.18 -0.19,-0.26 -0.71,-0.61 -1.97,-0.58 -2.84,-0.64 -1.5,-0.11 -3,-0.21 -4.49,-0.31 -1.45,-0.1 -3.18,-0.01 -4.54,-0.55z"/>
       <path class="fil4" d="M253.09 132.66c-0.02,-0.14 0.02,-0.28 0.04,-0.42 -0.27,-0.39 -0.35,-0.89 -0.27,-1.37 -0.73,0.28 -1.44,0.59 -2.09,1.03 -1.71,1.14 -3.02,3.18 -2.59,5.19 0.5,2.36 2.97,3.63 4.99,4.93 1.43,0.92 2.74,2.04 3.93,3.27 0.42,-1.02 0.31,-2.2 0.04,-3.25 -0.41,-1.64 -1.12,-3.21 -1.9,-4.7 -0.8,-1.53 -1.93,-2.93 -2.16,-4.68z"/>
      </g>
      <path class="fil5" d="M244.89 110.4c0.04,-0.2 0.06,-0.41 0.08,-0.62 0.04,-0.36 -0.1,-0.71 -0.26,-1.03 -0.1,-0.19 -0.18,-0.38 -0.26,-0.57 0.05,0.14 0.11,0.28 0.16,0.41 -0.09,-0.23 -0.18,-0.45 -0.27,-0.67 -0.08,-0.2 -0.15,-0.41 -0.21,-0.62 -0.03,-0.11 -0.06,-0.22 -0.08,-0.33 -0.06,-0.25 -0.13,-0.45 -0.23,-0.7 0.05,0.12 0.1,0.25 0.15,0.37 -0.27,-0.71 -0.51,-1.92 -1.49,-1.91 -0.82,0 -1.27,0.88 -1.45,1.57 -0.08,0.31 -0.15,0.62 -0.14,0.94 0.01,0.28 0.04,0.55 0.07,0.83 0.07,0.55 0.16,1.07 0.36,1.59 0.1,0.26 0.2,0.51 0.33,0.75 0.27,0.54 0.77,0.89 1.35,1.07 0.76,0.23 1.71,-0.28 1.89,-1.07z"/>
      <path class="fil5" d="M245.57 114.67c0.13,-0.27 0.23,-0.49 0.23,-0.8 0,-0.22 0,-0.45 -0.05,-0.66 -0.03,-0.1 -0.06,-0.2 -0.09,-0.31 -0.08,-0.26 -0.17,-0.52 -0.37,-0.71 -0.1,-0.1 -0.23,-0.19 -0.35,-0.28l-0.31 -0.13c-0.16,-0.05 -0.33,-0.06 -0.49,-0.03 -0.11,0 -0.22,0.03 -0.31,0.08 -0.16,0.05 -0.3,0.13 -0.42,0.26 -0.01,0.01 -0.02,0.02 -0.04,0.04 -0.08,0.08 -0.19,0.22 -0.25,0.31 -0.05,0.11 -0.1,0.23 -0.14,0.34l-0.05 0.35c-0,0.03 -0.01,0.06 -0.01,0.08 -0.01,0.11 -0.03,0.21 -0.03,0.32 -0.01,0.12 0.02,0.28 0.04,0.4 0,0.03 0.01,0.06 0.01,0.08 0.01,0.05 0.02,0.1 0.03,0.15 0.01,0.07 0.04,0.14 0.07,0.2 0.02,0.06 0.05,0.12 0.07,0.18 0.01,0.02 0.03,0.04 0.04,0.07 0.03,0.04 0.06,0.09 0.09,0.13 0.11,0.21 0.27,0.37 0.48,0.49 0.2,0.12 0.42,0.18 0.66,0.18 0.23,0 0.44,-0.05 0.64,-0.16 0.2,-0.11 0.37,-0.27 0.49,-0.48l0.06 -0.13z"/>
      <path class="fil5" d="M224.64 116.43c0.14,-0.21 0.08,-0.49 -0.08,-0.67 -0.04,-0.04 -0.23,-0.2 -0.12,-0.1 0.08,0.07 -0.02,-0.02 -0.03,-0.03 0.06,0.11 0.13,0.23 0.19,0.34 -0.08,-0.28 -0.22,-0.46 -0.43,-0.64 -0.26,-0.22 -0.28,-0.24 -0.6,-0.36 -0.07,-0.03 -0.15,-0.06 -0.22,-0.08 -0.27,-0.09 -0.58,-0.12 -0.85,-0.18 -0.38,-0.09 -0.8,-0.13 -1.19,-0.1 -0.3,0.02 -0.6,0.03 -0.9,0.02 -0.49,-0.02 -1.01,0.36 -1.12,0.84 -0.11,0.47 0.06,1.06 0.52,1.29 0.71,0.37 1.46,0.78 2.29,0.78 0.39,-0 0.82,0 1.19,-0.09 0.47,-0.12 0.98,-0.41 1.2,-0.86 0.05,-0.05 0.1,-0.1 0.14,-0.17z"/>
      <path class="fil5" d="M227.94 132.77c0.1,-0.17 0.2,-0.34 0.31,-0.51 0.16,-0.28 0.26,-0.6 0.38,-0.89 -0.05,0.11 -0.1,0.23 -0.15,0.34 0.07,-0.15 0.14,-0.3 0.2,-0.46 0.05,-0.15 0.06,-0.32 0.07,-0.48 0.01,-0.11 0.02,-0.22 0.04,-0.33 -0.01,0.07 -0.02,0.14 -0.03,0.2 0.05,-0.36 0.02,-0.68 -0.24,-0.95 -0.25,-0.26 -0.62,-0.37 -0.97,-0.28 -0.12,0.03 -0.24,0.07 -0.37,0.1 -0.32,0.09 -0.54,0.23 -0.81,0.43 -0.12,0.09 -0.24,0.19 -0.36,0.29 -0.2,0.17 -0.34,0.39 -0.49,0.59 -0.21,0.28 -0.42,0.56 -0.55,0.88 -0.08,0.19 -0.14,0.37 -0.19,0.57 -0.11,0.47 -0.07,0.84 0.14,1.28 0.13,0.27 0.39,0.46 0.65,0.57 0.28,0.12 0.54,0.13 0.85,0.08 0.41,-0.08 0.7,-0.33 0.97,-0.63 0.14,-0.16 0.29,-0.32 0.4,-0.51 0.05,-0.1 0.1,-0.2 0.16,-0.29z"/>
      <g>
       <path class="fil5" d="M245.49 136.78c0.04,0.03 0.08,0.07 0.12,0.1 0.02,0.01 0.05,0.02 0.07,0.03 -0.07,-0.04 -0.13,-0.08 -0.19,-0.13z"/>
       <path class="fil5" d="M247.44 138.67c-0.09,-0.34 -0.29,-0.58 -0.55,-0.79 0,0 -0,0 -0,-0 -0.11,-0.09 -0.2,-0.19 -0.29,-0.3 -0.2,-0.23 -0.48,-0.33 -0.72,-0.51 0.05,0.04 0.1,0.08 0.16,0.12 -0.22,-0.19 -0.44,-0.35 -0.73,-0.43 0.09,0.04 0.18,0.08 0.27,0.12 -0.38,-0.32 -0.86,-0.45 -1.33,-0.26 -0.22,0.09 -0.39,0.21 -0.53,0.4 -0.08,0.08 -0.14,0.18 -0.17,0.3 -0.08,0.15 -0.12,0.32 -0.11,0.49 -0.05,0.44 0.03,0.92 0.25,1.31 0.31,0.54 0.75,1.03 1.37,1.19 0.22,0.06 0.46,0.09 0.68,0.11 0.21,0.02 0.46,0.01 0.66,-0.04 0.37,-0.11 0.7,-0.31 0.9,-0.65 0.18,-0.3 0.24,-0.7 0.15,-1.04z"/>
       <path class="fil5" d="M245.66 136.91c-0.01,-0.01 -0.03,-0.01 -0.04,-0.02 0.05,0.04 0.1,0.08 0.15,0.12 -0.04,-0.03 -0.08,-0.07 -0.12,-0.1z"/>
       <path class="fil5" d="M245.61 136.88c-0.01,-0 -0.01,-0.01 -0.02,-0.01 0.01,0.01 0.02,0.01 0.03,0.02 -0,-0 -0.01,-0 -0.01,-0.01z"/>
      </g>
      <path class="fil5" d="M259.2 124.54c0.16,-0.26 0.23,-0.58 0.15,-0.88 -0,-0.01 -0.01,-0.03 -0.01,-0.04 -0.09,-0.27 -0.08,-0.25 -0.21,-0.43 -0.03,-0.06 -0.06,-0.1 -0.11,-0.14 -0.09,-0.07 -0.18,-0.14 -0.27,-0.21 -0.06,-0.04 -0.11,-0.08 -0.18,-0.11 -0.1,-0.05 -0.27,-0.14 -0.39,-0.16 -0.01,-0 -0.03,-0.01 -0.04,-0.01 -0.16,-0.03 -0.31,-0.05 -0.47,-0.07 -0.02,-0 -0.05,-0 -0.07,-0 -0.12,-0 -0.29,0.03 -0.41,0.05 -0.04,0.01 -0.09,0.02 -0.14,0.03 -0.2,0.05 -0.4,0.14 -0.58,0.22 -0.04,0.02 -0.08,0.03 -0.12,0.05 -0.07,0.03 -0.12,0.08 -0.18,0.13 -0.07,0.04 -0.13,0.09 -0.18,0.14 -0.02,0.01 -0.03,0.03 -0.05,0.04 -0.07,0.08 -0.14,0.16 -0.21,0.25 -0.06,0.05 -0.11,0.12 -0.14,0.19 -0.06,0.13 -0.11,0.26 -0.17,0.39 -0.01,0.02 -0.01,0.03 -0.02,0.05 -0.03,0.08 -0.04,0.15 -0.06,0.24 -0.02,0.12 -0.03,0.24 -0.05,0.37l0.04 0.36 0.14 0.34c0.09,0.17 0.21,0.31 0.37,0.42 0.09,0.09 0.2,0.16 0.33,0.19 0.11,0.07 0.23,0.1 0.36,0.1 0.12,0.03 0.24,0.03 0.36,0 0.19,-0.01 0.36,-0.06 0.52,-0.16 0.07,-0.04 0.14,-0.07 0.21,-0.1 -0.12,0.05 -0.24,0.1 -0.37,0.14 0.16,-0.06 0.33,-0.1 0.48,-0.19 0.05,-0.03 0.09,-0.06 0.14,-0.09 0.13,-0.08 0.23,-0.17 0.33,-0.26 0.02,-0.01 0.04,-0.03 0.06,-0.04 0.16,-0.09 0.3,-0.21 0.44,-0.32 -0.1,0.08 -0.21,0.15 -0.31,0.23 0.14,-0.1 0.29,-0.19 0.42,-0.31 0.04,-0.03 0.07,-0.07 0.11,-0.09 -0.09,0.07 -0.18,0.13 -0.27,0.2 0.23,-0.17 0.4,-0.27 0.55,-0.52z"/>
     </g>
     <g>
      <g>
       <path class="fil6" d="M220.38 337.39c-9.47,11.33 -19.14,22.51 -28.92,33.59 -4.89,5.54 -9.81,11.05 -14.77,16.53 -1.63,1.8 -3.52,4.57 -5.72,6.72 5.71,1.67 12.04,2.29 15.79,-1.21 4.1,-3.84 7.88,-9.81 11.5,-14.24 4.94,-6.05 9.88,-12.1 14.82,-18.15 6.62,-8.1 13.2,-16.25 19.79,-24.39 -1.91,-2.36 -3.82,-4.72 -5.73,-7.08 -2.25,2.75 -4.49,5.51 -6.77,8.24z"/>
      </g>
      <g>
       <path class="fil7" d="M335.74 349.74c4.37,-8.13 8.94,-17.98 4.91,-27.11 -1.91,-4.34 -4.9,-8.19 -7.62,-12.04 -2.9,-4.1 -5.84,-8.18 -8.81,-12.23 -5.95,-8.1 -12.05,-16.1 -18.3,-23.99 -10.78,-13.61 -21.99,-26.86 -33.58,-39.79 -0.57,0.79 -1.15,1.57 -1.66,2.41 -1.01,1.66 -1.92,3.37 -2.87,5.06 -1.73,3.08 -3.6,6.07 -5.64,8.95 -4.11,5.8 -8.8,11.17 -14.03,15.97 -10.41,9.57 -22.75,16.98 -36.12,21.6 -1.83,0.63 -3.67,1.21 -5.53,1.73 -1.19,0.33 -2.39,0.68 -3.62,0.82 10.52,13 21.04,26 31.56,39.01l20.71 25.6c3.45,4.27 6.9,8.53 10.35,12.8 3.23,3.99 6.34,8.14 9.78,11.95 2.96,3.28 6.35,5.83 10.8,6.59 4.1,0.7 8.32,-0.15 12.19,-1.51 8.23,-2.9 15.44,-8.65 21.6,-14.69 6.33,-6.2 11.68,-13.33 15.88,-21.13z"/>
      </g>
      <g>
       <path class="fil6" d="M294.83 241.3c-1.54,2.08 -3.1,4.14 -4.62,6.2 2.67,3.14 5.32,6.3 7.95,9.48 1.96,-2.35 3.92,-4.71 5.9,-7.07 -0.82,-0.34 -1.64,-0.68 -2.4,-1.12 -2.97,-1.74 -5.17,-4.51 -6.83,-7.49z"/>
      </g>
      <g>
       <path class="fil8" d="M169.61 384.42c2.57,-2.84 5.13,-5.69 7.69,-8.54 5.29,-5.91 10.54,-11.86 15.75,-17.84 9.95,-11.43 19.76,-22.98 29.45,-34.64 -6.84,-8.45 -13.68,-16.89 -20.52,-25.34 -2.35,2.67 -4.69,5.34 -7.04,7.99 -9.12,10.26 -18.08,20.62 -27.39,30.71 -4.65,5.04 -9.32,10.06 -14.02,15.06 -4.06,4.33 -8.1,9.68 -12.93,13.26 -0.59,0.8 -1.61,1.14 -2.71,1.07 1.33,2.5 2.76,4.95 4.35,7.24 5.17,7.42 11.99,13.64 20.19,17.54 0.2,0.1 0.46,0.2 0.67,0.3 0.1,-0.04 0.19,-0.07 0.29,-0.11l0 0c-0,0 -0,0 -0,0 -0.79,0.36 -0.77,-1.82 0.93,-0.93 -0.16,0.16 -0.34,0.31 -0.45,0.47 -0.18,0.25 -0.34,0.39 -0.48,0.46 0.76,-0.26 1.58,-0.27 2.16,0.03 -0.49,-0.48 -0.89,-0.77 -1.23,-0.95 0.3,-0.31 0.61,-0.62 0.87,-0.9 1.5,-1.59 2.95,-3.24 4.42,-4.86z"/>
      </g>
      <g>
       <path class="fil6" d="M152.18 342.85c5.99,-6.41 11.95,-12.86 17.87,-19.34 9.29,-10.17 18.58,-20.34 27.74,-30.62 -5.13,-6.34 -10.25,-12.67 -15.38,-19.01 -14.11,16.48 -27.91,33.22 -41.17,50.39 -3.04,3.94 -6.57,7.86 -8.71,12.4 -1.97,4.18 -1.9,8.61 -0.91,13.05 0.87,3.88 2.19,7.71 3.81,11.42 2.11,-3.23 5.08,-5.89 7.73,-8.7 3.02,-3.19 6.02,-6.39 9.02,-9.59z"/>
      </g>
      <g>
       <path class="fil9" d="M295.75 230.2c0.11,-0.14 0.22,-0.27 0.33,-0.4 -0.28,-0.04 -0.35,0.03 -0.33,0.4z"/>
      </g>
      <g>
       <path class="fil6" d="M262.46 216.45c3.49,-4.32 7.11,-8.58 11.16,-12.19 0.25,-0.22 0.56,-0.26 0.86,-0.35 -0.28,-0.86 -0.56,-1.72 -0.9,-2.55 -2.81,-6.95 -5.56,-13.92 -8.3,-20.9 -5.05,7.4 -11.57,13.96 -17.71,20.53 4.68,4.74 9.32,9.52 13.88,14.36 0.34,0.36 0.67,0.73 1.01,1.09z"/>
      </g>
      <g>
       <path class="fil2" d="M202.68 202.96c-3.29,4.63 -7.06,8.96 -11.49,12.53 -4.93,3.97 -10.46,6.77 -16.27,9.21 -3.46,1.45 -6.93,2.89 -10.47,4.12 -2.55,0.88 -5.49,1.96 -8.35,2.43 4.69,7.87 10.46,15.02 16.21,22.12l20.72 25.59c1.73,2.14 3.47,4.28 5.2,6.43 0.14,-0.07 0.24,-0.17 0.4,-0.22 0.51,-0.17 1.11,0.11 1.37,0.56 -0.16,-0.26 -0.02,-0.05 0.32,0.05 0.48,0.15 0.94,0.36 1.45,0.4 1.35,0.12 2.93,-0.58 4.2,-0.94 3.01,-0.86 5.97,-1.86 8.88,-3 5.87,-2.31 11.51,-5.25 16.81,-8.66 10.62,-6.82 19.99,-15.73 27.23,-26.08 2.04,-2.93 3.77,-6.02 5.67,-9.03 1.44,-2.28 3.14,-4.87 5.41,-6.53 -1.04,-1.15 -2.05,-2.31 -3.1,-3.45 -13.56,-14.84 -27.63,-29.2 -42.21,-43.04 -2.91,-2.76 -5.86,-5.51 -9.07,-7.92 -0.37,0.89 -0.74,1.76 -1.07,2.59 -1.07,2.69 -2.2,5.37 -3.42,8 -2.4,5.17 -5.1,10.19 -8.41,14.84z"/>
      </g>
      <g>
       <path class="fil7" d="M138.34 174.43c-0.31,0.33 -0.7,0.57 -1.14,0.7 5.47,17.07 8.05,35.26 16.24,51.32 1.09,-0.21 2.2,-0.37 3.27,-0.61 1.63,-0.36 3.23,-0.81 4.82,-1.32 3.08,-0.98 6.08,-2.17 9.08,-3.38 5.7,-2.31 11.36,-4.78 16.33,-8.46 8.68,-6.43 14.66,-15.83 19.72,-25.2 1.43,-2.65 2.79,-5.33 4.14,-8.02 0.62,-1.23 1.19,-2.62 1.85,-3.96 -3.92,-2.47 -8.16,-4.16 -12.62,-5.45 -10.14,-2.93 -20.53,-5.13 -30.78,-7.63 -5.17,-1.26 -10.34,-2.52 -15.51,-3.78 0.04,0.61 -0.33,1.2 -0.91,1.37 -3.19,6.23 -8.23,11.17 -14.49,14.41z"/>
      </g>
      <g>
       <path class="fil2" d="M148.93 158.78c-0.31,-0.11 -0.62,-0.2 -0.91,-0.34 -1.07,-0.5 -2.13,-1 -3.2,-1.5 -2.17,-1.01 -4.37,-1.97 -6.59,-2.88 -2.92,-1.19 -5.89,-2.22 -8.89,-3.18 2.84,6.15 5.69,12.3 8.35,18.52 4.52,-2.56 8.4,-6.26 11.24,-10.63z"/>
      </g>
      <g>
       <path class="fil2" d="M313.19 239.32c-2.84,-2.35 -5.9,-4.46 -9.14,-6.22 -0.88,-0.48 -1.78,-0.93 -2.69,-1.36 -0.03,0.05 -0.07,0.1 -0.1,0.15 -0.22,-0.17 -0.43,-0.33 -0.64,-0.48 -0.42,-0.19 -0.83,-0.39 -1.26,-0.56 -0.52,-0.21 -1.11,-0.45 -1.7,-0.66 -0.66,-0.08 -1.31,0 -1.91,0.24 0.29,3.07 2.21,6.49 3.78,9.09 0.84,1.4 1.82,2.71 3.05,3.8 1.4,1.23 3.09,1.87 4.78,2.61 3.7,1.63 5.81,4.63 8.02,7.87 2.26,3.32 4.41,6.72 6.44,10.19 9.22,15.74 16.56,33.22 20.3,51.12 0,0.02 -0,0.03 0,0.04 1.91,2.97 3.58,6.11 4.45,9.54 0.19,0.77 0.33,1.55 0.43,2.33 0.55,-1.96 1.03,-3.93 1.39,-5.95 1.33,-7.44 1.29,-15.18 0.04,-22.63 -2.6,-15.52 -9.87,-29.81 -19.37,-42.24 -4.69,-6.13 -9.92,-11.96 -15.87,-16.89z"/>
      </g>
      <g>
       <path class="fil2" d="M341.25 349.84c-2.57,5.13 -5.61,10.03 -9.05,14.54 -5.65,7.41 -12.34,13.92 -19.94,19.33 -2.77,1.97 -5.83,3.81 -9.06,5.29 0.25,0.28 0.49,0.56 0.75,0.83 0.99,0.99 2.05,1.89 3.2,2.69 2.28,1.58 4.76,2.81 7.4,3.66 5.32,1.7 11.09,2.01 16.54,0.76 3.06,-0.7 6.23,-1.78 8.65,-3.86 2.46,-2.11 4.11,-5.05 5.35,-8.01 2.35,-5.58 3.1,-11.75 2.51,-17.76 -0.32,-3.26 -1.13,-6.49 -2.3,-9.54 -0.58,-1.52 -1.27,-3 -2.05,-4.43 -0.44,-0.81 -0.93,-1.58 -1.42,-2.37 -0.2,-0.33 -0.39,-0.74 -0.58,-1.13z"/>
      </g>
      <g>
       <path class="fil8" d="M286.11 215.59c-2.72,-2.29 -6.07,-3.83 -8.68,-6.21 -0.52,-0.48 -0.92,-1.02 -1.28,-1.58 -2.7,4.65 -6.1,8.97 -9.47,13.21 6.66,7.2 13.19,14.51 19.6,21.93 0.07,-0.1 0.15,-0.19 0.22,-0.29 1.8,-2.42 3.58,-4.91 5.38,-7.37 -0.63,-1.63 -1.07,-3.3 -1.08,-4.9 -0.01,-1.75 0.64,-3.47 2.08,-4.52 0.73,-0.53 1.54,-0.76 2.36,-0.87 -2.97,-3.21 -5.78,-6.58 -9.13,-9.41z"/>
      </g>
      <g>
       <path class="fil8" d="M326.35 174.46c1.74,2.11 3.82,3.99 6.03,5.6 1.01,0.74 2.09,1.38 3.19,1.97 0.13,0.07 0.28,0.14 0.42,0.2 2.62,-9.07 5.08,-18.19 7.31,-27.36 -7.72,2.62 -15.44,5.23 -23.15,7.85 0.57,1.67 1.15,3.33 1.89,4.95 1.12,2.43 2.61,4.73 4.31,6.79z"/>
      </g>
      <g>
       <path class="fil10" d="M284.94 206.99c2.78,1.79 5.42,3.79 7.83,6.05 4.69,4.41 8.46,10.11 13.92,13.65 3.79,2.45 9.3,1.77 13.13,3.84 1.74,-6.47 4.73,-12.83 6.93,-19.14 2.38,-6.82 4.63,-13.69 6.76,-20.59 0.36,-1.17 0.66,-2.35 1.02,-3.52 -0.49,-0.23 -0.98,-0.5 -1.46,-0.76 -1.37,-0.75 -2.68,-1.61 -3.94,-2.53 -2.52,-1.84 -4.71,-4.05 -6.66,-6.48 -2.95,-3.69 -5.61,-8.5 -6.47,-13.39 -3.59,1.22 -7.18,2.44 -10.77,3.66 -7.39,2.51 -14.79,5 -22.22,7.42 -3.72,1.2 -7.44,2.35 -11.2,3.44 -0.77,0.23 -1.53,0.45 -2.29,0.67 2.97,6.8 5.79,13.7 8.87,20.45 1.61,3.53 3.38,5.2 6.54,7.22z"/>
      </g>
      <g>
       <g>
        <path class="fil11" d="M133.15 171.62c-0.98,0.54 -1.68,1.6 -1.3,2.77 1.5,4.67 2.77,9.41 4.01,14.15 2.57,9.89 4.83,19.88 8.38,29.48 3.54,9.6 8.54,18.3 14.66,26.49 6.21,8.31 12.9,16.29 19.44,24.34 -1.89,2.17 -3.79,4.33 -5.66,6.53 -14.39,16.96 -28.95,34.08 -41.98,52.12 -5.65,7.82 -7.35,15.5 -5.05,24.9 2.12,8.66 6.09,17.2 11.12,24.54 5.76,8.4 13.43,15.55 22.64,20.01 6.77,3.28 14.88,6.67 22.58,5.97 10.39,-0.94 14.11,-8.83 20.12,-16.18 4.42,-5.4 8.84,-10.8 13.25,-16.19 7.59,-9.28 15.17,-18.57 22.75,-27.86 1.79,2.21 3.57,4.41 5.36,6.62 7.21,8.9 14.41,17.8 21.62,26.7 3.02,3.72 5.88,7.79 9.53,10.93 3.56,3.06 7.72,4.86 12.4,5.3 3.77,0.36 7.54,-0.22 11.19,-1.35 1.64,2.76 4.95,5.08 7.47,6.66 3.06,1.92 6.51,3.31 10.02,4.13 6.52,1.53 13.58,1.32 19.93,-0.87 3.64,-1.26 7.02,-3.19 9.5,-6.18 2.39,-2.88 4.06,-6.28 5.31,-9.79 2.36,-6.68 2.8,-13.95 1.61,-20.91 -0.59,-3.48 -1.66,-6.86 -3.13,-10.07 -0.77,-1.67 -1.66,-3.28 -2.67,-4.82 -0.78,-1.2 -1.74,-2.56 -3.13,-3.04 0.59,-1.35 1.13,-2.71 1.64,-4.08 0.14,-0.16 0.3,-0.3 0.42,-0.48 0.66,-0.99 1.25,-2.02 1.81,-3.07 1.11,-2.07 2.11,-4.21 2.92,-6.41 1.58,-4.28 2.61,-8.75 3.22,-13.27 1.24,-9.1 0.77,-18.45 -1.38,-27.39 -3.96,-16.47 -12.93,-31.38 -23.86,-44.17 -2.16,-2.53 -4.46,-4.94 -6.86,-7.26 0.91,-1.24 1.84,-2.48 2.71,-3.74 0.91,-0.21 1.77,-0.74 2.31,-1.71 3.57,-6.44 5.56,-14.26 7.94,-21.21 2.3,-6.7 4.49,-13.43 6.56,-20.2 4.34,-14.2 8.16,-28.55 11.48,-43.02 0.61,-2.67 -2.18,-5.02 -4.71,-4.16 -14.77,5.06 -29.55,10.11 -44.32,15.17 -7.39,2.53 -14.77,5.06 -22.12,7.69 -3.68,1.32 -7.33,2.69 -10.98,4.11 -3.01,1.17 -5.99,2.06 -8.28,4.42 -0.27,0.28 -0.38,0.64 -0.41,1 -6.55,5.43 -12.28,12.05 -18.02,18.34 -1.08,-1.08 -2.14,-2.18 -3.23,-3.25 -7.29,-7.21 -14.52,-15.02 -22.94,-20.94 -0.02,-0.01 -0.04,-0.02 -0.06,-0.03 0,-0.06 0.02,-0.12 0.02,-0.18 0,-0.79 -0.89,-1.16 -1.5,-0.76 -8.2,-5.21 -17.8,-7.18 -27.14,-9.47 -11.13,-2.73 -22.25,-5.46 -33.38,-8.21 -0.07,-0.02 -0.13,0 -0.2,-0.01 -0.67,-1.05 -2.49,-1.42 -3.07,-0.05 -0.28,0.65 -0.61,1.28 -0.93,1.91 -0.24,-0.2 -0.46,-0.41 -0.73,-0.59 -1.05,-0.69 -2.12,-1.34 -3.22,-1.96 -2.18,-1.24 -4.43,-2.36 -6.73,-3.37 -4.72,-2.07 -9.61,-3.74 -14.58,-5.08 -2.24,-0.6 -3.62,1.74 -2.78,3.62 3.47,7.79 6.79,15.68 10.43,23.4zm2.29 189.52l0 0c-1.61,-3.71 -2.93,-7.54 -3.81,-11.42 -1,-4.44 -1.06,-8.86 0.91,-13.05 2.13,-4.53 5.66,-8.46 8.71,-12.4 13.27,-17.17 27.07,-33.91 41.17,-50.39 5.13,6.34 10.25,12.67 15.38,19.01 -9.17,10.28 -18.45,20.44 -27.74,30.62 -5.92,6.48 -11.88,12.93 -17.87,19.34 -3,3.21 -6,6.4 -9.02,9.59 -2.65,2.8 -5.61,5.46 -7.73,8.7zm30.12 30l0 0c-0.58,-0.3 -1.4,-0.29 -2.16,-0.03 0.14,-0.06 0.3,-0.2 0.48,-0.46 0.11,-0.16 0.3,-0.31 0.45,-0.47 -1.7,-0.89 -1.72,1.28 -0.93,0.93 0,0 0,0 0,0l-0 0c-0.1,0.03 -0.2,0.07 -0.29,0.11 -0.21,-0.1 -0.47,-0.21 -0.67,-0.3 -8.2,-3.9 -15.02,-10.12 -20.19,-17.54 -1.59,-2.29 -3.02,-4.73 -4.35,-7.24 1.1,0.07 2.12,-0.26 2.71,-1.07 4.83,-3.57 8.87,-8.93 12.93,-13.26 4.7,-5 9.37,-10.02 14.02,-15.06 9.31,-10.09 18.27,-20.45 27.39,-30.71 2.36,-2.65 4.7,-5.32 7.04,-7.99 6.84,8.45 13.68,16.89 20.52,25.34 -9.69,11.65 -19.5,23.21 -29.45,34.64 -5.21,5.98 -10.46,11.93 -15.75,17.84 -2.55,2.86 -5.12,5.71 -7.69,8.54 -1.47,1.62 -2.92,3.27 -4.42,4.86 -0.26,0.27 -0.57,0.59 -0.87,0.9 0.34,0.18 0.74,0.47 1.23,0.95zm47.53 -30.51l0 0c-4.94,6.05 -9.88,12.1 -14.82,18.15 -3.62,4.43 -7.39,10.39 -11.5,14.24 -3.75,3.51 -10.08,2.88 -15.79,1.21 2.2,-2.15 4.09,-4.92 5.72,-6.72 4.95,-5.48 9.88,-10.99 14.77,-16.53 9.77,-11.07 19.44,-22.25 28.92,-33.59 2.28,-2.73 4.52,-5.49 6.77,-8.24 1.91,2.36 3.82,4.72 5.73,7.08 -6.59,8.14 -13.17,16.29 -19.79,24.39zm85.16 24.95l0 0c-3.87,1.36 -8.09,2.21 -12.19,1.51 -4.45,-0.76 -7.84,-3.3 -10.8,-6.59 -3.44,-3.81 -6.55,-7.96 -9.78,-11.95 -3.45,-4.26 -6.9,-8.53 -10.35,-12.8l-20.71 -25.6c-10.52,-13 -21.04,-26.01 -31.56,-39.01 1.22,-0.14 2.42,-0.49 3.62,-0.82 1.86,-0.52 3.71,-1.1 5.53,-1.73 13.37,-4.62 25.71,-12.03 36.12,-21.6 5.23,-4.81 9.92,-10.18 14.03,-15.97 2.04,-2.88 3.91,-5.88 5.64,-8.95 0.95,-1.69 1.86,-3.4 2.87,-5.06 0.51,-0.83 1.09,-1.62 1.66,-2.41 11.58,12.93 22.8,26.18 33.58,39.79 6.25,7.88 12.35,15.88 18.3,23.99 2.98,4.05 5.91,8.13 8.81,12.23 2.72,3.85 5.71,7.7 7.62,12.04 4.02,9.12 -0.54,18.98 -4.91,27.11 -4.2,7.8 -9.55,14.93 -15.88,21.13 -6.17,6.04 -13.38,11.79 -21.6,14.69zm11.58 -131.03l0 0c0.41,0.6 0.82,1.21 1.22,1.8 2.5,3.67 4.87,7.43 7.09,11.28 6.5,11.25 11.47,23.03 15.41,35.27 -9.76,-13.6 -19.95,-26.9 -30.5,-39.91 2.27,-2.81 4.53,-5.61 6.79,-8.43zm-11.67 2.45l0 0c-2.63,-3.18 -5.27,-6.34 -7.95,-9.48 1.52,-2.06 3.07,-4.12 4.62,-6.2 1.66,2.98 3.86,5.74 6.83,7.49 0.76,0.44 1.58,0.78 2.4,1.12 -1.97,2.36 -3.93,4.72 -5.9,7.07zm-2.42 -26.78l0 0c-0.02,-0.37 0.05,-0.44 0.33,-0.4 -0.11,0.14 -0.22,0.27 -0.33,0.4zm-2.87 -4.33l0 0c-1.44,1.05 -2.09,2.77 -2.08,4.52 0.01,1.6 0.46,3.27 1.08,4.9 -1.8,2.46 -3.57,4.95 -5.38,7.37 -0.07,0.1 -0.15,0.19 -0.22,0.29 -6.41,-7.42 -12.94,-14.74 -19.6,-21.93 3.38,-4.25 6.77,-8.56 9.47,-13.21 0.36,0.56 0.76,1.1 1.28,1.58 2.61,2.38 5.96,3.92 8.68,6.21 3.35,2.83 6.16,6.2 9.13,9.41 -0.82,0.1 -1.63,0.34 -2.36,0.87zm50.37 127.48l0 0c0.78,1.43 1.48,2.91 2.05,4.43 1.16,3.05 1.97,6.28 2.3,9.54 0.59,6 -0.17,12.18 -2.51,17.76 -1.24,2.95 -2.89,5.9 -5.35,8.01 -2.42,2.08 -5.59,3.16 -8.65,3.86 -5.45,1.24 -11.22,0.94 -16.54,-0.76 -2.64,-0.84 -5.12,-2.08 -7.4,-3.66 -1.15,-0.8 -2.21,-1.7 -3.2,-2.69 -0.27,-0.27 -0.51,-0.55 -0.75,-0.83 3.23,-1.48 6.29,-3.32 9.06,-5.29 7.6,-5.4 14.29,-11.92 19.94,-19.33 3.45,-4.51 6.49,-9.42 9.05,-14.54 0.19,0.4 0.38,0.8 0.58,1.13 0.48,0.78 0.97,1.56 1.42,2.37zm-14.19 -97.13l0 0c9.51,12.42 16.77,26.71 19.37,42.24 1.25,7.44 1.29,15.19 -0.04,22.63 -0.36,2.01 -0.84,3.99 -1.39,5.95 -0.1,-0.78 -0.24,-1.56 -0.43,-2.33 -0.86,-3.44 -2.54,-6.57 -4.45,-9.54 -0,-0.02 0,-0.03 0,-0.04 -3.75,-17.9 -11.08,-35.37 -20.3,-51.12 -2.03,-3.47 -4.18,-6.87 -6.44,-10.19 -2.21,-3.24 -4.33,-6.24 -8.02,-7.87 -1.68,-0.74 -3.37,-1.37 -4.78,-2.61 -1.23,-1.09 -2.21,-2.39 -3.05,-3.8 -1.56,-2.6 -3.49,-6.02 -3.78,-9.09 0.6,-0.24 1.25,-0.32 1.91,-0.24 0.59,0.21 1.17,0.45 1.7,0.66 0.42,0.17 0.84,0.37 1.26,0.56 0.21,0.15 0.43,0.31 0.64,0.48 0.03,-0.05 0.06,-0.1 0.1,-0.15 0.91,0.43 1.81,0.88 2.69,1.36 3.24,1.77 6.3,3.87 9.14,6.22 5.95,4.93 11.19,10.76 15.87,16.89zm14.24 -101.34l0 0c-2.23,9.18 -4.69,18.29 -7.31,27.36 -0.14,-0.07 -0.29,-0.14 -0.42,-0.2 -1.1,-0.59 -2.18,-1.24 -3.19,-1.97 -2.21,-1.61 -4.29,-3.49 -6.03,-5.6 -1.7,-2.06 -3.19,-4.36 -4.31,-6.79 -0.74,-1.62 -1.33,-3.28 -1.89,-4.95 7.72,-2.62 15.44,-5.24 23.15,-7.85zm-71.48 23.77l0 0c3.75,-1.1 7.48,-2.24 11.2,-3.44 7.43,-2.41 14.82,-4.9 22.22,-7.42 3.59,-1.22 7.18,-2.44 10.77,-3.66 0.86,4.89 3.52,9.7 6.47,13.39 1.94,2.43 4.13,4.64 6.66,6.48 1.26,0.92 2.57,1.78 3.94,2.53 0.48,0.26 0.97,0.52 1.46,0.76 -0.35,1.17 -0.66,2.35 -1.02,3.52 -2.13,6.9 -4.38,13.77 -6.76,20.59 -2.2,6.31 -5.19,12.66 -6.93,19.14 -3.82,-2.08 -9.34,-1.39 -13.13,-3.84 -5.46,-3.54 -9.23,-9.24 -13.92,-13.65 -2.41,-2.26 -5.05,-4.26 -7.83,-6.05 -3.16,-2.03 -4.93,-3.69 -6.54,-7.22 -3.08,-6.75 -5.9,-13.65 -8.87,-20.45 0.76,-0.22 1.52,-0.44 2.29,-0.67zm-6.54 1.82l0 0c2.74,6.98 5.5,13.95 8.3,20.9 0.34,0.83 0.61,1.69 0.9,2.55 -0.3,0.09 -0.61,0.12 -0.86,0.35 -4.05,3.6 -7.67,7.87 -11.16,12.19 -0.34,-0.36 -0.67,-0.73 -1.01,-1.09 -4.56,-4.85 -9.21,-9.62 -13.88,-14.36 6.15,-6.57 12.66,-13.14 17.71,-20.53zm-49.7 -2.94l0 0c3.21,2.41 6.16,5.16 9.07,7.92 14.57,13.84 28.65,28.2 42.21,43.04 1.04,1.14 2.06,2.3 3.1,3.45 -2.27,1.66 -3.97,4.25 -5.41,6.53 -1.91,3.01 -3.63,6.11 -5.67,9.03 -7.23,10.35 -16.61,19.26 -27.23,26.08 -5.31,3.41 -10.94,6.35 -16.81,8.66 -2.91,1.14 -5.87,2.15 -8.88,3 -1.28,0.36 -2.85,1.06 -4.2,0.94 -0.51,-0.04 -0.97,-0.25 -1.45,-0.4 -0.34,-0.1 -0.47,-0.32 -0.32,-0.05 -0.26,-0.44 -0.86,-0.73 -1.37,-0.56 -0.15,0.05 -0.26,0.15 -0.4,0.22 -1.73,-2.14 -3.47,-4.28 -5.2,-6.43l-20.72 -25.59c-5.75,-7.1 -11.52,-14.26 -16.21,-22.12 2.86,-0.47 5.81,-1.54 8.35,-2.43 3.54,-1.23 7.02,-2.67 10.47,-4.12 5.81,-2.44 11.34,-5.24 16.27,-9.21 4.44,-3.57 8.2,-7.9 11.49,-12.53 3.3,-4.65 6.01,-9.67 8.41,-14.84 1.22,-2.63 2.35,-5.31 3.42,-8 0.33,-0.83 0.7,-1.7 1.07,-2.59zm-62.75 -17.51l0 0c0.59,-0.17 0.95,-0.76 0.91,-1.37 5.17,1.26 10.34,2.52 15.51,3.78 10.25,2.5 20.64,4.7 30.78,7.63 4.45,1.29 8.7,2.98 12.62,5.45 -0.65,1.35 -1.23,2.74 -1.85,3.96 -1.36,2.69 -2.71,5.37 -4.14,8.02 -5.06,9.37 -11.04,18.77 -19.72,25.2 -4.97,3.68 -10.63,6.15 -16.33,8.46 -2.99,1.21 -6,2.4 -9.08,3.38 -1.59,0.51 -3.19,0.96 -4.82,1.32 -1.08,0.24 -2.18,0.4 -3.27,0.61 -8.19,-16.07 -10.77,-34.25 -16.24,-51.32 0.44,-0.13 0.83,-0.37 1.14,-0.7 6.26,-3.24 11.3,-8.18 14.49,-14.41zm-14.6 -5.95l0 0c2.22,0.9 4.42,1.87 6.59,2.88 1.07,0.49 2.13,1 3.2,1.5 0.3,0.14 0.61,0.23 0.91,0.34 -2.84,4.36 -6.71,8.07 -11.24,10.63 -2.66,-6.22 -5.51,-12.37 -8.35,-18.52 3,0.95 5.97,1.98 8.89,3.18z"/>
       </g>
      </g>
      <path class="fil12" d="M326.75 211.39c2.38,-6.82 4.63,-13.69 6.76,-20.59 0.36,-1.17 0.66,-2.35 1.02,-3.52 -0.49,-0.23 -0.98,-0.5 -1.46,-0.76 -1.37,-0.75 -2.68,-1.61 -3.94,-2.53 -1.31,-0.95 -2.52,-2.02 -3.67,-3.15 -8.27,12.98 -19.09,24.34 -31.69,33.19 4.24,4.24 7.86,9.37 12.92,12.65 3.79,2.45 9.3,1.77 13.13,3.84 1.74,-6.47 4.73,-12.83 6.93,-19.14z"/>
      <path class="fil13" d="M334.53 187.28c-0.49,-0.23 -0.98,-0.5 -1.46,-0.76 -0.81,-0.44 -1.59,-0.94 -2.36,-1.45 -6.19,15.21 -13.79,30.03 -25.87,40.27 0.6,0.47 1.21,0.92 1.85,1.34 3.79,2.45 9.3,1.77 13.13,3.84 1.74,-6.47 4.73,-12.83 6.93,-19.14 2.38,-6.82 4.63,-13.69 6.76,-20.59 0.36,-1.17 0.66,-2.35 1.02,-3.52z"/>
      <path class="fil14" d="M318.93 172.16c-1.37,-2.53 -2.44,-5.26 -2.93,-8.03 -3.59,1.22 -7.18,2.44 -10.77,3.66 -7.39,2.51 -14.79,5 -22.22,7.42 -3.72,1.2 -7.44,2.35 -11.2,3.44 -0.77,0.23 -1.53,0.45 -2.29,0.67 1.33,3.05 2.63,6.12 3.94,9.19 10.62,-3.67 21.24,-7.35 31.86,-11.02 4.55,-1.57 9.2,-3.25 13.6,-5.32z"/>
      <path class="fil15" d="M335.99 182.23c2.62,-9.07 5.08,-18.19 7.31,-27.36 -0.14,0.05 -0.27,0.09 -0.4,0.14 -3.38,3.33 -6.76,6.67 -10.14,10 -2.58,2.54 -5.16,5.09 -7.74,7.63 0.44,0.61 0.85,1.24 1.33,1.82 1.74,2.11 3.82,3.99 6.03,5.6 1.01,0.74 2.09,1.38 3.19,1.97 0.13,0.07 0.28,0.14 0.42,0.2z"/>
      <path class="fil16" d="M182.42 273.88c-14.11,16.48 -27.91,33.22 -41.17,50.39 -3.04,3.94 -6.57,7.86 -8.71,12.4 -1.97,4.18 -1.9,8.61 -0.91,13.05 0.05,0.21 0.11,0.42 0.16,0.64 19.52,-22.78 37.81,-46.61 54.75,-71.37 -1.37,-1.7 -2.75,-3.4 -4.12,-5.1z"/>
      <path class="fil16" d="M252.78 206.39c5.57,-6.53 10.17,-13.9 14.23,-21.56 -0.57,-1.46 -1.16,-2.91 -1.74,-4.37 -5.05,7.4 -11.57,13.96 -17.71,20.53 1.76,1.78 3.47,3.6 5.21,5.39z"/>
      <path class="fil17" d="M145.98 169.03c-2.27,2.11 -4.83,3.93 -7.64,5.39 -0.31,0.33 -0.7,0.57 -1.14,0.7 5.47,17.07 8.05,35.26 16.24,51.32 1.09,-0.21 2.2,-0.37 3.27,-0.61 1.63,-0.36 3.23,-0.81 4.82,-1.32 3.08,-0.98 6.08,-2.17 9.08,-3.38 5.36,-2.17 10.66,-4.52 15.4,-7.84 -15.46,-12.65 -29,-27.61 -40.03,-44.26z"/>
      <path class="fil17" d="M252.08 278.8c-2.4,-3.04 -4.83,-6.19 -6.33,-9.72 -9.9,8.55 -21.36,15.24 -33.73,19.51 -1.83,0.63 -3.67,1.21 -5.53,1.73 -1.19,0.33 -2.39,0.68 -3.62,0.82 10.52,13 21.04,26 31.56,39.01l20.71 25.6c3.45,4.27 6.9,8.53 10.35,12.8 3.23,3.99 6.34,8.14 9.78,11.95 2.96,3.28 6.35,5.83 10.8,6.59 4.1,0.7 8.32,-0.15 12.19,-1.51 8.23,-2.9 15.44,-8.65 21.6,-14.69 2.04,-2 3.95,-4.13 5.78,-6.32 -25.67,-27.58 -50.22,-56.19 -73.56,-85.76z"/>
      <path class="fil18" d="M169.39 221.62c-10.73,-15.45 -20.51,-31.55 -29.28,-48.19 -0.58,0.34 -1.17,0.69 -1.77,1 -0.31,0.33 -0.7,0.57 -1.14,0.7 5.47,17.07 8.05,35.26 16.24,51.32 1.09,-0.21 2.2,-0.37 3.27,-0.61 1.63,-0.36 3.23,-0.81 4.82,-1.32 2.66,-0.85 5.27,-1.87 7.86,-2.9z"/>
      <path class="fil18" d="M219.43 285.66c-2.44,1.06 -4.9,2.06 -7.42,2.93 -1.83,0.63 -3.67,1.21 -5.53,1.73 -1.19,0.33 -2.39,0.68 -3.62,0.82 10.52,13 21.04,26 31.56,39.01l20.71 25.6c3.45,4.27 6.9,8.53 10.35,12.8 3.23,3.99 6.34,8.14 9.78,11.95 2.96,3.28 6.35,5.83 10.8,6.59 4.1,0.7 8.32,-0.15 12.19,-1.51 3.41,-1.2 6.63,-2.91 9.69,-4.91 -34.89,-26 -65.04,-58.36 -88.51,-95z"/>
      <path class="fil19" d="M246.23 262.05c-20.54,-12.55 -38.7,-28.96 -53.31,-48.09 -0.58,0.51 -1.13,1.04 -1.74,1.52 -4.93,3.97 -10.46,6.77 -16.27,9.21 -3.46,1.45 -6.93,2.89 -10.47,4.12 -2.55,0.88 -5.49,1.96 -8.35,2.43 4.69,7.87 10.46,15.02 16.21,22.12l20.72 25.59c1.73,2.14 3.47,4.28 5.2,6.43 0.14,-0.07 0.24,-0.17 0.4,-0.22 0.51,-0.17 1.11,0.11 1.37,0.56 -0.16,-0.26 -0.02,-0.05 0.32,0.05 0.48,0.15 0.94,0.36 1.45,0.4 1.35,0.12 2.93,-0.58 4.2,-0.94 3.01,-0.86 5.97,-1.86 8.88,-3 5.87,-2.31 11.51,-5.25 16.81,-8.66 5.22,-3.35 10.13,-7.21 14.64,-11.49 -0.01,-0.01 -0.03,-0.02 -0.04,-0.03z"/>
      <path class="fil20" d="M172.69 225.61c-2.72,1.13 -5.46,2.24 -8.24,3.2 -2.55,0.88 -5.49,1.96 -8.35,2.43 4.69,7.87 10.46,15.02 16.21,22.12l20.72 25.59c1.73,2.14 3.47,4.28 5.2,6.43 0.14,-0.07 0.24,-0.17 0.4,-0.22 0.51,-0.17 1.11,0.11 1.37,0.56 -0.16,-0.26 -0.02,-0.05 0.32,0.05 0.48,0.15 0.94,0.36 1.45,0.4 1.35,0.12 2.93,-0.58 4.2,-0.94 3.01,-0.86 5.97,-1.86 8.88,-3 1.19,-0.47 2.35,-0.98 3.52,-1.49 -15.78,-17.9 -30.99,-36.31 -45.66,-55.13z"/>
      <path class="fil19" d="M338.82 385.2c-6.91,-0.44 -13.62,-3.21 -18.95,-7.63 -2.44,2.16 -4.95,4.24 -7.61,6.14 -2.77,1.97 -5.83,3.81 -9.06,5.29 0.25,0.28 0.49,0.56 0.75,0.83 0.99,0.99 2.05,1.89 3.2,2.69 2.28,1.58 4.76,2.81 7.4,3.66 5.32,1.7 11.09,2.01 16.54,0.76 3.06,-0.7 6.23,-1.78 8.65,-3.86 2.46,-2.11 4.11,-5.05 5.35,-8.01 0.01,-0.03 0.02,-0.07 0.04,-0.1 -2.09,0.28 -4.2,0.37 -6.3,0.24z"/>
      <path class="fil21" d="M342.92 361.41c-0.29,-1.07 -1.52,-1.83 -2.61,-1.48 -1.12,0.36 -1.76,1.45 -1.48,2.61 0.1,0.42 0.17,0.84 0.25,1.27 0.01,0.08 0.02,0.16 0.03,0.24 0.02,0.23 0.04,0.47 0.05,0.7 0.04,0.82 -0,1.64 -0.08,2.46 0,0 0,0 0,0 -0.01,0.07 -0.02,0.13 -0.03,0.2 -0.03,0.2 -0.08,0.4 -0.11,0.6 -0.1,0.56 -0.06,0.94 0.04,1.5 0.01,0.05 0.01,0.04 0.01,0.06 0,0.03 0,0.02 0,0.06 0.08,0.85 0.05,1.69 0.31,2.51 0.16,0.49 0.65,0.64 1.09,0.44 0.92,-0.41 1.47,-1.22 2.06,-2.02 0.35,-0.48 0.68,-0.95 0.81,-1.55 0.12,-0.56 0.17,-1.15 0.22,-1.72 0.17,-1.96 -0.04,-3.98 -0.56,-5.88z"/>
      <path class="fil21" d="M247.19 216.34c-2.91,-4.74 -7.22,-8.79 -11.04,-12.82 -1.98,-2.09 -4.18,-3.98 -6.33,-5.89 -2.5,-2.22 -5.19,-4.13 -8.46,-5.02 -2.17,-0.59 -4.08,1.43 -3.55,3.55 0.69,2.79 2.13,5.36 3.93,7.64 0.37,0.47 0.73,0.94 1.09,1.4 0.09,0.12 0.22,0.28 0.24,0.32 0.16,0.21 0.32,0.42 0.49,0.63 0.81,1.06 1.6,2.12 2.41,3.18 1.82,2.4 3.85,4.66 5.76,6.99 1.64,2 3.13,4.27 4.96,6.09 2.26,2.25 5.53,4.5 8.88,3.44 3.88,-1.24 3.27,-6.85 1.62,-9.53z"/>
      <path class="fil22" d="M333.04 310.6c-2.9,-4.1 -5.84,-8.18 -8.81,-12.23 -5.95,-8.1 -12.05,-16.1 -18.3,-23.99 -10.78,-13.61 -21.99,-26.86 -33.58,-39.79 -0.57,0.79 -1.15,1.57 -1.66,2.41 -0.34,0.56 -0.67,1.14 -0.99,1.71 19.07,24.57 36.83,50.16 53.12,76.66 4.86,7.9 9.61,15.94 12.86,24.62 0.72,1.92 1.38,3.88 2.08,5.83 3.56,-7.27 6.29,-15.49 2.9,-23.19 -1.91,-4.34 -4.9,-8.19 -7.62,-12.04z"/>
      <path class="fil22" d="M210.8 179.46c0.62,-1.23 1.19,-2.62 1.85,-3.96 -3.92,-2.47 -8.16,-4.16 -12.62,-5.45 -10.14,-2.93 -20.53,-5.13 -30.78,-7.63 -5.17,-1.26 -10.34,-2.52 -15.51,-3.78 0.04,0.61 -0.33,1.2 -0.91,1.37 -0.12,0.23 -0.25,0.44 -0.37,0.67 16.78,11.28 35.09,20.27 54.28,26.66 1.4,-2.6 2.73,-5.24 4.07,-7.88z"/>
      <path class="fil21" d="M348.44 298.44c-2.6,-15.52 -9.87,-29.81 -19.37,-42.24 -4.69,-6.13 -9.92,-11.96 -15.87,-16.89 -2.84,-2.35 -5.9,-4.46 -9.14,-6.22 -0.88,-0.48 -1.78,-0.93 -2.69,-1.36 -0.03,0.05 -0.07,0.1 -0.1,0.15 -0.22,-0.17 -0.43,-0.33 -0.64,-0.48 -0.42,-0.19 -0.83,-0.39 -1.26,-0.56 -0.52,-0.21 -1.11,-0.45 -1.7,-0.66 -0.65,-0.07 -1.29,0 -1.88,0.24 3.76,2.57 7.55,5.11 11.25,7.76 4.2,3 7.69,7.01 11.21,10.77 6.95,7.43 13.11,15.98 17.72,25.05 5.01,9.84 8.03,21 9.08,31.98 0.48,5 0.55,10.04 0.25,15.06 0.51,1.19 0.96,2.39 1.28,3.65 0.19,0.77 0.33,1.55 0.43,2.33 0.55,-1.96 1.03,-3.93 1.39,-5.95 1.33,-7.44 1.29,-15.18 0.04,-22.63z"/>
      <path class="fil21" d="M144.1 159.56c-0.16,-0.37 -0.43,-0.63 -0.72,-0.89 -0.3,-0.26 -0.6,-0.49 -0.96,-0.65 -0.27,-0.13 -0.55,-0.24 -0.83,-0.37 -0.51,-0.24 -1.03,-0.47 -1.54,-0.71 -0.33,-0.16 -0.68,-0.31 -1.03,-0.44 -0.01,-0 -0.01,-0 -0.03,-0.02 -0.09,-0.04 -0.19,-0.08 -0.28,-0.12 -0.13,-0.06 -0.26,-0.12 -0.39,-0.18 -0.37,-0.17 -0.74,-0.31 -1.11,-0.46 -0.12,-0.05 -0.2,-0.07 -0.33,-0.09 -0.19,-0.02 -0.23,-0.03 -0.11,-0.03 0.08,0 0.08,-0 0.01,-0.02 -0.2,-0.17 -0.54,-0.1 -0.79,-0.05 -0.21,0.01 -0.41,0.06 -0.57,0.22 -0.2,0.2 -0.34,0.58 -0.23,0.86 0.07,0.18 0.07,0.41 0.19,0.61 0.07,0.11 0.14,0.23 0.21,0.33 0.1,0.16 0.24,0.3 0.36,0.45 -0.23,-0.3 0.13,0.18 0.14,0.2 0.05,0.06 0.1,0.12 0.16,0.17 0.39,0.39 0.82,0.75 1.25,1.1 1.06,0.87 2.32,1.53 3.62,1.98 0.74,0.25 1.91,0.29 2.55,-0.21 0.53,-0.41 0.7,-1.06 0.44,-1.68z"/>
     </g>
     <path class="fil6" d="M125.19 198.86c-0.02,-0.07 -0.03,-0.14 -0.04,-0.22 -0.27,-0.77 -0.35,-0.95 -0.26,-0.53 -0.01,-0.05 -0.02,-0.09 -0.03,-0.14 -0.09,-0.48 -0.53,-0.82 -0.96,-0.96 -0.03,-0.01 -0.05,-0.02 -0.08,-0.03 -0.53,-0.31 -1.11,-0.53 -1.71,-0.61 -0.61,-0.08 -0.98,-0.15 -1.65,0.07 -0.36,0.12 -0.73,0.3 -1.07,0.46 -0.21,0.11 -0.42,0.22 -0.63,0.33 -1.16,0.61 -2.08,1.69 -3,2.61 -0.92,0.93 -1.67,1.96 -2.4,3.04 -0.26,0.4 -0.54,0.79 -0.78,1.2 -0.41,0.68 -0.57,1.4 -0.75,2.15 -0.25,1.1 -0.01,2.23 0.81,3.04 0.73,0.73 2.03,1.19 3.04,0.8 0.25,-0.1 0.51,-0.19 0.76,-0.29 0.39,-0.15 0.79,-0.27 1.14,-0.49 0.36,-0.22 0.73,-0.56 1.07,-0.84 0.35,-0.28 0.7,-0.56 1.05,-0.83 0.45,-0.33 0.92,-0.66 1.31,-1.05 0.23,-0.23 0.45,-0.47 0.68,-0.7 0.49,-0.5 0.99,-1 1.5,-1.49 0.45,-0.44 0.85,-0.92 1.17,-1.47 0.32,-0.54 0.73,-1.12 0.87,-1.73 0.19,-0.82 0.13,-1.55 -0.04,-2.36z"/>
     <path class="fil6" d="M114.28 328.85c-0.04,-1.64 -1.46,-2.54 -2.99,-2.27 -0.65,0.11 -1.26,0.32 -1.85,0.58 -0.59,0.07 -1.18,0.24 -1.7,0.51 -0.22,0.12 -0.44,0.25 -0.65,0.38 -0.73,0.47 -1.37,1.09 -2.04,1.64 -0.84,0.69 -1.57,1.51 -2.35,2.27 -0.38,0.36 -0.79,0.71 -1.12,1.11 -0.34,0.41 -0.66,0.82 -1,1.23 -0.17,0.2 -0.34,0.4 -0.51,0.6 -0.49,0.6 -0.75,1.06 -1.04,1.81 -0.04,0.1 -0.07,0.2 -0.11,0.3 -0.56,1.52 -0.09,3.3 1.36,4.17 0.83,0.49 1.67,0.53 2.57,0.43 0.71,-0 1.37,-0.18 1.98,-0.54 0.12,-0.06 0.24,-0.12 0.35,-0.17 0.24,-0.12 0.47,-0.24 0.7,-0.36 0.46,-0.24 0.93,-0.47 1.37,-0.76 0.69,-0.45 1.35,-1.04 1.99,-1.57 0.82,-0.68 1.63,-1.35 2.3,-2.18 1.16,-1.42 2.3,-2.85 2.39,-4.62 0.17,-0.44 0.22,-0.76 0.28,-1.41 0.03,-0.38 0.07,-0.76 0.06,-1.14z"/>
     <path class="fil6" d="M252.89 383.52c-0.04,-0.35 -0.08,-0.71 -0.13,-1.06 -0.06,-0.44 -0.58,-0.76 -0.99,-0.75 -0.28,0 -0.57,-0 -0.85,-0.01 -0.06,-0 -0.13,-0.01 -0.19,-0.01 -0.45,-0 -0.81,0.13 -1.23,0.31 -0.06,0.03 -0.12,0.05 -0.18,0.08 -0.46,0.18 -0.94,0.35 -1.35,0.62 -0.5,0.34 -1,0.65 -1.45,1.06 -0.56,0.53 -1.15,1.02 -1.76,1.5 0.19,-0.15 0.38,-0.3 0.57,-0.44 -0.38,0.29 -0.75,0.55 -1.04,0.93 -0.04,0.05 -0.08,0.11 -0.12,0.16 -0.13,0.17 -0.27,0.34 -0.4,0.5 -0.34,0.42 -0.58,0.82 -0.66,1.37 -0.07,0.51 -0,1.08 0.28,1.52 0.6,0.93 1.61,1.32 2.69,1.1 0.35,-0.07 0.7,-0.14 1.04,-0.23 0.56,-0.16 1.05,-0.45 1.53,-0.76 0.31,-0.2 0.61,-0.4 0.92,-0.61 0.48,-0.33 1.04,-0.68 1.43,-1.1 0.35,-0.39 0.84,-0.89 1.07,-1.34 0.17,-0.31 0.3,-0.65 0.44,-0.98 0.21,-0.49 0.44,-0.89 0.41,-1.44 -0,-0.13 -0.02,-0.27 -0.04,-0.4z"/>
     <path class="fil6" d="M381.44 308.01c0.06,0.37 0.02,-0.06 0.01,-0.18 -0.01,-0.17 -0.01,-0.35 -0.02,-0.52 -0.06,-1.45 -1.25,-2.16 -2.59,-1.97 -0.17,0.02 -0.34,0.05 -0.51,0.07 -0,-0 -0.01,-0.01 -0.04,-0.01 -0.09,-0.02 -0.2,0 -0.29,0.01 -0.83,0.05 -1.51,0.31 -2.26,0.6 -0.92,0.36 -1.59,0.73 -2.32,1.4 -0.25,0.23 -0.49,0.47 -0.74,0.7 -0.47,0.44 -0.86,0.95 -1.27,1.45 -0.38,0.47 -0.76,0.94 -1.15,1.41 -0.59,0.72 -1.35,1.47 -1.78,2.28 -0.3,0.56 -0.54,1.16 -0.8,1.74 -0.25,0.53 -0.57,1.1 -0.71,1.66 -0.06,0.25 -0.09,0.5 -0.11,0.76 -0.32,0.82 -0.33,1.78 0.12,2.5 0.72,1.15 1.95,1.78 3.31,1.77 1.23,-0.02 2.24,-0.47 3.22,-1.15 0.79,-0.55 1.78,-1.11 2.42,-1.8 0.51,-0.56 0.98,-1.15 1.47,-1.73 1.16,-1.36 2.39,-2.7 3.26,-4.26 0.33,-0.6 0.5,-1.23 0.62,-1.89 0.1,-0.57 0.29,-1.22 0.28,-1.78 -0,-0.34 -0.07,-0.7 -0.13,-1.04z"/>
     <path class="fil6" d="M370.9 175.5c-0.04,-0.15 -0.11,-0.27 -0.16,-0.4 -0.03,-0.19 -0.08,-0.36 -0.15,-0.54 -0.04,-0.16 -0.07,-0.33 -0.12,-0.49 -0.11,-0.45 -0.54,-0.74 -0.99,-0.76 -0.06,-0 -0.12,-0.01 -0.18,-0.01 -0.2,-0.07 -0.41,-0.11 -0.63,-0.11 -0.33,-0.1 -0.68,-0.15 -1,-0.15 -0.72,0 -1.29,0.25 -1.91,0.57 -0.25,0.13 -0.51,0.25 -0.76,0.37 -0.26,0.12 -0.52,0.23 -0.78,0.35 -0.51,0.26 -0.96,0.78 -1.39,1.18 -0.43,0.4 -0.96,0.75 -1.33,1.2 -0.39,0.47 -0.77,0.95 -1.18,1.41 -0.49,0.56 -0.81,1.15 -0.91,1.9 -0.1,0.71 -0,1.49 0.39,2.11 0.78,1.22 2.29,1.95 3.74,1.52 0.6,-0.18 1.2,-0.38 1.79,-0.6 0.62,-0.24 1.03,-0.44 1.54,-0.8 0.27,-0.19 0.53,-0.39 0.79,-0.59 0.75,-0.57 1.51,-1.06 2.01,-1.89 0.14,-0.24 0.27,-0.48 0.41,-0.73 0.15,-0.28 0.3,-0.57 0.44,-0.85 0.43,-0.88 0.65,-1.71 0.39,-2.69z"/>
     <path class="fil6" d="M283.02 121.63c-1.36,-0.79 -2.77,-0.63 -4.14,0 -1.84,0.85 -3,2.32 -4.01,4.04 -0.71,1.2 -1.47,2.37 -2.07,3.63 -0.29,0.61 -0.58,1.22 -0.86,1.84 -0.41,0.88 -0.93,1.75 -1.07,2.72 -0.13,0.86 -0.39,1.82 -0.39,2.68 0,1.35 0.69,2.59 1.82,3.31 1.92,1.22 3.42,0.25 4.78,-0.79 0.34,-0.26 0.68,-0.53 1.03,-0.79 0.63,-0.49 1.04,-1.05 1.52,-1.71 0.71,-0.98 1.48,-1.95 2.13,-2.97 0.65,-1.02 1.24,-2.09 1.85,-3.13 0.98,-1.66 1.58,-3.36 1.44,-5.3 -0.11,-1.47 -0.71,-2.77 -2.03,-3.54z"/>
     <g>
      <path class="fil6" d="M200.18 108.77c0.01,-0 -0.17,-0.02 -0.28,-0.04 0.03,0.01 0.06,0.01 0.09,0.01 0.06,0.01 0.13,0.01 0.19,0.02z"/>
      <path class="fil6" d="M201.66 110.14c-0.24,-0.58 -0.78,-1.26 -1.44,-1.36 -0.01,-0 -0.03,-0 -0.04,-0.01 -0,0 0.02,0 0,0 -0.07,-0 -0.13,-0.01 -0.2,-0.03 -0.04,-0 -0.07,-0.01 -0.11,-0.01 -0.1,-0.01 -0.05,-0.01 0.02,0 -0.14,-0.03 -0.27,-0.06 -0.41,-0.06 -0.51,0 -0.98,0.18 -1.4,0.46 -0.5,0.32 -1.01,0.6 -1.53,0.89 -0.8,0.45 -1.49,1.22 -2.22,1.78 0.26,-0.2 0.52,-0.4 0.78,-0.6 -0.43,0.33 -0.84,0.64 -1.2,1.04 -0.17,0.19 -0.34,0.37 -0.51,0.55 -0.35,0.36 -0.74,0.69 -1.06,1.06 -0.47,0.54 -1.13,1.16 -1.45,1.78 -0.22,0.42 -0.4,0.81 -0.68,1.2 -0.28,0.39 -0.41,1.05 -0.41,1.53 0,0.67 0.24,1.31 0.65,1.83 0.74,0.95 2,1.4 3.18,1.08 0.8,-0.22 1.62,-0.33 2.36,-0.73 0.77,-0.42 1.54,-0.96 2.17,-1.56 0.43,-0.41 0.84,-0.83 1.24,-1.27 0.38,-0.43 0.78,-0.87 1.05,-1.38 0.15,-0.28 0.29,-0.56 0.43,-0.85 0.23,-0.47 0.53,-1.02 0.66,-1.51 0.13,-0.49 0.16,-1.03 0.23,-1.53 0.1,-0.77 0.22,-1.58 -0.08,-2.31z"/>
     </g>
    </g>
   </g>
  </g>
 </g>
</svg>
