<?xml version="1.0" encoding="UTF-8"?>
<!DOCTYPE svg PUBLIC "-//W3C//DTD SVG 1.1//EN" "http://www.w3.org/Graphics/SVG/1.1/DTD/svg11.dtd">
<!-- Creator: CorelDRAW 2021 (64-Bit) -->
<svg xmlns="http://www.w3.org/2000/svg" xml:space="preserve" width="1.1811in" height="1.1811in" version="1.1" style="shape-rendering:geometricPrecision; text-rendering:geometricPrecision; image-rendering:optimizeQuality; fill-rule:evenodd; clip-rule:evenodd"
viewBox="0 0 247.49 247.49"
 xmlns:xlink="http://www.w3.org/1999/xlink"
 xmlns:xodm="http://www.corel.com/coreldraw/odm/2003">
 <defs>
  <style type="text/css">
   <![CDATA[
    .fil0 {fill:none}
    .fil20 {fill:#FEFEFE;fill-rule:nonzero}
    .fil8 {fill:#FDD19F;fill-rule:nonzero}
    .fil7 {fill:#FBB058;fill-rule:nonzero}
    .fil12 {fill:#F8A894;fill-rule:nonzero}
    .fil4 {fill:#F69F98;fill-rule:nonzero}
    .fil10 {fill:#F89C48;fill-rule:nonzero}
    .fil3 {fill:#F27C89;fill-rule:nonzero}
    .fil2 {fill:#F37567;fill-rule:nonzero}
    .fil6 {fill:#F8CF88;fill-rule:nonzero}
    .fil5 {fill:#D45E55;fill-rule:nonzero}
    .fil17 {fill:#C59145;fill-rule:nonzero}
    .fil19 {fill:#BF9B89;fill-rule:nonzero}
    .fil15 {fill:#6CCBDE;fill-rule:nonzero}
    .fil9 {fill:#655B74;fill-rule:nonzero}
    .fil11 {fill:#4FC0B4;fill-rule:nonzero}
    .fil18 {fill:#39BDAC;fill-rule:nonzero}
    .fil1 {fill:#686AA9;fill-rule:nonzero}
    .fil14 {fill:#3E919E;fill-rule:nonzero}
    .fil16 {fill:#59659C;fill-rule:nonzero}
    .fil13 {fill:#484D83;fill-rule:nonzero}
    .fil22 {fill:#7E4F1A;fill-rule:nonzero}
    .fil23 {fill:#DF9E2F;fill-rule:nonzero}
    .fil21 {fill:#EDC32F;fill-rule:nonzero}
    .fil24 {fill:#FBE44F;fill-rule:nonzero}
   ]]>
  </style>
 </defs>
 <g id="Layer_x0020_1">
  <metadata id="CorelCorpID_0Corel-Layer"/>
  <g id="_2939255134064">
   <rect class="fil0" width="247.49" height="247.49"/>
   <g>
    <g>
     <path class="fil1" d="M206.68 123.74c0,41.68 -35.43,75.47 -79.12,75.47 -43.7,0 -79.12,-33.79 -79.12,-75.47 0,-41.68 35.42,-75.47 79.12,-75.47 43.7,0 79.12,33.79 79.12,75.47z"/>
     <path class="fil2" d="M208.37 101.99c6.72,2.81 13.94,4.51 21.2,5.74 -0.03,-1.41 -0.13,-2.75 -0.3,-4.02 -2.55,-5.47 -5.96,-10.43 -11.06,-14.11 -2.54,-1.83 -5.28,-3.29 -8.13,-4.52l-15.07 3.24c0.18,6.7 7.35,11.17 13.35,13.67z"/>
     <path class="fil3" d="M229.26 103.71c-1.71,-12.69 -10,-18.49 -12.1,-19.77 2.11,1.29 10.39,7.09 12.1,19.77z"/>
     <path class="fil4" d="M229.26 103.71l0 -0c-1.71,-12.68 -9.99,-18.48 -12.1,-19.77l-0.04 -0.03 -0.15 -0.09 -0.06 -0.04 -0.1 -0.06 -0.05 -0.03 -0.05 -0.03 -0.03 -0.02 -6.59 1.42c2.85,1.24 5.59,2.69 8.13,4.52 5.1,3.68 8.5,8.64 11.06,14.11z"/>
     <path class="fil2" d="M193.26 89.42c0.21,0.27 0.41,0.54 0.61,0.81l0.26 0.35c0.21,0.29 0.42,0.58 0.62,0.87l0.21 0.29c0.22,0.32 0.44,0.64 0.65,0.96l0.13 0.19c0.25,0.38 0.5,0.77 0.73,1.15l-0.02 -0c6.07,9.83 7.08,19.04 6.55,25.85 8.71,-0.88 17.31,-2.62 25.63,-5.4l-27.2 13.73 27.74 -14c0.09,-0.65 0.16,-1.27 0.22,-1.9 0.02,-0.23 0.04,-0.45 0.05,-0.67 0.03,-0.38 0.06,-0.76 0.08,-1.14 0.01,-0.27 0.02,-0.53 0.03,-0.8 0.01,-0.32 0.02,-0.63 0.02,-0.94 0,-0.28 0,-0.56 0,-0.83l0 -0.21 -0.01 -0c-7.26,-1.23 -14.48,-2.94 -21.2,-5.74 -6,-2.5 -13.17,-6.97 -13.35,-13.67l-2.24 0.48 0.18 0.23c0.1,0.13 0.2,0.26 0.31,0.39z"/>
     <path class="fil5" d="M203 119.89c-0.28,3.49 -0.96,6.35 -1.57,8.33l27.2 -13.73c-8.32,2.78 -16.92,4.52 -25.63,5.4z"/>
     <path class="fil6" d="M192.95 89.03l-0.18 -0.23c-0.14,-0.18 -0.29,-0.36 -0.44,-0.54 0.15,0.18 0.29,0.36 0.44,0.55l0.19 0.23z"/>
     <path class="fil7" d="M187.55 93.05c0.85,0.62 1.66,1.29 2.43,2 1.54,1.42 2.91,3.01 4.04,4.78 3.26,5.11 4.39,11.7 2.34,17.41 -1.44,-5.88 -2.98,-11.92 -5.34,-17.48 -0.99,-2.34 -2.13,-4.59 -3.48,-6.71zm15.45 26.84c0.54,-6.8 -0.48,-16.01 -6.55,-25.85 -2.33,-0.58 -4.68,-1.09 -7.04,-1.53 -5.56,-1.03 -11.19,-1.67 -16.8,-1.86l-0.19 0.77 10.59 45.21 7.03 1.78 10.23 -7.1c0,0 0.54,-1.11 1.16,-3.09 0.61,-1.98 1.3,-4.84 1.57,-8.33z"/>
     <path class="fil7" d="M196.45 94.04l0.02 0c-0.24,-0.38 -0.48,-0.77 -0.73,-1.15l-0.13 -0.19c-0.21,-0.32 -0.43,-0.64 -0.65,-0.96l-0.21 -0.29c-0.2,-0.29 -0.41,-0.58 -0.62,-0.87l-0.26 -0.35c-0.2,-0.27 -0.41,-0.54 -0.61,-0.81 -0.1,-0.13 -0.2,-0.26 -0.31,-0.39l-0.19 -0.23c-0.14,-0.18 -0.29,-0.36 -0.44,-0.55 -0.11,-0.14 -0.22,-0.28 -0.34,-0.41 -0.21,-0.26 -0.43,-0.51 -0.65,-0.77 -0.12,-0.14 -0.24,-0.28 -0.36,-0.41 -0.24,-0.27 -0.48,-0.54 -0.73,-0.82l-0.33 -0.36c-0.36,-0.39 -0.73,-0.78 -1.11,-1.17l-15.26 2.62 -0.94 3.73c5.61,0.19 11.24,0.82 16.8,1.86 2.36,0.44 4.71,0.94 7.04,1.53z"/>
     <path class="fil8" d="M194.02 99.82c-1.13,-1.77 -2.5,-3.36 -4.04,-4.78 -0.77,-0.71 -1.58,-1.38 -2.43,-2 1.34,2.12 2.48,4.37 3.48,6.71 2.37,5.56 3.91,11.6 5.34,17.48 2.05,-5.71 0.92,-12.3 -2.34,-17.41z"/>
     <path class="fil9" d="M190.04 138.42l-7.03 -1.78 0 0 7.03 1.78 10.23 -7.1 0 0 0 0 -10.23 7.1zm10.23 -7.1c0,-0 0,-0 0,-0 0,0 0,0 0,0z"/>
     <path class="fil10" d="M190.04 138.42l-7.03 -1.78 0.53 -0.14c0.05,-0.12 0.09,-0.24 0.14,-0.36l0 -0c0.6,-1.62 1.02,-3.32 1.38,-5.03l0 0c0.28,-1.3 0.53,-2.61 0.82,-3.87 0.33,-1.49 0.65,-2.95 0.9,-4.41 5.36,-0.98 10.78,-1.68 16.17,-2.45 -0.6,6.63 -2.64,10.85 -2.69,10.95 0,0 0,0 0,0 -0,0 -0,0 -0,0l0 0 -10.23 7.1z"/>
     <path class="fil11" d="M185.88 127.23c1.12,-4.98 1.97,-9.65 1.43,-14.78 -0.46,-4.45 -1.52,-8.71 -3.99,-12.49 -2.27,-3.47 -5.42,-6.28 -8.7,-8.78 -0.14,-0.11 -0.26,-0.22 -0.37,-0.34 -22.21,6.89 -102.12,38.15 -102.12,38.15l-51.37 35.03 64.52 -1.22 98.25 -26.31c1.16,-2.95 1.65,-6.22 2.34,-9.26z"/>
     <path class="fil12" d="M86.87 158.72c-2.3,-1.16 -4.18,-3.09 -5.01,-5.66 -0.91,-2.83 -0.1,-5.42 1.65,-7.35 -1.8,-0.22 -3.51,-0.92 -4.83,-2.31 -2.16,-2.27 -1.86,-5.02 -0.49,-7.35 -2.98,-0.03 -6.05,-1.21 -8.28,-3.01 -0.6,-0.48 -1.08,-0.99 -1.48,-1.52l-47.64 32.49 62.95 -1.19c0.42,-1.68 1.62,-3.08 3.14,-4.11z"/>
     <path class="fil13" d="M39.37 151.34l-18.6 12.68 28.36 -0.54c-2.38,-4.51 -6.11,-8.63 -9.77,-12.15z"/>
     <path class="fil13" d="M40.08 162.87c1.71,-1.61 3.54,-3.24 5.4,-4.89 -1.88,-2.38 -4,-4.61 -6.11,-6.64l-18.6 12.68 18.44 -0.35c0.29,-0.27 0.58,-0.54 0.87,-0.81z"/>
     <path class="fil14" d="M47.2 163.52l1.94 -0.04c-0.2,-0.38 -0.43,-0.76 -0.65,-1.13 -0.44,0.39 -0.87,0.78 -1.3,1.17z"/>
     <path class="fil15" d="M187.32 112.45c-0.42,-4.1 -1.37,-8.04 -3.45,-11.59l-105.69 35.2c0,0 -5.25,8.19 5.32,9.65l16.34 -4.05 87.07 -19.63c0.51,-3.14 0.75,-6.27 0.4,-9.59z"/>
     <polygon class="fil16" points="83.73,162.83 83.73,162.83 83.73,162.83 "/>
     <path class="fil17" d="M183.68 136.13c0.6,-1.62 1.02,-3.32 1.38,-5.03l0 0c-0.37,1.71 -0.78,3.41 -1.38,5.03l-0 0z"/>
     <path class="fil18" d="M83.73 162.83c0.42,-1.68 1.62,-3.08 3.14,-4.11l0 0 98.2 -27.62c-0.37,1.71 -0.78,3.41 -1.39,5.03l-0.67 0.5 -99.28 26.2 0 0z"/>
     <path class="fil19" d="M83.73 162.83c0,0 -0.53,-3.07 3.14,-4.11 -1.52,1.03 -2.72,2.43 -3.14,4.11l0 0 0 0z"/>
     <path class="fil13" d="M24.77 146.69c-9.35,-12.94 -8.15,-34.48 2.76,-46.06 5.47,-5.8 13.26,-7.55 20.71,-5.26 8.35,2.57 11.82,11.46 8.24,19.08 -1.16,2.47 -8.61,10.22 -11.3,3.36 -1.45,-3.7 -0.83,-8.57 -0.11,-12.35 1.34,-6.99 5.52,-13.08 10.52,-17.96 11.93,-11.63 30.81,-11.66 45.64,-6.79 3.74,1.23 5.33,-4.65 1.62,-5.87 -22.11,-7.26 -47.29,-2.33 -59.68,18.72 -4.12,6.99 -7.91,20.84 -2.88,28.32 5.65,8.41 15.52,3.7 20.53,-2.84 5.55,-7.25 3.67,-17.12 -1.74,-23.65 -6.18,-7.45 -17.54,-8.57 -26.08,-5.51 -22.37,8.03 -26.02,42.53 -13.49,59.89 2.28,3.15 7.56,0.12 5.25,-3.07z"/>
     <path class="fil2" d="M117.95 185.35c0.57,-9.88 9.66,-10.16 16.77,-7.27 4.48,1.82 8.4,2.98 13.2,2.09 7.52,-1.4 11.96,-10.3 17.05,-15.09 9.23,-8.71 25.26,3.07 36.01,2.91 7.71,-0.11 14.13,-6.52 14.32,-14.02 0.09,-3.93 -5.99,-3.92 -6.08,0 -0.39,16.04 -27.72,2.31 -35.99,1.9 -8.81,-0.43 -14.33,6.51 -19.4,12.56 -3.75,4.47 -7.42,7.06 -13.54,5.33 -5.16,-1.46 -9.22,-4.11 -14.77,-3.83 -7.98,0.41 -13.22,8.15 -13.64,15.43 -0.23,3.92 5.86,3.9 6.08,0z"/>
     <path class="fil7" d="M223.21 150.31l0 0c0,-6.57 -5.33,-11.9 -11.9,-11.9 6.57,0 11.9,-5.33 11.9,-11.9 0,6.57 5.33,11.9 11.9,11.9 -6.57,0 -11.9,5.33 -11.9,11.9z"/>
     <path class="fil7" d="M228.63 168.53l0 0c0,-3.44 -2.79,-6.24 -6.24,-6.24 3.44,0 6.24,-2.79 6.24,-6.23 0,3.44 2.79,6.23 6.23,6.23 -3.44,0 -6.23,2.79 -6.23,6.24z"/>
     <path class="fil20" d="M92.85 110.42l0 0c0,-6.23 -5.05,-11.28 -11.28,-11.28 6.23,0 11.28,-5.05 11.28,-11.28 0,6.23 5.05,11.28 11.28,11.28 -6.23,0 -11.28,5.05 -11.28,11.28z"/>
     <path class="fil20" d="M128.43 82.1l0 0c0,-3.44 -2.79,-6.24 -6.23,-6.24 3.44,0 6.23,-2.79 6.23,-6.24 0,3.44 2.79,6.24 6.24,6.24 -3.44,0 -6.24,2.79 -6.24,6.24z"/>
    </g>
    <g>
     <g>
      <path class="fil21" d="M160.83 65.32c0.2,0.06 0.39,0.12 0.59,0.19 0.06,0.02 0.61,0.21 0.32,0.12 0.21,0.06 0.4,0.24 0.49,0.44 0.77,0.21 0.76,1.45 0.82,2.1 0.08,0.79 0.16,1.59 0.25,2.38 0.04,0.34 0.04,0.74 0.18,1.06 0.08,0.17 0.13,0.23 0.24,0.3 0.29,0.19 0.71,0.22 1.09,0.12 0.43,-0.11 0.9,-0.49 1.26,-0.92 0.42,-0.49 0.74,-1.07 1.05,-1.63 0.36,-0.65 0.7,-1.31 1,-1.99 0.3,-0.67 0.57,-1.36 0.94,-1.99 0.16,-0.27 0.5,-0.31 0.75,-0.19 0.44,-0.12 0.77,0.07 1.17,0.24 0.31,0.13 0.62,0.24 0.93,0.34 0.63,0.2 1.28,0.35 1.94,0.43 1.38,0.17 2.76,0.15 4.11,-0.18 0.52,-0.13 0.91,-0.29 0.96,-0.88 0.05,-0.6 -0.34,-1.12 -0.74,-1.52 -0.52,-0.52 -1.14,-0.96 -1.77,-1.34 -0.64,-0.4 -1.39,-0.67 -1.86,-1.28 -0.04,-0.05 -0.06,-0.11 -0.08,-0.17 -0.4,-0.18 -0.61,-0.72 -0.37,-1.14 0.53,-0.92 1.02,-1.79 1.3,-2.82 0.24,-0.88 0.43,-1.95 0.24,-2.86 -0.06,-0.28 -0.16,-0.59 -0.48,-0.64 -0.4,-0.07 -0.87,0.23 -1.21,0.4 -0.59,0.3 -1.18,0.59 -1.76,0.89 -0.57,0.29 -1.2,0.71 -1.83,0.81 -0.32,0.05 -0.58,-0.13 -0.7,-0.37 -0.1,0.05 -0.2,0.07 -0.31,0.04 -0.68,-0.22 -1.32,-0.73 -1.9,-1.14 -0.6,-0.42 -1.2,-0.84 -1.79,-1.28 -0.52,-0.39 -1.03,-0.82 -1.59,-1.15 -0.36,-0.21 -0.8,-0.41 -1.22,-0.23 -1.04,0.44 -0.96,1.98 -0.94,2.9 0.02,0.72 0.05,1.45 0.08,2.17 0.02,0.39 0.03,0.78 0.05,1.17 0.01,0.18 0.01,0.36 0.02,0.54 0,0.01 0,0.03 0,0.04 0.07,0.09 0.1,0.21 0.11,0.32 0.01,0.13 -0.11,0.47 -0.09,0.27 -0.05,0.5 -0.43,0.93 -0.96,0.92 -0.12,-0 -0.22,-0.03 -0.31,-0.07 -0.94,0.41 -1.87,0.85 -2.74,1.4 -0.5,0.32 -0.98,0.67 -1.43,1.06 -0.42,0.37 -0.91,0.76 -1.16,1.25 -0.03,0.06 -0.06,0.13 -0.08,0.22 0,0 0,0.02 0,0.02 0.01,0.01 0.02,0.01 0.03,0.02 0.1,0.05 0.15,0.07 0.29,0.11 0.67,0.21 1.35,0.4 2.03,0.6 0.69,0.21 1.38,0.41 2.07,0.62 0.34,0.1 0.69,0.21 1.03,0.31z"/>
     </g>
     <path class="fil22" d="M160.44 67.22c0.19,0.06 0.39,0.12 0.6,0.15 0.01,0.39 0.09,0.79 0.12,1.08l0.26 2.38c0.09,0.78 0.19,1.53 0.7,2.17 0.34,0.43 0.84,0.73 1.36,0.88 1.2,0.33 2.42,-0.08 3.33,-0.89 0.95,-0.85 1.53,-2.09 2.05,-3.22 0.38,-0.84 0.76,-1.72 1.01,-2.62 0.13,0.07 0.27,0.13 0.43,0.19 0.41,0.17 0.82,0.31 1.25,0.43 0.87,0.25 1.77,0.4 2.68,0.47 0.9,0.07 1.81,-0.01 2.71,-0.13 0.84,-0.11 1.81,-0.26 2.54,-0.72 1.68,-1.05 1.27,-3.28 0.15,-4.56 -0.61,-0.69 -1.41,-1.26 -2.19,-1.74 -0.56,-0.35 -1.12,-0.67 -1.73,-0.81 0.52,-0.83 0.89,-1.81 1.11,-2.74 0.23,-0.95 0.38,-1.96 0.33,-2.94 -0.04,-0.98 -0.37,-2.03 -1.37,-2.4 -0.97,-0.37 -1.97,0.2 -2.82,0.64 -0.52,0.27 -1.05,0.54 -1.57,0.8 -0.52,0.26 -1.12,0.5 -1.54,0.9 -0.48,-0.69 -1.25,-1.24 -1.89,-1.77 -0.66,-0.55 -1.32,-1.09 -2,-1.62 -1.1,-0.86 -2.38,-1.72 -3.81,-1.07 -1.41,0.64 -1.87,2.23 -1.95,3.65 -0.04,0.8 -0.05,1.61 -0.05,2.42 -0,0.73 -0.01,1.47 0.04,2.2 -1.08,0.24 -2.09,0.67 -3.06,1.25 -1.07,0.65 -2.19,1.45 -2.97,2.44 -0.8,1.04 -0.99,2.62 0.34,3.34 0.58,0.32 1.27,0.46 1.9,0.65l2.06 0.62c0.66,0.2 1.33,0.4 1.99,0.6zm-4.73 -3.42l0 0c-0.14,-0.04 -0.19,-0.06 -0.29,-0.11 -0.02,-0.01 -0.02,-0.01 -0.03,-0.02 0,-0 0,-0.02 0,-0.02 0.02,-0.09 0.05,-0.16 0.08,-0.22 0.25,-0.49 0.74,-0.89 1.16,-1.25 0.45,-0.39 0.93,-0.74 1.43,-1.06 0.87,-0.54 1.8,-0.98 2.74,-1.4 0.09,0.04 0.19,0.07 0.31,0.07 0.54,0.01 0.91,-0.41 0.96,-0.92 -0.02,0.2 0.1,-0.15 0.09,-0.27 -0,-0.11 -0.04,-0.23 -0.11,-0.32 -0,-0.01 -0,-0.03 -0,-0.04 -0.01,-0.18 -0.02,-0.36 -0.02,-0.54 -0.02,-0.39 -0.03,-0.78 -0.05,-1.17 -0.03,-0.72 -0.06,-1.44 -0.08,-2.17 -0.02,-0.92 -0.11,-2.46 0.94,-2.9 0.42,-0.18 0.85,0.02 1.22,0.23 0.56,0.33 1.07,0.76 1.59,1.15 0.59,0.43 1.19,0.86 1.79,1.28 0.58,0.41 1.22,0.91 1.9,1.14 0.11,0.04 0.22,0.01 0.31,-0.04 0.11,0.24 0.38,0.42 0.7,0.37 0.63,-0.1 1.26,-0.52 1.83,-0.81 0.59,-0.3 1.17,-0.59 1.76,-0.89 0.34,-0.17 0.81,-0.47 1.21,-0.4 0.32,0.05 0.42,0.36 0.48,0.64 0.19,0.91 0.01,1.98 -0.24,2.86 -0.28,1.03 -0.77,1.9 -1.3,2.82 -0.24,0.42 -0.02,0.96 0.37,1.14 0.02,0.06 0.04,0.12 0.08,0.17 0.48,0.61 1.22,0.88 1.86,1.28 0.63,0.39 1.25,0.82 1.77,1.34 0.4,0.4 0.79,0.92 0.74,1.52 -0.05,0.59 -0.43,0.75 -0.96,0.88 -1.35,0.34 -2.73,0.35 -4.11,0.18 -0.66,-0.08 -1.31,-0.24 -1.94,-0.43 -0.32,-0.1 -0.63,-0.21 -0.93,-0.34 -0.4,-0.16 -0.73,-0.36 -1.17,-0.24 -0.25,-0.12 -0.59,-0.08 -0.75,0.19 -0.37,0.64 -0.64,1.32 -0.94,1.99 -0.3,0.68 -0.64,1.34 -1,1.99 -0.31,0.56 -0.63,1.14 -1.05,1.63 -0.36,0.42 -0.83,0.81 -1.26,0.92 -0.37,0.09 -0.79,0.07 -1.09,-0.12 -0.11,-0.07 -0.17,-0.13 -0.24,-0.3 -0.14,-0.32 -0.15,-0.72 -0.18,-1.06 -0.08,-0.79 -0.16,-1.59 -0.25,-2.38 -0.07,-0.64 -0.06,-1.89 -0.82,-2.1 -0.1,-0.21 -0.29,-0.38 -0.49,-0.44 0.29,0.09 -0.26,-0.1 -0.32,-0.12 -0.19,-0.07 -0.39,-0.13 -0.59,-0.19 -0.34,-0.1 -0.69,-0.2 -1.03,-0.31 -0.69,-0.21 -1.38,-0.41 -2.07,-0.62 -0.67,-0.2 -1.35,-0.39 -2.03,-0.6z"/>
     <g>
      <path class="fil23" d="M164.72 72.05c0.03,-0.01 0.07,0 0.1,-0.01 0.43,-0.11 0.9,-0.49 1.26,-0.92 0.42,-0.49 0.74,-1.07 1.05,-1.63 0.36,-0.65 0.7,-1.31 1,-1.99 0.3,-0.67 0.57,-1.36 0.94,-1.99 0.16,-0.27 0.5,-0.31 0.75,-0.19 0.2,-0.06 0.38,-0.04 0.56,0 -0.31,-0.23 -0.64,-0.44 -0.99,-0.6 -0.79,-0.35 -1.82,-0.36 -2.43,0.25 -0.31,0.31 -0.47,0.73 -0.61,1.14 -0.51,1.45 -0.91,2.93 -1.22,4.44 -0.1,0.5 -0.2,1.02 -0.4,1.5z"/>
      <path class="fil23" d="M162.07 58.87c-0,0.03 -0.02,0.05 -0.02,0.08 0.18,-0.06 0.37,-0.13 0.56,-0.19 0.52,-0.18 1.07,-0.38 1.43,-0.79 0.81,-0.92 0.37,-2.35 -0.12,-3.47 -0.42,-0.97 -0.84,-1.94 -1.26,-2.92 -0.83,0.54 -0.77,1.93 -0.75,2.78 0.02,0.72 0.05,1.45 0.08,2.17 0.02,0.39 0.03,0.78 0.05,1.17 0.01,0.18 0.01,0.36 0.02,0.54 0,0.01 0,0.03 0,0.04 0.07,0.09 0.1,0.21 0.11,0.32 0.01,0.13 -0.11,0.47 -0.09,0.27z"/>
      <path class="fil23" d="M159.8 65.01c0.34,0.1 0.69,0.21 1.03,0.31 0.2,0.06 0.39,0.12 0.59,0.19 0.06,0.02 0.61,0.21 0.32,0.12 0.21,0.06 0.4,0.24 0.49,0.44 0.13,0.03 0.22,0.1 0.31,0.19 0.05,-0.51 0.08,-1.02 0.09,-1.53 0,-0.33 -0,-0.68 -0.16,-0.96 -0.39,-0.71 -1.39,-0.7 -2.19,-0.61 -1.6,0.17 -3.21,0.27 -4.82,0.29 -0.03,0.06 -0.05,0.12 -0.07,0.2 0,0 0,0.02 0,0.02 0.01,0.01 0.02,0.01 0.03,0.02 0.1,0.05 0.15,0.07 0.29,0.11 0.67,0.21 1.35,0.4 2.03,0.6 0.69,0.21 1.38,0.41 2.07,0.62z"/>
      <path class="fil23" d="M170.35 55.58c-0.14,0.02 -0.28,-0.01 -0.39,-0.06 0.23,0.48 0.54,0.92 0.96,1.27 0.19,0.16 0.41,0.31 0.66,0.31 0.28,0 0.53,-0.18 0.74,-0.36 1.12,-0.94 2.1,-2.02 2.96,-3.2 -0.04,-0.02 -0.08,-0.04 -0.13,-0.05 -0.4,-0.07 -0.87,0.23 -1.21,0.4 -0.59,0.3 -1.18,0.59 -1.76,0.89 -0.57,0.29 -1.2,0.71 -1.83,0.81z"/>
      <path class="fil23" d="M174.55 61.11c-0.04,-0.05 -0.06,-0.11 -0.08,-0.17 -0.19,-0.09 -0.33,-0.26 -0.41,-0.45 -0.21,0.27 -0.41,0.55 -0.56,0.86 -0.39,0.81 -0.42,1.87 0.19,2.54 0.72,0.78 1.93,0.7 2.99,0.74 0.75,0.03 1.49,0.15 2.21,0.35 -0.07,-0.48 -0.38,-0.9 -0.71,-1.23 -0.52,-0.52 -1.14,-0.96 -1.77,-1.34 -0.64,-0.4 -1.39,-0.67 -1.86,-1.28z"/>
     </g>
     <path class="fil24" d="M166.46 54.57c-0.03,-0.09 -0.07,-0.17 -0.11,-0.25 -0.07,-0.14 -0.2,-0.25 -0.33,-0.33 -0.08,-0.05 -0.15,-0.1 -0.23,-0.16 0.05,0.04 0.1,0.08 0.15,0.12 -0.08,-0.07 -0.17,-0.13 -0.25,-0.19 -0.08,-0.06 -0.15,-0.12 -0.22,-0.19 -0.04,-0.03 -0.07,-0.07 -0.11,-0.11 -0.08,-0.08 -0.15,-0.14 -0.24,-0.21 0.05,0.04 0.09,0.07 0.14,0.11 -0.26,-0.21 -0.62,-0.61 -0.99,-0.39 -0.31,0.19 -0.28,0.62 -0.19,0.91 0.04,0.13 0.08,0.27 0.16,0.39 0.07,0.1 0.14,0.2 0.21,0.3 0.15,0.19 0.3,0.37 0.49,0.52 0.09,0.07 0.19,0.15 0.29,0.21 0.23,0.14 0.49,0.16 0.75,0.1 0.34,-0.08 0.58,-0.49 0.47,-0.83z"/>
     <path class="fil24" d="M167.68 56.03c-0.01,-0.13 -0.02,-0.24 -0.09,-0.35 -0.05,-0.08 -0.1,-0.17 -0.17,-0.24 -0.03,-0.03 -0.07,-0.06 -0.1,-0.09 -0.09,-0.08 -0.18,-0.16 -0.3,-0.18 -0.06,-0.01 -0.13,-0.02 -0.2,-0.03l-0.15 0.02c-0.07,0.02 -0.14,0.05 -0.19,0.1 -0.04,0.02 -0.08,0.06 -0.1,0.1 -0.05,0.05 -0.08,0.12 -0.1,0.19 -0,0.01 -0,0.02 -0,0.02 -0.01,0.05 -0.02,0.12 -0.02,0.17 0.01,0.05 0.01,0.11 0.02,0.16l0.06 0.14c0,0.01 0.01,0.02 0.01,0.03 0.02,0.04 0.04,0.09 0.06,0.13 0.02,0.05 0.07,0.1 0.11,0.14 0.01,0.01 0.02,0.02 0.02,0.03 0.01,0.02 0.03,0.03 0.04,0.05 0.02,0.02 0.04,0.04 0.07,0.06 0.02,0.02 0.05,0.04 0.07,0.05 0.01,0.01 0.02,0.01 0.03,0.01 0.02,0.01 0.04,0.02 0.06,0.03 0.09,0.05 0.19,0.08 0.29,0.08 0.1,0 0.2,-0.03 0.29,-0.08 0.09,-0.05 0.16,-0.12 0.21,-0.21 0.05,-0.09 0.08,-0.19 0.08,-0.29l-0.01 -0.06z"/>
     <path class="fil24" d="M160.19 61.39c0.01,-0.11 -0.08,-0.2 -0.18,-0.24 -0.03,-0.01 -0.13,-0.02 -0.07,-0.01 0.05,0.01 -0.01,-0 -0.02,-0 0.05,0.03 0.1,0.06 0.15,0.09 -0.09,-0.09 -0.18,-0.13 -0.3,-0.14 -0.15,-0.02 -0.16,-0.03 -0.31,-0 -0.03,0.01 -0.07,0.01 -0.1,0.02 -0.12,0.03 -0.24,0.09 -0.36,0.12 -0.16,0.05 -0.33,0.13 -0.47,0.23 -0.11,0.08 -0.22,0.15 -0.33,0.21 -0.19,0.1 -0.3,0.36 -0.23,0.57 0.07,0.2 0.26,0.38 0.49,0.37 0.35,-0.02 0.73,-0.03 1.04,-0.22 0.15,-0.09 0.31,-0.18 0.43,-0.3 0.15,-0.15 0.28,-0.37 0.26,-0.59 0.01,-0.03 0.02,-0.06 0.02,-0.1z"/>
     <path class="fil24" d="M165.1 66.8c-0,-0.09 -0,-0.17 -0,-0.26 0,-0.14 -0.04,-0.28 -0.06,-0.42 0.01,0.05 0.01,0.11 0.02,0.16 -0.01,-0.07 -0.01,-0.15 -0.03,-0.22 -0.01,-0.07 -0.05,-0.13 -0.08,-0.2 -0.02,-0.04 -0.04,-0.09 -0.06,-0.13 0.01,0.03 0.02,0.06 0.04,0.08 -0.06,-0.15 -0.14,-0.26 -0.31,-0.31 -0.15,-0.04 -0.32,0 -0.43,0.11 -0.04,0.04 -0.08,0.08 -0.11,0.12 -0.1,0.11 -0.15,0.21 -0.21,0.34 -0.02,0.06 -0.05,0.13 -0.07,0.19 -0.04,0.11 -0.04,0.22 -0.05,0.33 -0.01,0.15 -0.03,0.3 -0.01,0.46 0.01,0.09 0.03,0.17 0.05,0.26 0.06,0.2 0.16,0.33 0.34,0.45 0.11,0.07 0.25,0.09 0.37,0.07 0.13,-0.02 0.24,-0.07 0.34,-0.16 0.14,-0.12 0.19,-0.28 0.23,-0.45 0.02,-0.09 0.04,-0.19 0.03,-0.28 -0,-0.05 -0,-0.1 -0.01,-0.15z"/>
     <g>
      <path class="fil24" d="M172.61 64.37c0.02,0 0.05,0.01 0.07,0.01 0.01,-0 0.02,-0 0.03,-0 -0.03,0 -0.07,-0 -0.1,-0z"/>
      <path class="fil24" d="M173.77 64.64c-0.11,-0.11 -0.24,-0.16 -0.38,-0.17 0,0 -0,0 -0,0 -0.06,-0.01 -0.12,-0.03 -0.18,-0.05 -0.13,-0.04 -0.26,-0.02 -0.39,-0.03 0.03,0 0.06,0.01 0.09,0.01 -0.13,-0.02 -0.24,-0.03 -0.37,0 0.04,-0.01 0.09,-0.01 0.13,-0.02 -0.21,-0.04 -0.42,0.02 -0.56,0.2 -0.06,0.08 -0.1,0.17 -0.11,0.27 -0.01,0.05 -0.01,0.1 0,0.15 0,0.08 0.03,0.15 0.07,0.21 0.08,0.18 0.22,0.34 0.39,0.44 0.24,0.13 0.51,0.22 0.78,0.14 0.1,-0.03 0.19,-0.07 0.28,-0.11 0.09,-0.04 0.17,-0.1 0.24,-0.16 0.11,-0.12 0.19,-0.27 0.19,-0.45 0,-0.16 -0.07,-0.32 -0.18,-0.42z"/>
      <path class="fil24" d="M172.7 64.38c-0.01,-0 -0.01,0 -0.02,0 0.03,0 0.06,0.01 0.08,0.01 -0.02,-0 -0.04,-0.01 -0.07,-0.01z"/>
      <path class="fil24" d="M172.68 64.38c-0,0 -0.01,0 -0.01,0 0.01,0 0.01,-0 0.02,-0 -0,0 -0,-0 -0.01,-0z"/>
     </g>
     <path class="fil24" d="M175.03 56.69c0,-0.13 -0.04,-0.27 -0.14,-0.36 -0,-0 -0.01,-0.01 -0.01,-0.01 -0.09,-0.08 -0.09,-0.08 -0.18,-0.11 -0.02,-0.01 -0.05,-0.02 -0.07,-0.03 -0.05,-0.01 -0.1,-0.01 -0.15,-0.02 -0.03,-0 -0.06,-0 -0.09,-0 -0.05,0 -0.13,0.01 -0.18,0.03 -0.01,0 -0.01,0 -0.02,0.01 -0.07,0.02 -0.13,0.05 -0.19,0.08 -0.01,0 -0.02,0.01 -0.03,0.01 -0.05,0.03 -0.1,0.08 -0.14,0.11 -0.01,0.01 -0.03,0.03 -0.04,0.04 -0.06,0.06 -0.12,0.14 -0.17,0.21 -0.01,0.01 -0.02,0.03 -0.03,0.05 -0.02,0.03 -0.03,0.06 -0.04,0.09 -0.02,0.03 -0.03,0.06 -0.04,0.09 -0,0.01 -0,0.02 -0.01,0.03 -0.01,0.05 -0.02,0.09 -0.02,0.14 -0.01,0.03 -0.01,0.07 -0.01,0.1 0.01,0.06 0.02,0.12 0.02,0.18 0,0.01 0,0.02 0,0.02 0.01,0.03 0.02,0.07 0.03,0.1 0.02,0.05 0.04,0.1 0.06,0.15l0.1 0.13 0.13 0.1c0.07,0.05 0.15,0.07 0.23,0.07 0.06,0.01 0.11,0.01 0.17,0 0.06,0 0.11,-0.01 0.16,-0.04 0.05,-0.01 0.1,-0.04 0.14,-0.08 0.07,-0.04 0.12,-0.1 0.16,-0.18 0.02,-0.03 0.04,-0.06 0.06,-0.08 -0.04,0.05 -0.07,0.09 -0.11,0.14 0.05,-0.06 0.1,-0.11 0.14,-0.18 0.01,-0.02 0.02,-0.04 0.03,-0.06 0.03,-0.06 0.05,-0.11 0.07,-0.17 0,-0.01 0.01,-0.02 0.01,-0.03 0.04,-0.07 0.07,-0.15 0.1,-0.22 -0.02,0.05 -0.04,0.1 -0.07,0.16 0.03,-0.07 0.07,-0.14 0.09,-0.21 0.01,-0.02 0.01,-0.04 0.02,-0.06 -0.02,0.05 -0.04,0.09 -0.06,0.14 0.05,-0.11 0.09,-0.19 0.09,-0.32z"/>
    </g>
    <g>
     <g>
      <path class="fil21" d="M115.74 161.54c0.2,0.06 0.39,0.12 0.59,0.19 0.06,0.02 0.61,0.21 0.32,0.12 0.21,0.06 0.4,0.24 0.49,0.44 0.77,0.21 0.76,1.45 0.82,2.1 0.08,0.79 0.16,1.59 0.25,2.38 0.04,0.34 0.04,0.74 0.18,1.06 0.08,0.17 0.13,0.23 0.24,0.3 0.29,0.19 0.71,0.22 1.09,0.12 0.43,-0.11 0.9,-0.49 1.26,-0.92 0.42,-0.49 0.74,-1.07 1.05,-1.63 0.36,-0.65 0.7,-1.31 1,-1.99 0.3,-0.67 0.57,-1.36 0.94,-1.99 0.16,-0.27 0.5,-0.31 0.75,-0.19 0.44,-0.12 0.77,0.07 1.17,0.24 0.31,0.13 0.62,0.24 0.93,0.34 0.63,0.2 1.28,0.35 1.94,0.43 1.38,0.17 2.76,0.15 4.11,-0.18 0.52,-0.13 0.91,-0.29 0.96,-0.88 0.05,-0.6 -0.34,-1.12 -0.74,-1.52 -0.52,-0.52 -1.14,-0.96 -1.77,-1.34 -0.64,-0.4 -1.39,-0.67 -1.86,-1.28 -0.04,-0.05 -0.06,-0.11 -0.08,-0.17 -0.4,-0.18 -0.61,-0.72 -0.37,-1.14 0.53,-0.92 1.02,-1.79 1.3,-2.81 0.24,-0.88 0.43,-1.95 0.24,-2.86 -0.06,-0.28 -0.16,-0.59 -0.48,-0.64 -0.4,-0.07 -0.87,0.23 -1.21,0.4 -0.59,0.3 -1.18,0.59 -1.76,0.89 -0.57,0.29 -1.2,0.71 -1.83,0.81 -0.31,0.05 -0.58,-0.13 -0.7,-0.37 -0.1,0.05 -0.2,0.07 -0.31,0.04 -0.68,-0.22 -1.32,-0.73 -1.9,-1.14 -0.6,-0.42 -1.2,-0.84 -1.79,-1.28 -0.52,-0.39 -1.03,-0.82 -1.59,-1.15 -0.36,-0.21 -0.8,-0.41 -1.21,-0.23 -1.04,0.44 -0.96,1.98 -0.94,2.9 0.02,0.72 0.05,1.45 0.08,2.17 0.02,0.39 0.03,0.78 0.05,1.17 0.01,0.18 0.01,0.36 0.02,0.54 0,0.01 0,0.03 0,0.04 0.06,0.09 0.1,0.21 0.11,0.32 0.01,0.13 -0.11,0.47 -0.09,0.27 -0.05,0.5 -0.43,0.93 -0.96,0.92 -0.12,-0 -0.21,-0.03 -0.31,-0.07 -0.94,0.41 -1.88,0.85 -2.74,1.4 -0.5,0.32 -0.98,0.67 -1.43,1.06 -0.42,0.37 -0.91,0.76 -1.16,1.25 -0.03,0.06 -0.06,0.14 -0.08,0.22 0,0 -0,0.01 -0,0.02 0.01,0.01 0.02,0.01 0.03,0.02 0.1,0.05 0.15,0.07 0.29,0.11 0.67,0.21 1.35,0.4 2.02,0.6 0.69,0.21 1.38,0.41 2.07,0.62 0.34,0.1 0.69,0.2 1.03,0.31z"/>
     </g>
     <path class="fil22" d="M115.35 163.43c0.19,0.06 0.39,0.12 0.6,0.15 0.02,0.39 0.09,0.79 0.12,1.08l0.26 2.38c0.09,0.78 0.19,1.53 0.7,2.17 0.34,0.43 0.84,0.73 1.36,0.88 1.2,0.33 2.42,-0.08 3.33,-0.89 0.95,-0.85 1.53,-2.09 2.05,-3.23 0.38,-0.84 0.76,-1.72 1.01,-2.62 0.13,0.07 0.27,0.13 0.43,0.19 0.41,0.17 0.82,0.31 1.25,0.43 0.87,0.25 1.77,0.4 2.68,0.47 0.9,0.07 1.81,-0.01 2.71,-0.13 0.84,-0.11 1.81,-0.26 2.54,-0.72 1.68,-1.05 1.27,-3.28 0.15,-4.56 -0.61,-0.69 -1.41,-1.26 -2.19,-1.74 -0.55,-0.35 -1.12,-0.67 -1.73,-0.81 0.52,-0.83 0.89,-1.81 1.11,-2.74 0.23,-0.95 0.38,-1.96 0.33,-2.94 -0.04,-0.98 -0.37,-2.03 -1.37,-2.4 -0.97,-0.37 -1.97,0.2 -2.82,0.64 -0.52,0.27 -1.05,0.54 -1.57,0.8 -0.52,0.26 -1.11,0.5 -1.54,0.9 -0.48,-0.69 -1.25,-1.24 -1.89,-1.77 -0.66,-0.55 -1.32,-1.09 -2,-1.62 -1.1,-0.86 -2.38,-1.72 -3.81,-1.07 -1.41,0.64 -1.87,2.23 -1.95,3.65 -0.04,0.8 -0.05,1.61 -0.05,2.42 -0,0.73 -0.01,1.47 0.04,2.2 -1.08,0.24 -2.09,0.67 -3.06,1.25 -1.07,0.64 -2.19,1.45 -2.97,2.44 -0.81,1.04 -0.99,2.62 0.34,3.34 0.58,0.32 1.27,0.46 1.9,0.65l2.06 0.62c0.66,0.2 1.33,0.4 1.99,0.6zm-4.73 -3.42l0 0c-0.14,-0.04 -0.19,-0.06 -0.29,-0.11 -0.02,-0.01 -0.02,-0.01 -0.03,-0.02 0,-0 0,-0.02 0,-0.02 0.02,-0.09 0.05,-0.16 0.08,-0.22 0.25,-0.49 0.74,-0.89 1.16,-1.25 0.45,-0.39 0.93,-0.74 1.43,-1.06 0.87,-0.54 1.8,-0.98 2.74,-1.4 0.09,0.04 0.19,0.07 0.31,0.07 0.54,0.01 0.91,-0.41 0.96,-0.92 -0.02,0.2 0.1,-0.15 0.09,-0.27 -0,-0.11 -0.04,-0.23 -0.11,-0.32 -0,-0.01 -0,-0.03 -0,-0.04 -0.01,-0.18 -0.02,-0.36 -0.02,-0.54 -0.01,-0.39 -0.03,-0.78 -0.05,-1.17 -0.03,-0.72 -0.06,-1.44 -0.08,-2.17 -0.02,-0.92 -0.11,-2.46 0.94,-2.9 0.42,-0.18 0.85,0.01 1.21,0.23 0.56,0.33 1.07,0.76 1.59,1.15 0.59,0.43 1.19,0.86 1.79,1.28 0.58,0.41 1.22,0.91 1.9,1.14 0.11,0.04 0.22,0.01 0.31,-0.04 0.11,0.24 0.38,0.42 0.7,0.37 0.63,-0.1 1.26,-0.52 1.83,-0.81 0.59,-0.3 1.17,-0.59 1.76,-0.89 0.34,-0.17 0.81,-0.47 1.21,-0.4 0.32,0.06 0.42,0.36 0.48,0.64 0.19,0.9 0.01,1.98 -0.24,2.86 -0.29,1.03 -0.77,1.9 -1.3,2.81 -0.24,0.42 -0.02,0.96 0.37,1.14 0.02,0.06 0.04,0.12 0.08,0.17 0.48,0.61 1.22,0.88 1.86,1.28 0.63,0.39 1.25,0.82 1.77,1.34 0.4,0.41 0.79,0.92 0.74,1.52 -0.05,0.59 -0.43,0.75 -0.96,0.88 -1.35,0.34 -2.73,0.35 -4.11,0.18 -0.66,-0.08 -1.31,-0.24 -1.94,-0.43 -0.31,-0.1 -0.63,-0.21 -0.93,-0.34 -0.4,-0.17 -0.73,-0.36 -1.17,-0.24 -0.25,-0.12 -0.59,-0.08 -0.75,0.19 -0.37,0.64 -0.64,1.32 -0.94,1.99 -0.3,0.68 -0.64,1.34 -1,1.99 -0.31,0.56 -0.63,1.14 -1.05,1.63 -0.36,0.42 -0.83,0.81 -1.26,0.92 -0.37,0.09 -0.79,0.07 -1.09,-0.12 -0.11,-0.07 -0.17,-0.13 -0.24,-0.3 -0.14,-0.32 -0.15,-0.72 -0.18,-1.06 -0.08,-0.79 -0.16,-1.59 -0.25,-2.38 -0.07,-0.64 -0.06,-1.89 -0.82,-2.1 -0.1,-0.21 -0.29,-0.38 -0.49,-0.44 0.29,0.09 -0.26,-0.1 -0.32,-0.12 -0.19,-0.07 -0.39,-0.13 -0.59,-0.19 -0.34,-0.1 -0.69,-0.2 -1.03,-0.31 -0.69,-0.21 -1.38,-0.41 -2.07,-0.62 -0.67,-0.2 -1.35,-0.39 -2.02,-0.6z"/>
     <g>
      <path class="fil23" d="M119.63 168.27c0.03,-0.01 0.07,0 0.1,-0.01 0.43,-0.11 0.9,-0.49 1.26,-0.92 0.42,-0.49 0.74,-1.07 1.05,-1.63 0.36,-0.65 0.7,-1.31 1,-1.99 0.3,-0.67 0.57,-1.36 0.94,-1.99 0.16,-0.27 0.5,-0.31 0.75,-0.19 0.2,-0.06 0.38,-0.04 0.56,0 -0.31,-0.23 -0.64,-0.44 -0.99,-0.6 -0.79,-0.35 -1.82,-0.36 -2.43,0.25 -0.31,0.31 -0.47,0.73 -0.61,1.14 -0.51,1.45 -0.91,2.93 -1.22,4.44 -0.1,0.51 -0.2,1.02 -0.4,1.5z"/>
      <path class="fil23" d="M116.98 155.09c-0,0.03 -0.02,0.05 -0.02,0.08 0.19,-0.07 0.37,-0.13 0.56,-0.19 0.52,-0.18 1.07,-0.38 1.43,-0.79 0.81,-0.92 0.37,-2.35 -0.12,-3.47 -0.42,-0.97 -0.84,-1.94 -1.26,-2.91 -0.83,0.54 -0.77,1.93 -0.75,2.78 0.02,0.72 0.05,1.45 0.08,2.17 0.02,0.39 0.03,0.78 0.05,1.17 0.01,0.18 0.01,0.36 0.02,0.54 0,0.01 0,0.03 0,0.04 0.06,0.09 0.1,0.21 0.11,0.32 0.01,0.13 -0.11,0.47 -0.09,0.27z"/>
      <path class="fil23" d="M114.71 161.23c0.34,0.1 0.69,0.2 1.03,0.31 0.2,0.06 0.39,0.12 0.59,0.19 0.06,0.02 0.61,0.21 0.32,0.12 0.21,0.06 0.4,0.24 0.49,0.44 0.13,0.03 0.22,0.1 0.31,0.18 0.05,-0.51 0.08,-1.02 0.09,-1.53 0,-0.33 -0.01,-0.68 -0.16,-0.97 -0.39,-0.7 -1.39,-0.7 -2.19,-0.61 -1.6,0.17 -3.21,0.27 -4.82,0.29 -0.03,0.06 -0.05,0.12 -0.07,0.2 0,0 -0,0.01 -0,0.02 0.01,0.01 0.02,0.01 0.03,0.02 0.1,0.05 0.15,0.07 0.29,0.11 0.67,0.21 1.35,0.4 2.02,0.6 0.69,0.21 1.38,0.41 2.07,0.62z"/>
      <path class="fil23" d="M125.26 151.8c-0.14,0.02 -0.27,-0.01 -0.39,-0.06 0.23,0.48 0.54,0.92 0.96,1.28 0.19,0.16 0.41,0.31 0.66,0.31 0.28,0 0.53,-0.18 0.74,-0.36 1.12,-0.94 2.1,-2.02 2.96,-3.2 -0.04,-0.02 -0.08,-0.04 -0.13,-0.05 -0.4,-0.07 -0.87,0.23 -1.21,0.4 -0.59,0.3 -1.18,0.59 -1.76,0.89 -0.57,0.29 -1.2,0.71 -1.83,0.81z"/>
      <path class="fil23" d="M129.46 157.33c-0.04,-0.05 -0.06,-0.11 -0.08,-0.17 -0.19,-0.09 -0.33,-0.26 -0.41,-0.45 -0.21,0.27 -0.41,0.55 -0.56,0.86 -0.39,0.81 -0.42,1.88 0.19,2.54 0.72,0.78 1.93,0.7 2.99,0.74 0.75,0.03 1.49,0.15 2.21,0.35 -0.07,-0.48 -0.38,-0.9 -0.71,-1.23 -0.52,-0.52 -1.14,-0.96 -1.77,-1.34 -0.64,-0.4 -1.39,-0.67 -1.86,-1.28z"/>
     </g>
     <path class="fil24" d="M121.38 150.79c-0.03,-0.08 -0.07,-0.17 -0.11,-0.25 -0.07,-0.14 -0.2,-0.25 -0.33,-0.33 -0.08,-0.05 -0.15,-0.1 -0.23,-0.16 0.05,0.04 0.1,0.08 0.15,0.12 -0.08,-0.07 -0.17,-0.13 -0.25,-0.19 -0.08,-0.06 -0.15,-0.12 -0.22,-0.19 -0.04,-0.03 -0.07,-0.07 -0.11,-0.11 -0.08,-0.08 -0.15,-0.14 -0.24,-0.21 0.05,0.04 0.09,0.07 0.14,0.11 -0.26,-0.21 -0.62,-0.61 -0.99,-0.39 -0.31,0.18 -0.28,0.62 -0.19,0.91 0.04,0.13 0.08,0.27 0.16,0.39 0.07,0.1 0.14,0.2 0.21,0.3 0.15,0.19 0.3,0.37 0.49,0.52 0.1,0.07 0.19,0.15 0.29,0.21 0.23,0.14 0.49,0.16 0.75,0.1 0.34,-0.08 0.58,-0.49 0.47,-0.83z"/>
     <path class="fil24" d="M122.59 152.24c-0.01,-0.13 -0.02,-0.24 -0.09,-0.35 -0.05,-0.08 -0.1,-0.17 -0.17,-0.24 -0.03,-0.03 -0.07,-0.06 -0.1,-0.09 -0.09,-0.08 -0.18,-0.16 -0.3,-0.18 -0.06,-0.02 -0.13,-0.02 -0.2,-0.03l-0.15 0.02c-0.07,0.02 -0.14,0.05 -0.19,0.1 -0.04,0.03 -0.08,0.06 -0.1,0.1 -0.05,0.05 -0.08,0.12 -0.1,0.19 -0,0.01 -0,0.01 -0.01,0.02 -0.01,0.05 -0.02,0.13 -0.02,0.17 0.01,0.05 0.01,0.11 0.02,0.16l0.06 0.14c0,0.01 0.01,0.02 0.01,0.03 0.02,0.04 0.04,0.09 0.06,0.13 0.02,0.05 0.07,0.1 0.11,0.14 0.01,0.01 0.02,0.02 0.02,0.03 0.01,0.02 0.03,0.03 0.04,0.05 0.02,0.02 0.04,0.05 0.07,0.06 0.02,0.02 0.05,0.04 0.07,0.05 0.01,0.01 0.02,0.01 0.03,0.01 0.02,0.01 0.04,0.02 0.06,0.03 0.09,0.05 0.19,0.08 0.29,0.08 0.1,-0 0.2,-0.03 0.29,-0.08 0.09,-0.05 0.15,-0.12 0.21,-0.21 0.05,-0.09 0.08,-0.19 0.08,-0.29l-0.01 -0.06z"/>
     <path class="fil24" d="M115.1 157.6c0.01,-0.11 -0.08,-0.2 -0.18,-0.24 -0.02,-0.01 -0.13,-0.02 -0.07,-0.01 0.05,0.01 -0.01,-0 -0.02,-0 0.05,0.03 0.1,0.06 0.15,0.09 -0.09,-0.09 -0.18,-0.12 -0.3,-0.14 -0.15,-0.02 -0.16,-0.03 -0.31,-0 -0.03,0.01 -0.07,0.01 -0.1,0.02 -0.12,0.03 -0.24,0.08 -0.36,0.12 -0.16,0.05 -0.33,0.13 -0.47,0.23 -0.11,0.08 -0.22,0.15 -0.33,0.21 -0.19,0.1 -0.3,0.36 -0.23,0.57 0.07,0.2 0.26,0.38 0.49,0.37 0.35,-0.02 0.73,-0.03 1.04,-0.22 0.15,-0.09 0.31,-0.18 0.43,-0.3 0.15,-0.15 0.28,-0.37 0.26,-0.59 0.01,-0.03 0.02,-0.06 0.02,-0.1z"/>
     <path class="fil24" d="M120.01 163.01c-0,-0.09 -0,-0.17 -0,-0.26 0,-0.14 -0.04,-0.28 -0.06,-0.42 0.01,0.05 0.01,0.11 0.02,0.16 -0.01,-0.07 -0.01,-0.15 -0.03,-0.22 -0.01,-0.07 -0.05,-0.13 -0.08,-0.2 -0.02,-0.04 -0.04,-0.09 -0.06,-0.13 0.01,0.03 0.02,0.06 0.04,0.08 -0.06,-0.15 -0.14,-0.26 -0.31,-0.31 -0.15,-0.04 -0.32,0 -0.43,0.11 -0.04,0.04 -0.08,0.08 -0.11,0.12 -0.1,0.11 -0.15,0.21 -0.21,0.34 -0.02,0.06 -0.05,0.13 -0.07,0.19 -0.04,0.11 -0.04,0.22 -0.05,0.33 -0.01,0.15 -0.03,0.31 -0.01,0.46 0.01,0.09 0.03,0.17 0.05,0.26 0.06,0.2 0.16,0.33 0.34,0.45 0.11,0.07 0.25,0.09 0.37,0.07 0.13,-0.02 0.24,-0.07 0.34,-0.16 0.14,-0.12 0.19,-0.28 0.23,-0.45 0.02,-0.09 0.04,-0.19 0.03,-0.28 -0,-0.05 -0,-0.1 -0.01,-0.15z"/>
     <g>
      <path class="fil24" d="M127.52 160.59c0.02,0 0.05,0.01 0.07,0.01 0.01,-0 0.02,-0 0.03,-0 -0.03,0 -0.07,-0 -0.1,-0z"/>
      <path class="fil24" d="M128.68 160.86c-0.11,-0.11 -0.24,-0.16 -0.38,-0.17 0,0 -0,0 -0,0 -0.06,-0.01 -0.12,-0.03 -0.18,-0.05 -0.13,-0.04 -0.26,-0.02 -0.39,-0.03 0.03,0 0.06,0.01 0.09,0.01 -0.13,-0.02 -0.24,-0.03 -0.37,0 0.04,-0.01 0.09,-0.01 0.13,-0.02 -0.21,-0.04 -0.42,0.02 -0.56,0.2 -0.06,0.08 -0.1,0.17 -0.11,0.27 -0.01,0.05 -0.01,0.1 0,0.15 0,0.08 0.03,0.15 0.07,0.21 0.08,0.18 0.22,0.34 0.39,0.44 0.24,0.13 0.51,0.22 0.78,0.14 0.1,-0.03 0.19,-0.07 0.28,-0.11 0.09,-0.04 0.17,-0.1 0.24,-0.16 0.11,-0.12 0.19,-0.27 0.19,-0.45 0,-0.16 -0.07,-0.32 -0.18,-0.42z"/>
      <path class="fil24" d="M127.62 160.6c-0.01,-0 -0.01,0 -0.02,0 0.03,0 0.06,0.01 0.08,0.01 -0.02,-0 -0.04,-0.01 -0.07,-0.01z"/>
      <path class="fil24" d="M127.59 160.6c-0,0 -0.01,0 -0.01,0 0.01,0 0.01,-0 0.02,0 -0,-0 -0,-0 -0.01,-0z"/>
     </g>
     <path class="fil24" d="M129.94 152.9c0,-0.13 -0.04,-0.27 -0.14,-0.36 -0,-0 -0.01,-0.01 -0.01,-0.01 -0.09,-0.08 -0.09,-0.08 -0.18,-0.11 -0.02,-0.02 -0.05,-0.03 -0.07,-0.03 -0.05,-0.01 -0.1,-0.01 -0.15,-0.02 -0.03,-0 -0.06,-0 -0.09,-0 -0.05,0 -0.13,0.01 -0.18,0.02 -0.01,0 -0.01,0 -0.02,0.01 -0.07,0.03 -0.13,0.05 -0.19,0.08 -0.01,0 -0.02,0.01 -0.03,0.01 -0.05,0.03 -0.1,0.08 -0.14,0.11 -0.01,0.01 -0.03,0.03 -0.04,0.04 -0.06,0.06 -0.12,0.14 -0.17,0.21 -0.01,0.01 -0.02,0.03 -0.03,0.05 -0.02,0.03 -0.03,0.06 -0.04,0.09 -0.02,0.03 -0.03,0.06 -0.04,0.09 -0,0.01 -0,0.02 -0.01,0.03 -0.01,0.05 -0.02,0.09 -0.02,0.14 -0.01,0.03 -0.01,0.07 -0.01,0.1 0.01,0.06 0.02,0.12 0.02,0.18 0,0.01 0,0.02 0,0.02 0.01,0.03 0.02,0.07 0.03,0.1 0.02,0.05 0.04,0.1 0.06,0.15l0.1 0.13 0.13 0.1c0.07,0.05 0.15,0.07 0.23,0.07 0.06,0.01 0.11,0.01 0.17,0 0.06,-0 0.11,-0.01 0.16,-0.04 0.05,-0.01 0.1,-0.04 0.14,-0.08 0.07,-0.04 0.12,-0.1 0.16,-0.17 0.02,-0.03 0.04,-0.06 0.06,-0.08 -0.04,0.04 -0.07,0.09 -0.11,0.14 0.05,-0.06 0.1,-0.11 0.14,-0.18 0.01,-0.02 0.02,-0.04 0.03,-0.06 0.03,-0.06 0.05,-0.11 0.07,-0.17 0,-0.01 0.01,-0.02 0.01,-0.03 0.04,-0.07 0.07,-0.14 0.1,-0.22 -0.02,0.05 -0.04,0.1 -0.07,0.15 0.03,-0.07 0.07,-0.14 0.09,-0.21 0.01,-0.02 0.01,-0.04 0.02,-0.06 -0.02,0.05 -0.04,0.09 -0.06,0.14 0.05,-0.11 0.09,-0.19 0.09,-0.32z"/>
    </g>
   </g>
  </g>
 </g>
</svg>
