<?xml version="1.0" encoding="UTF-8"?>
<!DOCTYPE svg PUBLIC "-//W3C//DTD SVG 1.1//EN" "http://www.w3.org/Graphics/SVG/1.1/DTD/svg11.dtd">
<!-- Creator: CorelDRAW 2021 (64-Bit) -->
<svg xmlns="http://www.w3.org/2000/svg" xml:space="preserve" width="1.1811in" height="1.1811in" version="1.1" style="shape-rendering:geometricPrecision; text-rendering:geometricPrecision; image-rendering:optimizeQuality; fill-rule:evenodd; clip-rule:evenodd"
viewBox="0 0 559.28 559.28"
 xmlns:xlink="http://www.w3.org/1999/xlink"
 xmlns:xodm="http://www.corel.com/coreldraw/odm/2003">
 <defs>
  <style type="text/css">
   <![CDATA[
    .fil0 {fill:none}
    .fil1 {fill:#75CDD8;fill-rule:nonzero}
    .fil15 {fill:#428580;fill-rule:nonzero}
    .fil10 {fill:#4B9793;fill-rule:nonzero}
    .fil11 {fill:#5B3115;fill-rule:nonzero}
    .fil6 {fill:#77B8BF;fill-rule:nonzero}
    .fil3 {fill:#7E4F1A;fill-rule:nonzero}
    .fil18 {fill:#954D26;fill-rule:nonzero}
    .fil16 {fill:#9ACAD6;fill-rule:nonzero}
    .fil17 {fill:#B15B2D;fill-rule:nonzero}
    .fil7 {fill:#CF6734;fill-rule:nonzero}
    .fil19 {fill:#D47C4B;fill-rule:nonzero}
    .fil13 {fill:#D6832D;fill-rule:nonzero}
    .fil4 {fill:#DF9E2F;fill-rule:nonzero}
    .fil8 {fill:#E2A32F;fill-rule:nonzero}
    .fil2 {fill:#EDC32F;fill-rule:nonzero}
    .fil12 {fill:#F2D8C4;fill-rule:nonzero}
    .fil5 {fill:#FBE44F;fill-rule:nonzero}
    .fil14 {fill:#FBE866;fill-rule:nonzero}
    .fil9 {fill:#FBF6EB;fill-rule:nonzero}
   ]]>
  </style>
 </defs>
 <g id="Layer_x0020_1">
  <metadata id="CorelCorpID_0Corel-Layer"/>
  <g id="_2939255145584">
   <rect class="fil0" width="559.28" height="559.28"/>
   <g>
    <path class="fil1" d="M483.45 279.64c0,21.13 -18.86,39.02 -25.05,58.08 -6.42,19.76 -1.89,45.28 -13.86,61.72 -12.09,16.61 -37.84,20.14 -54.45,32.23 -16.45,11.97 -27.69,35.44 -47.45,41.85 -19.07,6.19 -41.87,-5.98 -63,-5.98 -21.13,0 -43.93,12.17 -63,5.98 -19.76,-6.42 -31,-29.88 -47.45,-41.85 -16.61,-12.09 -42.36,-15.62 -54.45,-32.23 -11.97,-16.45 -7.45,-41.96 -13.86,-61.72 -6.19,-19.06 -25.05,-36.95 -25.05,-58.08 0,-21.13 18.86,-39.02 25.05,-58.08 6.42,-19.76 1.89,-45.28 13.86,-61.72 12.09,-16.61 37.84,-20.14 54.45,-32.23 16.45,-11.97 27.69,-35.43 47.45,-41.85 19.06,-6.19 41.87,5.98 63,5.98 21.13,0 43.93,-12.17 63,-5.98 19.76,6.41 31.01,29.88 47.45,41.85 16.61,12.09 42.36,15.61 54.45,32.22 11.97,16.45 7.44,41.96 13.86,61.72 6.19,19.06 25.05,36.96 25.05,58.08z"/>
    <g>
     <g>
      <path class="fil2" d="M406.94 279.34c0.39,0.12 0.77,0.23 1.15,0.37 0.12,0.04 1.19,0.41 0.63,0.24 0.41,0.12 0.78,0.47 0.97,0.87 1.51,0.41 1.49,2.86 1.62,4.12 0.16,1.56 0.32,3.12 0.49,4.68 0.07,0.68 0.09,1.46 0.36,2.09 0.15,0.34 0.25,0.45 0.48,0.59 0.58,0.38 1.4,0.43 2.14,0.24 0.85,-0.21 1.77,-0.97 2.48,-1.8 0.82,-0.97 1.44,-2.11 2.05,-3.21 0.71,-1.28 1.37,-2.58 1.96,-3.91 0.59,-1.32 1.11,-2.67 1.84,-3.92 0.32,-0.54 0.98,-0.62 1.47,-0.38 0.86,-0.24 1.51,0.14 2.3,0.47 0.6,0.25 1.21,0.46 1.83,0.66 1.24,0.39 2.51,0.69 3.8,0.85 2.71,0.33 5.42,0.3 8.08,-0.36 1.03,-0.26 1.79,-0.57 1.88,-1.73 0.1,-1.18 -0.66,-2.2 -1.45,-2.99 -1.02,-1.03 -2.24,-1.88 -3.47,-2.64 -1.27,-0.78 -2.72,-1.32 -3.66,-2.51 -0.07,-0.09 -0.11,-0.22 -0.15,-0.33 -0.78,-0.36 -1.2,-1.42 -0.73,-2.24 1.04,-1.8 2,-3.51 2.56,-5.53 0.48,-1.73 0.84,-3.84 0.46,-5.62 -0.12,-0.56 -0.31,-1.16 -0.94,-1.26 -0.79,-0.13 -1.71,0.44 -2.38,0.78 -1.16,0.58 -2.31,1.17 -3.47,1.75 -1.11,0.56 -2.35,1.39 -3.6,1.59 -0.62,0.1 -1.15,-0.25 -1.37,-0.73 -0.19,0.1 -0.4,0.14 -0.62,0.07 -1.33,-0.44 -2.6,-1.43 -3.74,-2.23 -1.18,-0.82 -2.35,-1.66 -3.51,-2.51 -1.03,-0.76 -2.02,-1.6 -3.13,-2.25 -0.71,-0.42 -1.57,-0.8 -2.39,-0.45 -2.05,0.87 -1.88,3.89 -1.84,5.7 0.03,1.42 0.09,2.84 0.15,4.26 0.03,0.77 0.06,1.54 0.09,2.31 0.01,0.35 0.03,0.71 0.04,1.06 0,0.01 0,0.05 0,0.07 0.13,0.18 0.2,0.42 0.21,0.63 0.01,0.25 -0.22,0.93 -0.18,0.54 -0.1,0.99 -0.84,1.83 -1.89,1.8 -0.23,-0.01 -0.42,-0.07 -0.61,-0.14 -1.85,0.81 -3.69,1.68 -5.39,2.74 -0.99,0.62 -1.93,1.31 -2.81,2.08 -0.83,0.72 -1.79,1.5 -2.29,2.46 -0.06,0.12 -0.11,0.26 -0.16,0.44 0,0 -0,0.03 -0,0.04 0.02,0.01 0.03,0.02 0.07,0.03 0.2,0.1 0.3,0.13 0.58,0.22 1.32,0.42 2.65,0.79 3.98,1.19 1.35,0.4 2.71,0.81 4.06,1.21 0.68,0.2 1.35,0.4 2.03,0.6z"/>
     </g>
     <path class="fil3" d="M406.16 283.06c0.37,0.11 0.77,0.23 1.18,0.29 0.03,0.77 0.17,1.56 0.23,2.12l0.52 4.68c0.17,1.53 0.38,3.01 1.38,4.26 0.67,0.84 1.64,1.44 2.68,1.73 2.36,0.66 4.75,-0.15 6.53,-1.75 1.86,-1.67 3.01,-4.1 4.03,-6.34 0.75,-1.64 1.5,-3.37 1.98,-5.15 0.25,0.13 0.53,0.25 0.84,0.38 0.8,0.33 1.62,0.61 2.45,0.84 1.71,0.48 3.48,0.79 5.26,0.92 1.77,0.13 3.56,-0.02 5.32,-0.26 1.65,-0.22 3.56,-0.52 5,-1.41 3.31,-2.06 2.5,-6.44 0.29,-8.96 -1.2,-1.36 -2.78,-2.47 -4.31,-3.43 -1.09,-0.68 -2.2,-1.32 -3.4,-1.6 1.03,-1.63 1.74,-3.56 2.18,-5.39 0.45,-1.87 0.74,-3.85 0.66,-5.77 -0.09,-1.92 -0.73,-3.98 -2.7,-4.72 -1.91,-0.72 -3.88,0.4 -5.54,1.25 -1.03,0.53 -2.06,1.05 -3.08,1.58 -1.01,0.52 -2.19,0.99 -3.03,1.78 -0.94,-1.35 -2.46,-2.44 -3.71,-3.49 -1.29,-1.08 -2.6,-2.15 -3.93,-3.19 -2.16,-1.69 -4.68,-3.39 -7.49,-2.11 -2.76,1.26 -3.68,4.39 -3.83,7.17 -0.09,1.58 -0.09,3.17 -0.1,4.75 -0,1.43 -0.01,2.88 0.08,4.32 -2.12,0.46 -4.11,1.31 -6.01,2.45 -2.11,1.27 -4.31,2.84 -5.83,4.8 -1.58,2.04 -1.94,5.14 0.67,6.56 1.15,0.62 2.5,0.9 3.74,1.28l4.05 1.22c1.3,0.4 2.61,0.79 3.91,1.18zm-9.29 -6.72l0 0c-0.28,-0.09 -0.37,-0.12 -0.58,-0.22 -0.03,-0.01 -0.04,-0.02 -0.07,-0.03 0,-0.01 0,-0.03 0,-0.04 0.04,-0.17 0.1,-0.32 0.16,-0.44 0.5,-0.97 1.46,-1.74 2.29,-2.46 0.88,-0.77 1.82,-1.46 2.81,-2.08 1.7,-1.07 3.54,-1.94 5.39,-2.74 0.18,0.07 0.38,0.13 0.61,0.14 1.06,0.03 1.79,-0.81 1.89,-1.8 -0.04,0.39 0.19,-0.29 0.18,-0.54 -0.01,-0.21 -0.08,-0.45 -0.21,-0.63 0,-0.02 -0,-0.06 -0,-0.07 -0.01,-0.36 -0.03,-0.71 -0.04,-1.06 -0.03,-0.77 -0.06,-1.54 -0.09,-2.31 -0.06,-1.42 -0.12,-2.84 -0.15,-4.26 -0.04,-1.8 -0.21,-4.82 1.84,-5.7 0.82,-0.34 1.68,0.03 2.39,0.45 1.1,0.65 2.1,1.5 3.13,2.25 1.16,0.85 2.33,1.68 3.51,2.51 1.14,0.8 2.4,1.8 3.74,2.23 0.22,0.07 0.43,0.02 0.62,-0.07 0.22,0.48 0.75,0.83 1.37,0.73 1.25,-0.2 2.49,-1.03 3.6,-1.59 1.16,-0.58 2.31,-1.17 3.47,-1.75 0.67,-0.34 1.59,-0.92 2.38,-0.78 0.63,0.11 0.82,0.71 0.94,1.26 0.38,1.78 0.01,3.89 -0.46,5.62 -0.56,2.02 -1.52,3.73 -2.56,5.53 -0.47,0.82 -0.05,1.88 0.73,2.24 0.04,0.12 0.08,0.24 0.15,0.33 0.94,1.19 2.39,1.73 3.66,2.51 1.23,0.76 2.45,1.61 3.47,2.64 0.79,0.8 1.55,1.81 1.45,2.99 -0.09,1.16 -0.85,1.47 -1.88,1.73 -2.66,0.66 -5.37,0.7 -8.08,0.36 -1.29,-0.16 -2.57,-0.46 -3.8,-0.85 -0.62,-0.2 -1.23,-0.41 -1.83,-0.66 -0.79,-0.33 -1.44,-0.71 -2.3,-0.47 -0.49,-0.23 -1.15,-0.15 -1.47,0.38 -0.73,1.25 -1.25,2.6 -1.84,3.92 -0.59,1.33 -1.26,2.64 -1.96,3.91 -0.61,1.1 -1.24,2.24 -2.05,3.21 -0.7,0.83 -1.63,1.59 -2.48,1.8 -0.73,0.18 -1.56,0.14 -2.14,-0.24 -0.22,-0.15 -0.33,-0.25 -0.48,-0.59 -0.28,-0.63 -0.29,-1.41 -0.36,-2.09 -0.16,-1.56 -0.32,-3.12 -0.49,-4.68 -0.13,-1.26 -0.11,-3.71 -1.62,-4.12 -0.19,-0.41 -0.56,-0.75 -0.97,-0.87 0.57,0.17 -0.51,-0.2 -0.63,-0.24 -0.38,-0.14 -0.76,-0.26 -1.15,-0.37 -0.68,-0.2 -1.35,-0.4 -2.03,-0.6 -1.35,-0.4 -2.71,-0.81 -4.06,-1.21 -1.33,-0.4 -2.66,-0.77 -3.98,-1.19z"/>
     <g>
      <path class="fil4" d="M414.58 292.56c0.06,-0.01 0.13,0 0.19,-0.02 0.85,-0.21 1.77,-0.97 2.48,-1.8 0.82,-0.97 1.44,-2.11 2.05,-3.21 0.71,-1.28 1.37,-2.58 1.96,-3.91 0.59,-1.32 1.11,-2.67 1.84,-3.92 0.32,-0.54 0.98,-0.62 1.47,-0.38 0.4,-0.11 0.75,-0.08 1.09,0.01 -0.62,-0.45 -1.25,-0.87 -1.95,-1.17 -1.55,-0.68 -3.57,-0.71 -4.77,0.5 -0.6,0.61 -0.92,1.44 -1.2,2.25 -0.99,2.85 -1.8,5.76 -2.4,8.72 -0.2,0.99 -0.39,2.01 -0.78,2.94z"/>
      <path class="fil4" d="M409.37 266.66c-0.01,0.06 -0.03,0.1 -0.04,0.16 0.36,-0.13 0.73,-0.26 1.09,-0.38 1.02,-0.36 2.1,-0.75 2.82,-1.56 1.6,-1.81 0.72,-4.61 -0.23,-6.83 -0.83,-1.91 -1.65,-3.82 -2.47,-5.73 -1.64,1.07 -1.51,3.79 -1.48,5.46 0.03,1.42 0.09,2.84 0.15,4.26 0.03,0.77 0.06,1.54 0.09,2.31 0.01,0.35 0.03,0.71 0.04,1.06 0,0.01 0,0.05 0,0.07 0.13,0.18 0.2,0.42 0.21,0.63 0.01,0.25 -0.22,0.93 -0.18,0.54z"/>
      <path class="fil4" d="M404.91 278.73c0.68,0.2 1.35,0.4 2.03,0.6 0.39,0.12 0.77,0.23 1.15,0.37 0.12,0.04 1.19,0.41 0.63,0.24 0.41,0.12 0.78,0.47 0.97,0.87 0.25,0.07 0.44,0.2 0.61,0.36 0.1,-1 0.16,-2 0.18,-3.01 0.01,-0.65 -0.01,-1.33 -0.32,-1.9 -0.77,-1.39 -2.73,-1.37 -4.3,-1.2 -3.15,0.34 -6.31,0.53 -9.48,0.58 -0.05,0.11 -0.1,0.23 -0.14,0.39 0,0 -0,0.03 -0,0.04 0.02,0.01 0.03,0.02 0.07,0.03 0.2,0.1 0.3,0.13 0.58,0.22 1.32,0.42 2.65,0.79 3.98,1.19 1.35,0.4 2.71,0.81 4.06,1.21z"/>
      <path class="fil4" d="M425.64 260.2c-0.28,0.05 -0.54,-0.01 -0.76,-0.12 0.46,0.95 1.07,1.81 1.89,2.5 0.37,0.32 0.81,0.61 1.3,0.61 0.55,0 1.03,-0.36 1.46,-0.72 2.2,-1.84 4.13,-3.97 5.81,-6.29 -0.08,-0.04 -0.15,-0.09 -0.25,-0.11 -0.79,-0.13 -1.71,0.44 -2.38,0.78 -1.16,0.58 -2.31,1.17 -3.47,1.75 -1.11,0.56 -2.35,1.39 -3.6,1.59z"/>
      <path class="fil4" d="M433.9 271.07c-0.07,-0.09 -0.11,-0.22 -0.15,-0.33 -0.37,-0.17 -0.65,-0.51 -0.8,-0.89 -0.42,0.53 -0.81,1.07 -1.1,1.68 -0.77,1.6 -0.83,3.68 0.37,4.99 1.41,1.52 3.79,1.38 5.87,1.45 1.47,0.05 2.93,0.3 4.35,0.69 -0.14,-0.94 -0.74,-1.76 -1.4,-2.43 -1.02,-1.03 -2.24,-1.88 -3.47,-2.64 -1.27,-0.78 -2.72,-1.32 -3.66,-2.51z"/>
     </g>
     <path class="fil5" d="M418.01 258.2c-0.06,-0.17 -0.14,-0.33 -0.21,-0.49 -0.13,-0.28 -0.39,-0.48 -0.65,-0.65 -0.15,-0.1 -0.3,-0.2 -0.44,-0.31 0.1,0.08 0.2,0.16 0.3,0.23 -0.16,-0.13 -0.33,-0.25 -0.5,-0.37 -0.15,-0.12 -0.29,-0.24 -0.43,-0.37 -0.07,-0.07 -0.14,-0.14 -0.21,-0.21 -0.15,-0.16 -0.29,-0.28 -0.48,-0.42 0.09,0.07 0.18,0.14 0.27,0.21 -0.51,-0.4 -1.22,-1.19 -1.94,-0.76 -0.6,0.36 -0.55,1.21 -0.38,1.8 0.08,0.26 0.17,0.53 0.31,0.76 0.13,0.2 0.27,0.39 0.42,0.58 0.29,0.38 0.59,0.72 0.97,1.01 0.19,0.14 0.37,0.29 0.57,0.41 0.44,0.28 0.97,0.32 1.47,0.19 0.67,-0.16 1.15,-0.96 0.92,-1.62z"/>
     <path class="fil5" d="M420.39 261.07c-0.03,-0.26 -0.05,-0.46 -0.18,-0.7 -0.09,-0.16 -0.2,-0.34 -0.33,-0.46 -0.07,-0.07 -0.13,-0.12 -0.2,-0.19 -0.17,-0.16 -0.35,-0.31 -0.59,-0.36 -0.12,-0.03 -0.26,-0.04 -0.38,-0.05l-0.29 0.04c-0.14,0.03 -0.27,0.1 -0.37,0.2 -0.08,0.05 -0.15,0.12 -0.2,0.2 -0.1,0.11 -0.16,0.23 -0.2,0.37 -0,0.01 -0.01,0.03 -0.01,0.04 -0.02,0.09 -0.05,0.24 -0.04,0.34 0.01,0.1 0.03,0.21 0.04,0.32l0.12 0.28c0.01,0.02 0.02,0.04 0.03,0.07 0.04,0.09 0.07,0.17 0.12,0.25 0.05,0.09 0.14,0.2 0.21,0.28 0.01,0.02 0.03,0.04 0.05,0.05 0.03,0.03 0.06,0.07 0.08,0.1 0.04,0.05 0.09,0.09 0.15,0.12 0.04,0.04 0.09,0.07 0.14,0.11 0.02,0.01 0.04,0.02 0.06,0.03 0.04,0.02 0.08,0.04 0.12,0.06 0.18,0.1 0.37,0.15 0.57,0.15 0.2,0 0.39,-0.05 0.57,-0.15 0.17,-0.1 0.3,-0.23 0.4,-0.4 0.1,-0.18 0.15,-0.37 0.15,-0.57l-0.01 -0.12z"/>
     <path class="fil5" d="M405.68 271.6c0.01,-0.22 -0.16,-0.4 -0.35,-0.46 -0.05,-0.01 -0.25,-0.04 -0.14,-0.02 0.09,0.01 -0.02,-0 -0.03,-0.01 0.1,0.06 0.2,0.11 0.29,0.17 -0.18,-0.17 -0.36,-0.25 -0.6,-0.28 -0.29,-0.04 -0.32,-0.05 -0.61,-0 -0.07,0.01 -0.14,0.02 -0.2,0.04 -0.24,0.05 -0.48,0.17 -0.71,0.24 -0.32,0.1 -0.65,0.26 -0.92,0.45 -0.21,0.15 -0.43,0.29 -0.66,0.41 -0.37,0.2 -0.59,0.71 -0.45,1.12 0.13,0.4 0.51,0.76 0.95,0.73 0.69,-0.04 1.43,-0.07 2.04,-0.44 0.29,-0.18 0.61,-0.36 0.84,-0.59 0.29,-0.3 0.54,-0.73 0.51,-1.17 0.01,-0.06 0.03,-0.12 0.04,-0.19z"/>
     <path class="fil5" d="M415.33 282.23c-0.01,-0.17 -0,-0.34 -0,-0.51 0,-0.28 -0.07,-0.56 -0.11,-0.83 0.01,0.1 0.03,0.21 0.04,0.32 -0.02,-0.14 -0.03,-0.29 -0.06,-0.42 -0.03,-0.14 -0.1,-0.26 -0.16,-0.39 -0.04,-0.09 -0.08,-0.17 -0.12,-0.26 0.02,0.05 0.04,0.11 0.07,0.16 -0.12,-0.29 -0.28,-0.51 -0.6,-0.6 -0.29,-0.08 -0.62,0 -0.84,0.22 -0.08,0.08 -0.15,0.16 -0.23,0.23 -0.2,0.21 -0.3,0.41 -0.41,0.68 -0.05,0.12 -0.1,0.25 -0.14,0.37 -0.07,0.21 -0.08,0.44 -0.1,0.66 -0.03,0.3 -0.06,0.6 -0.02,0.89 0.02,0.18 0.06,0.34 0.11,0.5 0.12,0.4 0.32,0.65 0.67,0.88 0.21,0.14 0.49,0.17 0.74,0.14 0.26,-0.04 0.46,-0.14 0.66,-0.32 0.27,-0.24 0.37,-0.56 0.44,-0.89 0.04,-0.18 0.07,-0.37 0.07,-0.55 -0,-0.1 -0.01,-0.19 -0.01,-0.29z"/>
     <g>
      <path class="fil5" d="M430.09 277.47c0.04,0.01 0.09,0.01 0.13,0.02 0.02,-0 0.04,-0 0.07,-0.01 -0.07,0 -0.13,-0 -0.2,-0.01z"/>
      <path class="fil5" d="M432.36 278c-0.21,-0.21 -0.47,-0.31 -0.76,-0.34 0,0 0,0 -0,0 -0.12,-0.02 -0.23,-0.05 -0.35,-0.1 -0.25,-0.09 -0.51,-0.03 -0.76,-0.06 0.06,0.01 0.12,0.02 0.17,0.02 -0.25,-0.04 -0.48,-0.07 -0.73,0 0.08,-0.01 0.17,-0.02 0.26,-0.04 -0.42,-0.07 -0.84,0.05 -1.1,0.4 -0.12,0.16 -0.19,0.33 -0.22,0.53 -0.03,0.1 -0.03,0.2 0,0.3 0.01,0.15 0.05,0.29 0.13,0.41 0.16,0.35 0.43,0.67 0.76,0.86 0.47,0.26 1,0.43 1.54,0.28 0.19,-0.05 0.38,-0.14 0.55,-0.22 0.17,-0.08 0.34,-0.19 0.47,-0.32 0.23,-0.24 0.38,-0.54 0.38,-0.87 0,-0.31 -0.13,-0.62 -0.35,-0.84z"/>
      <path class="fil5" d="M430.27 277.49c-0.01,-0 -0.02,0 -0.04,0 0.06,0.01 0.11,0.01 0.17,0.02 -0.04,-0.01 -0.09,-0.01 -0.13,-0.02z"/>
      <path class="fil5" d="M430.22 277.48c-0.01,0 -0.01,0 -0.02,0 0.01,0 0.02,-0 0.03,-0 -0,0 -0.01,0 -0.01,-0z"/>
     </g>
     <path class="fil5" d="M434.83 262.36c0,-0.26 -0.08,-0.53 -0.28,-0.72 -0.01,-0.01 -0.02,-0.01 -0.03,-0.02 -0.19,-0.16 -0.17,-0.15 -0.35,-0.23 -0.04,-0.03 -0.09,-0.05 -0.14,-0.06 -0.1,-0.01 -0.19,-0.02 -0.29,-0.04 -0.06,-0.01 -0.12,-0.01 -0.18,-0 -0.1,0.01 -0.26,0.02 -0.36,0.05 -0.01,0 -0.03,0.01 -0.04,0.01 -0.13,0.05 -0.25,0.1 -0.38,0.16 -0.02,0.01 -0.04,0.02 -0.06,0.03 -0.09,0.05 -0.2,0.15 -0.28,0.22 -0.03,0.02 -0.06,0.05 -0.09,0.08 -0.12,0.12 -0.23,0.28 -0.34,0.42 -0.02,0.03 -0.04,0.06 -0.06,0.09 -0.03,0.05 -0.06,0.11 -0.07,0.17 -0.03,0.06 -0.06,0.12 -0.07,0.19 -0.01,0.02 -0.01,0.04 -0.01,0.05 -0.02,0.09 -0.03,0.18 -0.04,0.28 -0.02,0.07 -0.03,0.13 -0.02,0.2 0.02,0.12 0.03,0.24 0.05,0.36 0,0.01 0.01,0.03 0.01,0.05 0.01,0.07 0.04,0.13 0.06,0.2 0.04,0.1 0.08,0.19 0.12,0.29l0.19 0.25 0.25 0.19c0.14,0.09 0.29,0.14 0.46,0.15 0.11,0.03 0.22,0.03 0.33,0 0.11,0 0.21,-0.03 0.31,-0.08 0.1,-0.03 0.19,-0.08 0.27,-0.16 0.13,-0.09 0.24,-0.2 0.32,-0.34 0.03,-0.06 0.07,-0.12 0.11,-0.17 -0.07,0.09 -0.14,0.18 -0.21,0.27 0.09,-0.12 0.2,-0.22 0.27,-0.35 0.02,-0.04 0.04,-0.08 0.06,-0.12 0.06,-0.11 0.09,-0.22 0.13,-0.33 0.01,-0.02 0.01,-0.04 0.03,-0.05 0.08,-0.14 0.13,-0.29 0.19,-0.43 -0.04,0.1 -0.09,0.2 -0.13,0.3 0.06,-0.14 0.13,-0.26 0.18,-0.41 0.01,-0.04 0.02,-0.08 0.04,-0.12 -0.04,0.09 -0.07,0.18 -0.11,0.27 0.1,-0.22 0.17,-0.37 0.18,-0.62z"/>
    </g>
    <g>
     <g>
      <path class="fil2" d="M382.22 425c0.43,0.2 0.86,0.41 1.28,0.64 0.13,0.07 1.32,0.68 0.69,0.38 0.46,0.21 0.83,0.67 0.98,1.19 1.69,0.74 1.25,3.58 1.18,5.08 -0.08,1.85 -0.16,3.69 -0.24,5.54 -0.03,0.8 -0.15,1.72 0.07,2.49 0.12,0.42 0.22,0.56 0.45,0.77 0.61,0.54 1.56,0.74 2.45,0.65 1.03,-0.1 2.23,-0.82 3.2,-1.67 1.12,-0.98 2.04,-2.21 2.95,-3.39 1.04,-1.37 2.04,-2.77 2.96,-4.22 0.91,-1.44 1.75,-2.92 2.82,-4.25 0.46,-0.57 1.24,-0.55 1.78,-0.19 1.05,-0.14 1.74,0.43 2.6,0.94 0.66,0.39 1.33,0.75 2.02,1.08 1.38,0.67 2.81,1.24 4.29,1.65 3.1,0.85 6.27,1.28 9.48,0.97 1.24,-0.12 2.18,-0.36 2.49,-1.69 0.32,-1.36 -0.39,-2.67 -1.17,-3.74 -1.02,-1.38 -2.29,-2.58 -3.59,-3.67 -1.34,-1.13 -2.95,-2.01 -3.83,-3.55 -0.07,-0.12 -0.09,-0.27 -0.12,-0.42 -0.85,-0.55 -1.16,-1.86 -0.47,-2.74 1.52,-1.93 2.93,-3.75 3.93,-6.01 0.85,-1.93 1.64,-4.33 1.51,-6.47 -0.04,-0.67 -0.17,-1.4 -0.88,-1.63 -0.9,-0.29 -2.07,0.22 -2.92,0.5 -1.45,0.48 -2.89,0.96 -4.34,1.44 -1.4,0.46 -2.99,1.22 -4.47,1.24 -0.74,0.01 -1.3,-0.49 -1.47,-1.09 -0.24,0.08 -0.49,0.1 -0.73,-0.02 -1.48,-0.74 -2.78,-2.12 -3.97,-3.25 -1.23,-1.16 -2.46,-2.33 -3.66,-3.52 -1.07,-1.06 -2.08,-2.21 -3.26,-3.16 -0.76,-0.61 -1.69,-1.2 -2.71,-0.93 -2.54,0.66 -2.86,4.22 -3.13,6.32 -0.21,1.66 -0.38,3.33 -0.56,4.99 -0.09,0.9 -0.19,1.8 -0.29,2.7 -0.04,0.42 -0.09,0.83 -0.13,1.25 -0,0.01 -0.01,0.06 -0.01,0.08 0.12,0.24 0.16,0.53 0.13,0.77 -0.03,0.29 -0.42,1.04 -0.3,0.59 -0.29,1.14 -1.29,1.98 -2.51,1.77 -0.27,-0.04 -0.48,-0.15 -0.68,-0.26 -2.29,0.62 -4.58,1.32 -6.75,2.27 -1.26,0.55 -2.47,1.2 -3.63,1.94 -1.09,0.7 -2.34,1.44 -3.09,2.48 -0.09,0.13 -0.18,0.29 -0.26,0.48 0,0 -0.01,0.03 -0.01,0.04 0.03,0.02 0.04,0.03 0.07,0.05 0.22,0.15 0.33,0.21 0.63,0.35 1.47,0.71 2.96,1.38 4.43,2.07 1.51,0.7 3.01,1.4 4.52,2.11 0.75,0.35 1.51,0.7 2.26,1.05z"/>
     </g>
     <path class="fil3" d="M380.67 429.21c0.41,0.2 0.86,0.4 1.32,0.54 -0.1,0.9 -0.07,1.85 -0.09,2.51l-0.2 5.54c-0.07,1.81 -0.07,3.57 0.87,5.2 0.64,1.1 1.67,1.96 2.82,2.47 2.64,1.17 5.56,0.64 7.92,-0.92 2.46,-1.63 4.21,-4.26 5.79,-6.69 1.16,-1.79 2.32,-3.67 3.19,-5.66 0.27,0.2 0.57,0.38 0.91,0.59 0.88,0.52 1.78,0.99 2.71,1.4 1.91,0.86 3.93,1.52 5.97,1.97 2.04,0.46 4.15,0.59 6.24,0.61 1.96,0.03 4.23,0.01 6.06,-0.79 4.21,-1.83 4.02,-7.08 1.87,-10.39 -1.16,-1.8 -2.82,-3.36 -4.44,-4.74 -1.15,-0.98 -2.34,-1.91 -3.69,-2.45 1.48,-1.72 2.64,-3.85 3.47,-5.91 0.85,-2.1 1.52,-4.35 1.76,-6.61 0.23,-2.26 -0.17,-4.77 -2.33,-5.97 -2.11,-1.17 -4.58,-0.2 -6.67,0.51 -1.29,0.44 -2.58,0.87 -3.86,1.31 -1.27,0.43 -2.72,0.78 -3.84,1.55 -0.86,-1.74 -2.45,-3.27 -3.72,-4.7 -1.32,-1.49 -2.66,-2.95 -4.03,-4.39 -2.23,-2.34 -4.88,-4.75 -8.37,-3.74 -3.44,0.99 -5.04,4.48 -5.69,7.7 -0.37,1.83 -0.65,3.68 -0.93,5.52 -0.25,1.66 -0.51,3.36 -0.65,5.04 -2.55,0.18 -5.02,0.82 -7.43,1.82 -2.67,1.11 -5.51,2.57 -7.62,4.59 -2.19,2.1 -3.15,5.66 -0.34,7.76 1.23,0.92 2.75,1.48 4.14,2.13l4.52 2.13c1.45,0.68 2.9,1.37 4.35,2.05zm-9.67 -9.43l0 0c-0.31,-0.15 -0.41,-0.21 -0.63,-0.35 -0.04,-0.02 -0.04,-0.03 -0.07,-0.05 0,-0.01 0.01,-0.04 0.01,-0.04 0.08,-0.19 0.17,-0.35 0.26,-0.48 0.75,-1.04 2,-1.78 3.09,-2.48 1.16,-0.74 2.37,-1.39 3.63,-1.94 2.17,-0.95 4.46,-1.65 6.75,-2.27 0.2,0.11 0.42,0.22 0.68,0.26 1.22,0.21 2.22,-0.63 2.51,-1.77 -0.12,0.45 0.27,-0.3 0.3,-0.59 0.03,-0.25 -0.02,-0.54 -0.13,-0.77 0,-0.02 0.01,-0.07 0.01,-0.08 0.04,-0.42 0.09,-0.83 0.13,-1.25 0.1,-0.9 0.19,-1.8 0.29,-2.7 0.17,-1.66 0.35,-3.33 0.56,-4.99 0.26,-2.1 0.59,-5.66 3.13,-6.32 1.01,-0.26 1.95,0.32 2.71,0.93 1.17,0.95 2.19,2.1 3.26,3.16 1.21,1.19 2.43,2.36 3.66,3.52 1.19,1.13 2.49,2.51 3.97,3.25 0.24,0.12 0.49,0.1 0.73,0.02 0.18,0.6 0.73,1.1 1.47,1.09 1.48,-0.02 3.07,-0.77 4.47,-1.24 1.44,-0.48 2.89,-0.96 4.34,-1.44 0.84,-0.28 2.02,-0.79 2.92,-0.5 0.71,0.23 0.83,0.96 0.88,1.63 0.14,2.14 -0.65,4.54 -1.51,6.47 -1,2.26 -2.41,4.08 -3.93,6.01 -0.69,0.87 -0.38,2.18 0.47,2.74 0.03,0.14 0.05,0.29 0.12,0.42 0.88,1.55 2.49,2.43 3.83,3.55 1.31,1.1 2.58,2.3 3.59,3.67 0.78,1.06 1.49,2.37 1.17,3.74 -0.31,1.33 -1.24,1.57 -2.49,1.69 -3.21,0.31 -6.38,-0.11 -9.48,-0.97 -1.48,-0.41 -2.91,-0.98 -4.29,-1.65 -0.69,-0.33 -1.36,-0.69 -2.02,-1.08 -0.87,-0.51 -1.56,-1.08 -2.6,-0.94 -0.53,-0.36 -1.32,-0.38 -1.78,0.19 -1.07,1.33 -1.91,2.81 -2.82,4.25 -0.92,1.45 -1.92,2.86 -2.96,4.22 -0.9,1.18 -1.83,2.4 -2.95,3.39 -0.97,0.85 -2.17,1.57 -3.2,1.67 -0.89,0.09 -1.84,-0.11 -2.45,-0.65 -0.23,-0.21 -0.34,-0.35 -0.45,-0.77 -0.21,-0.78 -0.1,-1.7 -0.07,-2.49 0.08,-1.85 0.16,-3.69 0.24,-5.54 0.06,-1.5 0.51,-4.34 -1.18,-5.08 -0.16,-0.51 -0.53,-0.97 -0.98,-1.19 0.63,0.3 -0.56,-0.32 -0.69,-0.38 -0.42,-0.23 -0.84,-0.43 -1.28,-0.64 -0.75,-0.35 -1.51,-0.7 -2.26,-1.05 -1.51,-0.7 -3.01,-1.41 -4.52,-2.11 -1.48,-0.69 -2.97,-1.35 -4.43,-2.07z"/>
     <g>
      <path class="fil4" d="M388.85 441.73c0.08,-0 0.15,0.02 0.23,0.01 1.03,-0.1 2.23,-0.82 3.2,-1.67 1.12,-0.98 2.04,-2.21 2.95,-3.39 1.04,-1.37 2.04,-2.77 2.96,-4.22 0.91,-1.44 1.75,-2.92 2.82,-4.25 0.46,-0.57 1.24,-0.55 1.78,-0.19 0.48,-0.06 0.89,0.03 1.27,0.19 -0.64,-0.63 -1.3,-1.23 -2.07,-1.7 -1.7,-1.06 -4.04,-1.44 -5.64,-0.24 -0.81,0.6 -1.32,1.52 -1.78,2.41 -1.65,3.15 -3.09,6.41 -4.3,9.75 -0.41,1.12 -0.8,2.28 -1.41,3.29z"/>
      <path class="fil4" d="M387.23 410.66c-0.02,0.06 -0.06,0.12 -0.08,0.18 0.45,-0.09 0.89,-0.17 1.34,-0.26 1.26,-0.24 2.57,-0.51 3.55,-1.33 2.17,-1.83 1.63,-5.25 0.9,-7.99 -0.63,-2.37 -1.27,-4.73 -1.9,-7.1 -2.09,0.97 -2.41,4.15 -2.66,6.11 -0.21,1.66 -0.38,3.33 -0.56,4.99 -0.09,0.9 -0.19,1.8 -0.29,2.7 -0.04,0.42 -0.09,0.83 -0.13,1.25 -0,0.01 -0.01,0.06 -0.01,0.08 0.12,0.24 0.16,0.53 0.13,0.77 -0.03,0.29 -0.42,1.04 -0.3,0.59z"/>
      <path class="fil4" d="M379.96 423.95c0.75,0.35 1.51,0.7 2.26,1.05 0.43,0.2 0.86,0.41 1.28,0.64 0.13,0.07 1.32,0.68 0.69,0.38 0.46,0.21 0.83,0.67 0.98,1.19 0.28,0.12 0.48,0.31 0.65,0.53 0.29,-1.15 0.54,-2.31 0.72,-3.48 0.12,-0.75 0.22,-1.55 -0.05,-2.27 -0.66,-1.74 -2.94,-2.06 -4.81,-2.14 -3.73,-0.15 -7.45,-0.47 -11.14,-0.95 -0.08,0.12 -0.16,0.26 -0.23,0.43 0,0 -0.01,0.03 -0.01,0.04 0.03,0.02 0.04,0.03 0.07,0.05 0.22,0.15 0.33,0.21 0.63,0.35 1.47,0.71 2.96,1.38 4.43,2.07 1.51,0.7 3.01,1.4 4.52,2.11z"/>
      <path class="fil4" d="M407.31 405.92c-0.34,0.01 -0.63,-0.11 -0.87,-0.27 0.37,1.18 0.94,2.29 1.77,3.24 0.38,0.43 0.84,0.85 1.41,0.93 0.65,0.1 1.27,-0.24 1.83,-0.58 2.87,-1.77 5.5,-3.92 7.86,-6.33 -0.09,-0.06 -0.16,-0.13 -0.28,-0.17 -0.9,-0.29 -2.07,0.22 -2.92,0.5 -1.45,0.48 -2.89,0.96 -4.34,1.44 -1.4,0.46 -2.99,1.22 -4.47,1.24z"/>
      <path class="fil4" d="M415.06 420c-0.07,-0.12 -0.09,-0.27 -0.12,-0.42 -0.4,-0.26 -0.67,-0.7 -0.78,-1.18 -0.58,0.54 -1.12,1.11 -1.57,1.77 -1.17,1.73 -1.6,4.15 -0.43,5.87 1.38,2.02 4.19,2.26 6.59,2.7 1.7,0.31 3.36,0.85 4.95,1.55 0,-1.12 -0.56,-2.18 -1.22,-3.07 -1.02,-1.38 -2.29,-2.58 -3.59,-3.67 -1.34,-1.13 -2.95,-2.01 -3.83,-3.55z"/>
     </g>
     <path class="fil5" d="M398.75 402.28c-0.04,-0.21 -0.1,-0.41 -0.16,-0.61 -0.1,-0.35 -0.37,-0.63 -0.64,-0.87 -0.16,-0.14 -0.32,-0.29 -0.46,-0.44 0.1,0.11 0.21,0.22 0.31,0.32 -0.17,-0.18 -0.34,-0.35 -0.51,-0.52 -0.15,-0.16 -0.3,-0.33 -0.44,-0.5 -0.07,-0.09 -0.14,-0.18 -0.21,-0.28 -0.15,-0.21 -0.3,-0.38 -0.48,-0.57 0.09,0.1 0.19,0.19 0.28,0.29 -0.53,-0.56 -1.22,-1.6 -2.13,-1.22 -0.76,0.32 -0.85,1.32 -0.75,2.03 0.04,0.32 0.1,0.64 0.23,0.94 0.12,0.26 0.25,0.5 0.39,0.75 0.28,0.49 0.56,0.94 0.95,1.35 0.19,0.2 0.39,0.4 0.6,0.58 0.46,0.4 1.07,0.54 1.67,0.48 0.8,-0.08 1.5,-0.92 1.35,-1.73z"/>
     <path class="fil5" d="M401.04 406.03c0.01,-0.31 0.02,-0.55 -0.09,-0.84 -0.08,-0.2 -0.17,-0.43 -0.3,-0.6 -0.07,-0.09 -0.14,-0.17 -0.2,-0.25 -0.17,-0.21 -0.36,-0.42 -0.62,-0.52 -0.14,-0.06 -0.29,-0.09 -0.44,-0.13l-0.35 -0c-0.17,0.01 -0.33,0.07 -0.47,0.16 -0.1,0.04 -0.19,0.11 -0.26,0.2 -0.13,0.11 -0.23,0.24 -0.29,0.4 -0.01,0.02 -0.01,0.03 -0.02,0.05 -0.04,0.11 -0.1,0.28 -0.11,0.39 -0,0.12 -0,0.25 -0.01,0.37l0.09 0.35c0.01,0.03 0.02,0.06 0.02,0.08 0.03,0.11 0.06,0.21 0.09,0.32 0.04,0.12 0.13,0.26 0.2,0.36 0.01,0.02 0.03,0.05 0.05,0.07 0.03,0.04 0.05,0.09 0.08,0.13 0.04,0.06 0.09,0.12 0.15,0.16 0.04,0.05 0.09,0.1 0.14,0.15 0.02,0.02 0.04,0.03 0.07,0.04 0.04,0.03 0.09,0.06 0.13,0.09 0.19,0.15 0.4,0.24 0.64,0.28 0.24,0.04 0.47,0.01 0.69,-0.08 0.21,-0.09 0.39,-0.22 0.54,-0.4 0.15,-0.19 0.24,-0.4 0.28,-0.64l0.01 -0.14z"/>
     <path class="fil5" d="M382.09 415.77c0.05,-0.25 -0.12,-0.49 -0.33,-0.6 -0.05,-0.03 -0.29,-0.1 -0.15,-0.05 0.1,0.03 -0.03,-0.01 -0.04,-0.01 0.1,0.08 0.21,0.17 0.31,0.25 -0.18,-0.23 -0.38,-0.35 -0.65,-0.43 -0.33,-0.1 -0.36,-0.12 -0.7,-0.1 -0.08,0 -0.16,0 -0.24,0.01 -0.29,0.02 -0.58,0.11 -0.87,0.16 -0.39,0.07 -0.8,0.19 -1.15,0.37 -0.27,0.14 -0.55,0.26 -0.84,0.37 -0.46,0.17 -0.81,0.73 -0.72,1.22 0.08,0.49 0.46,0.97 0.99,1.01 0.81,0.07 1.68,0.17 2.45,-0.16 0.36,-0.15 0.77,-0.31 1.08,-0.55 0.39,-0.29 0.76,-0.76 0.79,-1.27 0.03,-0.07 0.06,-0.14 0.07,-0.21z"/>
     <path class="fil5" d="M391.5 429.82c0.02,-0.2 0.06,-0.4 0.09,-0.6 0.05,-0.32 0.01,-0.66 0.01,-0.99 0,0.13 -0,0.25 -0,0.38 0,-0.17 0.02,-0.34 0.01,-0.51 -0.01,-0.16 -0.07,-0.32 -0.12,-0.48 -0.04,-0.11 -0.07,-0.21 -0.09,-0.32 0.02,0.07 0.04,0.14 0.05,0.2 -0.09,-0.35 -0.24,-0.65 -0.6,-0.8 -0.33,-0.15 -0.73,-0.1 -1.01,0.11 -0.1,0.08 -0.2,0.16 -0.31,0.24 -0.27,0.21 -0.42,0.43 -0.59,0.72 -0.08,0.13 -0.16,0.27 -0.23,0.41 -0.12,0.23 -0.17,0.49 -0.23,0.75 -0.09,0.34 -0.18,0.69 -0.18,1.04 -0,0.21 0.01,0.4 0.04,0.6 0.07,0.48 0.26,0.81 0.63,1.14 0.23,0.2 0.54,0.28 0.83,0.29 0.31,0 0.56,-0.08 0.83,-0.26 0.35,-0.23 0.53,-0.58 0.67,-0.96 0.07,-0.21 0.15,-0.42 0.17,-0.63 0.01,-0.11 0.02,-0.22 0.03,-0.34z"/>
     <g>
      <path class="fil5" d="M409.52 426.81c0.05,0.01 0.1,0.03 0.15,0.04 0.03,0 0.05,0 0.08,0 -0.08,-0.01 -0.15,-0.02 -0.23,-0.04z"/>
      <path class="fil5" d="M412.08 427.82c-0.21,-0.29 -0.5,-0.44 -0.82,-0.53 0,0 0,0 0,0 -0.14,-0.04 -0.26,-0.1 -0.39,-0.17 -0.28,-0.14 -0.58,-0.12 -0.87,-0.2 0.07,0.02 0.13,0.04 0.2,0.06 -0.28,-0.09 -0.55,-0.16 -0.85,-0.12 0.1,0 0.2,0 0.3,0 -0.48,-0.15 -0.98,-0.09 -1.36,0.27 -0.17,0.17 -0.28,0.35 -0.34,0.58 -0.05,0.11 -0.07,0.23 -0.05,0.34 -0.02,0.18 0.01,0.34 0.08,0.51 0.12,0.44 0.38,0.85 0.74,1.13 0.5,0.39 1.1,0.67 1.75,0.59 0.23,-0.03 0.46,-0.1 0.68,-0.16 0.21,-0.06 0.43,-0.16 0.6,-0.3 0.3,-0.24 0.53,-0.56 0.59,-0.95 0.06,-0.36 -0.04,-0.75 -0.26,-1.03z"/>
      <path class="fil5" d="M409.73 426.86c-0.01,-0.01 -0.03,0 -0.04,-0 0.06,0.02 0.13,0.04 0.19,0.05 -0.05,-0.01 -0.1,-0.03 -0.15,-0.05z"/>
      <path class="fil5" d="M409.67 426.85c-0.01,0 -0.02,0 -0.02,0 0.01,0.01 0.02,0 0.04,0.01 -0,-0 -0.01,-0 -0.01,-0.01z"/>
     </g>
     <path class="fil5" d="M417.64 410.02c0.05,-0.31 -0.01,-0.63 -0.2,-0.88 -0.01,-0.01 -0.02,-0.02 -0.03,-0.04 -0.19,-0.22 -0.17,-0.2 -0.37,-0.32 -0.05,-0.04 -0.1,-0.07 -0.16,-0.09 -0.11,-0.03 -0.22,-0.06 -0.33,-0.09 -0.07,-0.02 -0.14,-0.03 -0.21,-0.04 -0.12,-0.01 -0.31,-0.02 -0.43,-0 -0.01,0 -0.03,0.01 -0.04,0.01 -0.16,0.04 -0.31,0.08 -0.47,0.12 -0.02,0.01 -0.05,0.01 -0.07,0.02 -0.11,0.04 -0.26,0.14 -0.37,0.21 -0.04,0.02 -0.08,0.05 -0.12,0.08 -0.17,0.12 -0.32,0.29 -0.47,0.43 -0.03,0.03 -0.06,0.06 -0.09,0.09 -0.05,0.06 -0.09,0.12 -0.12,0.19 -0.05,0.06 -0.09,0.13 -0.12,0.2 -0.01,0.02 -0.02,0.04 -0.02,0.06 -0.04,0.1 -0.07,0.21 -0.1,0.32 -0.04,0.07 -0.06,0.15 -0.06,0.23 -0,0.14 -0,0.29 -0.01,0.43 0,0.02 0,0.04 0,0.06 0.01,0.08 0.02,0.16 0.04,0.24 0.03,0.12 0.06,0.24 0.09,0.36l0.18 0.32 0.26 0.27c0.15,0.13 0.32,0.21 0.51,0.25 0.12,0.05 0.25,0.07 0.38,0.06 0.13,0.02 0.25,0 0.37,-0.04 0.13,-0.01 0.24,-0.06 0.34,-0.14 0.17,-0.08 0.31,-0.19 0.43,-0.35 0.05,-0.06 0.1,-0.12 0.16,-0.18 -0.1,0.09 -0.19,0.18 -0.29,0.28 0.12,-0.12 0.27,-0.23 0.37,-0.37 0.03,-0.04 0.06,-0.09 0.1,-0.13 0.09,-0.12 0.15,-0.24 0.21,-0.37 0.01,-0.02 0.03,-0.04 0.04,-0.06 0.11,-0.14 0.2,-0.31 0.29,-0.47 -0.07,0.11 -0.13,0.22 -0.2,0.33 0.09,-0.15 0.2,-0.29 0.28,-0.45 0.02,-0.05 0.04,-0.09 0.07,-0.13 -0.06,0.1 -0.12,0.19 -0.18,0.29 0.15,-0.24 0.27,-0.41 0.31,-0.7z"/>
    </g>
    <g>
     <g>
      <path class="fil2" d="M144.97 293.15c-0.39,0.12 -0.77,0.23 -1.15,0.37 -0.12,0.04 -1.19,0.41 -0.63,0.24 -0.41,0.12 -0.78,0.46 -0.97,0.87 -1.51,0.41 -1.49,2.86 -1.62,4.12 -0.16,1.56 -0.32,3.12 -0.49,4.68 -0.07,0.67 -0.09,1.46 -0.36,2.09 -0.15,0.34 -0.26,0.44 -0.48,0.59 -0.58,0.38 -1.4,0.43 -2.14,0.24 -0.85,-0.21 -1.77,-0.97 -2.48,-1.8 -0.82,-0.97 -1.44,-2.11 -2.05,-3.21 -0.71,-1.28 -1.37,-2.58 -1.96,-3.91 -0.59,-1.32 -1.11,-2.67 -1.84,-3.92 -0.32,-0.54 -0.98,-0.62 -1.47,-0.38 -0.86,-0.24 -1.51,0.14 -2.3,0.47 -0.6,0.25 -1.21,0.47 -1.83,0.66 -1.24,0.39 -2.51,0.69 -3.8,0.85 -2.71,0.33 -5.42,0.3 -8.08,-0.36 -1.03,-0.26 -1.78,-0.57 -1.88,-1.73 -0.1,-1.18 0.66,-2.2 1.45,-2.99 1.03,-1.03 2.24,-1.88 3.47,-2.64 1.27,-0.78 2.72,-1.32 3.66,-2.51 0.07,-0.09 0.11,-0.22 0.15,-0.33 0.78,-0.36 1.2,-1.42 0.73,-2.24 -1.04,-1.8 -2,-3.51 -2.56,-5.53 -0.48,-1.73 -0.84,-3.84 -0.46,-5.62 0.12,-0.56 0.31,-1.16 0.94,-1.26 0.79,-0.13 1.72,0.44 2.39,0.78 1.16,0.58 2.31,1.17 3.46,1.75 1.12,0.56 2.36,1.39 3.6,1.59 0.62,0.1 1.15,-0.25 1.37,-0.73 0.19,0.09 0.4,0.14 0.62,0.07 1.33,-0.44 2.6,-1.43 3.74,-2.23 1.18,-0.83 2.35,-1.66 3.51,-2.51 1.03,-0.76 2.02,-1.6 3.13,-2.25 0.71,-0.42 1.57,-0.8 2.39,-0.45 2.05,0.87 1.88,3.89 1.84,5.7 -0.03,1.42 -0.09,2.84 -0.15,4.26 -0.03,0.77 -0.06,1.54 -0.09,2.31 -0.01,0.35 -0.03,0.71 -0.04,1.06 0,0.01 -0,0.05 -0,0.07 -0.13,0.18 -0.2,0.42 -0.21,0.63 -0.01,0.25 0.22,0.93 0.18,0.54 0.11,0.99 0.84,1.83 1.89,1.8 0.23,-0.01 0.42,-0.07 0.61,-0.14 1.85,0.81 3.68,1.68 5.39,2.74 0.99,0.62 1.93,1.31 2.81,2.08 0.83,0.72 1.79,1.5 2.29,2.47 0.06,0.12 0.11,0.26 0.16,0.44 0,0 0,0.03 0,0.04 -0.02,0.01 -0.03,0.02 -0.07,0.03 -0.21,0.1 -0.3,0.13 -0.58,0.22 -1.32,0.42 -2.65,0.79 -3.98,1.19 -1.35,0.4 -2.71,0.81 -4.06,1.21 -0.68,0.2 -1.35,0.4 -2.03,0.6z"/>
     </g>
     <path class="fil3" d="M149.66 295.7l4.05 -1.22c1.24,-0.37 2.59,-0.66 3.74,-1.28 2.62,-1.41 2.25,-4.52 0.67,-6.56 -1.52,-1.96 -3.72,-3.53 -5.83,-4.8 -1.9,-1.14 -3.89,-1.99 -6.01,-2.45 0.09,-1.44 0.08,-2.89 0.07,-4.32 -0.01,-1.58 -0.01,-3.17 -0.1,-4.75 -0.15,-2.79 -1.06,-5.91 -3.83,-7.17 -2.81,-1.28 -5.33,0.42 -7.49,2.11 -1.33,1.04 -2.64,2.1 -3.93,3.19 -1.25,1.04 -2.77,2.13 -3.71,3.49 -0.84,-0.79 -2.02,-1.26 -3.03,-1.78 -1.03,-0.53 -2.05,-1.05 -3.08,-1.58 -1.66,-0.85 -3.62,-1.97 -5.54,-1.25 -1.96,0.74 -2.61,2.8 -2.69,4.73 -0.09,1.93 0.2,3.9 0.66,5.77 0.44,1.83 1.15,3.76 2.18,5.39 -1.2,0.28 -2.31,0.91 -3.4,1.6 -1.53,0.96 -3.11,2.06 -4.31,3.43 -2.21,2.51 -3.02,6.9 0.29,8.96 1.44,0.89 3.34,1.19 5,1.41 1.76,0.23 3.54,0.39 5.32,0.26 1.77,-0.13 3.55,-0.43 5.26,-0.92 0.83,-0.24 1.65,-0.52 2.45,-0.84 0.31,-0.13 0.59,-0.25 0.84,-0.38 0.48,1.78 1.23,3.5 1.98,5.15 1.02,2.24 2.17,4.67 4.03,6.34 1.78,1.6 4.17,2.41 6.54,1.75 1.03,-0.29 2.01,-0.89 2.68,-1.73 0.99,-1.25 1.21,-2.73 1.38,-4.26l0.52 -4.68c0.06,-0.56 0.2,-1.34 0.23,-2.12 0.4,-0.06 0.81,-0.18 1.18,-0.29 1.3,-0.39 2.61,-0.79 3.91,-1.18zm1.4 -4.36l0 0c-1.35,0.4 -2.71,0.81 -4.06,1.21 -0.68,0.2 -1.35,0.4 -2.03,0.6 -0.39,0.12 -0.77,0.23 -1.15,0.37 -0.12,0.04 -1.19,0.41 -0.63,0.24 -0.41,0.12 -0.78,0.46 -0.97,0.87 -1.51,0.41 -1.49,2.86 -1.62,4.12 -0.16,1.56 -0.32,3.12 -0.49,4.68 -0.07,0.67 -0.09,1.46 -0.36,2.09 -0.15,0.34 -0.26,0.44 -0.48,0.59 -0.58,0.38 -1.4,0.43 -2.14,0.24 -0.85,-0.21 -1.77,-0.97 -2.48,-1.8 -0.82,-0.97 -1.44,-2.11 -2.05,-3.21 -0.71,-1.28 -1.37,-2.58 -1.96,-3.91 -0.59,-1.32 -1.11,-2.67 -1.84,-3.92 -0.32,-0.54 -0.98,-0.62 -1.47,-0.38 -0.86,-0.24 -1.51,0.14 -2.3,0.47 -0.6,0.25 -1.21,0.47 -1.83,0.66 -1.24,0.39 -2.51,0.69 -3.8,0.85 -2.71,0.33 -5.42,0.3 -8.08,-0.36 -1.03,-0.26 -1.78,-0.57 -1.88,-1.73 -0.1,-1.18 0.66,-2.2 1.45,-2.99 1.03,-1.03 2.24,-1.88 3.47,-2.64 1.27,-0.78 2.72,-1.32 3.66,-2.51 0.07,-0.09 0.11,-0.22 0.15,-0.33 0.78,-0.36 1.2,-1.42 0.73,-2.24 -1.04,-1.8 -2,-3.51 -2.56,-5.53 -0.48,-1.73 -0.84,-3.84 -0.46,-5.62 0.12,-0.56 0.31,-1.16 0.94,-1.26 0.79,-0.13 1.72,0.44 2.39,0.78 1.16,0.58 2.31,1.17 3.46,1.75 1.12,0.56 2.36,1.39 3.6,1.59 0.62,0.1 1.15,-0.25 1.37,-0.73 0.19,0.09 0.4,0.14 0.62,0.07 1.33,-0.44 2.6,-1.43 3.74,-2.23 1.18,-0.83 2.35,-1.66 3.51,-2.51 1.03,-0.76 2.02,-1.6 3.13,-2.25 0.71,-0.42 1.57,-0.8 2.39,-0.45 2.05,0.87 1.88,3.89 1.84,5.7 -0.03,1.42 -0.09,2.84 -0.15,4.26 -0.03,0.77 -0.06,1.54 -0.09,2.31 -0.01,0.35 -0.03,0.71 -0.04,1.06 0,0.01 -0,0.05 -0,0.07 -0.13,0.18 -0.2,0.42 -0.21,0.63 -0.01,0.25 0.22,0.93 0.18,0.54 0.11,0.99 0.84,1.83 1.89,1.8 0.23,-0.01 0.42,-0.07 0.61,-0.14 1.85,0.81 3.68,1.68 5.39,2.74 0.99,0.62 1.93,1.31 2.81,2.08 0.83,0.72 1.79,1.5 2.29,2.47 0.06,0.12 0.11,0.26 0.16,0.44 0,0 0,0.03 0,0.04 -0.02,0.01 -0.03,0.02 -0.07,0.03 -0.21,0.1 -0.3,0.13 -0.58,0.22 -1.32,0.42 -2.65,0.79 -3.98,1.19z"/>
     <g>
      <path class="fil4" d="M137.33 306.38c-0.07,-0.01 -0.13,0 -0.19,-0.02 -0.85,-0.21 -1.77,-0.97 -2.48,-1.8 -0.82,-0.97 -1.44,-2.11 -2.05,-3.21 -0.71,-1.28 -1.37,-2.58 -1.96,-3.91 -0.59,-1.32 -1.11,-2.67 -1.84,-3.92 -0.32,-0.54 -0.98,-0.62 -1.47,-0.38 -0.4,-0.11 -0.75,-0.08 -1.09,0.01 0.62,-0.45 1.25,-0.87 1.95,-1.17 1.56,-0.68 3.57,-0.71 4.77,0.5 0.6,0.61 0.92,1.44 1.2,2.25 1,2.85 1.8,5.76 2.4,8.72 0.2,0.99 0.39,2.01 0.78,2.94z"/>
      <path class="fil4" d="M142.53 280.48c0.01,0.06 0.03,0.1 0.04,0.16 -0.36,-0.13 -0.73,-0.25 -1.09,-0.38 -1.03,-0.36 -2.1,-0.75 -2.82,-1.56 -1.6,-1.8 -0.72,-4.61 0.23,-6.83 0.82,-1.91 1.65,-3.82 2.47,-5.73 1.64,1.07 1.51,3.79 1.48,5.47 -0.03,1.42 -0.09,2.84 -0.15,4.26 -0.03,0.77 -0.06,1.54 -0.09,2.31 -0.01,0.35 -0.03,0.71 -0.04,1.06 0,0.01 -0,0.05 -0,0.07 -0.13,0.18 -0.2,0.42 -0.21,0.63 -0.01,0.25 0.22,0.93 0.18,0.54z"/>
      <path class="fil4" d="M147 292.55c-0.68,0.2 -1.35,0.4 -2.03,0.6 -0.39,0.12 -0.77,0.23 -1.15,0.37 -0.12,0.04 -1.19,0.41 -0.63,0.24 -0.41,0.12 -0.78,0.46 -0.97,0.87 -0.25,0.07 -0.44,0.2 -0.61,0.36 -0.1,-1 -0.16,-2 -0.18,-3.01 -0.01,-0.65 0.01,-1.33 0.33,-1.9 0.77,-1.39 2.73,-1.37 4.3,-1.2 3.15,0.34 6.31,0.53 9.48,0.58 0.05,0.11 0.1,0.24 0.14,0.39 0,0 0,0.03 0,0.04 -0.02,0.01 -0.03,0.02 -0.07,0.03 -0.21,0.1 -0.3,0.13 -0.58,0.22 -1.32,0.42 -2.65,0.79 -3.98,1.19 -1.35,0.4 -2.71,0.81 -4.06,1.21z"/>
      <path class="fil4" d="M126.26 274.02c0.28,0.04 0.54,-0.01 0.76,-0.12 -0.46,0.95 -1.07,1.81 -1.89,2.51 -0.37,0.32 -0.81,0.61 -1.3,0.61 -0.56,0 -1.04,-0.36 -1.46,-0.72 -2.19,-1.84 -4.13,-3.97 -5.81,-6.29 0.08,-0.04 0.15,-0.09 0.25,-0.11 0.79,-0.13 1.72,0.44 2.39,0.78 1.16,0.58 2.31,1.17 3.46,1.75 1.12,0.56 2.36,1.39 3.6,1.59z"/>
      <path class="fil4" d="M118.01 284.88c0.07,-0.09 0.11,-0.22 0.15,-0.33 0.37,-0.17 0.65,-0.51 0.8,-0.89 0.42,0.53 0.8,1.07 1.1,1.68 0.76,1.6 0.83,3.69 -0.37,4.99 -1.41,1.53 -3.79,1.38 -5.87,1.45 -1.47,0.05 -2.93,0.3 -4.35,0.69 0.14,-0.94 0.74,-1.76 1.4,-2.43 1.03,-1.03 2.24,-1.88 3.47,-2.64 1.27,-0.78 2.72,-1.32 3.66,-2.51z"/>
     </g>
     <path class="fil5" d="M133.9 272.02c0.06,-0.17 0.13,-0.33 0.21,-0.49 0.13,-0.28 0.39,-0.48 0.65,-0.65 0.15,-0.1 0.3,-0.2 0.44,-0.31 -0.1,0.08 -0.2,0.15 -0.3,0.23 0.16,-0.13 0.33,-0.25 0.5,-0.37 0.15,-0.12 0.29,-0.24 0.43,-0.37 0.07,-0.07 0.14,-0.14 0.21,-0.21 0.15,-0.16 0.29,-0.28 0.48,-0.42 -0.09,0.07 -0.18,0.14 -0.27,0.21 0.51,-0.4 1.22,-1.19 1.94,-0.76 0.6,0.36 0.55,1.21 0.38,1.8 -0.08,0.26 -0.17,0.53 -0.31,0.76 -0.13,0.2 -0.27,0.39 -0.42,0.58 -0.29,0.38 -0.59,0.72 -0.97,1.01 -0.19,0.15 -0.37,0.29 -0.57,0.41 -0.44,0.28 -0.97,0.32 -1.47,0.2 -0.67,-0.17 -1.14,-0.96 -0.92,-1.63z"/>
     <path class="fil5" d="M131.51 274.89c0.03,-0.26 0.05,-0.46 0.18,-0.7 0.09,-0.16 0.2,-0.34 0.33,-0.46 0.07,-0.06 0.13,-0.12 0.2,-0.19 0.17,-0.16 0.36,-0.31 0.59,-0.36 0.12,-0.03 0.26,-0.04 0.38,-0.05l0.29 0.04c0.14,0.03 0.27,0.1 0.37,0.2 0.08,0.05 0.15,0.11 0.2,0.2 0.1,0.11 0.16,0.23 0.2,0.37 0,0.01 0.01,0.03 0.01,0.04 0.02,0.09 0.05,0.24 0.04,0.34 -0.01,0.11 -0.03,0.21 -0.04,0.32l-0.12 0.28c-0.01,0.02 -0.02,0.04 -0.03,0.07 -0.04,0.08 -0.07,0.17 -0.12,0.25 -0.05,0.1 -0.14,0.2 -0.21,0.28 -0.01,0.02 -0.03,0.04 -0.05,0.06 -0.03,0.03 -0.06,0.07 -0.09,0.1 -0.04,0.05 -0.09,0.09 -0.14,0.12 -0.04,0.04 -0.09,0.07 -0.14,0.1 -0.02,0.01 -0.04,0.02 -0.06,0.03 -0.04,0.02 -0.08,0.04 -0.12,0.05 -0.18,0.1 -0.37,0.15 -0.57,0.15 -0.2,0 -0.39,-0.05 -0.57,-0.15 -0.17,-0.1 -0.31,-0.23 -0.4,-0.4 -0.1,-0.18 -0.15,-0.36 -0.15,-0.57l0.01 -0.12z"/>
     <path class="fil5" d="M146.23 285.41c-0.01,-0.21 0.16,-0.4 0.35,-0.46 0.05,-0.01 0.26,-0.04 0.14,-0.02 -0.09,0.02 0.02,-0 0.04,-0.01 -0.1,0.06 -0.2,0.11 -0.29,0.17 0.18,-0.17 0.36,-0.25 0.6,-0.28 0.29,-0.05 0.31,-0.05 0.61,-0 0.07,0.01 0.13,0.03 0.2,0.04 0.24,0.05 0.48,0.17 0.71,0.24 0.32,0.1 0.65,0.26 0.92,0.45 0.21,0.15 0.43,0.29 0.66,0.41 0.37,0.2 0.59,0.71 0.45,1.12 -0.13,0.4 -0.51,0.75 -0.95,0.73 -0.69,-0.04 -1.43,-0.07 -2.04,-0.44 -0.29,-0.17 -0.61,-0.36 -0.84,-0.59 -0.29,-0.3 -0.54,-0.73 -0.51,-1.17 -0.01,-0.06 -0.03,-0.12 -0.03,-0.19z"/>
     <path class="fil5" d="M136.57 296.05c0.01,-0.17 0,-0.34 0,-0.51 0,-0.28 0.07,-0.56 0.11,-0.83 -0.01,0.11 -0.03,0.21 -0.04,0.32 0.02,-0.14 0.03,-0.29 0.06,-0.43 0.03,-0.14 0.1,-0.26 0.16,-0.39 0.04,-0.09 0.08,-0.17 0.12,-0.26 -0.02,0.06 -0.05,0.11 -0.07,0.16 0.12,-0.29 0.28,-0.51 0.6,-0.6 0.29,-0.08 0.62,0 0.84,0.22 0.08,0.08 0.15,0.16 0.23,0.24 0.2,0.21 0.3,0.41 0.41,0.68 0.05,0.12 0.1,0.25 0.14,0.37 0.07,0.21 0.08,0.44 0.1,0.66 0.03,0.3 0.06,0.6 0.02,0.89 -0.02,0.17 -0.05,0.33 -0.11,0.5 -0.12,0.39 -0.32,0.65 -0.67,0.88 -0.21,0.14 -0.49,0.17 -0.73,0.14 -0.26,-0.04 -0.46,-0.14 -0.66,-0.32 -0.27,-0.24 -0.37,-0.56 -0.44,-0.89 -0.04,-0.18 -0.07,-0.37 -0.07,-0.55 0,-0.1 0.01,-0.19 0.01,-0.29z"/>
     <g>
      <path class="fil5" d="M121.82 291.29c-0.04,0.01 -0.09,0.01 -0.13,0.02 -0.02,-0 -0.04,-0.01 -0.07,-0.01 0.07,0 0.13,0 0.2,-0.01z"/>
      <path class="fil5" d="M119.54 291.82c0.21,-0.21 0.47,-0.3 0.76,-0.34 0,0 0,0 0,0 0.12,-0.02 0.23,-0.06 0.35,-0.1 0.25,-0.09 0.51,-0.03 0.76,-0.07 -0.06,0.01 -0.11,0.02 -0.17,0.02 0.25,-0.04 0.48,-0.07 0.73,0 -0.09,-0.01 -0.17,-0.02 -0.26,-0.04 0.42,-0.07 0.84,0.05 1.1,0.4 0.12,0.16 0.19,0.33 0.22,0.53 0.03,0.1 0.03,0.2 0,0.29 -0.01,0.15 -0.05,0.29 -0.13,0.41 -0.16,0.35 -0.43,0.67 -0.76,0.86 -0.47,0.26 -1,0.43 -1.54,0.28 -0.19,-0.05 -0.38,-0.14 -0.55,-0.22 -0.17,-0.08 -0.34,-0.19 -0.47,-0.32 -0.23,-0.24 -0.38,-0.54 -0.38,-0.87 -0,-0.31 0.13,-0.62 0.34,-0.84z"/>
      <path class="fil5" d="M121.64 291.3c0.01,-0 0.02,0 0.04,0 -0.06,0.01 -0.11,0.01 -0.17,0.02 0.04,-0.01 0.09,-0.01 0.13,-0.02z"/>
      <path class="fil5" d="M121.68 291.3c0.01,0 0.01,0 0.02,0 -0.01,0 -0.02,-0 -0.03,0 0,0 0.01,-0 0.01,-0z"/>
     </g>
     <path class="fil5" d="M117.07 276.18c0,-0.26 0.09,-0.53 0.28,-0.71 0.01,-0.01 0.02,-0.02 0.03,-0.03 0.19,-0.16 0.17,-0.15 0.35,-0.22 0.04,-0.03 0.09,-0.05 0.14,-0.06 0.1,-0.01 0.19,-0.03 0.29,-0.04 0.06,-0 0.12,-0.01 0.18,-0 0.1,0.01 0.26,0.02 0.36,0.05 0.01,0 0.02,0.01 0.04,0.01 0.13,0.05 0.25,0.1 0.38,0.16 0.02,0.01 0.04,0.02 0.05,0.03 0.09,0.05 0.2,0.15 0.28,0.22 0.03,0.03 0.06,0.05 0.09,0.08 0.12,0.13 0.23,0.28 0.34,0.42 0.02,0.03 0.04,0.06 0.06,0.09 0.03,0.05 0.06,0.11 0.07,0.17 0.03,0.06 0.06,0.12 0.07,0.18 0.01,0.02 0.01,0.04 0.01,0.05 0.02,0.09 0.03,0.18 0.04,0.28 0.02,0.07 0.03,0.13 0.02,0.2 -0.01,0.12 -0.03,0.24 -0.05,0.36 -0,0.01 -0.01,0.03 -0.01,0.05 -0.01,0.07 -0.04,0.13 -0.06,0.2 -0.04,0.1 -0.08,0.2 -0.12,0.29l-0.19 0.25 -0.25 0.19c-0.14,0.09 -0.29,0.14 -0.46,0.15 -0.11,0.03 -0.22,0.03 -0.33,0 -0.11,-0 -0.21,-0.03 -0.31,-0.08 -0.1,-0.03 -0.19,-0.08 -0.27,-0.16 -0.13,-0.09 -0.24,-0.2 -0.32,-0.34 -0.03,-0.06 -0.07,-0.11 -0.11,-0.17 0.07,0.09 0.14,0.18 0.21,0.27 -0.09,-0.12 -0.2,-0.22 -0.27,-0.35 -0.02,-0.04 -0.04,-0.08 -0.06,-0.12 -0.06,-0.11 -0.09,-0.22 -0.13,-0.33 -0.01,-0.02 -0.02,-0.04 -0.03,-0.05 -0.08,-0.14 -0.13,-0.29 -0.19,-0.43 0.04,0.1 0.09,0.2 0.13,0.3 -0.06,-0.14 -0.13,-0.27 -0.18,-0.41 -0.01,-0.04 -0.03,-0.08 -0.04,-0.12 0.04,0.09 0.08,0.18 0.11,0.27 -0.1,-0.22 -0.18,-0.37 -0.18,-0.63z"/>
    </g>
    <g>
     <g>
      <path class="fil2" d="M160.16 420.73c-0.43,0.2 -0.86,0.4 -1.28,0.63 -0.13,0.07 -1.32,0.68 -0.69,0.38 -0.46,0.21 -0.83,0.68 -0.98,1.19 -1.69,0.74 -1.25,3.58 -1.18,5.08 0.08,1.85 0.16,3.69 0.24,5.54 0.03,0.8 0.15,1.71 -0.07,2.49 -0.11,0.42 -0.22,0.56 -0.45,0.77 -0.61,0.54 -1.56,0.74 -2.45,0.65 -1.03,-0.1 -2.24,-0.82 -3.2,-1.67 -1.12,-0.99 -2.05,-2.21 -2.95,-3.39 -1.04,-1.36 -2.04,-2.77 -2.96,-4.22 -0.91,-1.44 -1.75,-2.92 -2.82,-4.25 -0.46,-0.57 -1.24,-0.55 -1.78,-0.19 -1.05,-0.14 -1.74,0.43 -2.6,0.94 -0.66,0.39 -1.33,0.75 -2.02,1.08 -1.38,0.67 -2.81,1.24 -4.29,1.64 -3.1,0.86 -6.27,1.28 -9.48,0.97 -1.24,-0.12 -2.18,-0.36 -2.49,-1.69 -0.32,-1.36 0.39,-2.67 1.18,-3.74 1.02,-1.38 2.29,-2.58 3.59,-3.67 1.34,-1.13 2.95,-2.01 3.83,-3.56 0.07,-0.12 0.09,-0.27 0.12,-0.42 0.85,-0.55 1.16,-1.86 0.47,-2.74 -1.52,-1.92 -2.93,-3.75 -3.93,-6.01 -0.85,-1.93 -1.64,-4.33 -1.51,-6.47 0.04,-0.67 0.17,-1.4 0.88,-1.63 0.9,-0.29 2.07,0.22 2.91,0.5 1.45,0.48 2.89,0.96 4.34,1.44 1.4,0.47 2.98,1.22 4.47,1.24 0.74,0.01 1.3,-0.49 1.47,-1.09 0.24,0.08 0.49,0.1 0.73,-0.02 1.48,-0.74 2.78,-2.12 3.97,-3.24 1.23,-1.17 2.46,-2.33 3.66,-3.53 1.07,-1.06 2.08,-2.21 3.26,-3.16 0.76,-0.61 1.69,-1.2 2.71,-0.94 2.54,0.66 2.86,4.22 3.13,6.32 0.21,1.66 0.38,3.33 0.55,4.99 0.1,0.9 0.19,1.8 0.29,2.7 0.04,0.42 0.09,0.83 0.13,1.25 0,0.01 0.01,0.06 0.01,0.09 -0.12,0.23 -0.16,0.52 -0.13,0.77 0.03,0.29 0.42,1.04 0.3,0.59 0.29,1.14 1.29,1.98 2.51,1.77 0.26,-0.05 0.48,-0.15 0.68,-0.27 2.29,0.62 4.58,1.32 6.75,2.27 1.26,0.55 2.47,1.19 3.63,1.94 1.09,0.7 2.34,1.44 3.09,2.48 0.09,0.13 0.18,0.29 0.26,0.48 0,0.01 0.01,0.04 0.01,0.04 -0.02,0.02 -0.04,0.03 -0.07,0.05 -0.22,0.15 -0.32,0.21 -0.63,0.35 -1.47,0.71 -2.95,1.38 -4.43,2.07 -1.51,0.7 -3.01,1.4 -4.52,2.11 -0.75,0.35 -1.51,0.7 -2.26,1.05z"/>
     </g>
     <path class="fil3" d="M166.06 422.89l4.52 -2.12c1.38,-0.65 2.9,-1.21 4.13,-2.13 2.81,-2.1 1.85,-5.66 -0.34,-7.76 -2.11,-2.02 -4.95,-3.48 -7.62,-4.59 -2.41,-1 -4.88,-1.64 -7.43,-1.82 -0.15,-1.69 -0.4,-3.38 -0.65,-5.04 -0.28,-1.85 -0.56,-3.7 -0.93,-5.53 -0.65,-3.22 -2.26,-6.71 -5.7,-7.7 -3.49,-1.01 -6.14,1.4 -8.37,3.74 -1.37,1.44 -2.71,2.91 -4.04,4.39 -1.27,1.43 -2.86,2.96 -3.72,4.7 -1.11,-0.77 -2.57,-1.12 -3.84,-1.55 -1.29,-0.44 -2.57,-0.87 -3.86,-1.31 -2.09,-0.71 -4.56,-1.68 -6.67,-0.51 -2.16,1.2 -2.56,3.71 -2.33,5.97 0.23,2.26 0.91,4.51 1.76,6.61 0.83,2.06 1.99,4.19 3.47,5.91 -1.36,0.53 -2.54,1.46 -3.69,2.44 -1.62,1.38 -3.27,2.94 -4.44,4.74 -2.15,3.31 -2.33,8.56 1.88,10.39 1.83,0.8 4.1,0.81 6.06,0.79 2.09,-0.03 4.2,-0.16 6.24,-0.62 2.04,-0.46 4.06,-1.11 5.97,-1.97 0.93,-0.42 1.84,-0.89 2.71,-1.4 0.34,-0.2 0.64,-0.39 0.91,-0.58 0.87,1.99 2.03,3.87 3.19,5.66 1.58,2.43 3.33,5.07 5.78,6.69 2.35,1.56 5.28,2.09 7.92,0.92 1.15,-0.51 2.19,-1.38 2.82,-2.47 0.94,-1.62 0.94,-3.38 0.87,-5.2l-0.2 -5.54c-0.02,-0.66 0.01,-1.6 -0.09,-2.51 0.46,-0.14 0.91,-0.35 1.32,-0.54 1.45,-0.68 2.9,-1.37 4.35,-2.05zm0.88 -5.32l0 0c-1.51,0.7 -3.01,1.4 -4.52,2.11 -0.75,0.35 -1.51,0.7 -2.26,1.05 -0.43,0.2 -0.86,0.4 -1.28,0.63 -0.13,0.07 -1.32,0.68 -0.69,0.38 -0.46,0.21 -0.83,0.68 -0.98,1.19 -1.69,0.74 -1.25,3.58 -1.18,5.08 0.08,1.85 0.16,3.69 0.24,5.54 0.03,0.8 0.15,1.71 -0.07,2.49 -0.11,0.42 -0.22,0.56 -0.45,0.77 -0.61,0.54 -1.56,0.74 -2.45,0.65 -1.03,-0.1 -2.24,-0.82 -3.2,-1.67 -1.12,-0.99 -2.05,-2.21 -2.95,-3.39 -1.04,-1.36 -2.04,-2.77 -2.96,-4.22 -0.91,-1.44 -1.75,-2.92 -2.82,-4.25 -0.46,-0.57 -1.24,-0.55 -1.78,-0.19 -1.05,-0.14 -1.74,0.43 -2.6,0.94 -0.66,0.39 -1.33,0.75 -2.02,1.08 -1.38,0.67 -2.81,1.24 -4.29,1.64 -3.1,0.86 -6.27,1.28 -9.48,0.97 -1.24,-0.12 -2.18,-0.36 -2.49,-1.69 -0.32,-1.36 0.39,-2.67 1.18,-3.74 1.02,-1.38 2.29,-2.58 3.59,-3.67 1.34,-1.13 2.95,-2.01 3.83,-3.56 0.07,-0.12 0.09,-0.27 0.12,-0.42 0.85,-0.55 1.16,-1.86 0.47,-2.74 -1.52,-1.92 -2.93,-3.75 -3.93,-6.01 -0.85,-1.93 -1.64,-4.33 -1.51,-6.47 0.04,-0.67 0.17,-1.4 0.88,-1.63 0.9,-0.29 2.07,0.22 2.91,0.5 1.45,0.48 2.89,0.96 4.34,1.44 1.4,0.47 2.98,1.22 4.47,1.24 0.74,0.01 1.3,-0.49 1.47,-1.09 0.24,0.08 0.49,0.1 0.73,-0.02 1.48,-0.74 2.78,-2.12 3.97,-3.24 1.23,-1.17 2.46,-2.33 3.66,-3.53 1.07,-1.06 2.08,-2.21 3.26,-3.16 0.76,-0.61 1.69,-1.2 2.71,-0.94 2.54,0.66 2.86,4.22 3.13,6.32 0.21,1.66 0.38,3.33 0.55,4.99 0.1,0.9 0.19,1.8 0.29,2.7 0.04,0.42 0.09,0.83 0.13,1.25 0,0.01 0.01,0.06 0.01,0.09 -0.12,0.23 -0.16,0.52 -0.13,0.77 0.03,0.29 0.42,1.04 0.3,0.59 0.29,1.14 1.29,1.98 2.51,1.77 0.26,-0.05 0.48,-0.15 0.68,-0.27 2.29,0.62 4.58,1.32 6.75,2.27 1.26,0.55 2.47,1.19 3.63,1.94 1.09,0.7 2.34,1.44 3.09,2.48 0.09,0.13 0.18,0.29 0.26,0.48 0,0.01 0.01,0.04 0.01,0.04 -0.02,0.02 -0.04,0.03 -0.07,0.05 -0.22,0.15 -0.32,0.21 -0.63,0.35 -1.47,0.71 -2.95,1.38 -4.43,2.07z"/>
     <g>
      <path class="fil4" d="M153.53 437.45c-0.08,-0 -0.15,0.02 -0.23,0.02 -1.03,-0.1 -2.24,-0.82 -3.2,-1.67 -1.12,-0.99 -2.05,-2.21 -2.95,-3.39 -1.04,-1.36 -2.04,-2.77 -2.96,-4.22 -0.91,-1.44 -1.75,-2.92 -2.82,-4.25 -0.46,-0.57 -1.24,-0.55 -1.78,-0.19 -0.48,-0.06 -0.89,0.03 -1.27,0.19 0.64,-0.63 1.3,-1.23 2.07,-1.7 1.7,-1.06 4.04,-1.44 5.64,-0.24 0.81,0.6 1.32,1.52 1.78,2.41 1.65,3.15 3.09,6.41 4.3,9.75 0.41,1.12 0.8,2.28 1.41,3.29z"/>
      <path class="fil4" d="M155.14 406.38c0.02,0.07 0.06,0.12 0.08,0.18 -0.45,-0.09 -0.89,-0.17 -1.33,-0.26 -1.26,-0.24 -2.57,-0.51 -3.55,-1.33 -2.17,-1.83 -1.63,-5.25 -0.9,-7.99 0.63,-2.37 1.27,-4.73 1.9,-7.1 2.09,0.96 2.41,4.15 2.66,6.11 0.21,1.66 0.38,3.33 0.55,4.99 0.1,0.9 0.19,1.8 0.29,2.7 0.04,0.42 0.09,0.83 0.13,1.25 0,0.01 0.01,0.06 0.01,0.09 -0.12,0.23 -0.16,0.52 -0.13,0.77 0.03,0.29 0.42,1.04 0.3,0.59z"/>
      <path class="fil4" d="M162.42 419.67c-0.75,0.35 -1.51,0.7 -2.26,1.05 -0.43,0.2 -0.86,0.4 -1.28,0.63 -0.13,0.07 -1.32,0.68 -0.69,0.38 -0.46,0.21 -0.83,0.68 -0.98,1.19 -0.28,0.12 -0.48,0.31 -0.65,0.53 -0.28,-1.15 -0.54,-2.31 -0.72,-3.48 -0.12,-0.76 -0.22,-1.55 0.05,-2.27 0.65,-1.75 2.94,-2.06 4.81,-2.14 3.73,-0.15 7.45,-0.47 11.15,-0.96 0.08,0.12 0.16,0.26 0.23,0.43 0,0.01 0.01,0.04 0.01,0.04 -0.02,0.02 -0.04,0.03 -0.07,0.05 -0.22,0.15 -0.32,0.21 -0.63,0.35 -1.47,0.71 -2.95,1.38 -4.43,2.07 -1.51,0.7 -3.01,1.4 -4.52,2.11z"/>
      <path class="fil4" d="M135.08 401.64c0.34,0.01 0.63,-0.11 0.87,-0.28 -0.37,1.18 -0.94,2.3 -1.77,3.24 -0.38,0.43 -0.84,0.85 -1.41,0.93 -0.65,0.1 -1.27,-0.24 -1.83,-0.59 -2.87,-1.77 -5.5,-3.92 -7.86,-6.33 0.09,-0.06 0.16,-0.13 0.28,-0.17 0.9,-0.29 2.07,0.22 2.91,0.5 1.45,0.48 2.89,0.96 4.34,1.44 1.4,0.47 2.98,1.22 4.47,1.24z"/>
      <path class="fil4" d="M127.33 415.72c0.07,-0.12 0.09,-0.27 0.12,-0.42 0.4,-0.26 0.67,-0.7 0.78,-1.18 0.58,0.54 1.12,1.11 1.57,1.77 1.17,1.73 1.6,4.15 0.43,5.87 -1.38,2.02 -4.19,2.26 -6.59,2.7 -1.7,0.31 -3.36,0.85 -4.95,1.55 -0,-1.12 0.56,-2.18 1.22,-3.07 1.02,-1.38 2.29,-2.58 3.59,-3.67 1.34,-1.13 2.95,-2.01 3.83,-3.56z"/>
     </g>
     <path class="fil5" d="M143.63 398c0.04,-0.21 0.1,-0.41 0.16,-0.61 0.11,-0.35 0.37,-0.63 0.65,-0.87 0.16,-0.14 0.32,-0.28 0.46,-0.44 -0.1,0.11 -0.21,0.22 -0.31,0.32 0.17,-0.18 0.34,-0.35 0.52,-0.52 0.15,-0.16 0.3,-0.33 0.44,-0.5 0.07,-0.09 0.14,-0.18 0.21,-0.28 0.15,-0.21 0.29,-0.38 0.48,-0.57 -0.09,0.1 -0.19,0.19 -0.28,0.29 0.53,-0.56 1.22,-1.6 2.13,-1.22 0.76,0.32 0.85,1.32 0.75,2.03 -0.04,0.32 -0.1,0.64 -0.23,0.94 -0.12,0.26 -0.25,0.5 -0.39,0.75 -0.28,0.49 -0.56,0.94 -0.95,1.35 -0.19,0.2 -0.39,0.4 -0.6,0.58 -0.47,0.41 -1.07,0.54 -1.67,0.48 -0.8,-0.08 -1.5,-0.92 -1.36,-1.74z"/>
     <path class="fil5" d="M141.34 401.75c-0.01,-0.31 -0.02,-0.55 0.09,-0.84 0.08,-0.2 0.17,-0.42 0.3,-0.6 0.06,-0.09 0.13,-0.17 0.2,-0.25 0.17,-0.21 0.36,-0.42 0.62,-0.52 0.14,-0.06 0.29,-0.09 0.44,-0.12l0.35 -0.01c0.17,0.01 0.33,0.07 0.47,0.16 0.1,0.04 0.19,0.11 0.26,0.2 0.13,0.11 0.23,0.24 0.29,0.4 0.01,0.01 0.01,0.03 0.02,0.05 0.04,0.11 0.1,0.28 0.11,0.39 0,0.12 0,0.25 0.01,0.37l-0.09 0.35c-0.01,0.03 -0.01,0.05 -0.02,0.08 -0.03,0.1 -0.06,0.21 -0.09,0.31 -0.04,0.12 -0.13,0.26 -0.2,0.36 -0.02,0.02 -0.03,0.05 -0.05,0.07 -0.03,0.04 -0.05,0.09 -0.08,0.13 -0.04,0.06 -0.09,0.12 -0.15,0.16 -0.04,0.05 -0.09,0.1 -0.14,0.15 -0.02,0.02 -0.04,0.03 -0.07,0.04 -0.04,0.03 -0.09,0.06 -0.13,0.08 -0.19,0.15 -0.4,0.24 -0.64,0.28 -0.24,0.03 -0.47,0.01 -0.69,-0.08 -0.21,-0.09 -0.39,-0.22 -0.54,-0.4 -0.15,-0.19 -0.24,-0.4 -0.28,-0.64l-0.01 -0.14z"/>
     <path class="fil5" d="M160.29 411.49c-0.05,-0.25 0.12,-0.5 0.33,-0.6 0.05,-0.03 0.29,-0.1 0.15,-0.05 -0.1,0.03 0.03,-0.01 0.04,-0.01 -0.1,0.08 -0.21,0.17 -0.31,0.25 0.18,-0.23 0.38,-0.35 0.65,-0.43 0.33,-0.1 0.36,-0.12 0.71,-0.11 0.08,0 0.16,0 0.24,0.01 0.29,0.02 0.58,0.11 0.87,0.16 0.39,0.07 0.8,0.19 1.15,0.37 0.27,0.14 0.55,0.26 0.84,0.36 0.46,0.17 0.81,0.73 0.72,1.22 -0.08,0.48 -0.46,0.97 -0.99,1.01 -0.81,0.07 -1.68,0.17 -2.45,-0.16 -0.36,-0.15 -0.77,-0.31 -1.08,-0.55 -0.39,-0.29 -0.76,-0.76 -0.8,-1.27 -0.03,-0.07 -0.06,-0.14 -0.07,-0.21z"/>
     <path class="fil5" d="M150.87 425.54c-0.02,-0.2 -0.06,-0.4 -0.09,-0.6 -0.05,-0.32 -0.01,-0.66 -0.02,-0.99 0,0.12 0,0.25 0.01,0.38 -0,-0.17 -0.02,-0.34 -0.01,-0.5 0.01,-0.17 0.07,-0.32 0.12,-0.48 0.04,-0.11 0.06,-0.22 0.09,-0.33 -0.02,0.07 -0.03,0.14 -0.05,0.21 0.09,-0.35 0.24,-0.65 0.6,-0.8 0.33,-0.15 0.73,-0.1 1.01,0.11 0.1,0.08 0.2,0.16 0.3,0.24 0.27,0.21 0.42,0.43 0.59,0.72 0.08,0.13 0.15,0.27 0.23,0.41 0.12,0.23 0.17,0.49 0.23,0.75 0.09,0.34 0.17,0.69 0.18,1.04 0,0.21 -0.01,0.4 -0.04,0.61 -0.07,0.48 -0.25,0.81 -0.63,1.14 -0.22,0.2 -0.54,0.28 -0.83,0.29 -0.31,0 -0.56,-0.08 -0.83,-0.26 -0.35,-0.23 -0.53,-0.58 -0.67,-0.96 -0.07,-0.21 -0.15,-0.41 -0.17,-0.63 -0.01,-0.11 -0.02,-0.22 -0.04,-0.34z"/>
     <g>
      <path class="fil5" d="M132.86 422.53c-0.05,0.01 -0.1,0.03 -0.15,0.04 -0.03,0 -0.05,0 -0.08,0 0.08,-0.01 0.16,-0.03 0.23,-0.05z"/>
      <path class="fil5" d="M130.3 423.54c0.21,-0.29 0.49,-0.44 0.82,-0.53 0,0 0,0 0,0 0.14,-0.05 0.26,-0.1 0.39,-0.17 0.27,-0.14 0.58,-0.12 0.87,-0.2 -0.07,0.02 -0.13,0.04 -0.2,0.06 0.28,-0.1 0.55,-0.16 0.85,-0.12 -0.1,0 -0.2,0 -0.3,0 0.48,-0.15 0.98,-0.09 1.35,0.27 0.17,0.16 0.28,0.35 0.35,0.58 0.05,0.11 0.07,0.23 0.05,0.34 0.02,0.17 -0.01,0.34 -0.08,0.51 -0.12,0.44 -0.38,0.85 -0.74,1.13 -0.5,0.39 -1.1,0.68 -1.75,0.59 -0.23,-0.03 -0.46,-0.1 -0.68,-0.16 -0.21,-0.06 -0.43,-0.16 -0.6,-0.3 -0.3,-0.24 -0.53,-0.56 -0.59,-0.95 -0.06,-0.35 0.04,-0.75 0.26,-1.03z"/>
      <path class="fil5" d="M132.66 422.58c0.01,-0 0.03,0 0.04,-0 -0.06,0.02 -0.13,0.04 -0.19,0.05 0.05,-0.01 0.1,-0.03 0.15,-0.05z"/>
      <path class="fil5" d="M132.71 422.57c0.01,0 0.01,0 0.02,0 -0.01,0 -0.03,0 -0.04,0 0,-0 0.01,-0 0.01,-0.01z"/>
     </g>
     <path class="fil5" d="M124.74 405.75c-0.05,-0.31 0.01,-0.63 0.2,-0.88 0.01,-0.01 0.02,-0.02 0.03,-0.03 0.19,-0.22 0.17,-0.2 0.37,-0.32 0.05,-0.04 0.1,-0.07 0.16,-0.09 0.11,-0.03 0.22,-0.06 0.33,-0.1 0.07,-0.02 0.14,-0.03 0.21,-0.03 0.12,-0.01 0.31,-0.02 0.43,-0 0.01,0 0.03,0.01 0.04,0.01 0.16,0.04 0.31,0.08 0.47,0.12 0.02,0.01 0.05,0.01 0.07,0.02 0.11,0.04 0.26,0.14 0.36,0.21 0.04,0.02 0.08,0.05 0.12,0.08 0.17,0.12 0.32,0.29 0.47,0.43 0.03,0.03 0.06,0.06 0.09,0.09 0.05,0.06 0.09,0.12 0.12,0.19 0.05,0.06 0.09,0.13 0.12,0.2 0.01,0.02 0.02,0.04 0.02,0.06 0.04,0.1 0.07,0.21 0.1,0.32 0.04,0.07 0.06,0.15 0.06,0.23 0,0.14 0,0.28 0.01,0.43 0,0.02 -0,0.04 -0,0.05 -0.01,0.08 -0.02,0.16 -0.04,0.24 -0.03,0.12 -0.06,0.24 -0.09,0.36l-0.18 0.32 -0.26 0.27c-0.15,0.13 -0.32,0.21 -0.51,0.25 -0.12,0.05 -0.25,0.07 -0.38,0.06 -0.13,0.02 -0.25,0 -0.37,-0.04 -0.13,-0.02 -0.24,-0.06 -0.34,-0.14 -0.17,-0.08 -0.31,-0.19 -0.43,-0.35 -0.05,-0.06 -0.1,-0.12 -0.16,-0.18 0.1,0.09 0.19,0.18 0.29,0.28 -0.13,-0.12 -0.27,-0.22 -0.37,-0.37 -0.03,-0.04 -0.06,-0.09 -0.09,-0.13 -0.09,-0.12 -0.15,-0.24 -0.21,-0.37 -0.01,-0.02 -0.02,-0.04 -0.04,-0.06 -0.11,-0.14 -0.2,-0.31 -0.29,-0.47 0.07,0.11 0.13,0.22 0.2,0.33 -0.09,-0.15 -0.2,-0.29 -0.28,-0.45 -0.02,-0.04 -0.04,-0.09 -0.07,-0.13 0.06,0.1 0.12,0.2 0.18,0.29 -0.15,-0.24 -0.27,-0.41 -0.31,-0.7z"/>
    </g>
    <g>
     <g>
      <path class="fil6" d="M310.74 200.35c-1.55,-0.87 -3.72,-0.76 -5.43,-0.88 -9.43,-0.66 -18.87,-1.13 -28.32,-1.42 -9.59,-0.29 -19.19,-0.41 -28.78,-0.38 -8.85,0.03 -17.74,0.55 -26.59,0.39 -1,1.14 -1.73,2.94 -2.16,3.93 -0.81,1.89 -1.36,3.92 -1.69,5.95 -0.71,4.34 -0.31,8.84 0.92,13.04 2.37,8.14 8.15,14.88 15.14,19.5 13.31,8.8 30.69,10.84 45.81,5.93 14.24,-4.63 25.88,-16.09 30.56,-30.35 1.12,-3.41 1.93,-6.97 2.17,-10.56 0.12,-1.85 0.25,-4.11 -1.6,-5.15z"/>
     </g>
     <g>
      <path class="fil6" d="M312.71 285.85c-5.45,-0.69 -10.94,-1.16 -16.42,-1.51 -19.26,-1.21 -38.59,-0.64 -57.85,-1.91 -9.53,-0.63 -19.04,-1.74 -28.39,-3.7 -4.45,-0.94 -9.15,-2.67 -13.76,-2.19 -3.75,0.39 -6.27,2.92 -8.94,5.32 -0.64,1.36 -1.27,2.73 -1.81,4.13 -1.34,3.48 -2.44,7.18 -2.97,10.87 -1.08,7.41 1.29,14.57 7.58,18.94 5.85,4.06 13.14,5.88 20.02,7.29 8.02,1.64 16.18,2.41 24.32,3.1 16.74,1.43 33.55,2.09 50.34,1.98 6.66,-0.04 14.67,0.69 20.67,-2.78 4.42,-2.56 6.45,-7.31 7.8,-12.01 1.43,-4.98 2.19,-10.13 3.89,-15.03 1.38,-4 3.32,-8.1 6.81,-10.43 -1.1,-0.41 -2.28,-0.65 -3.4,-0.86 -2.61,-0.48 -5.24,-0.88 -7.88,-1.21z"/>
     </g>
     <g>
      <g>
       <path class="fil7" d="M241.16 418.25c13.77,1.13 27.63,0.84 41.43,0.87 12.64,0.03 25.75,0.34 37.76,-4.21 22.9,-8.68 31.86,-34.47 32.97,-56.98 0.68,-13.96 -1.09,-27.82 -2.24,-41.7 -1.19,-14.4 -2.34,-28.8 -3.47,-43.2 -1.14,-14.4 -2.28,-28.8 -3.42,-43.2 -0.57,-7.2 -1.14,-14.4 -1.71,-21.6 -0.52,-6.58 -1.03,-13.22 -3,-19.56 -3.38,-10.87 -11.59,-19.34 -20.9,-25.51 -9.49,-6.29 -20.2,-10.82 -31.18,-13.77 -11.14,-2.99 -22.76,-4.3 -34.27,-3.26 -5.61,0.51 -11.17,1.65 -16.51,3.41 -2.09,0.69 -4.11,1.52 -6.11,2.41 -0.18,0.3 -0.43,0.56 -0.84,0.71 -5.1,1.83 -9.79,4.6 -13.97,8.03 -0.59,0.48 -1.13,1.01 -1.7,1.51 -2.76,2.67 -5.39,5.5 -7.9,8.46 -11.93,15.62 -16.02,36.16 -18.5,55.52 -1.78,13.92 -3.3,27.87 -5.37,41.76 -1.04,6.98 -2.15,13.94 -3.32,20.9 0.77,-2.08 1.68,-4.11 2.65,-6.08 5.88,-11.9 15.12,-12.24 27.03,-9.54 20.61,4.67 41.88,4.76 62.9,5.15 10.61,0.2 21.23,0.45 31.8,1.41 5.15,0.47 10.29,1.12 15.39,1.98 3.52,0.59 7.28,1.32 9.42,4.27 5.7,3.42 8.62,10.51 10.01,16.75 1.72,7.74 1.66,15.75 1.79,23.63 0.15,9.31 0.7,18.88 -0.26,28.17 -0.88,8.59 -4.32,15.83 -10.26,22.09 -2.95,3.1 -6.24,5.89 -9.69,8.42 -1.84,1.35 -3.77,2.61 -5.75,3.76 -0.3,0.18 -0.6,0.34 -0.9,0.49 -8.81,7.06 -23.1,7.35 -34.05,7.92 -10.14,0.54 -20.3,0.48 -30.43,-0.14 -8.94,-0.55 -17.98,-1.36 -26.71,-3.39 -7.93,-1.84 -15.68,-4.88 -22.16,-9.89 -6.29,-4.86 -11.09,-11.43 -14.33,-18.66 -3.54,-7.89 -5.33,-16.27 -6.02,-24.86 -0.39,-4.85 -0.44,-9.72 -0.28,-14.59 0.14,-4.17 0.24,-8.4 0.86,-12.54 -2.2,-3.65 -3.13,-7.77 -3.2,-11.94 -0.53,2.95 -1.03,5.92 -1.58,8.87 -4.74,25.23 -10.91,54.19 3.67,77.49 13.15,21.02 39.03,28.72 62.37,30.63zm74.03 -203.83l0 0c-1,3.95 -2.55,7.8 -4.49,11.39 -8.29,15.4 -23.77,25.32 -41.01,27.41 -17.23,2.09 -36.52,-3.75 -47.92,-17.29 -5.62,-6.67 -8.98,-15.05 -8.89,-23.83 0.04,-4.26 0.92,-8.49 2.66,-12.38 4.44,-9.92 30.2,-5.73 40.81,-5.8 12.32,-0.08 24.64,0.26 36.94,0.87 5.17,0.25 10.43,0.32 15.57,0.98 3.94,0.5 6.97,2.59 7.56,6.72 0.54,3.87 -0.29,8.19 -1.23,11.94z"/>
      </g>
     </g>
     <path class="fil8" d="M320.08 378.48c2.58,-2.12 5.07,-4.36 7.26,-6.87 5.44,-6.25 7.42,-13.51 7.73,-21.66 0.33,-8.68 0.15,-17.4 0.03,-26.08 -0.1,-6.93 -0.05,-13.99 -1.58,-20.78 -0.67,-2.97 -1.62,-5.88 -3.15,-8.53 -0.68,-1.17 -1.49,-2.22 -2.36,-3.22 -1.38,1.86 -2.77,3.75 -3.78,5.82 -1.29,2.65 -2.02,5.57 -2.73,8.42 -1.12,4.58 -2,9.35 -3.76,13.75 1.47,3.92 1.86,8.4 2.44,12.47 0.77,5.42 1.32,10.86 1.59,16.33 0.28,5.52 0.28,11.04 0.01,16.56 -0.22,4.59 -0.46,9.34 -1.7,13.79z"/>
     <g>
      <path class="fil7" d="M288.97 120.03c4.35,-4.6 11.01,-5.91 17.1,-5.22 6.17,0.71 13.32,2.75 17.34,7.81 3.02,3.81 2.02,9.78 3.95,13.95 0.32,0.7 5.84,8.14 6.39,6.05 0.84,-3.23 1.29,-6.71 1.53,-9.93 0.29,-4.09 0.06,-8.38 -1.75,-12.13 -3.27,-6.79 -10.7,-9.61 -17.56,-11.36 -7.61,-1.94 -16.19,-3.77 -23.86,-1.23 -6.72,2.23 -11.22,8.21 -13.12,14.84 -0.49,1.72 -0.84,3.48 -0.99,5.26 -0.13,1.51 0.08,3.06 -0.08,4.54 -0.04,0.42 -0.19,0.87 -0.41,1.3 2.69,-0.1 5.38,-0.11 8.05,-0.08 -1.82,-4.87 -0.17,-10.01 3.41,-13.81z"/>
     </g>
     <g>
      <path class="fil9" d="M333.12 152.02c3.92,2.67 7.59,5.7 10.91,8.99 7.36,7.29 12.87,16.1 16.89,25.6 4.59,10.85 6.61,22.42 7.43,34.13 0.48,7.01 0.54,14.02 0.46,21.03 0.02,-0.06 0.04,-0.12 0.06,-0.18 2.16,-6.52 4.49,-12.98 7,-19.37 4.42,-11.28 9.35,-22.37 14.8,-33.2 0.67,-1.34 1.36,-2.68 2.05,-4.01 0.66,-1.27 1.52,-2.59 1.83,-3.99 0.53,-2.4 -2.11,-4.79 -3.45,-6.55 -3.25,-4.24 -6.61,-8.4 -10.16,-12.4 -6.97,-7.85 -14.65,-15.16 -23.66,-20.64 -2.21,-1.34 -4.49,-2.54 -6.84,-3.62 -2.16,-0.99 -5.5,-3.07 -7.48,-0.91 -1.94,2.12 -3.28,5.04 -4.79,7.47 -1.61,2.6 -3.25,5.16 -5.05,7.64z"/>
     </g>
     <path class="fil10" d="M304.94 149.76c10.76,4.55 21.28,10.59 29.3,19.22 4,4.3 7.24,9.2 9.47,14.64 2.63,6.42 3.52,13.37 4.13,20.23 2.7,30.09 4.84,60.23 7.25,90.34 0.86,10.73 1.73,21.45 2.41,32.19 1.3,-0.87 2.76,-1.54 4.14,-2.11 2.51,-1.04 5.1,-1.67 7.78,-2.09 2.9,-0.45 5.8,-0.62 8.73,-0.7 1.3,-0.04 2.76,-0.02 4.04,0.36 -0.93,-8.12 -1.55,-16.28 -1.8,-24.46 -0.5,-16.11 0.76,-32.07 2.04,-48.11 0.19,-2.37 0.37,-4.76 0.54,-7.16 -2.36,4.77 -4.66,9.56 -6.85,14.41 -2.62,5.76 -4.9,11.68 -7.58,17.41 0.02,0.84 0.02,1.68 0.05,2.51 0.12,3.22 0.33,6.44 0.63,9.65 0.16,1.65 0.45,3.31 0.45,4.97 -0.01,1.45 -0.38,2.84 -0.74,4.24 -0.23,0.91 -1.45,0.99 -1.93,0.25 -0.99,-1.54 -1.8,-3.02 -2.14,-4.84 -0.31,-1.63 -0.42,-3.31 -0.57,-4.96 -0.32,-3.43 -0.51,-6.87 -0.62,-10.31 -0.23,-7.02 -0.11,-14.05 0.05,-21.07 0.27,-11.81 0.77,-23.68 -0.05,-35.47 -0.78,-11.22 -2.53,-22.9 -6.86,-33.35 -3.85,-9.29 -9.68,-17.53 -16.94,-24.48 -7.21,-6.91 -15.65,-11.98 -24.75,-15.98 -0.87,-0.38 -0.24,-1.77 0.64,-1.51 5.28,1.57 10.33,3.95 15.04,6.9 0.65,-1.32 1.35,-2.6 2.05,-3.89 -0.18,-0.24 -0.31,-0.52 -0.36,-0.81 -15.22,-6.08 -32.1,-8.53 -48.38,-8.47 -14.17,0.04 -28.81,1.5 -42.14,6.6 19.26,-5.19 41.34,-3.28 62.97,5.85z"/>
     <g>
      <path class="fil2" d="M314.07 325.77c-3.47,4.29 -8.42,6.82 -14.01,7.7 -8.08,1.27 -16.55,0.78 -24.7,0.67 -17.94,-0.24 -35.97,-1.18 -53.78,-3.37 -8.26,-1.02 -16.58,-2.39 -24.45,-5.17 -5.13,-1.81 -10.15,-4.36 -13.96,-8.23 -0.01,3.34 -0.17,6.7 -0.14,10.03 0.06,5 0.24,10.01 0.85,14.98 1.06,8.7 3.4,17.39 7.77,25.03 3.76,6.56 8.98,12.04 15.58,15.79 6.82,3.87 14.54,5.85 22.23,7.07 17.64,2.79 36.03,2.84 53.81,1.62 7.47,-0.51 15.74,-0.75 22.66,-3.95 3,-1.39 5.69,-3.42 7.4,-6.3 1.97,-3.32 2.63,-7.27 2.98,-11.06 0.8,-8.81 0.78,-17.74 0.16,-26.57 -0.33,-4.59 -0.83,-9.18 -1.54,-13.73 -0.23,-1.5 -0.54,-3 -0.84,-4.5z"/>
     </g>
     <g>
      <path class="fil9" d="M385.23 159.77c3.81,4.31 7.41,8.8 10.92,13.35 1.77,2.3 3.59,4.57 3.4,7.64 -0.19,3.11 -2.24,6.03 -3.62,8.73 -5.95,11.66 -11.31,23.62 -16.02,35.83 -2.36,6.1 -4.56,12.27 -6.6,18.49 -1,3.06 -1.97,6.13 -2.9,9.21 -0.59,1.95 -1.07,3.86 -1.9,5.6 -0.02,0.95 -0.01,1.89 -0.03,2.84 1.15,-2.59 2.33,-5.17 3.49,-7.74 2.73,-6.02 5.59,-11.99 8.57,-17.89 5.34,-10.57 11.07,-20.94 17.22,-31.06 1.5,-2.46 3.01,-4.91 4.55,-7.34 1.45,-2.3 3.49,-4.68 4.42,-7.24 0.92,-2.54 -1.61,-5.48 -2.82,-7.56 -1.47,-2.54 -2.96,-5.07 -4.47,-7.58 -6.2,-10.33 -12.62,-20.55 -19.41,-30.51 -1.71,-2.51 -3.45,-5.01 -5.21,-7.49 -1.44,-2.03 -2.91,-4.55 -5.37,-5.45 -4.56,-1.66 -9.3,2.06 -12.9,4.74 0.95,0.49 1.89,0.97 2.82,1.5 9.86,5.62 18.36,13.46 25.85,21.92z"/>
     </g>
     <path class="fil8" d="M382.96 328.1c-0.58,0.12 -1.19,0.06 -1.77,-0.36 -0.47,-0.34 -0.86,-0.47 -1.52,-0.47 -1.15,0.01 -2.3,0.02 -3.45,0.04 -2.3,0.05 -4.62,0.14 -6.91,0.34 -2.23,0.19 -4.47,0.56 -6.62,1.16 -1.7,0.48 -3.28,1.32 -4.93,1.9 0.16,2.73 0.32,5.46 0.44,8.2 0.63,13.86 0.5,28.1 -3.4,41.53 -2.83,9.74 -7.64,19.14 -14.6,26.59 4.31,-2.25 8.61,-4.54 12.87,-6.9 6.75,-3.75 14.06,-7.35 19.7,-12.73 10.56,-10.08 12.76,-25.34 12.18,-39.25 -0.28,-6.72 -1.15,-13.38 -2,-20.04z"/>
     <g>
      <g>
       <path class="fil11" d="M308.87 195.75c-5.13,-0.65 -10.4,-0.72 -15.57,-0.98 -12.3,-0.6 -24.62,-0.95 -36.94,-0.87 -10.61,0.07 -36.37,-4.11 -40.81,5.8 -1.74,3.89 -2.62,8.12 -2.66,12.38 -0.1,8.78 3.27,17.16 8.89,23.83 11.4,13.55 30.69,19.38 47.92,17.29 17.24,-2.09 32.72,-12.02 41.01,-27.41 1.93,-3.59 3.49,-7.43 4.49,-11.39 0.95,-3.75 1.78,-8.07 1.23,-11.94 -0.58,-4.13 -3.61,-6.22 -7.56,-6.72zm3.48 9.76l0 0c-0.24,3.59 -1.05,7.15 -2.17,10.56 -4.68,14.26 -16.31,25.72 -30.56,30.35 -15.12,4.91 -32.49,2.87 -45.81,-5.93 -6.99,-4.62 -12.77,-11.36 -15.14,-19.5 -1.22,-4.2 -1.62,-8.71 -0.92,-13.04 0.33,-2.02 0.88,-4.06 1.69,-5.95 0.43,-1 1.16,-2.79 2.16,-3.93 8.85,0.16 17.74,-0.36 26.59,-0.39 9.6,-0.03 19.19,0.09 28.78,0.38 9.45,0.29 18.89,0.77 28.32,1.42 1.71,0.12 3.89,0.01 5.43,0.88 1.85,1.04 1.73,3.3 1.6,5.15z"/>
      </g>
     </g>
     <g>
      <g>
       <path class="fil11" d="M187.6 404.05c9.22,7.48 20.27,12.47 31.75,15.35 14.02,3.51 28.57,4.15 42.96,4.3 7.31,0.08 14.63,0.09 21.94,0.12 6.56,0.03 13.14,0.06 19.69,-0.55 23.25,-2.18 44.56,-13.63 63.94,-25.82 6.4,-4.03 11.89,-9.01 15.62,-15.65 3.52,-6.25 5.4,-13.22 6.3,-20.29 2.19,-17.06 -2.06,-34.31 -3.32,-51.3 -1.28,-17.24 -0.79,-34.42 0.59,-51.64 0.74,-9.27 1.56,-18.6 1.76,-27.92 4.34,-8.19 8.91,-16.26 13.7,-24.2 1.65,-2.74 3.34,-5.46 5.04,-8.17 1.49,-2.36 3.49,-4.8 4.08,-7.6 0.67,-3.18 -0.88,-5.86 -2.42,-8.51 -1.63,-2.82 -3.29,-5.63 -4.98,-8.42 -6.63,-10.99 -13.75,-21.65 -21.2,-32.1 -2.11,-2.95 -4.21,-5.93 -6.41,-8.81 -1.77,-2.33 -3.91,-4.53 -6.91,-5.13 -5.92,-1.18 -11.81,3.15 -15.53,7.29 -0.04,0.04 -0.06,0.1 -0.09,0.15 -1.05,-0.5 -2.1,-0.99 -3.17,-1.44 -2.9,-1.21 -6.3,-2.69 -9.24,-0.77 -1.14,0.75 -2.04,1.82 -2.82,3.01 0.13,-1.22 0.24,-2.42 0.31,-3.59 0.54,-8.57 -2.07,-16.67 -9.38,-21.65 -6.9,-4.71 -16.22,-6.5 -24.37,-7.47 -8.69,-1.03 -17.78,0.43 -23.95,7.13 -2.91,3.16 -4.96,7.04 -6.15,11.16 -0.61,2.14 -0.98,4.35 -1.15,6.57 -0.04,0.52 -0.19,5.92 0.17,5.94 -0.08,-0 -0.14,0.04 -0.21,0.07 -9.74,0.57 -19.44,2.08 -28.6,5.05 -12.82,4.16 -24.61,11.46 -33.92,21.22 -11.21,10.23 -19.71,24.49 -24.02,42.79 -3.24,13.74 -4.58,27.77 -6.44,41.74 -1.99,14.94 -4.3,29.84 -6.83,44.7 -2.48,14.54 -5.71,28.98 -7.69,43.6 -1.82,13.45 -2.22,27.28 1.36,40.49 3.25,11.96 9.9,22.55 19.54,30.37zm185.17 -16.66l0 0c-5.63,5.38 -12.95,8.98 -19.7,12.73 -4.26,2.37 -8.55,4.65 -12.87,6.9 6.96,-7.45 11.77,-16.85 14.6,-26.59 3.9,-13.43 4.03,-27.67 3.4,-41.53 -0.12,-2.73 -0.28,-5.46 -0.44,-8.2 1.65,-0.58 3.23,-1.42 4.93,-1.9 2.16,-0.6 4.4,-0.97 6.62,-1.16 2.29,-0.2 4.61,-0.28 6.91,-0.34 1.15,-0.03 2.3,-0.04 3.45,-0.04 0.66,-0 1.05,0.13 1.52,0.47 0.57,0.42 1.19,0.49 1.77,0.36 0.85,6.66 1.72,13.32 2,20.04 0.58,13.91 -1.62,29.16 -12.18,39.25zm-3.31 -255.78l0 0c2.47,0.9 3.93,3.42 5.37,5.45 1.76,2.48 3.49,4.98 5.21,7.49 6.79,9.95 13.21,20.18 19.41,30.51 1.51,2.51 3,5.04 4.47,7.58 1.2,2.08 3.74,5.02 2.82,7.56 -0.93,2.57 -2.97,4.94 -4.42,7.24 -1.54,2.43 -3.06,4.88 -4.55,7.34 -6.14,10.12 -11.88,20.49 -17.22,31.06 -2.98,5.9 -5.84,11.87 -8.57,17.89 -1.16,2.57 -2.34,5.15 -3.49,7.74 0.01,-0.95 0.01,-1.89 0.03,-2.84 0.83,-1.74 1.3,-3.65 1.9,-5.6 0.94,-3.08 1.9,-6.15 2.9,-9.21 2.04,-6.22 4.24,-12.38 6.6,-18.49 4.71,-12.21 10.07,-24.17 16.02,-35.83 1.38,-2.7 3.43,-5.62 3.62,-8.73 0.19,-3.07 -1.63,-5.35 -3.4,-7.64 -3.51,-4.56 -7.1,-9.05 -10.92,-13.35 -7.49,-8.46 -15.99,-16.3 -25.85,-21.92 -0.93,-0.53 -1.88,-1.01 -2.82,-1.5 3.6,-2.68 8.34,-6.4 12.9,-4.74zm-26.5 5.3l0 0c1.98,-2.17 5.32,-0.08 7.48,0.91 2.35,1.08 4.63,2.28 6.84,3.62 9.01,5.48 16.68,12.79 23.66,20.64 3.55,3.99 6.91,8.15 10.16,12.4 1.34,1.75 3.98,4.14 3.45,6.55 -0.31,1.41 -1.18,2.73 -1.83,3.99 -0.69,1.33 -1.37,2.67 -2.05,4.01 -5.45,10.83 -10.38,21.92 -14.8,33.2 -2.51,6.39 -4.84,12.85 -7,19.37 -0.02,0.06 -0.04,0.12 -0.06,0.18 0.08,-7.01 0.03,-14.01 -0.46,-21.03 -0.81,-11.71 -2.84,-23.28 -7.43,-34.13 -4.02,-9.51 -9.52,-18.31 -16.89,-25.6 -3.32,-3.29 -6.99,-6.32 -10.91,-8.99 1.8,-2.48 3.44,-5.04 5.05,-7.64 1.51,-2.43 2.85,-5.35 4.79,-7.47zm-65.05 -4.28l0 0c0.16,-1.49 -0.05,-3.04 0.08,-4.54 0.15,-1.78 0.49,-3.54 0.99,-5.26 1.9,-6.63 6.4,-12.61 13.12,-14.84 7.68,-2.55 16.26,-0.71 23.86,1.23 6.85,1.74 14.29,4.57 17.56,11.36 1.81,3.75 2.05,8.04 1.75,12.13 -0.23,3.22 -0.68,6.69 -1.53,9.93 -0.55,2.09 -6.06,-5.35 -6.39,-6.05 -1.93,-4.17 -0.92,-10.14 -3.95,-13.95 -4.02,-5.06 -11.17,-7.1 -17.34,-7.81 -6.09,-0.7 -12.75,0.61 -17.1,5.22 -3.59,3.8 -5.24,8.94 -3.41,13.81 -2.68,-0.03 -5.36,-0.01 -8.05,0.08 0.21,-0.43 0.36,-0.87 0.41,-1.3zm44.48 6.19l0 0c-9.01,-2.55 -18.34,-4.09 -27.64,-4.66 -2.1,-0.13 -4.23,-0.18 -6.35,-0.24 -0.01,-0.02 0,-0.03 -0.01,-0.05 -1.67,-5.33 1.41,-11.25 6.18,-13.81 5.78,-3.1 12.96,-1.94 18.85,0.21 5.89,2.15 10.05,6.86 9.76,13.37 -0.07,1.6 -1.14,3.63 -0.79,5.18zm-38.27 -1.52l0 0c16.28,-0.05 33.15,2.39 48.38,8.47 0.05,0.29 0.18,0.57 0.36,0.81 -0.7,1.29 -1.41,2.57 -2.05,3.89 -4.71,-2.95 -9.76,-5.33 -15.04,-6.9 -0.88,-0.26 -1.51,1.13 -0.64,1.51 9.1,4 17.54,9.07 24.75,15.98 7.25,6.95 13.09,15.19 16.94,24.48 4.33,10.45 6.08,22.13 6.86,33.35 0.82,11.8 0.33,23.67 0.05,35.47 -0.16,7.02 -0.28,14.05 -0.05,21.07 0.11,3.44 0.31,6.88 0.62,10.31 0.15,1.65 0.27,3.33 0.57,4.96 0.34,1.82 1.15,3.3 2.14,4.84 0.48,0.74 1.69,0.66 1.93,-0.25 0.36,-1.4 0.73,-2.79 0.74,-4.24 0.01,-1.66 -0.29,-3.32 -0.45,-4.97 -0.31,-3.21 -0.51,-6.43 -0.63,-9.65 -0.03,-0.84 -0.03,-1.68 -0.05,-2.51 2.68,-5.73 4.96,-11.65 7.58,-17.41 2.2,-4.85 4.49,-9.64 6.85,-14.41 -0.17,2.4 -0.35,4.79 -0.54,7.16 -1.28,16.04 -2.54,32 -2.04,48.11 0.26,8.17 0.87,16.33 1.8,24.46 -1.27,-0.38 -2.74,-0.39 -4.04,-0.36 -2.93,0.08 -5.83,0.25 -8.73,0.7 -2.68,0.41 -5.28,1.05 -7.78,2.09 -1.38,0.57 -2.84,1.25 -4.14,2.11 -0.68,-10.74 -1.56,-21.46 -2.41,-32.19 -2.41,-30.11 -4.56,-60.26 -7.25,-90.34 -0.61,-6.86 -1.5,-13.81 -4.13,-20.23 -2.23,-5.44 -5.47,-10.34 -9.47,-14.64 -8.02,-8.63 -18.54,-14.68 -29.3,-19.22 -21.63,-9.14 -43.71,-11.04 -62.97,-5.85 13.33,-5.1 27.97,-6.55 42.14,-6.6zm-109 172.81l0 0c0.55,-2.95 1.05,-5.92 1.58,-8.87 0.07,4.17 1,8.28 3.2,11.94 -0.62,4.13 -0.72,8.36 -0.86,12.54 -0.16,4.86 -0.1,9.73 0.28,14.59 0.69,8.59 2.48,16.98 6.02,24.86 3.24,7.23 8.04,13.8 14.33,18.66 6.48,5.01 14.23,8.05 22.16,9.89 8.74,2.03 17.78,2.84 26.71,3.39 10.13,0.62 20.29,0.67 30.43,0.14 10.95,-0.58 25.24,-0.86 34.05,-7.92 0.3,-0.16 0.6,-0.32 0.9,-0.49 1.97,-1.15 3.9,-2.41 5.75,-3.76 3.44,-2.53 6.74,-5.32 9.69,-8.42 5.94,-6.25 9.37,-13.49 10.26,-22.09 0.96,-9.28 0.41,-18.85 0.26,-28.17 -0.13,-7.88 -0.07,-15.89 -1.79,-23.63 -1.39,-6.24 -4.3,-13.33 -10.01,-16.75 -2.14,-2.95 -5.91,-3.68 -9.42,-4.27 -5.1,-0.86 -10.24,-1.51 -15.39,-1.98 -10.57,-0.96 -21.19,-1.21 -31.8,-1.41 -21.02,-0.4 -42.29,-0.48 -62.9,-5.15 -11.91,-2.7 -21.15,-2.36 -27.03,9.54 -0.97,1.96 -1.88,4 -2.65,6.08 1.17,-6.96 2.28,-13.92 3.32,-20.9 2.07,-13.89 3.59,-27.84 5.37,-41.76 2.48,-19.37 6.57,-39.9 18.5,-55.52 2.51,-2.96 5.15,-5.78 7.9,-8.46 0.57,-0.5 1.1,-1.02 1.7,-1.51 4.19,-3.43 8.88,-6.19 13.97,-8.03 0.4,-0.15 0.66,-0.41 0.84,-0.71 2,-0.89 4.02,-1.72 6.11,-2.41 5.35,-1.77 10.9,-2.91 16.51,-3.41 11.51,-1.04 23.13,0.27 34.27,3.26 10.98,2.95 21.69,7.47 31.18,13.77 9.31,6.17 17.52,14.65 20.9,25.51 1.97,6.34 2.48,12.97 3,19.56 0.57,7.2 1.14,14.4 1.71,21.6 1.14,14.4 2.28,28.8 3.42,43.2 1.14,14.4 2.28,28.8 3.47,43.2 1.15,13.88 2.93,27.75 2.24,41.7 -1.1,22.51 -10.07,48.3 -32.97,56.98 -12.01,4.55 -25.12,4.24 -37.76,4.21 -13.8,-0.03 -27.66,0.26 -41.43,-0.87 -23.35,-1.91 -49.22,-9.61 -62.37,-30.63 -14.58,-23.31 -8.41,-52.26 -3.67,-77.49zm146.65 38.01l0 0c-0.27,-5.46 -0.82,-10.91 -1.59,-16.33 -0.58,-4.07 -0.97,-8.55 -2.44,-12.47 1.76,-4.4 2.64,-9.17 3.76,-13.75 0.7,-2.85 1.44,-5.77 2.73,-8.42 1.01,-2.08 2.4,-3.96 3.78,-5.82 0.87,1 1.68,2.04 2.36,3.22 1.53,2.64 2.49,5.56 3.15,8.53 1.53,6.8 1.48,13.86 1.58,20.78 0.13,8.68 0.31,17.4 -0.03,26.08 -0.31,8.15 -2.29,15.42 -7.73,21.66 -2.19,2.51 -4.68,4.75 -7.26,6.87 1.24,-4.45 1.48,-9.2 1.7,-13.79 0.26,-5.52 0.26,-11.04 -0.01,-16.56zm-4.59 -49.78l0 0c-1.69,4.9 -2.46,10.06 -3.89,15.03 -1.35,4.7 -3.38,9.46 -7.8,12.01 -6,3.47 -14.01,2.73 -20.67,2.78 -16.8,0.1 -33.6,-0.56 -50.34,-1.98 -8.14,-0.69 -16.3,-1.46 -24.32,-3.1 -6.88,-1.41 -14.17,-3.23 -20.02,-7.29 -6.29,-4.37 -8.65,-11.52 -7.58,-18.94 0.54,-3.69 1.63,-7.4 2.97,-10.87 0.54,-1.41 1.17,-2.77 1.81,-4.13 2.67,-2.4 5.19,-4.93 8.94,-5.32 4.61,-0.48 9.31,1.26 13.76,2.19 9.35,1.96 18.86,3.07 28.39,3.7 19.26,1.28 38.59,0.7 57.85,1.91 5.48,0.34 10.97,0.81 16.42,1.51 2.63,0.34 5.26,0.73 7.88,1.21 1.12,0.21 2.3,0.45 3.4,0.86 -3.49,2.33 -5.42,6.43 -6.81,10.43zm-0.89 72.21l0 0c-0.34,3.8 -1,7.74 -2.98,11.06 -1.71,2.87 -4.4,4.91 -7.4,6.3 -6.92,3.21 -15.19,3.44 -22.66,3.95 -17.78,1.22 -36.17,1.18 -53.81,-1.62 -7.69,-1.22 -15.41,-3.2 -22.23,-7.07 -6.6,-3.75 -11.82,-9.22 -15.58,-15.79 -4.38,-7.64 -6.71,-16.33 -7.77,-25.03 -0.61,-4.97 -0.79,-9.98 -0.85,-14.98 -0.04,-3.33 0.13,-6.68 0.14,-10.03 3.81,3.87 8.83,6.42 13.96,8.23 7.87,2.78 16.19,4.16 24.45,5.17 17.81,2.19 35.84,3.13 53.78,3.37 8.15,0.11 16.62,0.59 24.7,-0.67 5.59,-0.88 10.54,-3.41 14.01,-7.7 0.3,1.5 0.61,3 0.84,4.5 0.71,4.55 1.22,9.13 1.54,13.73 0.63,8.83 0.65,17.76 -0.16,26.57z"/>
      </g>
     </g>
     <path class="fil12" d="M386.52 197.5c-2.87,1.55 -5.98,2.54 -9.18,2.19 -4.77,-0.54 -8.78,-4.03 -11.31,-8.11 -2.53,-4.08 -3.88,-8.76 -5.52,-13.27 -2.72,-7.49 -6.3,-14.66 -10.66,-21.33 -3.58,-5.47 -7.79,-11.06 -8.89,-17.34 -0.98,1.57 -1.86,3.24 -2.8,4.75 -1.61,2.6 -3.25,5.16 -5.05,7.64 3.92,2.67 7.59,5.7 10.91,8.99 7.36,7.29 12.87,16.1 16.89,25.6 4.59,10.85 6.61,22.42 7.43,34.13 0.48,7.01 0.54,14.02 0.46,21.03 0.02,-0.06 0.04,-0.12 0.06,-0.18 2.16,-6.52 4.49,-12.98 7,-19.37 3.28,-8.36 6.83,-16.6 10.67,-24.72z"/>
     <path class="fil12" d="M391.57 198.31c-4.24,8.85 -8.13,17.87 -11.67,27.02 -2.36,6.1 -4.56,12.27 -6.6,18.49 -1,3.06 -1.97,6.13 -2.9,9.21 -0.59,1.95 -1.07,3.86 -1.9,5.6 -0.02,0.95 -0.01,1.89 -0.03,2.84 1.15,-2.59 2.33,-5.17 3.49,-7.74 2.73,-6.02 5.59,-11.99 8.57,-17.89 5.34,-10.57 11.07,-20.94 17.22,-31.06 1.5,-2.46 3.01,-4.91 4.55,-7.34 1.05,-1.65 2.39,-3.35 3.41,-5.13 -4.69,2.06 -9.41,4.06 -14.15,6.01z"/>
     <path class="fil8" d="M314.91 330.27c-0.23,-1.5 -0.54,-3 -0.84,-4.5 -3.47,4.29 -8.42,6.82 -14.01,7.7 -2.16,0.34 -4.35,0.55 -6.56,0.67 2.13,4.71 2.28,10.54 0.51,15.51 -2.8,7.86 -9.24,13.84 -15.93,18.82 -6.14,4.56 -12.73,8.59 -19.85,11.38 -17.78,6.96 -37.48,5.65 -55.97,-0.01 1.56,1.23 3.22,2.36 4.98,3.36 6.82,3.87 14.54,5.85 22.23,7.07 17.64,2.79 36.03,2.84 53.81,1.62 7.47,-0.51 15.74,-0.75 22.66,-3.95 3,-1.39 5.69,-3.42 7.4,-6.3 1.97,-3.32 2.63,-7.27 2.98,-11.06 0.8,-8.81 0.78,-17.74 0.16,-26.57 -0.33,-4.59 -0.83,-9.18 -1.54,-13.73z"/>
     <path class="fil13" d="M314.91 330.27c-0.23,-1.5 -0.54,-3 -0.84,-4.5 -1.79,2.22 -3.98,3.95 -6.45,5.24 1.57,18.65 -4.41,37.89 -16.45,52.24 -2.55,3.04 -5.35,5.86 -8.19,8.65 0.09,-0.01 0.19,-0.01 0.28,-0.02 7.47,-0.51 15.74,-0.75 22.66,-3.95 3,-1.39 5.69,-3.42 7.4,-6.3 1.97,-3.32 2.63,-7.27 2.98,-11.06 0.8,-8.81 0.78,-17.74 0.16,-26.57 -0.33,-4.59 -0.83,-9.18 -1.54,-13.73z"/>
     <path class="fil13" d="M333.51 303.09c-0.67,-2.97 -1.62,-5.88 -3.15,-8.53 -0.68,-1.17 -1.49,-2.22 -2.36,-3.22 -1.38,1.86 -2.77,3.75 -3.78,5.82 -0.32,0.66 -0.61,1.34 -0.87,2.03 7.44,21.82 7.63,46.05 0.51,67.98 -1.04,3.22 -2.23,6.39 -3.39,9.57 -0.13,0.58 -0.23,1.17 -0.39,1.74 2.58,-2.12 5.07,-4.36 7.26,-6.87 5.44,-6.25 7.42,-13.51 7.73,-21.66 0.33,-8.68 0.15,-17.4 0.03,-26.08 -0.1,-6.93 -0.05,-13.99 -1.58,-20.78z"/>
     <path class="fil13" d="M353.07 400.11c6.75,-3.75 14.06,-7.35 19.7,-12.73 10.56,-10.08 12.76,-25.34 12.18,-39.25 -0.28,-6.72 -1.15,-13.38 -2,-20.04 -0.58,0.12 -1.19,0.06 -1.77,-0.36 -0.47,-0.34 -0.86,-0.47 -1.52,-0.47 -1.15,0.01 -2.3,0.02 -3.45,0.04 -1.08,0.02 -2.16,0.06 -3.24,0.11 5.2,24.85 -3.13,52.31 -21.73,69.68 -3.14,2.93 -6.59,5.7 -9.29,8.98 3.72,-1.95 7.43,-3.92 11.11,-5.96z"/>
     <path class="fil14" d="M190.95 322.91c-2.86,-1.48 -5.54,-3.26 -7.79,-5.54 -0.01,3.34 -0.17,6.7 -0.14,10.03 0.06,5 0.24,10.01 0.85,14.98 1.06,8.7 3.4,17.39 7.77,25.03 2.29,4.01 5.14,7.6 8.5,10.65 -7.3,-17.02 -9.33,-36.38 -9.2,-55.15z"/>
     <path class="fil10" d="M310.18 216.06c1.12,-3.41 1.93,-6.97 2.17,-10.56 0.12,-1.85 0.25,-4.11 -1.6,-5.15 -1.55,-0.87 -3.72,-0.76 -5.43,-0.88 -4.98,-0.35 -9.97,-0.64 -14.96,-0.88 0.59,0.65 1.12,1.35 1.51,2.13 1.96,3.92 1.52,8.66 0.08,12.79 -2.86,8.17 -9.23,14.62 -16.03,19.98 -8.34,6.57 -18.2,12.12 -28.81,12.05 -1.33,-0.01 -2.67,-0.12 -4,-0.26 11.55,4.55 24.72,4.97 36.52,1.13 14.24,-4.63 25.88,-16.09 30.56,-30.35z"/>
     <path class="fil10" d="M312.71 285.85c-5.45,-0.69 -10.94,-1.16 -16.42,-1.51 -5.25,-0.33 -10.5,-0.52 -15.76,-0.66 1.95,2.99 2.74,6.82 2.26,10.4 -0.73,5.41 -3.86,10.23 -7.59,14.21 -8.93,9.55 -20.96,14.87 -33.73,18.4 14.42,1.04 28.88,1.56 43.34,1.47 6.66,-0.04 14.67,0.69 20.67,-2.78 4.42,-2.56 6.45,-7.31 7.8,-12.01 1.43,-4.98 2.19,-10.13 3.89,-15.03 1.38,-4 3.32,-8.1 6.81,-10.43 -1.1,-0.41 -2.28,-0.65 -3.4,-0.86 -2.61,-0.48 -5.24,-0.88 -7.88,-1.21z"/>
     <path class="fil15" d="M323.99 287.92c-1.1,-0.41 -2.28,-0.65 -3.4,-0.86 -2.61,-0.48 -5.24,-0.88 -7.88,-1.21 -2.87,-0.37 -5.75,-0.66 -8.64,-0.92 0.09,0.4 0.23,0.79 0.3,1.2 1.14,6.39 -0.6,12.99 -3.38,18.85 -4.22,8.89 -10.7,16.34 -17.87,23.17 0.57,-0 1.13,0.01 1.7,0.01 6.66,-0.04 14.67,0.69 20.67,-2.78 4.42,-2.56 6.45,-7.31 7.8,-12.01 1.43,-4.98 2.19,-10.13 3.89,-15.03 1.38,-4 3.32,-8.1 6.81,-10.43z"/>
     <path class="fil15" d="M284.95 244.29c11.77,-5.5 21.14,-15.8 25.22,-28.24 1.12,-3.41 1.93,-6.97 2.17,-10.56 0.12,-1.85 0.25,-4.11 -1.6,-5.15 -1.55,-0.87 -3.72,-0.76 -5.43,-0.88 -0.66,-0.05 -1.33,-0.07 -1.99,-0.12 -1.4,16.36 -7.98,32.22 -18.36,44.94z"/>
     <g>
      <path class="fil15" d="M368.54 273.93c0.02,0.84 0.02,1.68 0.05,2.51 0.12,3.22 0.33,6.44 0.63,9.65 0.16,1.65 0.45,3.31 0.45,4.97 -0.01,1.45 -0.38,2.84 -0.74,4.24 -0.1,0.38 -0.38,0.58 -0.7,0.67 0.56,8.71 1.11,17.43 1.67,26.14 2.74,-0.4 5.49,-0.57 8.26,-0.65 1.3,-0.04 2.76,-0.02 4.04,0.36 -0.93,-8.12 -1.55,-16.28 -1.8,-24.46 -0.5,-16.11 0.76,-32.07 2.04,-48.11 0.19,-2.37 0.37,-4.76 0.54,-7.16 -2.36,4.77 -4.66,9.56 -6.85,14.41 -2.62,5.76 -4.9,11.68 -7.58,17.41z"/>
      <path class="fil15" d="M326.14 147.41c1.67,0.81 3.28,1.72 4.88,2.65 0.59,-1.17 1.2,-2.32 1.83,-3.47 -0.18,-0.24 -0.31,-0.52 -0.36,-0.81 -6.5,-2.6 -13.31,-4.49 -20.23,-5.85 3.97,3.2 9.18,5.23 13.88,7.49z"/>
     </g>
     <path class="fil16" d="M236.99 239.81c-3.84,-4.08 -6.21,-9.31 -8.15,-14.57 -3.2,-8.69 -5.38,-18.13 -3.91,-27.19 -1.11,-0 -2.22,0.01 -3.32,-0.01 -1,1.14 -1.73,2.94 -2.16,3.93 -0.81,1.89 -1.36,3.92 -1.69,5.95 -0.71,4.34 -0.31,8.84 0.92,13.04 2.37,8.14 8.15,14.88 15.14,19.5 3.33,2.2 6.91,3.97 10.64,5.33 -2.67,-1.79 -5.27,-3.67 -7.46,-5.99z"/>
     <path class="fil16" d="M190.14 315.8c3.24,2.25 6.93,3.8 10.74,4.98 -0.86,-0.89 -1.68,-1.83 -2.41,-2.86 -2.51,-3.51 -4.05,-7.63 -5.09,-11.82 -1.54,-6.23 -2,-12.92 0.1,-18.98 1.45,-4.19 4.31,-7.99 8.02,-10.34 -1.74,-0.29 -3.47,-0.42 -5.2,-0.24 -3.75,0.39 -6.27,2.92 -8.94,5.32 -0.64,1.36 -1.27,2.73 -1.81,4.13 -1.34,3.48 -2.44,7.18 -2.97,10.87 -1.08,7.41 1.29,14.57 7.58,18.94z"/>
     <path class="fil17" d="M353.31 357.93c0.68,-13.96 -1.09,-27.82 -2.24,-41.7 -1.19,-14.4 -2.34,-28.8 -3.47,-43.2 -1.14,-14.4 -2.28,-28.8 -3.42,-43.2 -0.57,-7.2 -1.14,-14.4 -1.71,-21.6 -0.52,-6.58 -1.03,-13.22 -3,-19.56 -3.38,-10.87 -11.59,-19.34 -20.9,-25.51 -6.32,-4.19 -13.18,-7.58 -20.3,-10.26 9.01,12.21 13.28,27.95 11.43,43 3.52,0.68 6.17,2.74 6.71,6.57 0.54,3.87 -0.29,8.19 -1.23,11.94 -1,3.95 -2.55,7.8 -4.49,11.39 -8.29,15.4 -23.77,25.32 -41.01,27.41 -0.2,0.02 -0.41,0.03 -0.61,0.06 6.02,1.99 12.38,2.95 18.72,2.67 3.03,-0.13 6.28,-0.48 8.89,1.05 2.82,1.65 4.08,5.02 4.9,8.18 1.25,4.81 1.88,9.72 2.01,14.64 5.04,0.46 10.08,1.11 15.07,1.94 3.52,0.59 7.28,1.32 9.42,4.27 5.7,3.42 8.62,10.51 10.01,16.75 1.72,7.74 1.66,15.75 1.79,23.63 0.15,9.31 0.7,18.88 -0.26,28.17 -0.88,8.59 -4.32,15.83 -10.26,22.09 -2.95,3.1 -6.24,5.89 -9.69,8.42 -1.84,1.35 -3.77,2.61 -5.75,3.76 -0.3,0.18 -0.6,0.34 -0.9,0.49 -8.81,7.06 -23.1,7.35 -34.05,7.92 -10.14,0.54 -20.3,0.48 -30.43,-0.14 -8.94,-0.55 -17.98,-1.36 -26.71,-3.39 -7.93,-1.84 -15.68,-4.88 -22.16,-9.89 -0.12,-0.09 -0.23,-0.19 -0.34,-0.28 -4.04,4.95 -10.86,7.72 -17.55,8.32 13.83,17.82 37.68,24.6 59.38,26.38 13.77,1.13 27.63,0.84 41.43,0.87 12.64,0.03 25.75,0.34 37.76,-4.21 22.9,-8.68 31.86,-34.47 32.97,-56.98z"/>
     <path class="fil18" d="M351.07 316.22c-1.19,-14.4 -2.34,-28.8 -3.47,-43.2 -1.14,-14.4 -2.28,-28.8 -3.42,-43.2 -0.57,-7.2 -1.14,-14.4 -1.71,-21.6 -0.52,-6.58 -1.03,-13.22 -3,-19.56 -2.43,-7.83 -7.4,-14.4 -13.45,-19.78 8.95,24.59 8.21,52.54 9.08,79.15 0.56,17.05 1.92,34.1 2.02,51.14 0.38,1.2 0.71,2.41 0.98,3.58 1.72,7.74 1.66,15.75 1.79,23.63 0.15,9.31 0.7,18.88 -0.26,28.17 -0.88,8.59 -4.32,15.83 -10.26,22.09 -2.95,3.1 -6.24,5.89 -9.69,8.42 -1.84,1.35 -3.77,2.61 -5.75,3.76 -0.3,0.18 -0.6,0.34 -0.9,0.49 -1.06,0.85 -2.2,1.59 -3.39,2.25 -10.07,11.41 -22.67,20.47 -36.44,27.55 3.13,-0 6.26,-0.01 9.39,-0.01 12.64,0.03 25.75,0.34 37.76,-4.21 22.9,-8.68 31.86,-34.47 32.97,-56.98 0.68,-13.96 -1.09,-27.82 -2.24,-41.7z"/>
     <path class="fil19" d="M183.57 258.34c10.48,-22.53 8.9,-50.3 22.02,-71.69 3.58,-5.83 8.14,-10.98 12.83,-15.95 5.36,-5.68 10.97,-11.22 17.62,-15.32 5.33,-3.28 11.21,-5.57 17.17,-7.49 2.34,-0.76 4.7,-1.44 7.07,-2.08 -2.39,0.02 -4.77,0.11 -7.16,0.32 -5.61,0.51 -11.17,1.65 -16.51,3.41 -2.09,0.69 -4.11,1.52 -6.11,2.41 -0.18,0.3 -0.43,0.56 -0.84,0.71 -5.1,1.83 -9.79,4.6 -13.97,8.03 -0.59,0.48 -1.13,1.01 -1.7,1.51 -2.76,2.67 -5.39,5.5 -7.9,8.46 -11.93,15.62 -16.02,36.16 -18.5,55.52 -1.37,10.72 -2.6,21.46 -4.03,32.17z"/>
     <path class="fil17" d="M330.13 140.26c-0.09,-1.38 -0.18,-2.75 -0.27,-4.13 -0.27,-4.26 -0.56,-8.57 -1.88,-12.63 -0.88,-2.71 -2.27,-5.34 -4.48,-7.14 -2.49,-2.02 -5.75,-2.79 -8.88,-3.48 -4.54,-0.99 -9.13,-1.93 -13.77,-1.8 -4.64,0.13 -9.39,1.43 -12.91,4.45 -5.12,4.4 -6.74,11.51 -6.97,18.36 1.53,-0.02 3.07,-0.07 4.6,-0.05 -1.82,-4.87 -0.17,-10.01 3.41,-13.81 4.35,-4.6 11.01,-5.91 17.1,-5.22 6.17,0.71 13.32,2.75 17.34,7.81 3.02,3.81 2.02,9.78 3.95,13.95 0.15,0.32 1.41,2.08 2.77,3.68z"/>
     <path class="fil19" d="M332.1 121.67c1.2,1.64 2.16,3.44 3.11,5.25 -0.23,-2.19 -0.73,-4.35 -1.69,-6.35 -3.27,-6.79 -10.7,-9.61 -17.56,-11.36 -7.61,-1.94 -16.19,-3.77 -23.86,-1.23 -6.72,2.23 -11.22,8.21 -13.12,14.84 -0.29,1.01 -0.51,2.04 -0.69,3.08 3.16,-7.37 9.16,-13.52 16.54,-16.66 1.35,-0.58 2.77,-1.06 4.24,-1.15 1.23,-0.07 2.45,0.13 3.67,0.34 5.44,0.92 10.91,1.85 16.07,3.79 5.16,1.95 10.04,5 13.29,9.45z"/>
    </g>
    <path class="fil7" d="M435.86 320.31c-0.29,-0.76 -0.86,-1.24 -1.69,-1.28 -2.38,-0.12 -3.99,1.65 -4.79,3.73 -0.82,2.13 -0.13,5.21 -1.96,6.85 -2.73,2.45 -7.11,2.49 -8.26,6.61 -0.58,2.09 0.19,4.06 0.43,6.13 0.32,2.71 -2.27,2.78 -4.07,3.97 -3.68,2.43 -5.17,7.1 -4,11.28 0.6,2.15 3.79,1.24 3.32,-0.92 -0.46,-2.15 0.15,-4.35 1.53,-6.05 1.32,-1.64 3.39,-1.93 4.94,-3.23 1.62,-1.36 2.03,-3.25 1.8,-5.29 -0.2,-1.74 -1.24,-4.17 0.01,-5.7 1.02,-1.25 3.03,-1.74 4.43,-2.42 1.84,-0.9 3.4,-2.12 4.25,-4.03 0.89,-2.01 0.46,-4.74 1.84,-6.5 0.81,-1.03 2.8,-1.62 2.21,-3.15z"/>
    <path class="fil7" d="M171.17 195.44c-0.29,-0.76 -0.86,-1.24 -1.69,-1.28 -2.38,-0.12 -3.99,1.64 -4.79,3.73 -0.82,2.14 -0.13,5.21 -1.96,6.85 -2.73,2.45 -7.11,2.49 -8.26,6.61 -0.58,2.09 0.19,4.06 0.43,6.13 0.32,2.71 -2.27,2.78 -4.07,3.97 -3.68,2.43 -5.16,7.1 -4,11.28 0.6,2.14 3.79,1.24 3.32,-0.92 -0.47,-2.15 0.15,-4.35 1.53,-6.06 1.32,-1.64 3.39,-1.93 4.94,-3.23 1.62,-1.36 2.03,-3.25 1.8,-5.28 -0.2,-1.74 -1.24,-4.17 0.01,-5.71 1.02,-1.25 3.03,-1.74 4.43,-2.42 1.84,-0.9 3.4,-2.12 4.25,-4.03 0.89,-2.01 0.46,-4.74 1.84,-6.5 0.81,-1.03 2.8,-1.61 2.21,-3.15z"/>
    <path class="fil7" d="M281.04 86.84c-0.29,-0.76 -0.86,-1.24 -1.69,-1.28 -2.38,-0.12 -3.99,1.65 -4.79,3.73 -0.82,2.13 -0.13,5.21 -1.96,6.85 -2.73,2.45 -7.11,2.49 -8.26,6.61 -0.59,2.09 0.19,4.06 0.43,6.13 0.32,2.71 -2.27,2.78 -4.07,3.97 -3.68,2.43 -5.16,7.1 -4,11.28 0.6,2.14 3.79,1.24 3.32,-0.92 -0.47,-2.15 0.15,-4.35 1.53,-6.06 1.32,-1.64 3.39,-1.93 4.94,-3.23 1.62,-1.36 2.03,-3.25 1.8,-5.28 -0.19,-1.74 -1.24,-4.17 0.01,-5.7 1.02,-1.25 3.03,-1.74 4.43,-2.42 1.84,-0.9 3.4,-2.12 4.25,-4.03 0.89,-2.01 0.46,-4.74 1.84,-6.5 0.81,-1.03 2.8,-1.62 2.21,-3.15z"/>
    <path class="fil7" d="M234.2 436.09c-0.29,-0.76 -0.86,-1.24 -1.69,-1.28 -2.38,-0.12 -3.99,1.65 -4.79,3.73 -0.82,2.13 -0.13,5.21 -1.96,6.85 -2.73,2.45 -7.11,2.49 -8.26,6.61 -0.59,2.09 0.19,4.06 0.43,6.13 0.31,2.71 -2.27,2.78 -4.07,3.97 -3.68,2.43 -5.16,7.1 -4,11.28 0.6,2.14 3.79,1.24 3.32,-0.92 -0.47,-2.15 0.15,-4.35 1.53,-6.06 1.32,-1.64 3.39,-1.93 4.94,-3.23 1.62,-1.36 2.03,-3.25 1.8,-5.28 -0.2,-1.74 -1.25,-4.17 0.01,-5.7 1.02,-1.25 3.03,-1.74 4.43,-2.42 1.84,-0.9 3.4,-2.12 4.25,-4.03 0.89,-2.01 0.46,-4.74 1.84,-6.5 0.81,-1.03 2.8,-1.61 2.21,-3.15z"/>
    <g>
     <g>
      <path class="fil2" d="M190.15 164.19c0.43,0.2 0.86,0.41 1.28,0.64 0.13,0.07 1.32,0.68 0.69,0.38 0.46,0.21 0.83,0.67 0.98,1.19 1.69,0.74 1.25,3.58 1.18,5.08 -0.08,1.85 -0.16,3.69 -0.24,5.54 -0.03,0.8 -0.15,1.72 0.07,2.49 0.12,0.42 0.22,0.56 0.45,0.77 0.61,0.54 1.56,0.74 2.45,0.65 1.03,-0.1 2.23,-0.82 3.2,-1.67 1.12,-0.98 2.04,-2.21 2.95,-3.39 1.04,-1.37 2.04,-2.77 2.96,-4.22 0.91,-1.44 1.75,-2.92 2.82,-4.25 0.46,-0.57 1.24,-0.55 1.78,-0.19 1.05,-0.14 1.74,0.43 2.6,0.94 0.66,0.39 1.33,0.75 2.02,1.08 1.38,0.67 2.81,1.24 4.29,1.65 3.1,0.85 6.27,1.28 9.48,0.97 1.24,-0.12 2.18,-0.36 2.49,-1.69 0.32,-1.36 -0.39,-2.67 -1.17,-3.74 -1.02,-1.38 -2.29,-2.58 -3.59,-3.67 -1.34,-1.13 -2.95,-2.01 -3.83,-3.55 -0.07,-0.12 -0.09,-0.27 -0.12,-0.42 -0.85,-0.55 -1.16,-1.86 -0.47,-2.74 1.52,-1.93 2.93,-3.75 3.93,-6.01 0.85,-1.93 1.64,-4.33 1.51,-6.47 -0.04,-0.67 -0.17,-1.4 -0.88,-1.63 -0.9,-0.29 -2.07,0.22 -2.92,0.5 -1.45,0.48 -2.89,0.96 -4.34,1.44 -1.4,0.46 -2.99,1.22 -4.47,1.24 -0.74,0.01 -1.3,-0.49 -1.47,-1.09 -0.24,0.08 -0.49,0.1 -0.73,-0.02 -1.48,-0.74 -2.78,-2.12 -3.97,-3.25 -1.23,-1.16 -2.46,-2.33 -3.66,-3.52 -1.07,-1.06 -2.08,-2.21 -3.26,-3.16 -0.76,-0.61 -1.69,-1.2 -2.71,-0.93 -2.54,0.66 -2.86,4.22 -3.13,6.32 -0.21,1.66 -0.38,3.33 -0.56,4.99 -0.09,0.9 -0.19,1.8 -0.29,2.7 -0.04,0.42 -0.09,0.83 -0.13,1.25 -0,0.01 -0.01,0.06 -0.01,0.08 0.12,0.24 0.16,0.53 0.13,0.77 -0.03,0.29 -0.42,1.04 -0.3,0.59 -0.29,1.14 -1.29,1.98 -2.51,1.77 -0.27,-0.04 -0.48,-0.15 -0.68,-0.26 -2.29,0.62 -4.58,1.32 -6.75,2.27 -1.26,0.55 -2.47,1.2 -3.63,1.94 -1.09,0.7 -2.34,1.44 -3.09,2.48 -0.09,0.13 -0.18,0.29 -0.26,0.48 0,0 -0.01,0.03 -0.01,0.04 0.03,0.02 0.04,0.03 0.07,0.05 0.22,0.15 0.33,0.21 0.63,0.35 1.47,0.71 2.96,1.38 4.43,2.07 1.51,0.7 3.01,1.4 4.52,2.11 0.75,0.35 1.51,0.7 2.26,1.05z"/>
     </g>
     <path class="fil3" d="M188.61 168.4c0.41,0.2 0.86,0.4 1.32,0.54 -0.1,0.9 -0.07,1.85 -0.09,2.51l-0.2 5.54c-0.07,1.81 -0.07,3.57 0.87,5.2 0.64,1.1 1.67,1.96 2.82,2.47 2.64,1.17 5.56,0.64 7.92,-0.92 2.46,-1.63 4.21,-4.26 5.79,-6.69 1.16,-1.79 2.32,-3.67 3.19,-5.66 0.27,0.2 0.57,0.38 0.91,0.59 0.88,0.52 1.78,0.99 2.71,1.4 1.91,0.86 3.93,1.52 5.97,1.97 2.04,0.46 4.15,0.59 6.24,0.61 1.96,0.03 4.23,0.01 6.06,-0.79 4.21,-1.83 4.02,-7.08 1.87,-10.39 -1.16,-1.8 -2.82,-3.36 -4.44,-4.74 -1.15,-0.98 -2.34,-1.91 -3.69,-2.45 1.48,-1.72 2.64,-3.85 3.47,-5.91 0.85,-2.1 1.52,-4.35 1.76,-6.61 0.23,-2.26 -0.17,-4.77 -2.33,-5.97 -2.11,-1.17 -4.58,-0.2 -6.67,0.51 -1.29,0.44 -2.58,0.87 -3.86,1.31 -1.27,0.43 -2.72,0.78 -3.84,1.55 -0.86,-1.74 -2.45,-3.27 -3.72,-4.7 -1.32,-1.49 -2.66,-2.95 -4.03,-4.39 -2.23,-2.34 -4.88,-4.75 -8.37,-3.74 -3.44,0.99 -5.04,4.48 -5.69,7.7 -0.37,1.83 -0.65,3.68 -0.93,5.52 -0.25,1.66 -0.51,3.36 -0.65,5.04 -2.55,0.18 -5.02,0.82 -7.43,1.82 -2.67,1.11 -5.51,2.57 -7.62,4.59 -2.19,2.1 -3.15,5.66 -0.34,7.76 1.23,0.92 2.75,1.48 4.14,2.13l4.52 2.13c1.45,0.68 2.9,1.37 4.35,2.05zm-9.67 -9.43l0 0c-0.31,-0.15 -0.41,-0.21 -0.63,-0.35 -0.04,-0.02 -0.04,-0.03 -0.07,-0.05 0,-0.01 0.01,-0.04 0.01,-0.04 0.08,-0.19 0.17,-0.35 0.26,-0.48 0.75,-1.04 2,-1.78 3.09,-2.48 1.16,-0.74 2.37,-1.39 3.63,-1.94 2.17,-0.95 4.46,-1.65 6.75,-2.27 0.2,0.11 0.42,0.22 0.68,0.26 1.22,0.21 2.22,-0.63 2.51,-1.77 -0.12,0.45 0.27,-0.3 0.3,-0.59 0.03,-0.25 -0.02,-0.54 -0.13,-0.77 0,-0.02 0.01,-0.07 0.01,-0.08 0.04,-0.42 0.09,-0.83 0.13,-1.25 0.1,-0.9 0.19,-1.8 0.29,-2.7 0.17,-1.66 0.35,-3.33 0.56,-4.99 0.26,-2.1 0.59,-5.66 3.13,-6.32 1.01,-0.26 1.95,0.32 2.71,0.93 1.17,0.95 2.19,2.1 3.26,3.16 1.21,1.19 2.43,2.36 3.66,3.52 1.19,1.13 2.49,2.51 3.97,3.25 0.24,0.12 0.49,0.1 0.73,0.02 0.18,0.6 0.73,1.1 1.47,1.09 1.48,-0.02 3.07,-0.77 4.47,-1.24 1.44,-0.48 2.89,-0.96 4.34,-1.44 0.84,-0.28 2.02,-0.79 2.92,-0.5 0.71,0.23 0.83,0.96 0.88,1.63 0.14,2.14 -0.65,4.54 -1.51,6.47 -1,2.26 -2.41,4.08 -3.93,6.01 -0.69,0.87 -0.38,2.18 0.47,2.74 0.03,0.14 0.05,0.29 0.12,0.42 0.88,1.55 2.49,2.43 3.83,3.55 1.31,1.1 2.58,2.3 3.59,3.67 0.78,1.06 1.49,2.37 1.17,3.74 -0.31,1.33 -1.24,1.57 -2.49,1.69 -3.21,0.31 -6.38,-0.11 -9.48,-0.97 -1.48,-0.41 -2.91,-0.98 -4.29,-1.65 -0.69,-0.33 -1.36,-0.69 -2.02,-1.08 -0.87,-0.51 -1.56,-1.08 -2.6,-0.94 -0.53,-0.36 -1.32,-0.38 -1.78,0.19 -1.07,1.33 -1.91,2.81 -2.82,4.25 -0.92,1.45 -1.92,2.86 -2.96,4.22 -0.9,1.18 -1.83,2.4 -2.95,3.39 -0.97,0.85 -2.17,1.57 -3.2,1.67 -0.89,0.09 -1.84,-0.11 -2.45,-0.65 -0.23,-0.21 -0.34,-0.35 -0.45,-0.77 -0.21,-0.78 -0.1,-1.7 -0.07,-2.49 0.08,-1.85 0.16,-3.69 0.24,-5.54 0.06,-1.5 0.51,-4.34 -1.18,-5.08 -0.16,-0.51 -0.53,-0.97 -0.98,-1.19 0.63,0.3 -0.56,-0.32 -0.69,-0.38 -0.42,-0.23 -0.84,-0.43 -1.28,-0.64 -0.75,-0.35 -1.51,-0.7 -2.26,-1.05 -1.51,-0.7 -3.01,-1.41 -4.52,-2.11 -1.48,-0.69 -2.97,-1.35 -4.43,-2.07z"/>
     <g>
      <path class="fil4" d="M196.79 180.92c0.08,-0 0.15,0.02 0.23,0.01 1.03,-0.1 2.23,-0.82 3.2,-1.67 1.12,-0.98 2.04,-2.21 2.95,-3.39 1.04,-1.37 2.04,-2.77 2.96,-4.22 0.91,-1.44 1.75,-2.92 2.82,-4.25 0.46,-0.57 1.24,-0.55 1.78,-0.19 0.48,-0.06 0.89,0.03 1.27,0.19 -0.64,-0.63 -1.3,-1.23 -2.07,-1.7 -1.7,-1.06 -4.04,-1.44 -5.64,-0.24 -0.81,0.6 -1.32,1.52 -1.78,2.41 -1.65,3.15 -3.09,6.41 -4.3,9.75 -0.41,1.12 -0.8,2.28 -1.41,3.29z"/>
      <path class="fil4" d="M195.17 149.85c-0.02,0.06 -0.06,0.12 -0.08,0.18 0.45,-0.09 0.89,-0.17 1.34,-0.26 1.26,-0.24 2.57,-0.51 3.55,-1.33 2.17,-1.83 1.63,-5.25 0.9,-7.99 -0.63,-2.37 -1.27,-4.73 -1.9,-7.1 -2.09,0.97 -2.41,4.15 -2.66,6.11 -0.21,1.66 -0.38,3.33 -0.56,4.99 -0.09,0.9 -0.19,1.8 -0.29,2.7 -0.04,0.42 -0.09,0.83 -0.13,1.25 -0,0.01 -0.01,0.06 -0.01,0.08 0.12,0.24 0.16,0.53 0.13,0.77 -0.03,0.29 -0.42,1.04 -0.3,0.59z"/>
      <path class="fil4" d="M187.89 163.14c0.75,0.35 1.51,0.7 2.26,1.05 0.43,0.2 0.86,0.41 1.28,0.64 0.13,0.07 1.32,0.68 0.69,0.38 0.46,0.21 0.83,0.67 0.98,1.19 0.28,0.12 0.48,0.31 0.65,0.53 0.29,-1.15 0.54,-2.31 0.72,-3.48 0.12,-0.75 0.22,-1.55 -0.05,-2.27 -0.66,-1.74 -2.94,-2.06 -4.81,-2.14 -3.73,-0.15 -7.45,-0.47 -11.14,-0.95 -0.08,0.12 -0.16,0.26 -0.23,0.43 0,0 -0.01,0.03 -0.01,0.04 0.03,0.02 0.04,0.03 0.07,0.05 0.22,0.15 0.33,0.21 0.63,0.35 1.47,0.71 2.96,1.38 4.43,2.07 1.51,0.7 3.01,1.4 4.52,2.11z"/>
      <path class="fil4" d="M215.24 145.11c-0.34,0.01 -0.63,-0.11 -0.87,-0.27 0.37,1.18 0.94,2.29 1.77,3.24 0.38,0.43 0.84,0.85 1.41,0.93 0.65,0.1 1.27,-0.24 1.83,-0.58 2.87,-1.77 5.5,-3.92 7.86,-6.33 -0.09,-0.06 -0.16,-0.13 -0.28,-0.17 -0.9,-0.29 -2.07,0.22 -2.92,0.5 -1.45,0.48 -2.89,0.96 -4.34,1.44 -1.4,0.46 -2.99,1.22 -4.47,1.24z"/>
      <path class="fil4" d="M222.99 159.19c-0.07,-0.12 -0.09,-0.27 -0.12,-0.42 -0.4,-0.26 -0.67,-0.7 -0.78,-1.18 -0.58,0.54 -1.12,1.11 -1.57,1.77 -1.17,1.73 -1.6,4.15 -0.43,5.87 1.38,2.02 4.19,2.26 6.59,2.7 1.7,0.31 3.36,0.85 4.95,1.55 0,-1.12 -0.56,-2.18 -1.22,-3.07 -1.02,-1.38 -2.29,-2.58 -3.59,-3.67 -1.34,-1.13 -2.95,-2.01 -3.83,-3.55z"/>
     </g>
     <path class="fil5" d="M206.68 141.47c-0.04,-0.21 -0.1,-0.41 -0.16,-0.61 -0.1,-0.35 -0.37,-0.63 -0.64,-0.87 -0.16,-0.14 -0.32,-0.29 -0.46,-0.44 0.1,0.11 0.21,0.22 0.31,0.32 -0.17,-0.18 -0.34,-0.35 -0.51,-0.52 -0.15,-0.16 -0.3,-0.33 -0.44,-0.5 -0.07,-0.09 -0.14,-0.18 -0.21,-0.28 -0.15,-0.21 -0.3,-0.38 -0.48,-0.57 0.09,0.1 0.19,0.19 0.28,0.29 -0.53,-0.56 -1.22,-1.6 -2.13,-1.22 -0.76,0.32 -0.85,1.32 -0.75,2.03 0.04,0.32 0.1,0.64 0.23,0.94 0.12,0.26 0.25,0.5 0.39,0.75 0.28,0.49 0.56,0.94 0.95,1.35 0.19,0.2 0.39,0.4 0.6,0.58 0.46,0.4 1.07,0.54 1.67,0.48 0.8,-0.08 1.5,-0.92 1.35,-1.73z"/>
     <path class="fil5" d="M208.97 145.22c0.01,-0.31 0.02,-0.55 -0.09,-0.84 -0.08,-0.2 -0.17,-0.43 -0.3,-0.6 -0.07,-0.09 -0.14,-0.17 -0.2,-0.25 -0.17,-0.21 -0.36,-0.42 -0.62,-0.52 -0.14,-0.06 -0.29,-0.09 -0.44,-0.13l-0.35 -0c-0.17,0.01 -0.33,0.07 -0.47,0.16 -0.1,0.04 -0.19,0.11 -0.26,0.2 -0.13,0.11 -0.23,0.24 -0.29,0.4 -0.01,0.02 -0.01,0.03 -0.02,0.05 -0.04,0.11 -0.1,0.28 -0.11,0.39 -0,0.12 -0,0.25 -0.01,0.37l0.09 0.35c0.01,0.03 0.02,0.06 0.02,0.08 0.03,0.11 0.06,0.21 0.09,0.32 0.04,0.12 0.13,0.26 0.2,0.36 0.01,0.02 0.03,0.05 0.05,0.07 0.03,0.04 0.05,0.09 0.08,0.13 0.04,0.06 0.09,0.12 0.15,0.16 0.04,0.05 0.09,0.1 0.14,0.15 0.02,0.02 0.04,0.03 0.07,0.04 0.04,0.03 0.09,0.06 0.13,0.09 0.19,0.15 0.4,0.24 0.64,0.28 0.24,0.04 0.47,0.01 0.69,-0.08 0.21,-0.09 0.39,-0.22 0.54,-0.4 0.15,-0.19 0.24,-0.4 0.28,-0.64l0.01 -0.14z"/>
     <path class="fil5" d="M190.02 154.96c0.05,-0.25 -0.12,-0.49 -0.33,-0.6 -0.05,-0.03 -0.29,-0.1 -0.15,-0.05 0.1,0.03 -0.03,-0.01 -0.04,-0.01 0.1,0.08 0.21,0.17 0.31,0.25 -0.18,-0.23 -0.38,-0.35 -0.65,-0.43 -0.33,-0.1 -0.36,-0.12 -0.7,-0.1 -0.08,0 -0.16,0 -0.24,0.01 -0.29,0.02 -0.58,0.11 -0.87,0.16 -0.39,0.07 -0.8,0.19 -1.15,0.37 -0.27,0.14 -0.55,0.26 -0.84,0.37 -0.46,0.17 -0.81,0.73 -0.72,1.22 0.08,0.49 0.46,0.97 0.99,1.01 0.81,0.07 1.68,0.17 2.45,-0.16 0.36,-0.15 0.77,-0.31 1.08,-0.55 0.39,-0.29 0.76,-0.76 0.79,-1.27 0.03,-0.07 0.06,-0.14 0.07,-0.21z"/>
     <path class="fil5" d="M199.44 169.01c0.02,-0.2 0.06,-0.4 0.09,-0.6 0.05,-0.32 0.01,-0.66 0.01,-0.99 0,0.13 -0,0.25 -0,0.38 0,-0.17 0.02,-0.34 0.01,-0.51 -0.01,-0.16 -0.07,-0.32 -0.12,-0.48 -0.04,-0.11 -0.07,-0.21 -0.09,-0.32 0.02,0.07 0.04,0.14 0.05,0.2 -0.09,-0.35 -0.24,-0.65 -0.6,-0.8 -0.33,-0.15 -0.73,-0.1 -1.01,0.11 -0.1,0.08 -0.2,0.16 -0.31,0.24 -0.27,0.21 -0.42,0.43 -0.59,0.72 -0.08,0.13 -0.16,0.27 -0.23,0.41 -0.12,0.23 -0.17,0.49 -0.23,0.75 -0.09,0.34 -0.18,0.69 -0.18,1.04 -0,0.21 0.01,0.4 0.04,0.6 0.07,0.48 0.26,0.81 0.63,1.14 0.23,0.2 0.54,0.28 0.83,0.29 0.31,0 0.56,-0.08 0.83,-0.26 0.35,-0.23 0.53,-0.58 0.67,-0.96 0.07,-0.21 0.15,-0.42 0.17,-0.63 0.01,-0.11 0.02,-0.22 0.03,-0.34z"/>
     <g>
      <path class="fil5" d="M217.45 166c0.05,0.01 0.1,0.03 0.15,0.04 0.03,0 0.05,0 0.08,0 -0.08,-0.01 -0.15,-0.02 -0.23,-0.04z"/>
      <path class="fil5" d="M220.01 167.01c-0.21,-0.29 -0.5,-0.44 -0.82,-0.53 0,0 0,0 0,0 -0.14,-0.04 -0.26,-0.1 -0.39,-0.17 -0.28,-0.14 -0.58,-0.12 -0.87,-0.2 0.07,0.02 0.13,0.04 0.2,0.06 -0.28,-0.09 -0.55,-0.16 -0.85,-0.12 0.1,0 0.2,0 0.3,0 -0.48,-0.15 -0.98,-0.09 -1.36,0.27 -0.17,0.17 -0.28,0.35 -0.34,0.58 -0.05,0.11 -0.07,0.23 -0.05,0.34 -0.02,0.18 0.01,0.34 0.08,0.51 0.12,0.44 0.38,0.85 0.74,1.13 0.5,0.39 1.1,0.67 1.75,0.59 0.23,-0.03 0.46,-0.1 0.68,-0.16 0.21,-0.06 0.43,-0.16 0.6,-0.3 0.3,-0.24 0.53,-0.56 0.59,-0.95 0.06,-0.36 -0.04,-0.75 -0.26,-1.03z"/>
      <path class="fil5" d="M217.66 166.05c-0.01,-0.01 -0.03,0 -0.04,-0 0.06,0.02 0.13,0.04 0.19,0.05 -0.05,-0.01 -0.1,-0.03 -0.15,-0.05z"/>
      <path class="fil5" d="M217.61 166.04c-0.01,0 -0.02,0 -0.02,0 0.01,0.01 0.02,0 0.04,0.01 -0,-0 -0.01,-0 -0.01,-0.01z"/>
     </g>
     <path class="fil5" d="M225.58 149.21c0.05,-0.31 -0.01,-0.63 -0.2,-0.88 -0.01,-0.01 -0.02,-0.02 -0.03,-0.04 -0.19,-0.22 -0.17,-0.2 -0.37,-0.32 -0.05,-0.04 -0.1,-0.07 -0.16,-0.09 -0.11,-0.03 -0.22,-0.06 -0.33,-0.09 -0.07,-0.02 -0.14,-0.03 -0.21,-0.04 -0.12,-0.01 -0.31,-0.02 -0.43,-0 -0.01,0 -0.03,0.01 -0.04,0.01 -0.16,0.04 -0.31,0.08 -0.47,0.12 -0.02,0.01 -0.05,0.01 -0.07,0.02 -0.11,0.04 -0.26,0.14 -0.37,0.21 -0.04,0.02 -0.08,0.05 -0.12,0.08 -0.17,0.12 -0.32,0.29 -0.47,0.43 -0.03,0.03 -0.06,0.06 -0.09,0.09 -0.05,0.06 -0.09,0.12 -0.12,0.19 -0.05,0.06 -0.09,0.13 -0.12,0.2 -0.01,0.02 -0.02,0.04 -0.02,0.06 -0.04,0.1 -0.07,0.21 -0.1,0.32 -0.04,0.07 -0.06,0.15 -0.06,0.23 -0,0.14 -0,0.29 -0.01,0.43 0,0.02 0,0.04 0,0.06 0.01,0.08 0.02,0.16 0.04,0.24 0.03,0.12 0.06,0.24 0.09,0.36l0.18 0.32 0.26 0.27c0.15,0.13 0.32,0.21 0.51,0.25 0.12,0.05 0.25,0.07 0.38,0.06 0.13,0.02 0.25,0 0.37,-0.04 0.13,-0.01 0.24,-0.06 0.34,-0.14 0.17,-0.08 0.31,-0.19 0.43,-0.35 0.05,-0.06 0.1,-0.12 0.16,-0.18 -0.1,0.09 -0.19,0.18 -0.29,0.28 0.12,-0.12 0.27,-0.23 0.37,-0.37 0.03,-0.04 0.06,-0.09 0.1,-0.13 0.09,-0.12 0.15,-0.24 0.21,-0.37 0.01,-0.02 0.03,-0.04 0.04,-0.06 0.11,-0.14 0.2,-0.31 0.29,-0.47 -0.07,0.11 -0.13,0.22 -0.2,0.33 0.09,-0.15 0.2,-0.29 0.28,-0.45 0.02,-0.05 0.04,-0.09 0.07,-0.13 -0.06,0.1 -0.12,0.19 -0.18,0.29 0.15,-0.24 0.27,-0.41 0.31,-0.7z"/>
    </g>
   </g>
  </g>
 </g>
</svg>
