<?xml version="1.0" encoding="UTF-8"?>
<!DOCTYPE svg PUBLIC "-//W3C//DTD SVG 1.1//EN" "http://www.w3.org/Graphics/SVG/1.1/DTD/svg11.dtd">
<!-- Creator: CorelDRAW 2021 (64-Bit) -->
<svg xmlns="http://www.w3.org/2000/svg" xml:space="preserve" width="1.1811in" height="1.1811in" version="1.1" style="shape-rendering:geometricPrecision; text-rendering:geometricPrecision; image-rendering:optimizeQuality; fill-rule:evenodd; clip-rule:evenodd"
viewBox="0 0 268.35 268.35"
 xmlns:xlink="http://www.w3.org/1999/xlink"
 xmlns:xodm="http://www.corel.com/coreldraw/odm/2003">
 <defs>
  <style type="text/css">
   <![CDATA[
    .fil0 {fill:none}
    .fil5 {fill:#7E4F1A;fill-rule:nonzero}
    .fil4 {fill:#D6802B;fill-rule:nonzero}
    .fil1 {fill:#D8F2A0;fill-rule:nonzero}
    .fil2 {fill:#DF9E2F;fill-rule:nonzero}
    .fil3 {fill:#EDC32F;fill-rule:nonzero}
    .fil6 {fill:#FBE44F;fill-rule:nonzero}
   ]]>
  </style>
 </defs>
 <g id="Layer_x0020_1">
  <metadata id="CorelCorpID_0Corel-Layer"/>
  <g id="_2940254306288">
   <rect class="fil0" width="268.35" height="268.35"/>
   <g>
    <path class="fil1" d="M232.57 134.18c0,8.39 -10.26,15.32 -12.33,23.07 -2.14,8.01 3.22,19.13 -0.84,26.14 -4.12,7.11 -16.46,8.01 -22.24,13.78 -5.77,5.77 -6.67,18.12 -13.78,22.24 -7.01,4.06 -18.13,-1.3 -26.14,0.84 -7.74,2.07 -14.67,12.33 -23.06,12.33 -8.39,0 -15.33,-10.26 -23.07,-12.33 -8.01,-2.14 -19.13,3.22 -26.14,-0.84 -7.11,-4.12 -8.01,-16.46 -13.78,-22.24 -5.77,-5.77 -18.12,-6.67 -22.24,-13.78 -4.06,-7.01 1.3,-18.13 -0.84,-26.14 -2.07,-7.74 -12.33,-14.67 -12.33,-23.06 0,-8.39 10.26,-15.33 12.33,-23.07 2.14,-8.01 -3.22,-19.13 0.84,-26.14 4.11,-7.11 16.46,-8.01 22.24,-13.78 5.77,-5.77 6.67,-18.12 13.78,-22.24 7.01,-4.06 18.13,1.3 26.14,-0.84 7.74,-2.07 14.67,-12.33 23.07,-12.33 8.39,0 15.33,10.26 23.07,12.33 8.01,2.14 19.13,-3.22 26.14,0.84 7.11,4.12 8.01,16.46 13.78,22.24 5.77,5.77 18.12,6.67 22.24,13.78 4.06,7.01 -1.3,18.13 0.84,26.14 2.07,7.74 12.33,14.67 12.33,23.07z"/>
    <g>
     <path class="fil2" d="M107.21 78.21c1.25,0.41 2.52,0.8 3.78,1.16 4.93,1.41 9.98,2.47 15.07,3.15 9.05,1.21 18.3,1.33 27.36,0.19 3.75,-0.47 8.84,-1.18 11.21,-4.46 1.18,-1.63 0.84,-3.24 -0.57,-4.58 -1.46,-1.39 -3.6,-1.93 -5.52,-2.44 -2.12,-0.57 -4.34,-0.65 -6.52,-0.75 -2.33,-0.1 -4.66,-0.16 -6.99,-0.17 -4.67,-0.04 -9.35,0.1 -14.01,0.44 -7.85,0.57 -15.62,1.82 -23.28,3.58 -0.37,0.14 -0.75,0.28 -1.12,0.43 -0.72,0.29 -2.73,0.91 -2.31,1.93 0.39,0.95 2.02,1.25 2.89,1.53z"/>
     <path class="fil2" d="M151.52 190.06c-4.31,0.36 -8.67,0.36 -13,0.35 -4.7,-0.01 -9.38,-0.2 -14.04,-0.84 -4.43,-0.61 -9.07,-1.22 -13.19,-3.04 -1.23,-0.54 -2.39,-1.38 -3.29,-2.41 0.17,1.93 0.35,3.87 0.67,5.78 0.27,1.61 0.83,2.78 2.3,3.55 1.34,0.71 2.74,1.3 4.16,1.84 10.43,4.02 22.25,5.01 33.23,2.98 2.79,-0.52 5.54,-1.22 8.23,-2.13 2.47,-0.83 5.02,-1.73 7.22,-3.15 2.28,-1.47 3.57,-3.67 3.86,-6.35 0.1,-0.94 0.08,-1.89 0.03,-2.83 -1.34,1.43 -3.09,2.57 -4.69,3.38 -3.57,1.8 -7.54,2.52 -11.49,2.85z"/>
     <g>
      <path class="fil3" d="M176.71 121.86c1.22,-0.32 2.43,-0.73 3.58,-1.26 2.44,-1.12 4.69,-2.61 6.67,-4.42 8.11,-7.4 10.66,-18.72 8.79,-29.29 -0.49,-2.78 -1.24,-5.55 -2.29,-8.17 -0.9,-2.23 -2.2,-4.73 -4.51,-5.75 -2.45,-1.08 -5.38,-0.36 -7.57,0.99 -2.12,1.31 -3.76,3.2 -5.36,5.09 0.11,0.88 0.2,1.79 0.22,2.76 0.03,1.22 0.06,2.44 0.09,3.66 1.29,-2.78 4.76,-4.7 7.62,-4.91 2.07,-0.15 3.7,0.94 4.49,2.83 0.86,2.03 1.44,4.22 1.82,6.38 1.35,7.52 0.02,15.37 -4.88,21.39 -2.12,2.6 -4.86,4.68 -7.97,5.96 -0.65,0.27 -1.36,0.53 -2,0.28 -0.29,1.66 -0.65,3.31 -1.09,4.94 0.1,-0.01 0.2,-0.02 0.32,-0.04 0.69,-0.12 1.37,-0.26 2.05,-0.44z"/>
     </g>
     <g>
      <path class="fil3" d="M133.39 174.38c-1.75,-0.69 -3.65,-1.5 -4.69,-3.16 -0.25,-0.4 -0.39,-0.84 -0.47,-1.29 -1.83,0.38 -3.67,0.69 -5.48,1.17 -2.13,0.57 -4.23,1.27 -6.26,2.13 -1.88,0.79 -3.79,1.67 -5.5,2.81 -1.45,0.96 -2.89,2.39 -2.66,4.29 0.49,4.01 5.48,4.97 8.66,5.69 4.07,0.91 8.14,1.3 12.3,1.56 4.12,0.26 8.26,0.27 12.39,0.23 3.67,-0.04 7.35,-0.05 11.01,-0.44 3.35,-0.36 6.77,-1.11 9.74,-2.77 2.53,-1.41 6.25,-4.31 4.48,-7.6 -1.61,-2.99 -5.66,-4.44 -8.72,-5.28 -3.1,-0.86 -6.31,-1.22 -9.51,-1.51 -0.41,1.82 -1.91,3.19 -3.51,4.06 -3.62,1.95 -8.04,1.59 -11.76,0.12z"/>
     </g>
     <g>
      <path class="fil3" d="M142.61 153.93c-0.14,-1.12 -0.28,-2.24 -0.42,-3.36 -0.04,-0.34 -0.1,-0.67 -0.13,-0.98 -3.57,0.57 -7.17,0.88 -10.76,0.67 0.59,2.08 0.55,4.53 0.58,6.63 0.04,2.35 -0.12,4.69 -0.37,7.03 -0.12,1.15 -0.29,2.3 -0.5,3.43 -0.14,0.78 -0.61,1.95 -0.01,2.64 0.47,0.54 1.36,0.91 1.99,1.22 0.76,0.37 1.55,0.68 2.36,0.92 3.09,0.94 7.01,1.13 9.61,-1.14 1.63,-1.42 0.74,-3.01 -0.01,-4.68 -0.86,-1.9 -1.26,-3.86 -1.54,-5.92 -0.29,-2.15 -0.54,-4.3 -0.81,-6.46z"/>
     </g>
     <g>
      <g>
       <path class="fil3" d="M172.27 118.04c1.36,-6.77 1.43,-13.73 1.32,-20.61 -0.08,-5.38 -0.22,-10.75 -0.34,-16.12 -1.76,2 -4.27,3.57 -6.51,4.58 -5.87,2.64 -12.19,3.87 -18.58,4.35 -6.4,0.48 -12.86,0.27 -19.26,-0.17 -6.29,-0.43 -12.63,-1.22 -18.69,-3.01 -3.03,-0.9 -5.94,-2.07 -8.77,-3.48 -1.84,-0.91 -4,-1.94 -5.46,-3.52 -0.66,12.81 -0.95,25.8 2.96,38.17 3.15,9.98 9.52,19.21 18.56,24.7 4.62,2.81 9.82,4.38 15.23,4.46 3.52,0.05 7.02,-0.42 10.47,-1.04 3.33,-0.61 6.69,-1.25 9.88,-2.39 10.94,-3.94 17.02,-15.1 19.19,-25.93zm-25.96 13.19l0 0c-0.08,0.84 -0.19,1.67 -0.33,2.5 -0.16,1 -0.15,2.77 -1.36,3.12 -0.7,0.2 -1.61,0.05 -2.32,0.05 -0.74,-0 -1.47,-0 -2.21,-0 -3.06,-0.01 -6.19,0.15 -9.24,-0.1 -1.18,-0.09 -2.67,-0.31 -3.2,-1.53 -0.5,-1.16 -0.35,-2.82 -0.31,-4.06 0.03,-1.06 -0.12,-2.52 1.22,-2.75 0.86,-0.15 1.79,-0.09 2.68,0.07 -0.01,-0.44 0.05,-0.9 0.06,-1.4 0.03,-1.12 0.01,-2.25 0.02,-3.37 0.01,-2.29 0.05,-4.57 0.08,-6.86 0.04,-2.29 0.09,-4.57 0.16,-6.86 0.04,-1.17 0.08,-2.35 0.14,-3.52 0.03,-0.59 0.03,-1.19 0.09,-1.78 -0.28,-0.02 -0.57,-0.06 -0.83,-0.08 -0.68,-0.06 -1.35,-0.12 -2.03,-0.19 -0.68,-0.06 -1.4,-0.07 -2.07,-0.2 -0.71,-0.14 -1.13,-0.8 -0.94,-1.51 0.16,-0.58 0.66,-1.02 1.03,-1.48 0.37,-0.46 0.73,-0.93 1.08,-1.42 0.36,-0.5 0.7,-1.01 1.03,-1.54 0.31,-0.51 0.58,-1.14 1.03,-1.54 0.07,-0.06 0.16,-0.1 0.25,-0.12 -0.08,-0.28 0.01,-0.6 0.34,-0.66 1.99,-0.35 4.06,-0.07 6.07,-0.12 2.09,-0.05 4.19,0.06 6.28,0.12 0.47,0.01 0.94,0.38 0.92,0.89 -0.2,7.32 -0.19,14.63 -0.16,21.95 0.01,1.81 0.02,3.63 0.05,5.44 0.01,0.94 0.03,1.87 0.04,2.81 0.01,0.52 0.08,1.12 0.02,1.67 0.83,-0.07 1.66,0.1 2.12,0.7 0.4,0.53 0.35,1.16 0.28,1.79z"/>
      </g>
     </g>
     <path class="fil4" d="M142.3 130.74c-0.31,-0.04 -0.49,-0.27 -0.55,-0.54 -0.31,-0.16 -0.54,-0.46 -0.55,-0.94 -0.01,-0.42 0.28,-0.74 0.63,-0.91 -0,-0.06 -0,-0.11 -0,-0.17 -0.1,-0.28 -0.01,-0.75 -0.02,-1.05 -0.01,-0.7 -0.02,-1.4 -0.03,-2.11 -0.02,-1.29 -0.03,-2.58 -0.04,-3.86 -0.02,-2.69 -0.02,-5.39 0,-8.08 0.04,-5.1 0.21,-10.2 0.38,-15.3 -1.78,-0.05 -3.56,-0.09 -5.33,-0.23 -1.93,-0.16 -3.95,-0.03 -5.85,-0.43 -0.04,0.56 -0.32,1.09 -0.57,1.58 -0.24,0.48 -0.5,0.94 -0.77,1.4 -0.56,0.94 -1.19,1.83 -1.88,2.67 -0.01,0.01 -0.01,0.01 -0.02,0.02 0.04,0 0.09,0.01 0.13,0.01 0.59,0.05 1.17,0.1 1.76,0.15 0.59,0.05 1.17,0.1 1.76,0.15 0.24,0.02 0.48,0.06 0.71,0.05 0.09,-0.01 0.18,-0.02 0.27,-0.03 0.04,-0.07 0.11,-0.12 0.2,-0.11 0.17,0.02 0.35,0.07 0.49,0.19 0.08,0.07 0.15,0.19 0.19,0.29 0.03,0.08 0.03,0.16 0.02,0.24 -0,0.03 -0,0.02 -0.01,0.04 0.02,0.15 -0.03,0.29 -0.1,0.42 0.21,0.91 0.15,1.92 0.19,2.83 0.05,1.17 0.06,2.34 0.12,3.51 0.11,2.34 0.08,4.69 0.12,7.03 0.04,2.4 0.04,4.81 0.04,7.21 0,1.5 0.47,4.33 -1.23,5.05 -0.08,0.09 -0.18,0.16 -0.3,0.18 -0.63,0.1 -1.23,0.12 -1.86,0.13 -0.31,0.01 -0.62,0.02 -0.92,0.03 -0.03,0 -0.06,0 -0.1,0.01 -0,0.02 0,0.03 -0,0.05 0.1,0.2 -0.04,0.73 -0.04,0.96 -0.01,0.27 -0.01,0.54 -0.01,0.81 0,0.64 0.03,1.29 0.09,1.93 0.07,0.77 0.32,0.89 1.08,1.03 0.64,0.12 1.3,0.1 1.95,0.09 1.36,-0.02 2.72,-0.05 4.08,-0.05 1.36,-0.01 2.72,-0.01 4.08,-0.02 0.68,-0 1.36,-0 2.04,-0.01 0.34,-0 0.68,-0 1.02,-0l0.23 -0c0.08,-0.5 0.31,-1.35 0.34,-1.54 0.1,-0.65 0.18,-1.31 0.25,-1.97 0.01,-0.08 0.03,-0.4 0.04,-0.63 -0.1,-0 -0.19,-0.01 -0.29,-0.01 -0.59,0.01 -1.12,0.03 -1.71,-0.06z"/>
     <g>
      <path class="fil3" d="M96.32 118.82c-2.46,-0.26 -4.83,-0.99 -6.93,-2.31 -2.13,-1.34 -3.75,-3.34 -5.23,-5.34 -2.62,-3.55 -4.62,-7.54 -5.85,-11.77 -1.14,-3.91 -1.91,-8.35 -1.31,-12.42 0.57,-3.85 3.2,-7.07 7.42,-6.4 2.14,0.34 4,1.62 5.54,3.09 1.21,1.15 2.53,2.37 3.67,3.67 0.08,-1.41 0.16,-2.81 0.26,-4.22 0.05,-0.69 0.11,-1.39 0.16,-2.09 -4.01,-4.65 -9.91,-9.53 -16.46,-6.94 -5.56,2.19 -7.13,9.75 -7.33,15.05 -0.22,6.13 1.38,12.2 3.82,17.78 2.41,5.49 5.43,11.35 10.42,14.92 2.27,1.62 4.82,2.73 7.54,3.31 1.34,0.29 2.7,0.42 4.08,0.41 0.69,-0 1.39,-0.04 2.08,-0.12 0.33,-0.04 0.63,-0.04 0.92,-0.02 -0.99,-2.15 -1.84,-4.37 -2.55,-6.62 -0.08,0.01 -0.17,0.02 -0.25,0.02z"/>
     </g>
     <g>
      <g>
       <path class="fil3" d="M100.34 80.16c5.64,3.09 12.04,4.8 18.35,5.84 5.76,0.95 11.61,1.29 17.44,1.45 5.86,0.17 11.78,0.11 17.58,-0.84 2.84,-0.47 5.65,-1.14 8.37,-2.08 2.52,-0.87 5.13,-1.92 7.25,-3.56 1.65,-1.27 3.41,-3.22 3.07,-5.47 -0.37,-2.5 -3.01,-4.28 -5.07,-5.34 -2.36,-1.21 -5,-1.82 -7.59,-2.29 -2.92,-0.54 -5.87,-0.93 -8.82,-1.23 -6.05,-0.61 -12.14,-0.79 -18.21,-0.53 -6.07,0.25 -12.11,0.94 -18.08,2.07 -2.99,0.57 -5.95,1.24 -8.89,2.02 -2.16,0.57 -5.34,0.87 -7.27,1.97 -1.81,1.03 -2.45,3.77 -1.32,5.54 0.74,1.14 2.03,1.83 3.19,2.46zm2.95 -5.82l0 0c4.24,-3.35 10.86,-2.92 15.97,-3.52 6.03,-0.71 12.05,-1.49 18.12,-1.71 5.1,-0.18 10.21,-0.15 15.31,0.09 4.26,0.2 9.6,0.35 12.98,3.3 1.51,1.32 2.15,3.42 1.5,5.3 -0.7,2.01 -2.45,3.49 -4.32,4.46 -4.2,2.19 -9.24,2.55 -13.91,2.91 -10.08,0.8 -20.27,0.15 -30.18,-1.86 -2.48,-0.5 -4.94,-1.1 -7.38,-1.77 -2.32,-0.65 -4.84,-1.23 -7.01,-2.28 -1.91,-0.93 -3.02,-3.39 -1.09,-4.92z"/>
      </g>
     </g>
     <path class="fil5" d="M164.97 139.57c3.86,-4.06 6.65,-9.06 8.47,-14.33 0.78,0.14 1.71,-0.08 2.44,-0.21 1.37,-0.26 2.72,-0.64 4.02,-1.14 2.57,-0.98 4.95,-2.32 7.12,-3.99 4.45,-3.43 7.84,-8.04 9.88,-13.27 2.4,-6.15 2.8,-12.94 1.78,-19.42 -0.49,-3.15 -1.32,-6.27 -2.52,-9.23 -1.07,-2.66 -2.63,-5.36 -5.26,-6.74 -2.99,-1.56 -6.5,-1.3 -9.46,0.18 -2.37,1.18 -4.31,3.12 -5.84,5.29 -1.75,-6.94 -7.01,-10.31 -15.39,-11.8 -6.56,-1.17 -13.24,-1.79 -19.91,-1.9 -9.7,-0.16 -19.42,0.78 -28.91,2.78 -5.31,1.12 -19.53,2.97 -16.99,11.43 -0.05,0.43 -0.08,0.86 -0.13,1.28 -3.43,-4.43 -8.63,-7.78 -14.42,-7.12 -3.08,0.35 -5.76,1.81 -7.65,4.28 -1.95,2.56 -3.02,5.81 -3.6,8.94 -1.24,6.67 -0.13,13.55 2.13,19.88 1.14,3.2 2.58,6.3 4.23,9.27 1.65,2.98 3.52,6.08 5.93,8.52 2.5,2.53 5.75,4.33 9.15,5.31 1.66,0.48 3.39,0.75 5.12,0.83 1.68,0.08 3.58,0.13 5.06,-0.72 3.14,6.05 7.41,11.51 12.84,15.63 4.3,3.27 9.35,5.65 14.7,6.55 0.64,0.11 1.29,0.17 1.93,0.24 -0.09,1.07 0.03,2.18 0.06,3.24 0.03,1.31 0.02,2.61 -0.04,3.92 -0.11,2.51 -0.35,5 -0.8,7.47 -0.18,1.02 -0.54,2.19 -0.69,3.34 -4.05,0.21 -8.22,1.53 -11.93,3.04 -1.94,0.79 -3.88,1.66 -5.69,2.74 -1.49,0.89 -2.98,2.03 -3.76,3.61 -0.64,1.28 -0.71,2.55 -0.41,3.74 -0.09,2.85 0.14,5.8 0.5,8.58 0.17,1.3 0.46,2.59 1.26,3.65 0.84,1.1 2.02,1.83 3.25,2.4 5.53,2.57 11.47,4.35 17.52,5.17 6.07,0.83 12.23,0.74 18.29,-0.2 3.04,-0.47 6.04,-1.17 8.97,-2.09 2.8,-0.88 5.69,-1.89 8.23,-3.37 2.78,-1.62 4.77,-4.1 5.38,-7.3 0.29,-1.54 0.33,-3.11 0.22,-4.68 -0.07,-0.98 -0.14,-1.99 -0.36,-2.96 0.16,-0.57 0.27,-1.16 0.26,-1.79 -0.1,-4.55 -4.89,-7.2 -8.61,-8.61 -4.08,-1.55 -8.48,-2.04 -12.81,-2.42 -0.41,-1.4 -1.21,-2.71 -1.62,-4.11 -0.77,-2.57 -0.92,-5.33 -1.26,-7.98 -0.17,-1.38 -0.35,-2.77 -0.52,-4.15 -0.09,-0.7 -0.08,-1.54 -0.27,-2.27 1.37,-0.27 2.73,-0.55 4.07,-0.85 6.16,-1.39 11.65,-4.06 16.04,-8.66zm11.43 -51.77l0 0c0.27,0.08 0.58,0.04 0.77,-0.18 1.12,-1.27 1.97,-2.64 3.45,-3.55 1.08,-0.66 3.38,-1.67 4.57,-0.79 0.6,0.44 0.84,1.41 1.07,2.08 0.34,0.98 0.63,1.98 0.87,2.99 0.47,1.96 0.76,3.95 0.83,5.97 0.23,7.12 -2.51,14.46 -8.61,18.54 -0.66,0.44 -1.36,0.85 -2.07,1.2 -0.42,0.21 -0.95,0.36 -1.43,0.57 0.47,-3.56 0.68,-7.16 0.74,-10.73 0.09,-5.36 -0.05,-10.73 -0.2,-16.1zm-0.97 29.59l0 0c0.64,0.25 1.35,-0.01 2,-0.28 3.1,-1.28 5.85,-3.36 7.97,-5.96 4.9,-6.01 6.23,-13.86 4.88,-21.39 -0.39,-2.17 -0.97,-4.35 -1.82,-6.38 -0.8,-1.88 -2.42,-2.98 -4.49,-2.83 -2.87,0.21 -6.33,2.13 -7.62,4.91 -0.03,-1.22 -0.07,-2.44 -0.09,-3.66 -0.02,-0.98 -0.11,-1.89 -0.22,-2.76 1.59,-1.89 3.24,-3.79 5.36,-5.09 2.18,-1.34 5.12,-2.06 7.57,-0.99 2.31,1.02 3.62,3.52 4.51,5.75 1.05,2.62 1.8,5.39 2.29,8.17 1.87,10.57 -0.69,21.89 -8.79,29.29 -1.98,1.81 -4.23,3.3 -6.67,4.42 -1.15,0.53 -2.36,0.94 -3.58,1.26 -0.68,0.18 -1.36,0.32 -2.05,0.44 -0.12,0.02 -0.22,0.03 -0.32,0.04 0.45,-1.62 0.8,-3.27 1.09,-4.94zm-76.97 -45.24l0 0c1.93,-1.1 5.11,-1.4 7.27,-1.97 2.94,-0.78 5.9,-1.45 8.89,-2.02 5.97,-1.13 12.01,-1.82 18.08,-2.07 6.07,-0.25 12.16,-0.08 18.21,0.53 2.95,0.3 5.9,0.7 8.82,1.23 2.59,0.48 5.23,1.09 7.59,2.29 2.06,1.05 4.7,2.84 5.07,5.34 0.34,2.25 -1.42,4.2 -3.07,5.47 -2.13,1.64 -4.73,2.69 -7.25,3.56 -2.72,0.94 -5.53,1.61 -8.37,2.08 -5.8,0.95 -11.72,1.01 -17.58,0.84 -5.83,-0.17 -11.68,-0.51 -17.44,-1.45 -6.31,-1.04 -12.71,-2.75 -18.35,-5.84 -1.16,-0.64 -2.45,-1.32 -3.19,-2.46 -1.14,-1.76 -0.49,-4.5 1.32,-5.54zm-3.06 42.51l0 0c0.08,0.33 0.17,0.65 0.25,0.97 -0.1,0.04 -0.19,0.11 -0.26,0.2 -7.25,-1.21 -11.8,-8.5 -14.16,-14.93 -1.31,-3.57 -2.07,-7.34 -2.13,-11.14 -0.05,-2.72 0.53,-6.88 4.01,-7.02 2.19,-0.09 3.99,1.35 5.54,2.72 1.61,1.43 3.09,3.14 4.86,4.38 -0.05,1.29 -0.1,2.57 -0.11,3.86 -0.04,7.01 0.42,14.12 2,20.96zm2.79 10.78l0 0c-0.69,0.08 -1.38,0.12 -2.08,0.12 -1.37,0.01 -2.74,-0.12 -4.08,-0.41 -2.72,-0.58 -5.27,-1.7 -7.54,-3.31 -5,-3.56 -8.02,-9.42 -10.42,-14.92 -2.44,-5.58 -4.04,-11.66 -3.82,-17.78 0.19,-5.3 1.77,-12.86 7.33,-15.05 6.55,-2.58 12.45,2.29 16.46,6.94 -0.06,0.7 -0.11,1.39 -0.16,2.09 -0.1,1.41 -0.19,2.82 -0.26,4.22 -1.14,-1.31 -2.47,-2.52 -3.67,-3.67 -1.54,-1.47 -3.4,-2.75 -5.54,-3.09 -4.22,-0.67 -6.85,2.55 -7.42,6.4 -0.6,4.07 0.16,8.51 1.31,12.42 1.24,4.23 3.23,8.22 5.85,11.77 1.48,2 3.1,4 5.23,5.34 2.1,1.32 4.47,2.05 6.93,2.31 0.08,0.01 0.17,-0 0.25,-0.02 0.72,2.25 1.56,4.46 2.55,6.62 -0.29,-0.02 -0.58,-0.02 -0.92,0.02zm69.5 58.38l0 0c0.06,0.94 0.08,1.89 -0.03,2.83 -0.29,2.68 -1.58,4.88 -3.86,6.35 -2.2,1.42 -4.75,2.32 -7.22,3.15 -2.69,0.9 -5.44,1.61 -8.23,2.13 -10.98,2.03 -22.8,1.03 -33.23,-2.98 -1.42,-0.55 -2.82,-1.13 -4.16,-1.84 -1.47,-0.77 -2.03,-1.95 -2.3,-3.55 -0.33,-1.92 -0.5,-3.85 -0.67,-5.78 0.9,1.02 2.06,1.86 3.29,2.41 4.12,1.83 8.76,2.43 13.19,3.04 4.66,0.64 9.34,0.83 14.04,0.84 4.32,0.01 8.69,0.02 13,-0.35 3.95,-0.33 7.92,-1.06 11.49,-2.85 1.6,-0.81 3.34,-1.95 4.69,-3.38zm-19.03 -13.62l0 0c3.2,0.29 6.4,0.65 9.51,1.51 3.06,0.85 7.11,2.3 8.72,5.28 1.77,3.29 -1.95,6.19 -4.48,7.6 -2.97,1.66 -6.38,2.41 -9.74,2.77 -3.65,0.39 -7.34,0.4 -11.01,0.44 -4.13,0.04 -8.26,0.03 -12.39,-0.23 -4.15,-0.26 -8.23,-0.64 -12.3,-1.56 -3.18,-0.71 -8.17,-1.68 -8.66,-5.69 -0.23,-1.89 1.21,-3.33 2.66,-4.29 1.7,-1.13 3.62,-2.02 5.5,-2.81 2.03,-0.85 4.13,-1.56 6.26,-2.13 1.81,-0.48 3.65,-0.79 5.48,-1.17 0.08,0.45 0.21,0.89 0.47,1.29 1.04,1.66 2.94,2.47 4.69,3.16 3.72,1.46 8.15,1.83 11.76,-0.12 1.61,-0.86 3.11,-2.24 3.51,-4.06zm-3.72 -3.9l0 0c0.75,1.67 1.64,3.26 0.01,4.68 -2.6,2.27 -6.52,2.08 -9.61,1.14 -0.81,-0.25 -1.6,-0.55 -2.36,-0.92 -0.64,-0.31 -1.52,-0.67 -1.99,-1.22 -0.59,-0.69 -0.13,-1.86 0.01,-2.64 0.21,-1.14 0.38,-2.28 0.5,-3.43 0.25,-2.34 0.4,-4.68 0.37,-7.03 -0.03,-2.1 0.01,-4.55 -0.58,-6.63 3.58,0.21 7.19,-0.09 10.76,-0.67 0.03,0.32 0.08,0.65 0.13,0.98 0.14,1.12 0.28,2.24 0.42,3.36 0.27,2.15 0.52,4.31 0.81,6.46 0.28,2.06 0.68,4.02 1.54,5.92zm-1.75 -19.94l0 0c-3.46,0.63 -6.95,1.09 -10.47,1.04 -5.41,-0.08 -10.61,-1.66 -15.23,-4.46 -9.04,-5.49 -15.41,-14.73 -18.56,-24.7 -3.91,-12.37 -3.62,-25.36 -2.96,-38.17 1.46,1.58 3.63,2.61 5.46,3.52 2.83,1.4 5.74,2.58 8.77,3.48 6.06,1.79 12.4,2.58 18.69,3.01 6.39,0.44 12.86,0.64 19.26,0.17 6.39,-0.48 12.72,-1.71 18.58,-4.35 2.24,-1.01 4.75,-2.58 6.51,-4.58 0.13,5.37 0.26,10.75 0.34,16.12 0.11,6.88 0.03,13.84 -1.32,20.61 -2.17,10.83 -8.25,21.99 -19.19,25.93 -3.19,1.15 -6.55,1.79 -9.88,2.39z"/>
     <path class="fil5" d="M143.9 128.75c0.05,-0.55 -0.02,-1.15 -0.02,-1.67 -0.02,-0.94 -0.03,-1.87 -0.04,-2.81 -0.02,-1.81 -0.04,-3.63 -0.05,-5.44 -0.03,-7.32 -0.04,-14.64 0.16,-21.95 0.01,-0.51 -0.45,-0.87 -0.92,-0.89 -2.09,-0.06 -4.19,-0.17 -6.28,-0.12 -2.01,0.05 -4.08,-0.23 -6.07,0.12 -0.34,0.06 -0.42,0.38 -0.34,0.66 -0.09,0.02 -0.18,0.06 -0.25,0.12 -0.45,0.4 -0.71,1.03 -1.03,1.54 -0.32,0.53 -0.67,1.04 -1.03,1.54 -0.35,0.48 -0.71,0.95 -1.08,1.42 -0.37,0.46 -0.86,0.9 -1.03,1.48 -0.2,0.71 0.22,1.37 0.94,1.51 0.67,0.13 1.39,0.14 2.07,0.2 0.68,0.06 1.35,0.13 2.03,0.19 0.26,0.02 0.55,0.07 0.83,0.08 -0.07,0.59 -0.07,1.19 -0.09,1.78 -0.06,1.17 -0.1,2.35 -0.14,3.52 -0.07,2.29 -0.12,4.57 -0.16,6.86 -0.03,2.29 -0.07,4.57 -0.08,6.86 -0.01,1.12 0.01,2.25 -0.02,3.37 -0.01,0.5 -0.07,0.96 -0.06,1.4 -0.89,-0.15 -1.82,-0.21 -2.68,-0.07 -1.34,0.23 -1.18,1.69 -1.22,2.75 -0.04,1.24 -0.19,2.89 0.31,4.06 0.53,1.22 2.02,1.44 3.2,1.53 3.05,0.25 6.18,0.09 9.24,0.1 0.74,0 1.48,0 2.21,0 0.72,0 1.62,0.15 2.32,-0.05 1.2,-0.34 1.19,-2.12 1.36,-3.12 0.14,-0.83 0.25,-1.66 0.33,-2.5 0.06,-0.62 0.12,-1.26 -0.28,-1.79 -0.46,-0.6 -1.29,-0.77 -2.12,-0.7zm0.36 2.69l0 0c-0.07,0.66 -0.15,1.31 -0.25,1.97 -0.03,0.19 -0.26,1.04 -0.34,1.54l-0.23 0c-0.34,0 -0.68,0 -1.02,0 -0.68,0 -1.36,0.01 -2.04,0.01 -1.36,0.01 -2.72,0.01 -4.08,0.02 -1.36,0.01 -2.72,0.04 -4.08,0.05 -0.65,0.01 -1.31,0.03 -1.95,-0.09 -0.76,-0.14 -1.01,-0.26 -1.08,-1.03 -0.06,-0.64 -0.09,-1.29 -0.09,-1.93 -0,-0.27 0,-0.54 0.01,-0.81 0.01,-0.24 0.14,-0.76 0.04,-0.96 0,-0.02 0,-0.03 0,-0.05 0.03,-0 0.07,-0 0.1,-0.01 0.31,-0.02 0.62,-0.03 0.92,-0.03 0.63,-0.01 1.24,-0.03 1.86,-0.13 0.12,-0.02 0.22,-0.09 0.3,-0.18 1.69,-0.71 1.23,-3.55 1.23,-5.05 -0,-2.4 -0,-4.81 -0.04,-7.21 -0.04,-2.34 -0.01,-4.69 -0.12,-7.03 -0.06,-1.17 -0.07,-2.34 -0.12,-3.51 -0.04,-0.91 0.02,-1.92 -0.19,-2.83 0.07,-0.13 0.11,-0.27 0.1,-0.42 0,-0.01 0,-0 0.01,-0.04 0.02,-0.08 0.01,-0.16 -0.02,-0.24 -0.03,-0.1 -0.1,-0.22 -0.19,-0.29 -0.13,-0.12 -0.31,-0.17 -0.49,-0.19 -0.09,-0.01 -0.16,0.04 -0.2,0.11 -0.09,0.01 -0.18,0.03 -0.27,0.03 -0.24,0.01 -0.48,-0.03 -0.71,-0.05 -0.59,-0.05 -1.17,-0.1 -1.76,-0.15 -0.59,-0.05 -1.17,-0.1 -1.76,-0.15 -0.04,-0 -0.09,-0.01 -0.13,-0.01 0.01,-0.01 0.01,-0.01 0.02,-0.02 0.69,-0.85 1.32,-1.73 1.88,-2.67 0.27,-0.46 0.53,-0.93 0.77,-1.4 0.25,-0.49 0.53,-1.02 0.57,-1.58 1.9,0.41 3.92,0.27 5.85,0.43 1.77,0.15 3.55,0.19 5.33,0.23 -0.17,5.1 -0.34,10.2 -0.38,15.3 -0.02,2.69 -0.02,5.39 -0,8.08 0.01,1.29 0.02,2.58 0.04,3.86 0.01,0.7 0.02,1.41 0.03,2.11 0.01,0.31 -0.08,0.78 0.02,1.05 0,0.06 0,0.11 0,0.17 -0.35,0.17 -0.63,0.5 -0.63,0.91 0.01,0.48 0.24,0.78 0.55,0.94 0.06,0.27 0.24,0.5 0.55,0.54 0.59,0.08 1.12,0.07 1.71,0.06 0.1,-0 0.19,0.01 0.29,0.01 -0.02,0.23 -0.04,0.55 -0.04,0.63z"/>
     <path class="fil5" d="M104.37 79.25c2.17,1.05 4.69,1.63 7.01,2.28 2.44,0.68 4.9,1.27 7.38,1.77 9.9,2.02 20.1,2.66 30.18,1.86 4.66,-0.37 9.7,-0.73 13.91,-2.91 1.86,-0.97 3.61,-2.45 4.32,-4.46 0.66,-1.89 0.01,-3.98 -1.5,-5.3 -3.37,-2.95 -8.72,-3.1 -12.98,-3.3 -5.1,-0.24 -10.21,-0.27 -15.31,-0.09 -6.07,0.21 -12.1,1 -18.12,1.71 -5.11,0.6 -11.73,0.17 -15.97,3.52 -1.93,1.52 -0.82,3.99 1.09,4.92zm2.25 -4.5l0 0c0.37,-0.15 0.75,-0.29 1.12,-0.43 7.66,-1.75 15.43,-3.01 23.28,-3.58 4.66,-0.34 9.34,-0.47 14.01,-0.44 2.33,0.02 4.66,0.08 6.99,0.17 2.18,0.09 4.41,0.18 6.52,0.75 1.91,0.51 4.05,1.05 5.52,2.44 1.41,1.34 1.75,2.95 0.57,4.58 -2.37,3.28 -7.45,3.99 -11.21,4.46 -9.07,1.14 -18.31,1.02 -27.36,-0.19 -5.09,-0.68 -10.13,-1.74 -15.07,-3.15 -1.27,-0.36 -2.53,-0.75 -3.78,-1.16 -0.87,-0.28 -2.5,-0.58 -2.89,-1.53 -0.42,-1.02 1.59,-1.64 2.31,-1.93z"/>
     <path class="fil2" d="M140.04 146.87c-1.21,-0.19 -2.42,-0.45 -3.61,-0.83 -7.3,-2.3 -13.18,-8.01 -16.93,-14.68 -3.75,-6.67 -5.55,-14.26 -6.64,-21.83 -1.05,-7.31 -1.44,-14.71 -1.24,-22.09 -0.47,-0.13 -0.95,-0.25 -1.42,-0.39 -3.03,-0.9 -5.94,-2.07 -8.77,-3.48 -1.84,-0.91 -4,-1.94 -5.46,-3.52 -0.66,12.81 -0.95,25.8 2.96,38.17 3.15,9.98 9.52,19.21 18.56,24.7 4.62,2.81 9.82,4.38 15.23,4.46 2.45,0.03 4.89,-0.19 7.32,-0.54z"/>
     <path class="fil4" d="M105.35 119.53c-3.37,-11.63 -4.13,-23.83 -3.95,-35.96 -1.83,-0.9 -3.97,-1.93 -5.42,-3.49 -0.66,12.81 -0.95,25.8 2.96,38.17 3.08,9.74 9.24,18.77 17.94,24.3 -5.31,-6.75 -9.14,-14.74 -11.53,-23.02z"/>
     <path class="fil6" d="M173.25 81.31c-1.03,1.18 -2.34,2.18 -3.69,3.04 0.52,7.54 0.93,15.1 0.43,22.64 -0.57,8.55 -2.37,17.13 -6.32,24.73 -1.98,3.81 -4.47,7.31 -7.15,10.68 8.79,-4.84 13.82,-14.72 15.75,-24.35 1.36,-6.77 1.43,-13.73 1.32,-20.61 -0.08,-5.38 -0.22,-10.75 -0.34,-16.12z"/>
     <g>
      <path class="fil2" d="M133.45 112.87c0.02,1.31 0.04,2.62 0.06,3.93 2.71,-1.6 5.16,-3.66 7.71,-5.51 0.18,-0.13 0.37,-0.25 0.55,-0.38 0.02,-1.27 0.04,-2.54 0.07,-3.82 -2.83,1.87 -5.63,3.79 -8.39,5.77z"/>
      <path class="fil2" d="M131.14 103.07c0.06,0.01 0.12,0.01 0.18,0.02 0.24,0.02 0.48,0.06 0.71,0.05 0.09,-0.01 0.18,-0.02 0.27,-0.03 0.04,-0.07 0.11,-0.12 0.2,-0.11 0.17,0.02 0.35,0.07 0.49,0.19 0.08,0.07 0.15,0.19 0.19,0.29 0.03,0.08 0.03,0.16 0.02,0.24 -0,0.03 -0,0.02 -0.01,0.04 0.02,0.15 -0.03,0.29 -0.1,0.42 0.21,0.91 0.15,1.92 0.19,2.83 0.04,0.87 0.06,1.73 0.09,2.6 2.81,-2.24 5.67,-4.4 8.58,-6.5 0.05,-1.78 0.11,-3.56 0.17,-5.34 -1.25,-0.03 -2.5,-0.08 -3.76,-0.14 -0.69,0.53 -1.38,1.06 -2.08,1.58 -1.72,1.29 -3.45,2.54 -5.13,3.87z"/>
     </g>
     <path class="fil6" d="M172.4 75.5c-0.37,-2.5 -3.01,-4.28 -5.07,-5.34 -2.36,-1.21 -5,-1.82 -7.59,-2.29 -2.92,-0.54 -5.87,-0.93 -8.82,-1.23 -6.05,-0.61 -12.14,-0.79 -18.21,-0.53 -2.87,0.12 -5.73,0.35 -8.59,0.66 9.5,0.64 19,1.28 28.49,1.92 3.51,0.24 7.1,0.49 10.34,1.86 3.24,1.37 6.13,4.08 6.75,7.54 0.15,0.83 0.16,1.67 0.11,2.51 1.49,-1.26 2.9,-3.04 2.59,-5.08z"/>
     <path class="fil2" d="M190.71 106.86c3.02,-6.62 3.87,-14.2 2.54,-21.36 -0.46,-2.49 -1.3,-5.11 -3.32,-6.63 -2.35,-1.76 -5.73,-1.51 -8.34,-0.18 -2.05,1.05 -3.74,2.67 -5.31,4.38 0.02,0.8 0.04,1.6 0.06,2.4 1.29,-2.78 4.76,-4.7 7.62,-4.91 2.07,-0.15 3.7,0.94 4.49,2.83 0.86,2.03 1.44,4.22 1.82,6.38 1.35,7.52 0.02,15.37 -4.88,21.39 -2.12,2.6 -4.86,4.68 -7.97,5.96 -0.65,0.27 -1.36,0.53 -2,0.28 -0.29,1.66 -0.65,3.31 -1.09,4.94 0.1,-0.01 0.2,-0.02 0.32,-0.04 0.69,-0.12 1.37,-0.26 2.05,-0.44 0.26,-0.07 0.52,-0.16 0.79,-0.24 5.76,-3.42 10.43,-8.66 13.21,-14.76z"/>
     <path class="fil2" d="M87.94 119.15c1.79,0.95 3.74,1.56 5.72,2.04 1.32,0.31 2.66,0.55 4,0.74 -0.39,-1.03 -0.76,-2.07 -1.1,-3.12 -0.08,0.01 -0.17,0.02 -0.25,0.02 -2.46,-0.26 -4.83,-0.99 -6.93,-2.31 -2.13,-1.34 -3.75,-3.34 -5.23,-5.34 -2.62,-3.55 -4.62,-7.54 -5.85,-11.77 -1.14,-3.91 -1.91,-8.35 -1.31,-12.42 0.57,-3.85 3.2,-7.07 7.42,-6.4 2.14,0.34 4,1.62 5.54,3.09 1.21,1.15 2.53,2.37 3.67,3.67 0.07,-1.37 0.16,-2.74 0.25,-4.1 -1.65,-1.62 -3.51,-3.03 -5.64,-3.88 -2.74,-1.1 -6.01,-1.18 -8.55,0.32 -3.85,2.28 -4.99,7.32 -5,11.79 -0.01,5.24 1.03,10.49 3.04,15.33 2.09,5.04 5.4,9.8 10.23,12.35z"/>
     <path class="fil6" d="M195.76 86.89c-0.49,-2.78 -1.24,-5.55 -2.29,-8.17 -0.9,-2.23 -2.2,-4.73 -4.51,-5.75 -2.45,-1.08 -5.38,-0.36 -7.57,0.99 -0.85,0.52 -1.6,1.15 -2.32,1.82 3.85,-1.7 8.36,-1.99 11.45,0.68 2.96,2.56 3.55,6.82 4.35,10.65 0.39,1.88 0.89,3.73 1.47,5.56 -0.04,-1.93 -0.23,-3.86 -0.57,-5.77z"/>
     <path class="fil6" d="M73.09 103.41c-0.72,-6.19 -1.43,-12.52 -0.05,-18.59 0.55,-2.45 1.47,-4.87 3.1,-6.78 2.32,-2.72 6.06,-4.06 9.59,-3.69 -2.52,-1.09 -5.27,-1.39 -8.14,-0.26 -5.56,2.19 -7.13,9.75 -7.33,15.05 -0.2,5.42 1.04,10.79 3.01,15.82 -0.06,-0.52 -0.12,-1.03 -0.18,-1.55z"/>
     <path class="fil2" d="M142.06 149.58c-3.57,0.57 -7.17,0.88 -10.76,0.67 0.59,2.08 0.55,4.53 0.58,6.63 0.04,2.35 -0.12,4.69 -0.37,7.03 -0.12,1.15 -0.29,2.3 -0.5,3.43 -0.14,0.78 -0.61,1.95 -0.01,2.64 0.47,0.54 1.36,0.91 1.99,1.22 0.76,0.37 1.55,0.68 2.36,0.92 0.14,0.04 0.29,0.08 0.44,0.11 -0.05,-0.24 -0.1,-0.47 -0.14,-0.71 -1.32,-7.62 1.2,-15.77 6.48,-21.41 -0.03,-0.18 -0.05,-0.37 -0.07,-0.54z"/>
     <path class="fil4" d="M132.83 171.12c0.5,-3.51 0.61,-7.09 1.11,-10.61 0.52,-3.66 1.58,-7.42 3.69,-10.39 -2.11,0.18 -4.22,0.25 -6.32,0.13 0.59,2.08 0.55,4.53 0.58,6.63 0.04,2.35 -0.12,4.69 -0.37,7.03 -0.12,1.15 -0.29,2.3 -0.5,3.43 -0.14,0.78 -0.61,1.95 -0.01,2.64 0.43,0.5 1.21,0.84 1.83,1.14z"/>
     <path class="fil2" d="M155.57 184.02c-3.73,-0.16 -7.66,-1.76 -9.49,-5.01 -0.82,-1.46 -1.02,-3.24 -0.68,-4.88 -0.08,0.05 -0.16,0.1 -0.24,0.14 -3.62,1.95 -8.04,1.59 -11.76,0.12 -1.75,-0.69 -3.65,-1.5 -4.69,-3.16 -0.25,-0.4 -0.39,-0.84 -0.47,-1.29 -1.83,0.38 -3.67,0.69 -5.48,1.17 -2.13,0.57 -4.23,1.27 -6.26,2.13 -1.88,0.79 -3.79,1.67 -5.5,2.81 -1.45,0.96 -2.89,2.39 -2.66,4.29 0.49,4.01 5.48,4.97 8.66,5.69 4.07,0.91 8.14,1.3 12.3,1.56 4.12,0.26 8.26,0.27 12.39,0.23 3.67,-0.04 7.35,-0.05 11.01,-0.44 3.35,-0.36 6.77,-1.11 9.74,-2.77 1.21,-0.68 2.7,-1.7 3.72,-2.94 -3.37,1.52 -6.89,2.52 -10.57,2.36z"/>
     <path class="fil4" d="M132.37 187.72c-3.99,-4.1 -5.17,-10.6 -3.2,-15.93 -0.16,-0.19 -0.34,-0.35 -0.47,-0.56 -0.25,-0.4 -0.39,-0.84 -0.47,-1.29 -1.83,0.38 -3.67,0.69 -5.48,1.17 -2.13,0.57 -4.23,1.27 -6.26,2.13 -1.88,0.79 -3.79,1.67 -5.5,2.81 -1.45,0.96 -2.89,2.39 -2.66,4.29 0.49,4.01 5.48,4.97 8.66,5.69 4.07,0.91 8.14,1.3 12.3,1.56 1.03,0.06 2.06,0.11 3.09,0.15z"/>
     <path class="fil4" d="M151.48 195.71c-3.99,0.26 -8.07,0.35 -11.88,-0.86 -2.64,-0.84 -5.12,-2.43 -6.81,-4.58 -2.78,-0.12 -5.55,-0.33 -8.31,-0.71 -4.43,-0.61 -9.07,-1.22 -13.19,-3.04 -1.23,-0.54 -2.39,-1.38 -3.29,-2.41 0.17,1.93 0.35,3.87 0.67,5.78 0.27,1.61 0.83,2.78 2.3,3.55 1.34,0.71 2.74,1.3 4.16,1.84 10.43,4.02 22.25,5.01 33.23,2.98 2.79,-0.52 5.54,-1.22 8.23,-2.13 1.15,-0.38 2.31,-0.79 3.45,-1.25 -2.85,0.35 -5.71,0.63 -8.57,0.82z"/>
    </g>
    <g>
     <g>
      <path class="fil3" d="M178.68 157.45c0.21,0.06 0.42,0.13 0.63,0.2 0.06,0.02 0.65,0.22 0.34,0.13 0.22,0.07 0.42,0.25 0.53,0.47 0.82,0.22 0.81,1.55 0.88,2.24 0.09,0.85 0.18,1.69 0.26,2.54 0.04,0.37 0.05,0.79 0.2,1.13 0.08,0.18 0.14,0.24 0.26,0.32 0.31,0.21 0.76,0.23 1.16,0.13 0.46,-0.12 0.96,-0.53 1.35,-0.98 0.44,-0.52 0.78,-1.14 1.12,-1.74 0.38,-0.69 0.74,-1.4 1.07,-2.12 0.32,-0.72 0.6,-1.45 1,-2.13 0.17,-0.29 0.53,-0.34 0.8,-0.21 0.47,-0.13 0.82,0.08 1.25,0.25 0.33,0.13 0.66,0.25 0.99,0.36 0.67,0.21 1.37,0.38 2.07,0.46 1.47,0.18 2.94,0.16 4.39,-0.2 0.56,-0.14 0.97,-0.31 1.02,-0.94 0.05,-0.64 -0.36,-1.19 -0.79,-1.62 -0.56,-0.56 -1.22,-1.02 -1.89,-1.43 -0.69,-0.42 -1.48,-0.72 -1.98,-1.36 -0.04,-0.05 -0.06,-0.12 -0.08,-0.18 -0.42,-0.2 -0.65,-0.77 -0.4,-1.22 0.56,-0.98 1.09,-1.91 1.39,-3 0.26,-0.94 0.46,-2.09 0.25,-3.05 -0.07,-0.3 -0.17,-0.63 -0.51,-0.69 -0.43,-0.07 -0.93,0.24 -1.29,0.42 -0.63,0.32 -1.25,0.63 -1.88,0.95 -0.61,0.31 -1.28,0.76 -1.95,0.86 -0.34,0.05 -0.62,-0.14 -0.74,-0.4 -0.1,0.05 -0.22,0.08 -0.33,0.04 -0.72,-0.24 -1.41,-0.78 -2.03,-1.21 -0.64,-0.45 -1.28,-0.9 -1.91,-1.36 -0.56,-0.41 -1.1,-0.87 -1.7,-1.22 -0.39,-0.23 -0.85,-0.43 -1.3,-0.24 -1.11,0.47 -1.02,2.11 -1,3.09 0.02,0.77 0.05,1.54 0.08,2.31 0.02,0.42 0.03,0.83 0.05,1.25 0.01,0.19 0.02,0.39 0.03,0.58 0,0.01 0,0.03 0,0.04 0.07,0.1 0.11,0.23 0.11,0.34 0.01,0.13 -0.12,0.5 -0.1,0.29 -0.06,0.54 -0.46,0.99 -1.03,0.98 -0.12,-0 -0.23,-0.04 -0.33,-0.08 -1,0.44 -2,0.91 -2.93,1.49 -0.54,0.34 -1.05,0.71 -1.53,1.13 -0.45,0.39 -0.97,0.81 -1.24,1.34 -0.03,0.07 -0.06,0.14 -0.08,0.24 0,0 -0,0.02 -0,0.02 0.01,0.01 0.02,0.01 0.03,0.02 0.11,0.05 0.16,0.07 0.31,0.12 0.72,0.23 1.44,0.43 2.16,0.64 0.73,0.22 1.47,0.44 2.2,0.66 0.37,0.11 0.73,0.22 1.1,0.33z"/>
     </g>
     <path class="fil5" d="M178.25 159.47c0.2,0.06 0.42,0.13 0.64,0.16 0.02,0.42 0.09,0.85 0.13,1.15l0.28 2.54c0.09,0.83 0.21,1.64 0.75,2.31 0.36,0.46 0.89,0.78 1.45,0.94 1.28,0.36 2.58,-0.08 3.55,-0.95 1.01,-0.91 1.63,-2.23 2.19,-3.44 0.41,-0.89 0.81,-1.83 1.07,-2.79 0.14,0.07 0.29,0.14 0.46,0.2 0.43,0.18 0.88,0.33 1.33,0.46 0.93,0.26 1.89,0.43 2.85,0.5 0.96,0.07 1.93,-0.01 2.89,-0.14 0.9,-0.12 1.93,-0.28 2.71,-0.77 1.79,-1.12 1.36,-3.5 0.16,-4.86 -0.65,-0.74 -1.51,-1.34 -2.34,-1.86 -0.59,-0.37 -1.19,-0.72 -1.85,-0.87 0.56,-0.88 0.94,-1.93 1.19,-2.93 0.25,-1.02 0.4,-2.09 0.36,-3.13 -0.05,-1.04 -0.4,-2.16 -1.46,-2.56 -1.04,-0.39 -2.1,0.22 -3.01,0.68 -0.56,0.29 -1.12,0.57 -1.67,0.86 -0.55,0.28 -1.19,0.54 -1.64,0.97 -0.51,-0.73 -1.34,-1.33 -2.01,-1.89 -0.7,-0.59 -1.41,-1.17 -2.14,-1.73 -1.17,-0.92 -2.54,-1.84 -4.07,-1.14 -1.5,0.68 -2,2.38 -2.08,3.89 -0.05,0.86 -0.05,1.72 -0.05,2.58 -0,0.77 -0.01,1.56 0.04,2.34 -1.15,0.25 -2.23,0.71 -3.26,1.33 -1.14,0.69 -2.34,1.54 -3.17,2.61 -0.86,1.1 -1.05,2.79 0.36,3.56 0.62,0.34 1.36,0.49 2.03,0.69l2.2 0.66c0.71,0.21 1.42,0.43 2.12,0.64zm-5.04 -3.65l0 0c-0.15,-0.05 -0.2,-0.07 -0.31,-0.12 -0.02,-0.01 -0.02,-0.01 -0.03,-0.02 0,-0 0,-0.02 0,-0.02 0.02,-0.09 0.05,-0.17 0.08,-0.24 0.27,-0.53 0.79,-0.95 1.24,-1.34 0.48,-0.42 0.99,-0.79 1.53,-1.13 0.93,-0.58 1.92,-1.05 2.93,-1.49 0.1,0.04 0.2,0.07 0.33,0.08 0.57,0.01 0.97,-0.44 1.03,-0.98 -0.02,0.21 0.1,-0.16 0.1,-0.29 -0.01,-0.11 -0.04,-0.24 -0.11,-0.34 0,-0.01 -0,-0.03 -0,-0.04 -0.01,-0.19 -0.02,-0.38 -0.03,-0.58 -0.02,-0.42 -0.03,-0.83 -0.05,-1.25 -0.03,-0.77 -0.07,-1.54 -0.08,-2.31 -0.02,-0.98 -0.11,-2.62 1,-3.09 0.44,-0.19 0.91,0.02 1.3,0.24 0.6,0.35 1.14,0.81 1.7,1.22 0.63,0.46 1.27,0.91 1.91,1.36 0.62,0.43 1.31,0.97 2.03,1.21 0.12,0.04 0.23,0.01 0.33,-0.04 0.12,0.26 0.41,0.45 0.74,0.4 0.68,-0.11 1.35,-0.56 1.95,-0.86 0.63,-0.32 1.25,-0.63 1.88,-0.95 0.36,-0.18 0.86,-0.5 1.29,-0.42 0.34,0.06 0.45,0.38 0.51,0.69 0.21,0.97 0.01,2.11 -0.25,3.05 -0.3,1.1 -0.83,2.02 -1.39,3 -0.26,0.44 -0.03,1.02 0.4,1.22 0.02,0.06 0.04,0.13 0.08,0.18 0.51,0.65 1.3,0.94 1.98,1.36 0.67,0.41 1.33,0.87 1.89,1.43 0.43,0.43 0.84,0.98 0.79,1.62 -0.05,0.63 -0.46,0.8 -1.02,0.94 -1.44,0.36 -2.92,0.38 -4.39,0.2 -0.7,-0.09 -1.39,-0.25 -2.07,-0.46 -0.34,-0.11 -0.67,-0.22 -0.99,-0.36 -0.43,-0.18 -0.78,-0.39 -1.25,-0.25 -0.27,-0.13 -0.63,-0.08 -0.8,0.21 -0.4,0.68 -0.68,1.41 -1,2.13 -0.32,0.72 -0.68,1.43 -1.07,2.12 -0.33,0.6 -0.67,1.22 -1.12,1.74 -0.38,0.45 -0.88,0.86 -1.35,0.98 -0.4,0.1 -0.85,0.07 -1.16,-0.13 -0.12,-0.08 -0.18,-0.14 -0.26,-0.32 -0.15,-0.34 -0.16,-0.77 -0.2,-1.13 -0.09,-0.85 -0.18,-1.7 -0.26,-2.54 -0.07,-0.69 -0.06,-2.01 -0.88,-2.24 -0.11,-0.22 -0.31,-0.41 -0.53,-0.47 0.31,0.09 -0.28,-0.11 -0.34,-0.13 -0.21,-0.08 -0.41,-0.14 -0.63,-0.2 -0.37,-0.11 -0.73,-0.22 -1.1,-0.33 -0.73,-0.22 -1.47,-0.44 -2.2,-0.66 -0.72,-0.21 -1.44,-0.42 -2.16,-0.64z"/>
     <g>
      <path class="fil2" d="M182.82 164.63c0.03,-0.01 0.07,0 0.11,-0.01 0.46,-0.12 0.96,-0.53 1.35,-0.98 0.44,-0.52 0.78,-1.14 1.12,-1.74 0.38,-0.69 0.74,-1.4 1.07,-2.12 0.32,-0.72 0.6,-1.45 1,-2.13 0.17,-0.29 0.53,-0.34 0.8,-0.21 0.22,-0.06 0.41,-0.05 0.59,0 -0.33,-0.24 -0.68,-0.47 -1.06,-0.64 -0.85,-0.37 -1.94,-0.38 -2.59,0.27 -0.33,0.33 -0.5,0.78 -0.65,1.22 -0.54,1.55 -0.98,3.13 -1.31,4.73 -0.11,0.54 -0.21,1.09 -0.42,1.6z"/>
      <path class="fil2" d="M180 150.57c-0,0.03 -0.02,0.06 -0.02,0.09 0.2,-0.07 0.4,-0.14 0.59,-0.21 0.56,-0.2 1.14,-0.41 1.53,-0.85 0.87,-0.98 0.39,-2.5 -0.13,-3.71 -0.45,-1.04 -0.9,-2.07 -1.34,-3.11 -0.89,0.58 -0.82,2.06 -0.8,2.97 0.02,0.77 0.05,1.54 0.08,2.31 0.02,0.42 0.03,0.83 0.05,1.25 0.01,0.19 0.02,0.39 0.03,0.58 0,0.01 0,0.03 0,0.04 0.07,0.1 0.11,0.23 0.11,0.34 0.01,0.13 -0.12,0.5 -0.1,0.29z"/>
      <path class="fil2" d="M177.57 157.12c0.37,0.11 0.73,0.22 1.1,0.33 0.21,0.06 0.42,0.13 0.63,0.2 0.06,0.02 0.65,0.22 0.34,0.13 0.22,0.07 0.42,0.25 0.53,0.47 0.13,0.04 0.24,0.11 0.33,0.2 0.05,-0.54 0.09,-1.09 0.1,-1.63 0,-0.35 -0.01,-0.72 -0.18,-1.03 -0.42,-0.75 -1.48,-0.74 -2.34,-0.65 -1.71,0.18 -3.43,0.29 -5.15,0.31 -0.03,0.06 -0.06,0.13 -0.08,0.21 0,0 -0,0.02 -0,0.02 0.01,0.01 0.02,0.01 0.03,0.02 0.11,0.05 0.16,0.07 0.31,0.12 0.72,0.23 1.44,0.43 2.16,0.64 0.73,0.22 1.47,0.44 2.2,0.66z"/>
      <path class="fil2" d="M188.83 147.06c-0.15,0.03 -0.29,-0.01 -0.41,-0.07 0.25,0.52 0.58,0.98 1.02,1.36 0.2,0.17 0.44,0.33 0.71,0.33 0.3,0 0.56,-0.2 0.79,-0.39 1.19,-1 2.25,-2.16 3.16,-3.42 -0.04,-0.02 -0.08,-0.05 -0.14,-0.06 -0.43,-0.07 -0.93,0.24 -1.29,0.42 -0.63,0.32 -1.25,0.63 -1.88,0.95 -0.61,0.31 -1.28,0.76 -1.95,0.86z"/>
      <path class="fil2" d="M193.31 152.96c-0.04,-0.05 -0.06,-0.12 -0.08,-0.18 -0.2,-0.09 -0.35,-0.27 -0.44,-0.48 -0.23,0.29 -0.44,0.58 -0.59,0.91 -0.42,0.87 -0.45,2 0.2,2.71 0.76,0.83 2.06,0.75 3.19,0.79 0.8,0.03 1.59,0.16 2.36,0.37 -0.07,-0.51 -0.4,-0.96 -0.76,-1.32 -0.56,-0.56 -1.22,-1.02 -1.89,-1.43 -0.69,-0.42 -1.48,-0.72 -1.98,-1.36z"/>
     </g>
     <path class="fil6" d="M184.68 145.98c-0.03,-0.09 -0.07,-0.18 -0.11,-0.27 -0.07,-0.15 -0.21,-0.26 -0.35,-0.35 -0.08,-0.05 -0.16,-0.11 -0.24,-0.17 0.05,0.04 0.11,0.08 0.16,0.13 -0.09,-0.07 -0.18,-0.14 -0.27,-0.2 -0.08,-0.06 -0.16,-0.13 -0.23,-0.2 -0.04,-0.04 -0.08,-0.08 -0.11,-0.11 -0.08,-0.09 -0.16,-0.15 -0.26,-0.23 0.05,0.04 0.1,0.08 0.15,0.11 -0.28,-0.22 -0.66,-0.65 -1.05,-0.41 -0.33,0.2 -0.3,0.66 -0.21,0.98 0.04,0.14 0.09,0.29 0.17,0.41 0.07,0.11 0.15,0.21 0.23,0.32 0.16,0.2 0.32,0.39 0.53,0.55 0.1,0.08 0.2,0.16 0.31,0.22 0.24,0.15 0.52,0.17 0.8,0.11 0.36,-0.09 0.62,-0.52 0.5,-0.88z"/>
     <path class="fil6" d="M185.98 147.54c-0.02,-0.14 -0.03,-0.25 -0.1,-0.38 -0.05,-0.09 -0.11,-0.18 -0.18,-0.25 -0.03,-0.03 -0.07,-0.07 -0.11,-0.1 -0.09,-0.08 -0.19,-0.17 -0.32,-0.2 -0.07,-0.02 -0.14,-0.02 -0.21,-0.03l-0.16 0.02c-0.08,0.02 -0.14,0.05 -0.2,0.11 -0.04,0.03 -0.08,0.06 -0.11,0.11 -0.05,0.06 -0.09,0.13 -0.11,0.2 -0,0.01 -0,0.02 -0.01,0.02 -0.01,0.05 -0.03,0.13 -0.02,0.19 0.01,0.06 0.02,0.11 0.02,0.17l0.07 0.15c0.01,0.01 0.01,0.02 0.02,0.04 0.02,0.05 0.04,0.09 0.06,0.14 0.03,0.05 0.08,0.11 0.11,0.15 0.01,0.01 0.02,0.02 0.03,0.03 0.02,0.02 0.03,0.04 0.05,0.05 0.02,0.03 0.05,0.05 0.08,0.06 0.02,0.02 0.05,0.04 0.07,0.06 0.01,0.01 0.02,0.01 0.03,0.02 0.02,0.01 0.04,0.02 0.07,0.03 0.1,0.06 0.2,0.08 0.31,0.08 0.11,0 0.21,-0.03 0.31,-0.08 0.09,-0.05 0.17,-0.13 0.22,-0.22 0.06,-0.1 0.08,-0.2 0.08,-0.31l-0.01 -0.06z"/>
     <path class="fil6" d="M177.99 153.25c0.01,-0.12 -0.09,-0.22 -0.19,-0.25 -0.03,-0.01 -0.14,-0.03 -0.07,-0.01 0.05,0.01 -0.01,-0 -0.02,-0 0.05,0.03 0.11,0.06 0.16,0.09 -0.1,-0.09 -0.2,-0.13 -0.32,-0.15 -0.16,-0.03 -0.17,-0.03 -0.33,-0 -0.04,0.01 -0.07,0.01 -0.11,0.02 -0.13,0.03 -0.26,0.09 -0.39,0.13 -0.17,0.06 -0.35,0.14 -0.5,0.25 -0.12,0.08 -0.23,0.16 -0.36,0.22 -0.2,0.11 -0.32,0.39 -0.25,0.61 0.07,0.22 0.28,0.41 0.52,0.39 0.38,-0.02 0.78,-0.04 1.11,-0.24 0.16,-0.09 0.33,-0.2 0.46,-0.32 0.16,-0.16 0.3,-0.4 0.28,-0.63 0.01,-0.03 0.02,-0.07 0.02,-0.1z"/>
     <path class="fil6" d="M183.23 159.03c-0,-0.09 -0,-0.19 -0,-0.28 0,-0.15 -0.04,-0.3 -0.06,-0.45 0.01,0.06 0.02,0.12 0.02,0.17 -0.01,-0.08 -0.02,-0.16 -0.03,-0.23 -0.02,-0.07 -0.05,-0.14 -0.09,-0.21 -0.02,-0.05 -0.04,-0.09 -0.06,-0.14 0.01,0.03 0.03,0.06 0.04,0.09 -0.07,-0.16 -0.15,-0.28 -0.33,-0.33 -0.16,-0.04 -0.34,0 -0.45,0.12 -0.04,0.04 -0.08,0.09 -0.12,0.13 -0.11,0.11 -0.16,0.22 -0.22,0.37 -0.03,0.07 -0.05,0.13 -0.08,0.2 -0.04,0.11 -0.04,0.24 -0.06,0.36 -0.02,0.16 -0.03,0.33 -0.01,0.49 0.01,0.09 0.03,0.18 0.06,0.27 0.07,0.21 0.17,0.35 0.36,0.48 0.12,0.08 0.27,0.09 0.4,0.08 0.14,-0.02 0.25,-0.08 0.36,-0.17 0.14,-0.13 0.2,-0.3 0.24,-0.48 0.02,-0.1 0.04,-0.2 0.04,-0.3 -0,-0.05 -0.01,-0.1 -0.01,-0.15z"/>
     <g>
      <path class="fil6" d="M191.24 156.44c0.02,0 0.05,0.01 0.07,0.01 0.01,-0 0.02,-0 0.03,-0 -0.04,0 -0.07,-0 -0.11,-0.01z"/>
      <path class="fil6" d="M192.48 156.73c-0.12,-0.12 -0.25,-0.17 -0.41,-0.19 0,0 -0,0 -0,0 -0.07,-0.01 -0.13,-0.03 -0.19,-0.05 -0.14,-0.05 -0.27,-0.02 -0.41,-0.03 0.03,0 0.06,0.01 0.09,0.01 -0.13,-0.02 -0.26,-0.03 -0.4,0 0.05,-0.01 0.09,-0.01 0.14,-0.02 -0.23,-0.04 -0.45,0.03 -0.6,0.21 -0.07,0.09 -0.1,0.18 -0.12,0.29 -0.01,0.05 -0.01,0.11 0,0.16 0,0.08 0.03,0.16 0.07,0.23 0.09,0.19 0.23,0.36 0.42,0.46 0.25,0.14 0.54,0.23 0.84,0.15 0.1,-0.03 0.2,-0.08 0.3,-0.12 0.09,-0.04 0.19,-0.1 0.25,-0.18 0.12,-0.13 0.2,-0.29 0.21,-0.47 0,-0.17 -0.07,-0.34 -0.19,-0.45z"/>
      <path class="fil6" d="M191.34 156.45c-0.01,-0 -0.01,0 -0.02,0 0.03,0 0.06,0.01 0.09,0.01 -0.02,-0 -0.05,-0.01 -0.07,-0.01z"/>
      <path class="fil6" d="M191.32 156.45c-0,0 -0.01,0 -0.01,0 0.01,0 0.01,-0 0.02,-0 -0,0 -0,-0 -0.01,-0z"/>
     </g>
     <path class="fil6" d="M193.82 148.24c0,-0.14 -0.05,-0.29 -0.15,-0.39 -0,-0 -0.01,-0.01 -0.02,-0.01 -0.1,-0.09 -0.09,-0.08 -0.19,-0.12 -0.02,-0.02 -0.05,-0.03 -0.08,-0.03 -0.05,-0.01 -0.1,-0.01 -0.16,-0.02 -0.03,-0 -0.07,-0 -0.1,-0 -0.05,0 -0.14,0.01 -0.2,0.03 -0.01,0 -0.01,0 -0.02,0.01 -0.07,0.03 -0.14,0.06 -0.2,0.09 -0.01,0 -0.02,0.01 -0.03,0.02 -0.05,0.03 -0.11,0.08 -0.15,0.12 -0.02,0.01 -0.03,0.03 -0.05,0.04 -0.07,0.07 -0.13,0.15 -0.18,0.23 -0.01,0.02 -0.02,0.03 -0.03,0.05 -0.02,0.03 -0.03,0.06 -0.04,0.09 -0.02,0.03 -0.03,0.07 -0.04,0.1 -0,0.01 -0.01,0.02 -0.01,0.03 -0.01,0.05 -0.02,0.1 -0.02,0.15 -0.01,0.04 -0.02,0.07 -0.01,0.11 0.01,0.06 0.02,0.13 0.03,0.19 0,0.01 0,0.02 0,0.03 0.01,0.04 0.02,0.07 0.03,0.11 0.02,0.05 0.04,0.11 0.07,0.16l0.1 0.14 0.14 0.1c0.08,0.05 0.16,0.08 0.25,0.08 0.06,0.02 0.12,0.02 0.18,0 0.06,0 0.12,-0.02 0.17,-0.05 0.06,-0.02 0.11,-0.04 0.15,-0.09 0.07,-0.05 0.13,-0.11 0.17,-0.19 0.02,-0.03 0.04,-0.06 0.06,-0.09 -0.04,0.05 -0.08,0.1 -0.11,0.14 0.05,-0.06 0.11,-0.12 0.14,-0.19 0.01,-0.02 0.02,-0.04 0.03,-0.07 0.03,-0.06 0.05,-0.12 0.07,-0.18 0.01,-0.01 0.01,-0.02 0.01,-0.03 0.04,-0.07 0.07,-0.15 0.1,-0.23 -0.02,0.06 -0.05,0.11 -0.07,0.17 0.03,-0.08 0.07,-0.14 0.1,-0.22 0.01,-0.02 0.01,-0.04 0.02,-0.07 -0.02,0.05 -0.04,0.1 -0.06,0.15 0.05,-0.12 0.09,-0.2 0.1,-0.34z"/>
    </g>
    <g>
     <g>
      <path class="fil3" d="M188.59 199.85c0.24,0.11 0.47,0.22 0.69,0.34 0.07,0.04 0.72,0.37 0.37,0.21 0.25,0.12 0.45,0.37 0.53,0.64 0.92,0.4 0.68,1.95 0.64,2.76 -0.04,1 -0.09,2 -0.13,3.01 -0.02,0.43 -0.08,0.93 0.03,1.36 0.06,0.23 0.12,0.31 0.25,0.42 0.33,0.29 0.85,0.4 1.33,0.35 0.56,-0.06 1.21,-0.45 1.74,-0.91 0.61,-0.53 1.11,-1.2 1.6,-1.84 0.57,-0.74 1.11,-1.5 1.61,-2.29 0.5,-0.78 0.95,-1.58 1.53,-2.31 0.25,-0.31 0.68,-0.3 0.96,-0.1 0.57,-0.07 0.94,0.23 1.41,0.51 0.36,0.21 0.72,0.41 1.1,0.59 0.75,0.36 1.53,0.67 2.33,0.89 1.68,0.46 3.4,0.69 5.15,0.53 0.67,-0.07 1.18,-0.2 1.35,-0.92 0.17,-0.74 -0.21,-1.45 -0.64,-2.03 -0.55,-0.75 -1.24,-1.4 -1.95,-1.99 -0.73,-0.61 -1.6,-1.09 -2.08,-1.93 -0.04,-0.07 -0.05,-0.15 -0.07,-0.23 -0.46,-0.3 -0.63,-1.01 -0.25,-1.49 0.82,-1.04 1.59,-2.03 2.13,-3.26 0.46,-1.05 0.89,-2.35 0.82,-3.51 -0.02,-0.36 -0.09,-0.76 -0.48,-0.89 -0.49,-0.16 -1.13,0.12 -1.58,0.27 -0.79,0.26 -1.57,0.52 -2.36,0.78 -0.76,0.25 -1.62,0.66 -2.43,0.67 -0.4,0.01 -0.7,-0.27 -0.8,-0.59 -0.13,0.04 -0.26,0.05 -0.4,-0.01 -0.8,-0.4 -1.51,-1.15 -2.16,-1.76 -0.67,-0.63 -1.33,-1.27 -1.99,-1.91 -0.58,-0.57 -1.13,-1.2 -1.77,-1.72 -0.41,-0.33 -0.92,-0.65 -1.47,-0.51 -1.38,0.36 -1.55,2.29 -1.7,3.43 -0.11,0.9 -0.21,1.81 -0.3,2.71 -0.05,0.49 -0.1,0.98 -0.16,1.47 -0.02,0.23 -0.05,0.45 -0.07,0.68 -0,0.01 -0,0.03 -0.01,0.05 0.06,0.13 0.09,0.29 0.07,0.42 -0.02,0.16 -0.23,0.57 -0.16,0.32 -0.16,0.62 -0.7,1.08 -1.37,0.96 -0.14,-0.03 -0.26,-0.08 -0.37,-0.14 -1.24,0.34 -2.49,0.72 -3.66,1.23 -0.69,0.3 -1.34,0.65 -1.97,1.05 -0.59,0.38 -1.27,0.78 -1.68,1.35 -0.05,0.07 -0.1,0.16 -0.14,0.26 -0,0 -0,0.02 -0,0.02 0.01,0.01 0.02,0.01 0.04,0.03 0.12,0.08 0.18,0.11 0.34,0.19 0.8,0.39 1.6,0.75 2.41,1.12 0.82,0.38 1.64,0.76 2.46,1.14 0.41,0.19 0.82,0.38 1.23,0.57z"/>
     </g>
     <path class="fil5" d="M187.75 202.14c0.22,0.11 0.47,0.22 0.72,0.3 -0.05,0.49 -0.04,1 -0.05,1.36l-0.11 3.01c-0.04,0.98 -0.04,1.94 0.47,2.82 0.35,0.6 0.91,1.06 1.53,1.34 1.43,0.64 3.02,0.35 4.3,-0.5 1.33,-0.88 2.29,-2.31 3.14,-3.63 0.63,-0.97 1.26,-1.99 1.73,-3.07 0.15,0.11 0.31,0.21 0.49,0.32 0.48,0.28 0.97,0.54 1.47,0.76 1.04,0.47 2.13,0.82 3.24,1.07 1.11,0.25 2.25,0.32 3.39,0.33 1.07,0.01 2.3,0 3.29,-0.43 2.28,-0.99 2.18,-3.84 1.02,-5.64 -0.63,-0.98 -1.53,-1.82 -2.41,-2.57 -0.63,-0.53 -1.27,-1.04 -2,-1.33 0.8,-0.93 1.43,-2.09 1.88,-3.21 0.46,-1.14 0.83,-2.36 0.95,-3.59 0.13,-1.23 -0.09,-2.59 -1.26,-3.24 -1.14,-0.64 -2.49,-0.11 -3.62,0.27 -0.7,0.24 -1.4,0.47 -2.1,0.71 -0.69,0.23 -1.48,0.42 -2.08,0.84 -0.47,-0.94 -1.33,-1.77 -2.02,-2.55 -0.72,-0.81 -1.45,-1.6 -2.19,-2.38 -1.21,-1.27 -2.65,-2.58 -4.54,-2.03 -1.87,0.54 -2.74,2.43 -3.09,4.18 -0.2,0.99 -0.35,2 -0.5,3 -0.14,0.9 -0.28,1.82 -0.36,2.74 -1.39,0.1 -2.72,0.44 -4.03,0.99 -1.45,0.6 -2.99,1.4 -4.14,2.49 -1.19,1.14 -1.71,3.07 -0.19,4.21 0.67,0.5 1.49,0.8 2.25,1.16l2.45 1.15c0.79,0.37 1.58,0.74 2.36,1.11zm-5.25 -5.12l0 0c-0.17,-0.08 -0.22,-0.11 -0.34,-0.19 -0.02,-0.01 -0.03,-0.02 -0.04,-0.03 0,-0.01 0,-0.02 0,-0.02 0.04,-0.1 0.09,-0.19 0.14,-0.26 0.41,-0.57 1.09,-0.97 1.68,-1.35 0.63,-0.4 1.29,-0.75 1.97,-1.05 1.18,-0.52 2.42,-0.89 3.66,-1.23 0.11,0.06 0.23,0.12 0.37,0.14 0.66,0.11 1.21,-0.34 1.37,-0.96 -0.06,0.25 0.15,-0.16 0.16,-0.32 0.01,-0.13 -0.01,-0.29 -0.07,-0.42 0,-0.01 0,-0.04 0.01,-0.05 0.02,-0.23 0.05,-0.45 0.07,-0.68 0.05,-0.49 0.1,-0.98 0.16,-1.47 0.09,-0.9 0.19,-1.81 0.3,-2.71 0.14,-1.14 0.32,-3.07 1.7,-3.43 0.55,-0.14 1.06,0.18 1.47,0.51 0.64,0.51 1.19,1.14 1.77,1.72 0.65,0.65 1.32,1.28 1.99,1.91 0.65,0.61 1.35,1.36 2.16,1.76 0.13,0.06 0.27,0.05 0.4,0.01 0.09,0.32 0.4,0.6 0.8,0.59 0.81,-0.01 1.67,-0.42 2.43,-0.67 0.79,-0.26 1.57,-0.52 2.36,-0.78 0.46,-0.15 1.09,-0.43 1.58,-0.27 0.39,0.13 0.45,0.52 0.48,0.89 0.08,1.16 -0.35,2.46 -0.82,3.51 -0.54,1.23 -1.31,2.22 -2.13,3.26 -0.37,0.47 -0.21,1.19 0.25,1.49 0.02,0.08 0.03,0.16 0.07,0.23 0.48,0.84 1.35,1.32 2.08,1.93 0.71,0.6 1.4,1.25 1.95,1.99 0.43,0.58 0.81,1.29 0.64,2.03 -0.17,0.72 -0.68,0.85 -1.35,0.92 -1.74,0.17 -3.46,-0.06 -5.15,-0.53 -0.8,-0.22 -1.58,-0.53 -2.33,-0.89 -0.37,-0.18 -0.74,-0.38 -1.1,-0.59 -0.47,-0.28 -0.84,-0.58 -1.41,-0.51 -0.29,-0.2 -0.71,-0.21 -0.96,0.1 -0.58,0.72 -1.03,1.53 -1.53,2.31 -0.5,0.79 -1.04,1.55 -1.61,2.29 -0.49,0.64 -0.99,1.3 -1.6,1.84 -0.52,0.46 -1.18,0.85 -1.74,0.91 -0.48,0.05 -1,-0.06 -1.33,-0.35 -0.13,-0.11 -0.18,-0.19 -0.25,-0.42 -0.12,-0.42 -0.05,-0.92 -0.03,-1.36 0.04,-1 0.09,-2 0.13,-3.01 0.03,-0.81 0.28,-2.36 -0.64,-2.76 -0.08,-0.28 -0.29,-0.53 -0.53,-0.64 0.34,0.16 -0.31,-0.17 -0.37,-0.21 -0.23,-0.12 -0.46,-0.23 -0.69,-0.34 -0.41,-0.19 -0.82,-0.38 -1.23,-0.57 -0.82,-0.38 -1.64,-0.76 -2.46,-1.14 -0.8,-0.37 -1.61,-0.73 -2.41,-1.12z"/>
     <g>
      <path class="fil2" d="M192.19 208.93c0.04,-0 0.08,0.01 0.12,0.01 0.56,-0.06 1.21,-0.45 1.74,-0.91 0.61,-0.53 1.11,-1.2 1.6,-1.84 0.57,-0.74 1.11,-1.5 1.61,-2.29 0.5,-0.78 0.95,-1.58 1.53,-2.31 0.25,-0.31 0.68,-0.3 0.96,-0.1 0.26,-0.03 0.48,0.02 0.69,0.11 -0.35,-0.34 -0.71,-0.67 -1.12,-0.92 -0.92,-0.58 -2.19,-0.78 -3.06,-0.13 -0.44,0.33 -0.71,0.82 -0.97,1.31 -0.89,1.71 -1.67,3.48 -2.33,5.29 -0.22,0.61 -0.44,1.24 -0.77,1.79z"/>
      <path class="fil2" d="M191.31 192.06c-0.01,0.03 -0.03,0.06 -0.04,0.1 0.24,-0.05 0.48,-0.09 0.72,-0.14 0.68,-0.13 1.4,-0.28 1.93,-0.72 1.18,-0.99 0.89,-2.85 0.49,-4.34 -0.34,-1.28 -0.69,-2.57 -1.03,-3.85 -1.14,0.52 -1.31,2.26 -1.44,3.32 -0.11,0.9 -0.21,1.81 -0.3,2.71 -0.05,0.49 -0.1,0.98 -0.16,1.47 -0.02,0.23 -0.05,0.45 -0.07,0.68 -0,0.01 -0,0.03 -0.01,0.05 0.06,0.13 0.09,0.29 0.07,0.42 -0.02,0.16 -0.23,0.57 -0.16,0.32z"/>
      <path class="fil2" d="M187.36 199.28c0.41,0.19 0.82,0.38 1.23,0.57 0.24,0.11 0.47,0.22 0.69,0.34 0.07,0.04 0.72,0.37 0.37,0.21 0.25,0.12 0.45,0.37 0.53,0.64 0.15,0.07 0.26,0.17 0.35,0.29 0.15,-0.62 0.29,-1.25 0.39,-1.89 0.07,-0.41 0.12,-0.84 -0.03,-1.23 -0.36,-0.95 -1.6,-1.12 -2.61,-1.16 -2.02,-0.08 -4.04,-0.25 -6.05,-0.52 -0.04,0.07 -0.09,0.14 -0.13,0.23 -0,0 -0,0.02 -0,0.02 0.01,0.01 0.02,0.01 0.04,0.03 0.12,0.08 0.18,0.11 0.34,0.19 0.8,0.39 1.6,0.75 2.41,1.12 0.82,0.38 1.64,0.76 2.46,1.14z"/>
      <path class="fil2" d="M202.21 189.49c-0.18,0 -0.34,-0.06 -0.47,-0.15 0.2,0.64 0.51,1.25 0.96,1.76 0.21,0.23 0.46,0.46 0.77,0.51 0.35,0.05 0.69,-0.13 0.99,-0.32 1.56,-0.96 2.99,-2.13 4.27,-3.44 -0.05,-0.03 -0.09,-0.07 -0.15,-0.09 -0.49,-0.16 -1.13,0.12 -1.58,0.27 -0.79,0.26 -1.57,0.52 -2.36,0.78 -0.76,0.25 -1.62,0.66 -2.43,0.67z"/>
      <path class="fil2" d="M206.41 197.14c-0.04,-0.07 -0.05,-0.15 -0.07,-0.23 -0.22,-0.14 -0.36,-0.38 -0.42,-0.64 -0.31,0.29 -0.61,0.6 -0.85,0.96 -0.63,0.94 -0.87,2.25 -0.23,3.19 0.75,1.1 2.27,1.22 3.58,1.46 0.92,0.17 1.82,0.46 2.69,0.84 0,-0.61 -0.3,-1.18 -0.66,-1.67 -0.55,-0.75 -1.24,-1.4 -1.95,-1.99 -0.73,-0.61 -1.6,-1.09 -2.08,-1.93z"/>
     </g>
     <path class="fil6" d="M197.56 187.52c-0.02,-0.11 -0.06,-0.22 -0.09,-0.33 -0.06,-0.19 -0.2,-0.34 -0.35,-0.47 -0.09,-0.08 -0.17,-0.15 -0.25,-0.24 0.06,0.06 0.11,0.12 0.17,0.18 -0.09,-0.1 -0.19,-0.19 -0.28,-0.28 -0.08,-0.09 -0.16,-0.18 -0.24,-0.27 -0.04,-0.05 -0.08,-0.1 -0.11,-0.15 -0.08,-0.11 -0.16,-0.2 -0.26,-0.31 0.05,0.05 0.1,0.11 0.15,0.16 -0.29,-0.3 -0.66,-0.87 -1.16,-0.66 -0.42,0.17 -0.46,0.72 -0.41,1.1 0.02,0.17 0.06,0.35 0.13,0.51 0.06,0.14 0.14,0.27 0.21,0.41 0.15,0.27 0.31,0.51 0.52,0.73 0.11,0.11 0.21,0.21 0.32,0.31 0.25,0.22 0.58,0.29 0.91,0.26 0.44,-0.04 0.81,-0.5 0.74,-0.94z"/>
     <path class="fil6" d="M198.8 189.55c0.01,-0.17 0.01,-0.3 -0.05,-0.46 -0.04,-0.11 -0.09,-0.23 -0.16,-0.32 -0.03,-0.05 -0.07,-0.09 -0.11,-0.14 -0.09,-0.12 -0.2,-0.23 -0.34,-0.29 -0.08,-0.03 -0.16,-0.05 -0.24,-0.07l-0.19 -0c-0.09,0.01 -0.18,0.04 -0.25,0.09 -0.06,0.02 -0.1,0.06 -0.14,0.11 -0.07,0.06 -0.13,0.13 -0.16,0.22 -0,0.01 -0.01,0.02 -0.01,0.03 -0.02,0.06 -0.05,0.15 -0.06,0.21 -0,0.07 -0,0.14 -0,0.2l0.05 0.19c0,0.02 0.01,0.03 0.01,0.04 0.02,0.06 0.03,0.11 0.05,0.17 0.02,0.06 0.07,0.14 0.11,0.2 0.01,0.01 0.02,0.03 0.03,0.04 0.02,0.02 0.03,0.05 0.04,0.07 0.02,0.03 0.05,0.06 0.08,0.09 0.02,0.03 0.05,0.05 0.08,0.08 0.01,0.01 0.02,0.02 0.04,0.02 0.02,0.02 0.05,0.03 0.07,0.05 0.1,0.08 0.22,0.13 0.35,0.15 0.13,0.02 0.25,0 0.37,-0.04 0.12,-0.05 0.21,-0.12 0.29,-0.22 0.08,-0.1 0.13,-0.22 0.15,-0.35l0 -0.08z"/>
     <path class="fil6" d="M188.51 194.84c0.03,-0.14 -0.06,-0.27 -0.18,-0.33 -0.03,-0.01 -0.16,-0.05 -0.08,-0.03 0.06,0.02 -0.02,-0.01 -0.02,-0.01 0.06,0.04 0.11,0.09 0.17,0.14 -0.1,-0.12 -0.21,-0.19 -0.35,-0.23 -0.18,-0.06 -0.19,-0.06 -0.38,-0.06 -0.04,0 -0.09,0 -0.13,0.01 -0.16,0.01 -0.32,0.06 -0.47,0.09 -0.21,0.04 -0.43,0.1 -0.63,0.2 -0.15,0.07 -0.3,0.14 -0.45,0.2 -0.25,0.09 -0.44,0.4 -0.39,0.66 0.04,0.26 0.25,0.53 0.54,0.55 0.44,0.04 0.91,0.09 1.33,-0.09 0.2,-0.08 0.42,-0.17 0.59,-0.3 0.21,-0.16 0.41,-0.41 0.43,-0.69 0.01,-0.04 0.03,-0.08 0.04,-0.12z"/>
     <path class="fil6" d="M193.63 202.47c0.01,-0.11 0.03,-0.22 0.05,-0.32 0.03,-0.18 0.01,-0.36 0.01,-0.54 -0,0.07 -0,0.14 -0,0.21 0,-0.09 0.01,-0.18 0,-0.27 -0.01,-0.09 -0.04,-0.17 -0.07,-0.26 -0.02,-0.06 -0.03,-0.12 -0.05,-0.18 0.01,0.04 0.02,0.07 0.03,0.11 -0.05,-0.19 -0.13,-0.35 -0.32,-0.44 -0.18,-0.08 -0.39,-0.06 -0.55,0.06 -0.06,0.04 -0.11,0.08 -0.16,0.13 -0.15,0.11 -0.23,0.23 -0.32,0.39 -0.04,0.07 -0.08,0.15 -0.12,0.22 -0.07,0.13 -0.09,0.27 -0.13,0.41 -0.05,0.18 -0.09,0.37 -0.1,0.56 -0,0.11 0,0.22 0.02,0.33 0.04,0.26 0.14,0.44 0.34,0.62 0.12,0.11 0.29,0.15 0.45,0.16 0.17,0 0.31,-0.05 0.45,-0.14 0.19,-0.13 0.29,-0.32 0.36,-0.52 0.04,-0.11 0.08,-0.23 0.09,-0.34 0.01,-0.06 0.01,-0.12 0.02,-0.18z"/>
     <g>
      <path class="fil6" d="M203.41 200.83c0.03,0.01 0.06,0.02 0.08,0.02 0.01,0 0.03,0 0.04,0 -0.04,-0 -0.08,-0.01 -0.13,-0.02z"/>
      <path class="fil6" d="M204.8 201.38c-0.12,-0.16 -0.27,-0.24 -0.45,-0.29 -0,0 -0,0 -0,0 -0.07,-0.03 -0.14,-0.06 -0.21,-0.09 -0.15,-0.08 -0.32,-0.07 -0.47,-0.11 0.04,0.01 0.07,0.02 0.11,0.03 -0.15,-0.05 -0.3,-0.09 -0.46,-0.07 0.05,0 0.11,0 0.16,0 -0.26,-0.08 -0.53,-0.05 -0.73,0.15 -0.09,0.09 -0.15,0.19 -0.19,0.31 -0.03,0.06 -0.04,0.12 -0.03,0.19 -0.01,0.09 0.01,0.19 0.04,0.27 0.07,0.24 0.21,0.46 0.4,0.61 0.27,0.21 0.59,0.37 0.95,0.32 0.12,-0.02 0.25,-0.05 0.37,-0.09 0.11,-0.03 0.24,-0.09 0.33,-0.16 0.16,-0.13 0.29,-0.31 0.32,-0.52 0.03,-0.19 -0.03,-0.41 -0.14,-0.56z"/>
      <path class="fil6" d="M203.52 200.86c-0.01,-0 -0.01,0 -0.02,-0 0.03,0.01 0.07,0.02 0.1,0.03 -0.03,-0.01 -0.05,-0.02 -0.08,-0.03z"/>
      <path class="fil6" d="M203.49 200.86c-0,0 -0.01,0 -0.01,0 0.01,0 0.01,0 0.02,0 -0,-0 -0,-0 -0.01,-0z"/>
     </g>
     <path class="fil6" d="M207.82 191.72c0.03,-0.17 -0,-0.34 -0.11,-0.48 -0.01,-0.01 -0.01,-0.01 -0.02,-0.02 -0.1,-0.12 -0.09,-0.11 -0.2,-0.18 -0.03,-0.02 -0.05,-0.04 -0.09,-0.05 -0.06,-0.02 -0.12,-0.03 -0.18,-0.05 -0.04,-0.01 -0.07,-0.02 -0.11,-0.02 -0.06,-0.01 -0.17,-0.01 -0.23,-0 -0.01,0 -0.02,0 -0.03,0 -0.08,0.02 -0.17,0.04 -0.25,0.07 -0.01,0 -0.02,0.01 -0.04,0.01 -0.06,0.03 -0.14,0.08 -0.2,0.11 -0.02,0.01 -0.04,0.03 -0.06,0.04 -0.09,0.07 -0.17,0.16 -0.25,0.23 -0.02,0.02 -0.03,0.03 -0.05,0.05 -0.03,0.03 -0.05,0.07 -0.06,0.1 -0.03,0.03 -0.05,0.07 -0.07,0.11 -0,0.01 -0.01,0.02 -0.01,0.03 -0.02,0.06 -0.04,0.11 -0.05,0.17 -0.02,0.04 -0.03,0.08 -0.03,0.12 -0,0.08 -0,0.15 -0,0.23 0,0.01 0,0.02 0,0.03 0,0.04 0.01,0.09 0.02,0.13 0.02,0.07 0.03,0.13 0.05,0.2l0.1 0.18 0.14 0.14c0.08,0.07 0.17,0.12 0.28,0.14 0.07,0.03 0.14,0.04 0.21,0.03 0.07,0.01 0.14,0 0.2,-0.02 0.07,-0.01 0.13,-0.03 0.19,-0.07 0.09,-0.04 0.17,-0.11 0.23,-0.19 0.03,-0.03 0.05,-0.07 0.08,-0.1 -0.05,0.05 -0.1,0.1 -0.16,0.15 0.07,-0.06 0.15,-0.12 0.2,-0.2 0.02,-0.02 0.03,-0.05 0.05,-0.07 0.05,-0.07 0.08,-0.13 0.11,-0.2 0.01,-0.01 0.01,-0.02 0.02,-0.03 0.06,-0.08 0.11,-0.17 0.16,-0.25 -0.04,0.06 -0.07,0.12 -0.11,0.18 0.05,-0.08 0.11,-0.16 0.15,-0.25 0.01,-0.03 0.02,-0.05 0.04,-0.07 -0.03,0.05 -0.06,0.11 -0.1,0.16 0.08,-0.13 0.15,-0.22 0.17,-0.38z"/>
    </g>
    <g>
     <g>
      <path class="fil3" d="M96.34 157.45c-0.21,0.06 -0.42,0.13 -0.63,0.2 -0.06,0.02 -0.65,0.22 -0.34,0.13 -0.22,0.07 -0.42,0.25 -0.53,0.47 -0.82,0.22 -0.81,1.55 -0.88,2.24 -0.09,0.85 -0.18,1.69 -0.26,2.54 -0.04,0.37 -0.05,0.79 -0.2,1.13 -0.08,0.18 -0.14,0.24 -0.26,0.32 -0.31,0.21 -0.76,0.23 -1.16,0.13 -0.46,-0.12 -0.96,-0.53 -1.35,-0.98 -0.44,-0.52 -0.78,-1.14 -1.12,-1.74 -0.38,-0.69 -0.74,-1.4 -1.07,-2.12 -0.32,-0.72 -0.6,-1.45 -1,-2.13 -0.17,-0.29 -0.53,-0.34 -0.8,-0.21 -0.47,-0.13 -0.82,0.08 -1.25,0.25 -0.33,0.13 -0.66,0.25 -0.99,0.36 -0.67,0.21 -1.37,0.38 -2.07,0.46 -1.47,0.18 -2.94,0.16 -4.39,-0.2 -0.56,-0.14 -0.97,-0.31 -1.02,-0.94 -0.05,-0.64 0.36,-1.19 0.79,-1.62 0.56,-0.56 1.22,-1.02 1.89,-1.43 0.69,-0.42 1.48,-0.72 1.98,-1.36 0.04,-0.05 0.06,-0.12 0.08,-0.18 0.42,-0.2 0.65,-0.77 0.4,-1.22 -0.56,-0.98 -1.09,-1.91 -1.39,-3 -0.26,-0.94 -0.46,-2.09 -0.25,-3.05 0.06,-0.3 0.17,-0.63 0.51,-0.69 0.43,-0.07 0.93,0.24 1.3,0.42 0.63,0.32 1.25,0.63 1.88,0.95 0.61,0.31 1.28,0.76 1.95,0.86 0.34,0.05 0.62,-0.14 0.74,-0.4 0.1,0.05 0.22,0.08 0.33,0.04 0.72,-0.24 1.41,-0.78 2.03,-1.21 0.64,-0.45 1.28,-0.9 1.91,-1.36 0.56,-0.41 1.1,-0.87 1.7,-1.22 0.39,-0.23 0.85,-0.43 1.3,-0.24 1.11,0.47 1.02,2.11 1,3.09 -0.02,0.77 -0.05,1.54 -0.08,2.31 -0.02,0.42 -0.03,0.83 -0.05,1.25 -0.01,0.19 -0.02,0.39 -0.03,0.58 0,0.01 -0,0.03 -0,0.04 -0.07,0.1 -0.11,0.23 -0.11,0.34 -0.01,0.13 0.12,0.5 0.1,0.29 0.06,0.54 0.46,0.99 1.03,0.98 0.12,-0 0.23,-0.04 0.33,-0.08 1,0.44 2,0.91 2.93,1.49 0.54,0.34 1.05,0.71 1.53,1.13 0.45,0.39 0.97,0.81 1.24,1.34 0.03,0.07 0.06,0.14 0.09,0.24 0,0 0,0.02 0,0.02 -0.01,0.01 -0.02,0.01 -0.04,0.02 -0.11,0.05 -0.16,0.07 -0.31,0.12 -0.72,0.23 -1.44,0.43 -2.16,0.64 -0.74,0.22 -1.47,0.44 -2.2,0.66 -0.37,0.11 -0.74,0.22 -1.1,0.33z"/>
     </g>
     <path class="fil5" d="M98.88 158.83l2.2 -0.66c0.67,-0.2 1.41,-0.36 2.03,-0.69 1.42,-0.77 1.22,-2.46 0.37,-3.56 -0.83,-1.06 -2.02,-1.92 -3.17,-2.61 -1.03,-0.62 -2.11,-1.08 -3.26,-1.33 0.05,-0.78 0.04,-1.57 0.04,-2.34 -0,-0.86 -0.01,-1.72 -0.05,-2.58 -0.08,-1.51 -0.58,-3.21 -2.08,-3.89 -1.52,-0.7 -2.89,0.23 -4.07,1.14 -0.72,0.56 -1.43,1.14 -2.14,1.73 -0.68,0.57 -1.5,1.16 -2.01,1.89 -0.46,-0.43 -1.09,-0.68 -1.64,-0.97 -0.56,-0.29 -1.12,-0.57 -1.67,-0.86 -0.9,-0.46 -1.97,-1.07 -3.01,-0.68 -1.07,0.4 -1.42,1.52 -1.46,2.56 -0.05,1.05 0.11,2.12 0.36,3.13 0.24,0.99 0.63,2.04 1.19,2.93 -0.65,0.15 -1.26,0.5 -1.85,0.87 -0.83,0.52 -1.69,1.12 -2.34,1.86 -1.2,1.37 -1.64,3.75 0.16,4.86 0.78,0.49 1.81,0.65 2.71,0.77 0.96,0.13 1.92,0.21 2.89,0.14 0.96,-0.07 1.93,-0.23 2.85,-0.5 0.45,-0.13 0.9,-0.28 1.33,-0.46 0.17,-0.07 0.32,-0.13 0.46,-0.2 0.26,0.96 0.67,1.9 1.07,2.79 0.56,1.22 1.18,2.53 2.19,3.44 0.97,0.87 2.26,1.31 3.55,0.95 0.56,-0.16 1.09,-0.48 1.45,-0.94 0.54,-0.68 0.65,-1.48 0.75,-2.31l0.28 -2.54c0.03,-0.3 0.11,-0.73 0.13,-1.15 0.22,-0.03 0.44,-0.1 0.64,-0.16 0.71,-0.21 1.42,-0.43 2.12,-0.64zm0.76 -2.37l0 0c-0.74,0.22 -1.47,0.44 -2.2,0.66 -0.37,0.11 -0.74,0.22 -1.1,0.33 -0.21,0.06 -0.42,0.13 -0.63,0.2 -0.06,0.02 -0.65,0.22 -0.34,0.13 -0.22,0.07 -0.42,0.25 -0.53,0.47 -0.82,0.22 -0.81,1.55 -0.88,2.24 -0.09,0.85 -0.18,1.69 -0.26,2.54 -0.04,0.37 -0.05,0.79 -0.2,1.13 -0.08,0.18 -0.14,0.24 -0.26,0.32 -0.31,0.21 -0.76,0.23 -1.16,0.13 -0.46,-0.12 -0.96,-0.53 -1.35,-0.98 -0.44,-0.52 -0.78,-1.14 -1.12,-1.74 -0.38,-0.69 -0.74,-1.4 -1.07,-2.12 -0.32,-0.72 -0.6,-1.45 -1,-2.13 -0.17,-0.29 -0.53,-0.34 -0.8,-0.21 -0.47,-0.13 -0.82,0.08 -1.25,0.25 -0.33,0.13 -0.66,0.25 -0.99,0.36 -0.67,0.21 -1.37,0.38 -2.07,0.46 -1.47,0.18 -2.94,0.16 -4.39,-0.2 -0.56,-0.14 -0.97,-0.31 -1.02,-0.94 -0.05,-0.64 0.36,-1.19 0.79,-1.62 0.56,-0.56 1.22,-1.02 1.89,-1.43 0.69,-0.42 1.48,-0.72 1.98,-1.36 0.04,-0.05 0.06,-0.12 0.08,-0.18 0.42,-0.2 0.65,-0.77 0.4,-1.22 -0.56,-0.98 -1.09,-1.91 -1.39,-3 -0.26,-0.94 -0.46,-2.09 -0.25,-3.05 0.06,-0.3 0.17,-0.63 0.51,-0.69 0.43,-0.07 0.93,0.24 1.3,0.42 0.63,0.32 1.25,0.63 1.88,0.95 0.61,0.31 1.28,0.76 1.95,0.86 0.34,0.05 0.62,-0.14 0.74,-0.4 0.1,0.05 0.22,0.08 0.33,0.04 0.72,-0.24 1.41,-0.78 2.03,-1.21 0.64,-0.45 1.28,-0.9 1.91,-1.36 0.56,-0.41 1.1,-0.87 1.7,-1.22 0.39,-0.23 0.85,-0.43 1.3,-0.24 1.11,0.47 1.02,2.11 1,3.09 -0.02,0.77 -0.05,1.54 -0.08,2.31 -0.02,0.42 -0.03,0.83 -0.05,1.25 -0.01,0.19 -0.02,0.39 -0.03,0.58 0,0.01 -0,0.03 -0,0.04 -0.07,0.1 -0.11,0.23 -0.11,0.34 -0.01,0.13 0.12,0.5 0.1,0.29 0.06,0.54 0.46,0.99 1.03,0.98 0.12,-0 0.23,-0.04 0.33,-0.08 1,0.44 2,0.91 2.93,1.49 0.54,0.34 1.05,0.71 1.53,1.13 0.45,0.39 0.97,0.81 1.24,1.34 0.03,0.07 0.06,0.14 0.09,0.24 0,0 0,0.02 0,0.02 -0.01,0.01 -0.02,0.01 -0.04,0.02 -0.11,0.05 -0.16,0.07 -0.31,0.12 -0.72,0.23 -1.44,0.43 -2.16,0.64z"/>
     <g>
      <path class="fil2" d="M92.19 164.63c-0.03,-0.01 -0.07,0 -0.1,-0.01 -0.46,-0.12 -0.96,-0.53 -1.35,-0.98 -0.44,-0.52 -0.78,-1.14 -1.12,-1.74 -0.38,-0.69 -0.74,-1.4 -1.07,-2.12 -0.32,-0.72 -0.6,-1.45 -1,-2.13 -0.17,-0.29 -0.53,-0.34 -0.8,-0.21 -0.22,-0.06 -0.41,-0.05 -0.59,0 0.33,-0.24 0.68,-0.47 1.06,-0.64 0.85,-0.37 1.94,-0.38 2.59,0.27 0.33,0.33 0.5,0.78 0.65,1.22 0.54,1.55 0.98,3.13 1.31,4.73 0.11,0.54 0.21,1.09 0.42,1.6z"/>
      <path class="fil2" d="M95.01 150.57c0,0.03 0.02,0.06 0.02,0.09 -0.2,-0.07 -0.4,-0.14 -0.59,-0.21 -0.56,-0.2 -1.14,-0.41 -1.53,-0.85 -0.87,-0.98 -0.39,-2.5 0.13,-3.71 0.45,-1.04 0.9,-2.07 1.34,-3.11 0.89,0.58 0.82,2.06 0.8,2.97 -0.02,0.77 -0.05,1.54 -0.08,2.31 -0.02,0.42 -0.03,0.83 -0.05,1.25 -0.01,0.19 -0.02,0.39 -0.03,0.58 0,0.01 -0,0.03 -0,0.04 -0.07,0.1 -0.11,0.23 -0.11,0.34 -0.01,0.13 0.12,0.5 0.1,0.29z"/>
      <path class="fil2" d="M97.44 157.12c-0.37,0.11 -0.74,0.22 -1.1,0.33 -0.21,0.06 -0.42,0.13 -0.63,0.2 -0.06,0.02 -0.65,0.22 -0.34,0.13 -0.22,0.07 -0.42,0.25 -0.53,0.47 -0.13,0.04 -0.24,0.11 -0.33,0.2 -0.05,-0.54 -0.09,-1.09 -0.1,-1.63 -0,-0.35 0.01,-0.72 0.18,-1.03 0.42,-0.75 1.48,-0.74 2.34,-0.65 1.71,0.18 3.43,0.29 5.15,0.31 0.03,0.06 0.06,0.13 0.08,0.21 0,0 0,0.02 0,0.02 -0.01,0.01 -0.02,0.01 -0.04,0.02 -0.11,0.05 -0.16,0.07 -0.31,0.12 -0.72,0.23 -1.44,0.43 -2.16,0.64 -0.74,0.22 -1.47,0.44 -2.2,0.66z"/>
      <path class="fil2" d="M86.18 147.06c0.15,0.03 0.29,-0.01 0.42,-0.07 -0.25,0.52 -0.58,0.98 -1.02,1.36 -0.2,0.17 -0.44,0.33 -0.71,0.33 -0.3,0 -0.56,-0.2 -0.79,-0.39 -1.19,-1 -2.25,-2.16 -3.16,-3.42 0.04,-0.02 0.08,-0.05 0.14,-0.06 0.43,-0.07 0.93,0.24 1.3,0.42 0.63,0.32 1.25,0.63 1.88,0.95 0.61,0.31 1.28,0.76 1.95,0.86z"/>
      <path class="fil2" d="M81.7 152.96c0.04,-0.05 0.06,-0.12 0.08,-0.18 0.2,-0.09 0.35,-0.27 0.44,-0.48 0.23,0.29 0.44,0.58 0.59,0.91 0.42,0.87 0.45,2 -0.2,2.71 -0.76,0.83 -2.06,0.75 -3.19,0.79 -0.8,0.03 -1.59,0.16 -2.36,0.37 0.07,-0.51 0.4,-0.96 0.76,-1.32 0.56,-0.56 1.22,-1.02 1.89,-1.43 0.69,-0.42 1.48,-0.72 1.98,-1.36z"/>
     </g>
     <path class="fil6" d="M90.33 145.98c0.03,-0.09 0.07,-0.18 0.11,-0.27 0.07,-0.15 0.21,-0.26 0.35,-0.35 0.08,-0.05 0.16,-0.11 0.24,-0.17 -0.06,0.04 -0.11,0.08 -0.16,0.13 0.09,-0.07 0.18,-0.14 0.27,-0.2 0.08,-0.06 0.16,-0.13 0.23,-0.2 0.04,-0.04 0.08,-0.08 0.11,-0.11 0.08,-0.09 0.16,-0.15 0.26,-0.23 -0.05,0.04 -0.1,0.08 -0.15,0.11 0.28,-0.22 0.66,-0.65 1.05,-0.41 0.33,0.2 0.3,0.66 0.21,0.98 -0.04,0.14 -0.09,0.29 -0.17,0.41 -0.07,0.11 -0.15,0.21 -0.23,0.32 -0.16,0.2 -0.32,0.39 -0.53,0.55 -0.1,0.08 -0.2,0.16 -0.31,0.22 -0.24,0.15 -0.52,0.17 -0.8,0.11 -0.36,-0.09 -0.62,-0.52 -0.5,-0.88z"/>
     <path class="fil6" d="M89.03 147.54c0.02,-0.14 0.03,-0.25 0.1,-0.38 0.05,-0.09 0.11,-0.18 0.18,-0.25 0.03,-0.03 0.07,-0.07 0.11,-0.1 0.09,-0.08 0.19,-0.17 0.32,-0.2 0.07,-0.02 0.14,-0.02 0.21,-0.03l0.16 0.02c0.08,0.02 0.14,0.05 0.2,0.11 0.05,0.03 0.08,0.06 0.11,0.11 0.05,0.06 0.09,0.13 0.11,0.2 0,0.01 0,0.02 0.01,0.02 0.01,0.05 0.03,0.13 0.03,0.19 -0.01,0.06 -0.02,0.11 -0.02,0.17l-0.07 0.15c-0.01,0.01 -0.01,0.02 -0.02,0.04 -0.02,0.05 -0.04,0.09 -0.06,0.14 -0.03,0.05 -0.08,0.11 -0.11,0.15 -0.01,0.01 -0.02,0.02 -0.03,0.03 -0.02,0.02 -0.03,0.04 -0.05,0.05 -0.02,0.03 -0.05,0.05 -0.08,0.06 -0.02,0.02 -0.05,0.04 -0.07,0.06 -0.01,0.01 -0.02,0.01 -0.03,0.02 -0.02,0.01 -0.04,0.02 -0.07,0.03 -0.09,0.06 -0.2,0.08 -0.31,0.08 -0.11,0 -0.21,-0.03 -0.31,-0.08 -0.09,-0.05 -0.17,-0.13 -0.22,-0.22 -0.06,-0.1 -0.08,-0.2 -0.08,-0.31l0.01 -0.06z"/>
     <path class="fil6" d="M97.02 153.25c-0.01,-0.12 0.09,-0.22 0.19,-0.25 0.03,-0.01 0.14,-0.03 0.07,-0.01 -0.05,0.01 0.01,-0 0.02,-0 -0.05,0.03 -0.11,0.06 -0.16,0.09 0.1,-0.09 0.2,-0.13 0.32,-0.15 0.16,-0.03 0.17,-0.03 0.33,-0 0.04,0.01 0.07,0.01 0.11,0.02 0.13,0.03 0.26,0.09 0.39,0.13 0.17,0.06 0.35,0.14 0.5,0.25 0.12,0.08 0.23,0.16 0.36,0.22 0.2,0.11 0.32,0.39 0.25,0.61 -0.07,0.22 -0.28,0.41 -0.52,0.39 -0.38,-0.02 -0.78,-0.04 -1.11,-0.24 -0.15,-0.09 -0.33,-0.2 -0.46,-0.32 -0.16,-0.16 -0.3,-0.4 -0.28,-0.63 -0.01,-0.03 -0.02,-0.07 -0.02,-0.1z"/>
     <path class="fil6" d="M91.78 159.03c0,-0.09 0,-0.19 0,-0.28 0,-0.15 0.04,-0.3 0.06,-0.45 -0.01,0.06 -0.02,0.12 -0.02,0.17 0.01,-0.08 0.01,-0.16 0.03,-0.23 0.02,-0.07 0.05,-0.14 0.09,-0.21 0.02,-0.05 0.04,-0.09 0.06,-0.14 -0.01,0.03 -0.03,0.06 -0.04,0.09 0.07,-0.16 0.15,-0.28 0.33,-0.33 0.16,-0.04 0.34,0 0.45,0.12 0.04,0.04 0.08,0.09 0.12,0.13 0.11,0.11 0.16,0.22 0.22,0.37 0.03,0.07 0.05,0.13 0.08,0.2 0.04,0.11 0.04,0.24 0.06,0.36 0.02,0.16 0.03,0.33 0.01,0.49 -0.01,0.09 -0.03,0.18 -0.06,0.27 -0.07,0.21 -0.17,0.35 -0.36,0.48 -0.12,0.08 -0.27,0.09 -0.4,0.08 -0.14,-0.02 -0.25,-0.08 -0.36,-0.17 -0.15,-0.13 -0.2,-0.3 -0.24,-0.48 -0.02,-0.1 -0.04,-0.2 -0.04,-0.3 0,-0.05 0,-0.1 0.01,-0.15z"/>
     <g>
      <path class="fil6" d="M83.77 156.44c-0.02,0 -0.05,0.01 -0.07,0.01 -0.01,-0 -0.02,-0 -0.03,-0 0.04,0 0.07,-0 0.11,-0.01z"/>
      <path class="fil6" d="M82.53 156.73c0.12,-0.12 0.25,-0.17 0.41,-0.19 0,0 0,0 0,0 0.07,-0.01 0.13,-0.03 0.19,-0.05 0.13,-0.05 0.27,-0.02 0.41,-0.03 -0.03,0 -0.06,0.01 -0.09,0.01 0.13,-0.02 0.26,-0.03 0.4,0 -0.05,-0.01 -0.09,-0.01 -0.14,-0.02 0.23,-0.04 0.45,0.03 0.6,0.21 0.07,0.09 0.1,0.18 0.12,0.29 0.01,0.05 0.01,0.11 0,0.16 -0,0.08 -0.03,0.16 -0.07,0.23 -0.08,0.19 -0.23,0.36 -0.41,0.46 -0.25,0.14 -0.55,0.23 -0.84,0.15 -0.1,-0.03 -0.2,-0.08 -0.3,-0.12 -0.09,-0.04 -0.19,-0.1 -0.25,-0.18 -0.12,-0.13 -0.2,-0.29 -0.21,-0.47 -0,-0.17 0.07,-0.34 0.19,-0.45z"/>
      <path class="fil6" d="M83.67 156.45c0.01,-0 0.01,0 0.02,0 -0.03,0 -0.06,0.01 -0.09,0.01 0.02,-0 0.05,-0.01 0.07,-0.01z"/>
      <path class="fil6" d="M83.7 156.45c0,0 0.01,0 0.01,0 -0.01,0 -0.01,-0 -0.02,-0 0,0 0,-0 0.01,-0z"/>
     </g>
     <path class="fil6" d="M81.19 148.24c-0,-0.14 0.05,-0.29 0.15,-0.39 0,-0 0.01,-0.01 0.02,-0.01 0.1,-0.09 0.09,-0.08 0.19,-0.12 0.02,-0.02 0.05,-0.03 0.08,-0.03 0.05,-0.01 0.1,-0.01 0.16,-0.02 0.03,-0 0.06,-0 0.1,-0 0.05,0 0.14,0.01 0.2,0.03 0.01,0 0.01,0 0.02,0.01 0.07,0.03 0.14,0.06 0.2,0.09 0.01,0 0.02,0.01 0.03,0.02 0.05,0.03 0.11,0.08 0.15,0.12 0.02,0.01 0.03,0.03 0.05,0.04 0.07,0.07 0.13,0.15 0.18,0.23 0.01,0.02 0.02,0.03 0.03,0.05 0.02,0.03 0.03,0.06 0.04,0.09 0.02,0.03 0.03,0.07 0.04,0.1 0,0.01 0.01,0.02 0.01,0.03 0.01,0.05 0.02,0.1 0.02,0.15 0.01,0.04 0.02,0.07 0.01,0.11 -0.01,0.06 -0.02,0.13 -0.03,0.19 -0,0.01 -0,0.02 -0.01,0.03 -0.01,0.04 -0.02,0.07 -0.03,0.11 -0.02,0.05 -0.04,0.11 -0.07,0.16l-0.1 0.14 -0.13 0.1c-0.08,0.05 -0.16,0.08 -0.25,0.08 -0.06,0.02 -0.12,0.02 -0.18,0 -0.06,0 -0.12,-0.02 -0.17,-0.05 -0.06,-0.02 -0.11,-0.04 -0.15,-0.09 -0.07,-0.05 -0.13,-0.11 -0.17,-0.19 -0.02,-0.03 -0.04,-0.06 -0.06,-0.09 0.04,0.05 0.08,0.1 0.11,0.14 -0.05,-0.06 -0.11,-0.12 -0.15,-0.19 -0.01,-0.02 -0.02,-0.04 -0.03,-0.07 -0.03,-0.06 -0.05,-0.12 -0.07,-0.18 -0,-0.01 -0.01,-0.02 -0.01,-0.03 -0.04,-0.07 -0.07,-0.15 -0.1,-0.23 0.02,0.06 0.05,0.11 0.07,0.17 -0.03,-0.08 -0.07,-0.14 -0.1,-0.22 -0.01,-0.02 -0.01,-0.04 -0.02,-0.07 0.02,0.05 0.04,0.1 0.06,0.15 -0.05,-0.12 -0.09,-0.2 -0.1,-0.34z"/>
    </g>
    <g>
     <g>
      <path class="fil3" d="M86.42 199.85c-0.24,0.11 -0.47,0.22 -0.69,0.34 -0.07,0.04 -0.72,0.37 -0.37,0.21 -0.25,0.12 -0.45,0.37 -0.53,0.64 -0.92,0.4 -0.68,1.95 -0.64,2.76 0.04,1 0.09,2 0.13,3.01 0.02,0.43 0.08,0.93 -0.03,1.36 -0.06,0.23 -0.12,0.31 -0.25,0.42 -0.33,0.29 -0.85,0.4 -1.33,0.35 -0.56,-0.06 -1.21,-0.45 -1.74,-0.91 -0.61,-0.53 -1.11,-1.2 -1.6,-1.84 -0.57,-0.74 -1.11,-1.5 -1.61,-2.29 -0.5,-0.78 -0.95,-1.58 -1.53,-2.31 -0.25,-0.31 -0.68,-0.3 -0.96,-0.1 -0.57,-0.07 -0.94,0.23 -1.41,0.51 -0.36,0.21 -0.72,0.41 -1.1,0.59 -0.75,0.36 -1.53,0.67 -2.33,0.89 -1.68,0.46 -3.4,0.69 -5.15,0.53 -0.67,-0.07 -1.18,-0.2 -1.35,-0.92 -0.17,-0.74 0.21,-1.45 0.64,-2.03 0.55,-0.75 1.24,-1.4 1.95,-1.99 0.73,-0.61 1.6,-1.09 2.08,-1.93 0.04,-0.07 0.05,-0.15 0.07,-0.23 0.46,-0.3 0.63,-1.01 0.25,-1.49 -0.82,-1.04 -1.59,-2.03 -2.13,-3.26 -0.46,-1.05 -0.89,-2.35 -0.82,-3.51 0.02,-0.36 0.09,-0.76 0.48,-0.89 0.49,-0.16 1.13,0.12 1.58,0.27 0.79,0.26 1.57,0.52 2.36,0.78 0.76,0.25 1.62,0.66 2.43,0.67 0.4,0.01 0.7,-0.27 0.8,-0.59 0.13,0.04 0.26,0.05 0.4,-0.01 0.8,-0.4 1.51,-1.15 2.15,-1.76 0.67,-0.63 1.33,-1.27 1.99,-1.91 0.58,-0.57 1.13,-1.2 1.77,-1.72 0.41,-0.33 0.92,-0.65 1.47,-0.51 1.38,0.36 1.55,2.29 1.7,3.43 0.11,0.9 0.21,1.81 0.3,2.71 0.05,0.49 0.1,0.98 0.16,1.47 0.02,0.23 0.05,0.45 0.07,0.68 0,0.01 0,0.03 0.01,0.05 -0.06,0.13 -0.09,0.29 -0.07,0.42 0.02,0.16 0.23,0.57 0.16,0.32 0.16,0.62 0.7,1.08 1.37,0.96 0.14,-0.03 0.26,-0.08 0.37,-0.14 1.24,0.34 2.49,0.72 3.66,1.23 0.68,0.3 1.34,0.65 1.97,1.05 0.59,0.38 1.27,0.78 1.68,1.35 0.05,0.07 0.1,0.16 0.14,0.26 0,0 0,0.02 0,0.02 -0.01,0.01 -0.02,0.01 -0.04,0.03 -0.12,0.08 -0.18,0.11 -0.34,0.19 -0.8,0.39 -1.6,0.75 -2.41,1.12 -0.82,0.38 -1.64,0.76 -2.46,1.14 -0.41,0.19 -0.82,0.38 -1.23,0.57z"/>
     </g>
     <path class="fil5" d="M89.63 201.03l2.45 -1.15c0.75,-0.35 1.58,-0.66 2.25,-1.16 1.52,-1.14 1,-3.07 -0.19,-4.21 -1.14,-1.1 -2.69,-1.89 -4.14,-2.49 -1.31,-0.54 -2.65,-0.89 -4.03,-0.99 -0.08,-0.92 -0.22,-1.84 -0.36,-2.74 -0.15,-1 -0.3,-2.01 -0.5,-3 -0.36,-1.75 -1.22,-3.64 -3.09,-4.18 -1.9,-0.55 -3.33,0.76 -4.54,2.03 -0.75,0.78 -1.47,1.58 -2.19,2.38 -0.69,0.78 -1.55,1.61 -2.02,2.55 -0.6,-0.42 -1.39,-0.61 -2.08,-0.84 -0.7,-0.24 -1.4,-0.47 -2.1,-0.71 -1.13,-0.38 -2.48,-0.91 -3.62,-0.27 -1.17,0.65 -1.39,2.01 -1.26,3.24 0.13,1.23 0.49,2.45 0.95,3.59 0.45,1.12 1.08,2.27 1.89,3.21 -0.74,0.29 -1.38,0.79 -2,1.33 -0.88,0.75 -1.78,1.6 -2.41,2.57 -1.17,1.8 -1.27,4.65 1.02,5.64 0.99,0.43 2.23,0.44 3.29,0.43 1.14,-0.02 2.28,-0.09 3.39,-0.33 1.11,-0.25 2.2,-0.6 3.24,-1.07 0.5,-0.23 1,-0.48 1.47,-0.76 0.19,-0.11 0.35,-0.21 0.5,-0.32 0.47,1.08 1.1,2.1 1.73,3.07 0.86,1.32 1.81,2.75 3.14,3.63 1.28,0.85 2.86,1.13 4.3,0.5 0.63,-0.28 1.19,-0.75 1.53,-1.34 0.51,-0.88 0.51,-1.84 0.47,-2.82l-0.11 -3.01c-0.01,-0.36 0,-0.87 -0.05,-1.36 0.25,-0.08 0.49,-0.19 0.72,-0.3 0.79,-0.37 1.58,-0.74 2.36,-1.11zm0.48 -2.89l0 0c-0.82,0.38 -1.64,0.76 -2.46,1.14 -0.41,0.19 -0.82,0.38 -1.23,0.57 -0.24,0.11 -0.47,0.22 -0.69,0.34 -0.07,0.04 -0.72,0.37 -0.37,0.21 -0.25,0.12 -0.45,0.37 -0.53,0.64 -0.92,0.4 -0.68,1.95 -0.64,2.76 0.04,1 0.09,2 0.13,3.01 0.02,0.43 0.08,0.93 -0.03,1.36 -0.06,0.23 -0.12,0.31 -0.25,0.42 -0.33,0.29 -0.85,0.4 -1.33,0.35 -0.56,-0.06 -1.21,-0.45 -1.74,-0.91 -0.61,-0.53 -1.11,-1.2 -1.6,-1.84 -0.57,-0.74 -1.11,-1.5 -1.61,-2.29 -0.5,-0.78 -0.95,-1.58 -1.53,-2.31 -0.25,-0.31 -0.68,-0.3 -0.96,-0.1 -0.57,-0.07 -0.94,0.23 -1.41,0.51 -0.36,0.21 -0.72,0.41 -1.1,0.59 -0.75,0.36 -1.53,0.67 -2.33,0.89 -1.68,0.46 -3.4,0.69 -5.15,0.53 -0.67,-0.07 -1.18,-0.2 -1.35,-0.92 -0.17,-0.74 0.21,-1.45 0.64,-2.03 0.55,-0.75 1.24,-1.4 1.95,-1.99 0.73,-0.61 1.6,-1.09 2.08,-1.93 0.04,-0.07 0.05,-0.15 0.07,-0.23 0.46,-0.3 0.63,-1.01 0.25,-1.49 -0.82,-1.04 -1.59,-2.03 -2.13,-3.26 -0.46,-1.05 -0.89,-2.35 -0.82,-3.51 0.02,-0.36 0.09,-0.76 0.48,-0.89 0.49,-0.16 1.13,0.12 1.58,0.27 0.79,0.26 1.57,0.52 2.36,0.78 0.76,0.25 1.62,0.66 2.43,0.67 0.4,0.01 0.7,-0.27 0.8,-0.59 0.13,0.04 0.26,0.05 0.4,-0.01 0.8,-0.4 1.51,-1.15 2.15,-1.76 0.67,-0.63 1.33,-1.27 1.99,-1.91 0.58,-0.57 1.13,-1.2 1.77,-1.72 0.41,-0.33 0.92,-0.65 1.47,-0.51 1.38,0.36 1.55,2.29 1.7,3.43 0.11,0.9 0.21,1.81 0.3,2.71 0.05,0.49 0.1,0.98 0.16,1.47 0.02,0.23 0.05,0.45 0.07,0.68 0,0.01 0,0.03 0.01,0.05 -0.06,0.13 -0.09,0.29 -0.07,0.42 0.02,0.16 0.23,0.57 0.16,0.32 0.16,0.62 0.7,1.08 1.37,0.96 0.14,-0.03 0.26,-0.08 0.37,-0.14 1.24,0.34 2.49,0.72 3.66,1.23 0.68,0.3 1.34,0.65 1.97,1.05 0.59,0.38 1.27,0.78 1.68,1.35 0.05,0.07 0.1,0.16 0.14,0.26 0,0 0,0.02 0,0.02 -0.01,0.01 -0.02,0.01 -0.04,0.03 -0.12,0.08 -0.18,0.11 -0.34,0.19 -0.8,0.39 -1.6,0.75 -2.41,1.12z"/>
     <g>
      <path class="fil2" d="M82.83 208.93c-0.04,-0 -0.08,0.01 -0.12,0.01 -0.56,-0.06 -1.21,-0.45 -1.74,-0.91 -0.61,-0.53 -1.11,-1.2 -1.6,-1.84 -0.57,-0.74 -1.11,-1.5 -1.61,-2.29 -0.5,-0.78 -0.95,-1.58 -1.53,-2.31 -0.25,-0.31 -0.68,-0.3 -0.96,-0.1 -0.26,-0.03 -0.48,0.02 -0.69,0.11 0.35,-0.34 0.71,-0.67 1.12,-0.92 0.92,-0.58 2.19,-0.78 3.06,-0.13 0.44,0.33 0.71,0.82 0.97,1.31 0.9,1.71 1.68,3.48 2.33,5.29 0.22,0.61 0.44,1.24 0.77,1.79z"/>
      <path class="fil2" d="M83.7 192.06c0.01,0.03 0.03,0.06 0.04,0.1 -0.24,-0.05 -0.48,-0.09 -0.73,-0.14 -0.68,-0.13 -1.4,-0.28 -1.93,-0.72 -1.18,-0.99 -0.89,-2.85 -0.49,-4.34 0.34,-1.28 0.69,-2.57 1.03,-3.85 1.14,0.52 1.31,2.26 1.44,3.32 0.11,0.9 0.21,1.81 0.3,2.71 0.05,0.49 0.1,0.98 0.16,1.47 0.02,0.23 0.05,0.45 0.07,0.68 0,0.01 0,0.03 0.01,0.05 -0.06,0.13 -0.09,0.29 -0.07,0.42 0.02,0.16 0.23,0.57 0.16,0.32z"/>
      <path class="fil2" d="M87.65 199.28c-0.41,0.19 -0.82,0.38 -1.23,0.57 -0.24,0.11 -0.47,0.22 -0.69,0.34 -0.07,0.04 -0.72,0.37 -0.37,0.21 -0.25,0.12 -0.45,0.37 -0.53,0.64 -0.15,0.07 -0.26,0.17 -0.35,0.29 -0.15,-0.62 -0.29,-1.25 -0.39,-1.89 -0.07,-0.41 -0.12,-0.84 0.03,-1.23 0.36,-0.95 1.6,-1.12 2.61,-1.16 2.02,-0.08 4.04,-0.25 6.05,-0.52 0.04,0.07 0.09,0.14 0.13,0.23 0,0 0,0.02 0,0.02 -0.01,0.01 -0.02,0.01 -0.04,0.03 -0.12,0.08 -0.18,0.11 -0.34,0.19 -0.8,0.39 -1.6,0.75 -2.41,1.12 -0.82,0.38 -1.64,0.76 -2.46,1.14z"/>
      <path class="fil2" d="M72.81 189.49c0.18,0 0.34,-0.06 0.47,-0.15 -0.2,0.64 -0.51,1.25 -0.96,1.76 -0.21,0.23 -0.46,0.46 -0.77,0.51 -0.35,0.05 -0.69,-0.13 -0.99,-0.32 -1.56,-0.96 -2.99,-2.13 -4.27,-3.44 0.05,-0.03 0.09,-0.07 0.15,-0.09 0.49,-0.16 1.13,0.12 1.58,0.27 0.79,0.26 1.57,0.52 2.36,0.78 0.76,0.25 1.62,0.66 2.43,0.67z"/>
      <path class="fil2" d="M68.6 197.14c0.04,-0.07 0.05,-0.15 0.07,-0.23 0.22,-0.14 0.36,-0.38 0.42,-0.64 0.31,0.29 0.61,0.6 0.85,0.96 0.63,0.94 0.87,2.25 0.23,3.19 -0.75,1.1 -2.27,1.22 -3.58,1.46 -0.92,0.17 -1.82,0.46 -2.69,0.84 -0,-0.61 0.3,-1.18 0.66,-1.67 0.55,-0.75 1.24,-1.4 1.95,-1.99 0.73,-0.61 1.6,-1.09 2.08,-1.93z"/>
     </g>
     <path class="fil6" d="M77.45 187.52c0.02,-0.11 0.05,-0.22 0.09,-0.33 0.06,-0.19 0.2,-0.34 0.35,-0.47 0.09,-0.08 0.17,-0.15 0.25,-0.24 -0.06,0.06 -0.11,0.12 -0.17,0.18 0.09,-0.1 0.19,-0.19 0.28,-0.28 0.08,-0.09 0.16,-0.18 0.24,-0.27 0.04,-0.05 0.08,-0.1 0.11,-0.15 0.08,-0.11 0.16,-0.2 0.26,-0.31 -0.05,0.05 -0.1,0.11 -0.15,0.16 0.29,-0.3 0.66,-0.87 1.16,-0.66 0.42,0.17 0.46,0.72 0.41,1.1 -0.02,0.17 -0.06,0.35 -0.13,0.51 -0.06,0.14 -0.14,0.27 -0.21,0.41 -0.15,0.27 -0.31,0.51 -0.52,0.73 -0.11,0.11 -0.21,0.21 -0.33,0.31 -0.25,0.22 -0.58,0.29 -0.91,0.26 -0.44,-0.04 -0.81,-0.5 -0.74,-0.94z"/>
     <path class="fil6" d="M76.21 189.55c-0.01,-0.17 -0.01,-0.3 0.05,-0.46 0.04,-0.11 0.09,-0.23 0.16,-0.32 0.03,-0.05 0.07,-0.09 0.11,-0.14 0.09,-0.12 0.2,-0.23 0.34,-0.29 0.08,-0.03 0.16,-0.05 0.24,-0.07l0.19 -0c0.09,0.01 0.18,0.04 0.25,0.09 0.06,0.02 0.1,0.06 0.14,0.11 0.07,0.06 0.12,0.13 0.16,0.22 0,0.01 0.01,0.02 0.01,0.03 0.02,0.06 0.05,0.15 0.06,0.21 0,0.07 0,0.14 0,0.2l-0.05 0.19c-0,0.02 -0.01,0.03 -0.01,0.04 -0.02,0.06 -0.03,0.11 -0.05,0.17 -0.02,0.06 -0.07,0.14 -0.11,0.2 -0.01,0.01 -0.02,0.03 -0.03,0.04 -0.02,0.02 -0.03,0.05 -0.04,0.07 -0.02,0.03 -0.05,0.06 -0.08,0.09 -0.02,0.03 -0.05,0.05 -0.08,0.08 -0.01,0.01 -0.02,0.02 -0.03,0.02 -0.02,0.02 -0.05,0.03 -0.07,0.05 -0.1,0.08 -0.22,0.13 -0.35,0.15 -0.13,0.02 -0.25,0 -0.37,-0.04 -0.12,-0.05 -0.21,-0.12 -0.29,-0.22 -0.08,-0.1 -0.13,-0.22 -0.15,-0.35l-0 -0.08z"/>
     <path class="fil6" d="M86.5 194.84c-0.03,-0.14 0.06,-0.27 0.18,-0.33 0.03,-0.01 0.16,-0.05 0.08,-0.03 -0.06,0.02 0.02,-0.01 0.02,-0.01 -0.06,0.04 -0.11,0.09 -0.17,0.14 0.1,-0.12 0.21,-0.19 0.35,-0.23 0.18,-0.06 0.19,-0.06 0.38,-0.06 0.04,0 0.09,0 0.13,0.01 0.16,0.01 0.32,0.06 0.47,0.09 0.21,0.04 0.43,0.1 0.63,0.2 0.15,0.07 0.3,0.14 0.45,0.2 0.25,0.09 0.44,0.4 0.39,0.66 -0.04,0.26 -0.25,0.53 -0.54,0.55 -0.44,0.04 -0.91,0.09 -1.33,-0.09 -0.2,-0.08 -0.42,-0.17 -0.59,-0.3 -0.21,-0.16 -0.41,-0.41 -0.43,-0.69 -0.01,-0.04 -0.03,-0.08 -0.04,-0.12z"/>
     <path class="fil6" d="M81.38 202.47c-0.01,-0.11 -0.03,-0.22 -0.05,-0.32 -0.03,-0.18 -0.01,-0.36 -0.01,-0.54 0,0.07 0,0.14 0,0.21 -0,-0.09 -0.01,-0.18 -0,-0.27 0.01,-0.09 0.04,-0.17 0.07,-0.26 0.02,-0.06 0.03,-0.12 0.05,-0.18 -0.01,0.04 -0.02,0.07 -0.03,0.11 0.05,-0.19 0.13,-0.35 0.32,-0.44 0.18,-0.08 0.39,-0.06 0.55,0.06 0.06,0.04 0.11,0.08 0.17,0.13 0.14,0.11 0.23,0.23 0.32,0.39 0.04,0.07 0.08,0.15 0.12,0.22 0.07,0.13 0.09,0.27 0.13,0.41 0.05,0.18 0.09,0.37 0.1,0.56 0,0.11 -0,0.22 -0.02,0.33 -0.04,0.26 -0.14,0.44 -0.34,0.62 -0.12,0.11 -0.29,0.15 -0.45,0.16 -0.17,0 -0.31,-0.05 -0.45,-0.14 -0.19,-0.13 -0.29,-0.32 -0.36,-0.52 -0.04,-0.11 -0.08,-0.23 -0.09,-0.34 -0.01,-0.06 -0.01,-0.12 -0.02,-0.18z"/>
     <g>
      <path class="fil6" d="M71.61 200.83c-0.03,0.01 -0.06,0.02 -0.08,0.02 -0.01,0 -0.03,0 -0.04,0 0.04,-0 0.08,-0.01 0.13,-0.02z"/>
      <path class="fil6" d="M70.22 201.38c0.12,-0.16 0.27,-0.24 0.45,-0.29 0,0 0,0 0,0 0.07,-0.03 0.14,-0.06 0.21,-0.09 0.15,-0.08 0.32,-0.07 0.47,-0.11 -0.04,0.01 -0.07,0.02 -0.11,0.03 0.15,-0.05 0.3,-0.09 0.46,-0.07 -0.06,0 -0.11,0 -0.17,0 0.26,-0.08 0.53,-0.05 0.74,0.15 0.09,0.09 0.15,0.19 0.19,0.31 0.03,0.06 0.03,0.12 0.03,0.19 0.01,0.09 -0.01,0.19 -0.04,0.27 -0.07,0.24 -0.21,0.46 -0.4,0.61 -0.27,0.21 -0.59,0.37 -0.95,0.32 -0.12,-0.02 -0.25,-0.05 -0.37,-0.09 -0.11,-0.03 -0.23,-0.09 -0.33,-0.16 -0.17,-0.13 -0.29,-0.31 -0.32,-0.52 -0.03,-0.19 0.03,-0.41 0.14,-0.56z"/>
      <path class="fil6" d="M71.49 200.86c0.01,-0 0.01,0 0.02,-0 -0.03,0.01 -0.07,0.02 -0.1,0.03 0.03,-0.01 0.05,-0.02 0.08,-0.03z"/>
      <path class="fil6" d="M71.52 200.86c0,0 0.01,0 0.01,0 -0.01,0 -0.01,0 -0.02,0 0,-0 0.01,-0 0.01,-0z"/>
     </g>
     <path class="fil6" d="M67.2 191.72c-0.03,-0.17 0,-0.34 0.11,-0.48 0.01,-0.01 0.01,-0.01 0.02,-0.02 0.1,-0.12 0.09,-0.11 0.2,-0.18 0.03,-0.02 0.05,-0.04 0.09,-0.05 0.06,-0.02 0.12,-0.03 0.18,-0.05 0.04,-0.01 0.08,-0.02 0.11,-0.02 0.06,-0.01 0.17,-0.01 0.23,-0 0.01,0 0.02,0 0.02,0 0.09,0.02 0.17,0.04 0.25,0.07 0.01,0 0.03,0.01 0.04,0.01 0.06,0.03 0.14,0.08 0.2,0.11 0.02,0.01 0.04,0.03 0.06,0.04 0.09,0.07 0.17,0.16 0.25,0.23 0.02,0.02 0.03,0.03 0.05,0.05 0.03,0.03 0.05,0.07 0.06,0.1 0.03,0.03 0.05,0.07 0.06,0.11 0.01,0.01 0.01,0.02 0.01,0.03 0.02,0.06 0.04,0.11 0.05,0.17 0.02,0.04 0.03,0.08 0.03,0.12 0,0.08 0,0.15 0,0.23 0,0.01 -0,0.02 -0,0.03 -0,0.04 -0.01,0.09 -0.02,0.13 -0.02,0.07 -0.03,0.13 -0.05,0.2l-0.1 0.18 -0.14 0.14c-0.08,0.07 -0.17,0.12 -0.28,0.14 -0.07,0.03 -0.13,0.04 -0.21,0.03 -0.07,0.01 -0.14,0 -0.2,-0.02 -0.07,-0.01 -0.13,-0.03 -0.19,-0.07 -0.09,-0.04 -0.17,-0.11 -0.23,-0.19 -0.03,-0.03 -0.05,-0.07 -0.08,-0.1 0.05,0.05 0.1,0.1 0.16,0.15 -0.07,-0.06 -0.15,-0.12 -0.2,-0.2 -0.02,-0.02 -0.03,-0.05 -0.05,-0.07 -0.05,-0.07 -0.08,-0.13 -0.11,-0.2 -0.01,-0.01 -0.01,-0.02 -0.02,-0.03 -0.06,-0.08 -0.11,-0.17 -0.16,-0.25 0.04,0.06 0.07,0.12 0.11,0.18 -0.05,-0.08 -0.11,-0.16 -0.15,-0.25 -0.01,-0.03 -0.02,-0.05 -0.04,-0.07 0.03,0.05 0.06,0.11 0.1,0.16 -0.08,-0.13 -0.15,-0.22 -0.17,-0.38z"/>
    </g>
    <path class="fil3" d="M178.39 62.35c-0.57,-0.22 -1.35,-0.32 -1.95,-0.3 -0.33,0.02 -0.66,0.03 -1,0.05 -0.02,-0.07 -0.03,-0.13 -0.06,-0.2 -0.12,-0.3 -0.25,-0.59 -0.34,-0.91 -0.09,-0.31 -0.16,-0.63 -0.25,-0.94 -0.18,-0.62 -1.17,-0.52 -1.15,0.15 0.01,0.32 0.03,0.65 0.01,0.97 -0.01,0.24 -0.08,0.48 -0.13,0.72 -0.03,0.15 -0.04,0.3 -0.05,0.45 -0.27,0.04 -0.53,0.1 -0.77,0.18 -0.55,0.19 -1.08,0.44 -1.61,0.66 -0.41,0.17 -0.73,0.48 -0.73,0.96 0,0.44 0.31,0.84 0.73,0.96 0.54,0.15 1.07,0.32 1.61,0.45 0.16,0.04 0.34,0.05 0.51,0.07 -0,0.03 -0.01,0.06 -0.01,0.09 -0.02,0.3 -0.04,0.6 -0.07,0.91 -0.01,0.14 -0.04,0.28 -0.03,0.42 0,0.22 0.06,0.42 0.17,0.61 0.21,0.27 0.25,0.33 0.14,0.18 0.31,0.4 0.9,0.71 1.38,0.36 0.41,-0.3 0.67,-0.6 0.75,-1.1 0.06,-0.38 0.11,-0.77 0.15,-1.16 0.01,-0.07 0,-0.14 0.01,-0.21 0.25,-0.02 0.5,-0.04 0.75,-0.05 0.8,-0.06 1.59,-0.26 2.3,-0.63 0.52,-0.27 0.78,-0.91 0.7,-1.47 -0.08,-0.62 -0.49,-1.01 -1.06,-1.23z"/>
    <g>
     <path class="fil3" d="M154.68 154.05c-0.08,-0.17 -0.17,-0.29 -0.35,-0.39 -0.15,-0.09 -0.32,-0.17 -0.48,-0.25 -0.26,-0.12 -0.53,-0.15 -0.81,-0.18 -0.09,-0.43 -0.21,-0.86 -0.4,-1.26 -0.26,-0.54 -0.65,-1.03 -0.99,-1.51 -0.28,-0.39 -0.91,-0.27 -0.92,0.25 -0.01,0.59 -0.16,1.14 -0.22,1.72 -0.03,0.3 -0.04,0.6 -0.06,0.9 -0.22,0 -0.44,-0.01 -0.66,0 -0.32,0.02 -0.64,0.12 -0.96,0.18 -0.38,0.08 -0.66,0.46 -0.71,0.83 -0.05,0.36 0.12,0.83 0.47,0.99 0.29,0.13 0.58,0.28 0.88,0.36 0.25,0.07 0.55,0.08 0.82,0.1 -0.01,0.04 -0.01,0.08 -0.01,0.1 -0.03,0.14 -0.05,0.29 -0.08,0.43 -0.08,0.38 -0.1,0.74 -0.09,1.13 0.02,0.56 0.4,1.15 0.98,1.28 0.57,0.13 1.21,-0.08 1.5,-0.61 0.19,-0.35 0.36,-0.69 0.42,-1.09 0.06,-0.4 0.11,-0.8 0.15,-1.2 0,-0.05 -0,-0.11 0,-0.16 0.14,-0.04 0.28,-0.07 0.43,-0.12 0.44,-0.16 1.18,-0.75 1.17,-1.28 -0,-0.03 -0.04,-0.16 -0.06,-0.22z"/>
     <path class="fil3" d="M154.68 154.05c0.01,0.02 0.03,0.04 0.03,0.06 -0.05,-0.11 -0.05,-0.1 -0.03,-0.06z"/>
    </g>
    <path class="fil3" d="M121.2 160.31c-0.48,-0.25 -1.01,-0.44 -1.55,-0.42 -0.03,-0.14 -0.04,-0.29 -0.07,-0.43 -0.06,-0.34 -0.1,-0.72 -0.27,-1.03 -0.17,-0.31 -0.45,-0.51 -0.71,-0.74 -0.39,-0.33 -0.96,-0.3 -1.24,0.16 -0.18,0.29 -0.38,0.56 -0.46,0.89 -0.09,0.35 -0.02,0.72 0,1.08 0.01,0.12 0.01,0.24 0.02,0.36 -0.11,0.03 -0.21,0.06 -0.32,0.09 -0.44,0.13 -0.88,0.25 -1.32,0.37 -0.39,0.11 -0.64,0.5 -0.59,0.9 0.06,0.44 0.39,0.65 0.8,0.71 0.47,0.06 0.93,0.13 1.4,0.19 0.04,0.01 0.09,0.01 0.13,0.02 0.02,0.3 0.03,0.6 0.05,0.9 0.03,0.36 0.01,0.77 0.11,1.12 0.18,0.67 0.88,1.18 1.57,1.08 0.74,-0.1 1.23,-0.75 1.28,-1.47 0.02,-0.28 0.01,-0.57 0,-0.85 -0,-0.3 -0.02,-0.59 -0.05,-0.88 0.21,-0.03 0.41,-0.09 0.62,-0.2 0.2,-0.11 0.4,-0.21 0.58,-0.34 0.49,-0.35 0.62,-1.17 0,-1.49z"/>
    <path class="fil3" d="M168.72 58.26c-0.2,-0.11 -0.44,-0.21 -0.67,-0.28 -0.29,-0.1 -0.53,-0.08 -0.82,-0.05 -0.19,0.02 -0.38,0.04 -0.56,0.06 -0.08,-0.62 -0.16,-1.24 -0.24,-1.86 -0.03,-0.27 -0.2,-0.5 -0.5,-0.5 -0.27,0 -0.5,0.23 -0.5,0.5 0.01,0.68 0.02,1.37 0.03,2.05 -0.1,0.03 -0.2,0.03 -0.31,0.07 -0.19,0.07 -0.38,0.13 -0.57,0.2 -0.4,0.14 -0.79,0.28 -1.18,0.44 -0.28,0.11 -0.49,0.33 -0.49,0.65 0,0.28 0.21,0.59 0.49,0.65 0.39,0.07 0.78,0.14 1.18,0.19 0.29,0.04 0.6,0.09 0.9,0.13 0,0.08 0,0.15 0,0.23 0,0.24 0.01,0.48 0.01,0.73 0,0.36 0.08,0.64 0.22,0.97 0.25,0.6 1.17,0.38 1.32,-0.17 0.14,-0.53 0.03,-1.05 -0.04,-1.58 -0.01,-0.07 -0.02,-0.14 -0.03,-0.21 0.08,-0.01 0.17,-0.01 0.25,-0.02 0.36,-0.03 0.71,-0.04 1.03,-0.21 0.23,-0.12 0.45,-0.3 0.65,-0.46 0.47,-0.38 0.31,-1.23 -0.19,-1.49z"/>
    <path class="fil3" d="M92.64 65.6c-0.21,-0.11 -0.45,-0.21 -0.67,-0.29 -0.29,-0.1 -0.53,-0.08 -0.82,-0.05 -0.19,0.02 -0.38,0.04 -0.56,0.06 -0.08,-0.62 -0.16,-1.24 -0.24,-1.86 -0.03,-0.27 -0.2,-0.5 -0.5,-0.5 -0.27,0 -0.5,0.23 -0.5,0.5 0.01,0.68 0.02,1.37 0.03,2.05 -0.1,0.02 -0.2,0.03 -0.31,0.07 -0.19,0.07 -0.38,0.13 -0.57,0.2 -0.4,0.14 -0.79,0.28 -1.18,0.44 -0.28,0.11 -0.49,0.33 -0.49,0.65 0,0.28 0.21,0.59 0.49,0.65 0.39,0.07 0.78,0.14 1.18,0.19 0.29,0.04 0.6,0.09 0.9,0.13 0,0.08 0,0.15 0,0.23 0,0.24 0.01,0.48 0.01,0.73 0,0.36 0.08,0.63 0.22,0.97 0.25,0.6 1.17,0.38 1.32,-0.17 0.14,-0.53 0.03,-1.05 -0.04,-1.58 -0.01,-0.07 -0.02,-0.14 -0.03,-0.22 0.08,-0.01 0.17,-0.01 0.25,-0.02 0.36,-0.03 0.71,-0.04 1.03,-0.21 0.23,-0.12 0.45,-0.3 0.65,-0.46 0.47,-0.38 0.31,-1.23 -0.19,-1.49z"/>
    <g>
     <g>
      <path class="fil3" d="M160.83 62.87c-0.14,0.04 -0.27,0.08 -0.4,0.13 -0.04,0.01 -0.42,0.14 -0.22,0.08 -0.14,0.04 -0.27,0.16 -0.34,0.3 -0.53,0.14 -0.52,1 -0.57,1.44 -0.06,0.54 -0.11,1.09 -0.17,1.63 -0.02,0.24 -0.03,0.51 -0.13,0.73 -0.05,0.12 -0.09,0.15 -0.17,0.21 -0.2,0.13 -0.49,0.15 -0.75,0.09 -0.3,-0.07 -0.62,-0.34 -0.86,-0.63 -0.29,-0.34 -0.5,-0.74 -0.72,-1.12 -0.25,-0.45 -0.48,-0.9 -0.69,-1.37 -0.2,-0.46 -0.39,-0.93 -0.64,-1.37 -0.11,-0.19 -0.34,-0.22 -0.51,-0.13 -0.3,-0.09 -0.53,0.05 -0.8,0.16 -0.21,0.09 -0.42,0.16 -0.64,0.23 -0.43,0.14 -0.88,0.24 -1.33,0.3 -0.95,0.12 -1.89,0.1 -2.82,-0.13 -0.36,-0.09 -0.62,-0.2 -0.66,-0.6 -0.03,-0.41 0.23,-0.77 0.51,-1.04 0.36,-0.36 0.78,-0.66 1.21,-0.92 0.44,-0.27 0.95,-0.46 1.28,-0.88 0.03,-0.03 0.04,-0.08 0.05,-0.12 0.27,-0.13 0.42,-0.5 0.26,-0.78 -0.36,-0.63 -0.7,-1.22 -0.89,-1.93 -0.17,-0.6 -0.3,-1.34 -0.16,-1.96 0.04,-0.19 0.11,-0.4 0.33,-0.44 0.28,-0.05 0.6,0.15 0.83,0.27 0.4,0.2 0.81,0.41 1.21,0.61 0.39,0.2 0.82,0.49 1.26,0.56 0.22,0.03 0.4,-0.09 0.48,-0.25 0.07,0.03 0.14,0.05 0.21,0.03 0.47,-0.15 0.91,-0.5 1.3,-0.78 0.41,-0.29 0.82,-0.58 1.23,-0.87 0.36,-0.26 0.71,-0.56 1.09,-0.79 0.25,-0.15 0.55,-0.28 0.83,-0.16 0.72,0.3 0.66,1.36 0.64,1.99 -0.01,0.5 -0.03,0.99 -0.05,1.49 -0.01,0.27 -0.02,0.54 -0.03,0.8 -0,0.12 -0.01,0.25 -0.02,0.37 0,0 0,0.02 -0,0.03 -0.04,0.06 -0.07,0.15 -0.07,0.22 -0,0.09 0.08,0.32 0.06,0.19 0.04,0.35 0.29,0.64 0.66,0.63 0.08,-0 0.15,-0.02 0.21,-0.05 0.64,0.28 1.29,0.59 1.88,0.96 0.35,0.22 0.67,0.46 0.98,0.73 0.29,0.25 0.62,0.52 0.8,0.86 0.02,0.04 0.04,0.09 0.06,0.15 0,0 0,0.01 0,0.01 -0.01,0 -0.01,0.01 -0.02,0.01 -0.07,0.03 -0.1,0.05 -0.2,0.08 -0.46,0.15 -0.93,0.28 -1.39,0.41 -0.47,0.14 -0.94,0.28 -1.42,0.42 -0.24,0.07 -0.47,0.14 -0.71,0.21z"/>
     </g>
     <path class="fil5" d="M162.46 63.76l1.42 -0.43c0.43,-0.13 0.9,-0.23 1.31,-0.45 0.91,-0.49 0.79,-1.58 0.23,-2.29 -0.53,-0.68 -1.3,-1.23 -2.04,-1.68 -0.66,-0.4 -1.36,-0.69 -2.1,-0.85 0.03,-0.5 0.03,-1.01 0.03,-1.51 -0,-0.55 -0,-1.11 -0.03,-1.66 -0.05,-0.97 -0.37,-2.06 -1.34,-2.5 -0.98,-0.45 -1.86,0.15 -2.62,0.74 -0.47,0.36 -0.92,0.73 -1.37,1.11 -0.44,0.36 -0.97,0.75 -1.29,1.22 -0.29,-0.27 -0.7,-0.44 -1.06,-0.62 -0.36,-0.18 -0.72,-0.37 -1.08,-0.55 -0.58,-0.3 -1.27,-0.69 -1.93,-0.44 -0.69,0.26 -0.91,0.98 -0.94,1.65 -0.03,0.67 0.07,1.36 0.23,2.02 0.16,0.64 0.4,1.31 0.76,1.88 -0.42,0.1 -0.81,0.32 -1.19,0.56 -0.53,0.33 -1.09,0.72 -1.51,1.2 -0.77,0.88 -1.05,2.41 0.1,3.13 0.5,0.31 1.17,0.42 1.74,0.49 0.61,0.08 1.24,0.14 1.86,0.09 0.62,-0.05 1.24,-0.15 1.83,-0.32 0.29,-0.08 0.58,-0.18 0.86,-0.29 0.11,-0.04 0.2,-0.09 0.29,-0.13 0.17,0.62 0.43,1.22 0.69,1.8 0.36,0.78 0.76,1.63 1.41,2.21 0.62,0.56 1.46,0.84 2.28,0.61 0.36,-0.1 0.7,-0.31 0.93,-0.6 0.35,-0.43 0.42,-0.95 0.48,-1.49l0.18 -1.63c0.02,-0.19 0.07,-0.47 0.08,-0.74 0.14,-0.02 0.28,-0.06 0.41,-0.1 0.46,-0.14 0.91,-0.27 1.37,-0.41zm0.49 -1.52l0 0c-0.47,0.14 -0.94,0.28 -1.42,0.42 -0.24,0.07 -0.47,0.14 -0.71,0.21 -0.14,0.04 -0.27,0.08 -0.4,0.13 -0.04,0.01 -0.42,0.14 -0.22,0.08 -0.14,0.04 -0.27,0.16 -0.34,0.3 -0.53,0.14 -0.52,1 -0.57,1.44 -0.06,0.54 -0.11,1.09 -0.17,1.63 -0.02,0.24 -0.03,0.51 -0.13,0.73 -0.05,0.12 -0.09,0.15 -0.17,0.21 -0.2,0.13 -0.49,0.15 -0.75,0.09 -0.3,-0.07 -0.62,-0.34 -0.86,-0.63 -0.29,-0.34 -0.5,-0.74 -0.72,-1.12 -0.25,-0.45 -0.48,-0.9 -0.69,-1.37 -0.2,-0.46 -0.39,-0.93 -0.64,-1.37 -0.11,-0.19 -0.34,-0.22 -0.51,-0.13 -0.3,-0.09 -0.53,0.05 -0.8,0.16 -0.21,0.09 -0.42,0.16 -0.64,0.23 -0.43,0.14 -0.88,0.24 -1.33,0.3 -0.95,0.12 -1.89,0.1 -2.82,-0.13 -0.36,-0.09 -0.62,-0.2 -0.66,-0.6 -0.03,-0.41 0.23,-0.77 0.51,-1.04 0.36,-0.36 0.78,-0.66 1.21,-0.92 0.44,-0.27 0.95,-0.46 1.28,-0.88 0.03,-0.03 0.04,-0.08 0.05,-0.12 0.27,-0.13 0.42,-0.5 0.26,-0.78 -0.36,-0.63 -0.7,-1.22 -0.89,-1.93 -0.17,-0.6 -0.3,-1.34 -0.16,-1.96 0.04,-0.19 0.11,-0.4 0.33,-0.44 0.28,-0.05 0.6,0.15 0.83,0.27 0.4,0.2 0.81,0.41 1.21,0.61 0.39,0.2 0.82,0.49 1.26,0.56 0.22,0.03 0.4,-0.09 0.48,-0.25 0.07,0.03 0.14,0.05 0.21,0.03 0.47,-0.15 0.91,-0.5 1.3,-0.78 0.41,-0.29 0.82,-0.58 1.23,-0.87 0.36,-0.26 0.71,-0.56 1.09,-0.79 0.25,-0.15 0.55,-0.28 0.83,-0.16 0.72,0.3 0.66,1.36 0.64,1.99 -0.01,0.5 -0.03,0.99 -0.05,1.49 -0.01,0.27 -0.02,0.54 -0.03,0.8 -0,0.12 -0.01,0.25 -0.02,0.37 0,0 0,0.02 -0,0.03 -0.04,0.06 -0.07,0.15 -0.07,0.22 -0,0.09 0.08,0.32 0.06,0.19 0.04,0.35 0.29,0.64 0.66,0.63 0.08,-0 0.15,-0.02 0.21,-0.05 0.64,0.28 1.29,0.59 1.88,0.96 0.35,0.22 0.67,0.46 0.98,0.73 0.29,0.25 0.62,0.52 0.8,0.86 0.02,0.04 0.04,0.09 0.06,0.15 0,0 0,0.01 0,0.01 -0.01,0 -0.01,0.01 -0.02,0.01 -0.07,0.03 -0.1,0.05 -0.2,0.08 -0.46,0.15 -0.93,0.28 -1.39,0.41z"/>
     <g>
      <path class="fil2" d="M158.16 67.49c-0.02,-0 -0.05,0 -0.07,-0.01 -0.3,-0.07 -0.62,-0.34 -0.86,-0.63 -0.29,-0.34 -0.5,-0.74 -0.72,-1.12 -0.25,-0.45 -0.48,-0.9 -0.69,-1.37 -0.2,-0.46 -0.39,-0.93 -0.64,-1.37 -0.11,-0.19 -0.34,-0.22 -0.51,-0.13 -0.14,-0.04 -0.26,-0.03 -0.38,0 0.21,-0.16 0.44,-0.3 0.68,-0.41 0.54,-0.24 1.25,-0.25 1.66,0.17 0.21,0.21 0.32,0.5 0.42,0.78 0.35,0.99 0.63,2.01 0.84,3.04 0.07,0.35 0.14,0.7 0.27,1.03z"/>
      <path class="fil2" d="M159.98 58.45c0,0.02 0.01,0.04 0.02,0.06 -0.13,-0.04 -0.25,-0.09 -0.38,-0.13 -0.36,-0.12 -0.73,-0.26 -0.98,-0.54 -0.56,-0.63 -0.25,-1.61 0.08,-2.38 0.29,-0.67 0.58,-1.33 0.86,-2 0.57,0.37 0.53,1.32 0.52,1.91 -0.01,0.5 -0.03,0.99 -0.05,1.49 -0.01,0.27 -0.02,0.54 -0.03,0.8 -0,0.12 -0.01,0.25 -0.02,0.37 0,0 0,0.02 -0,0.03 -0.04,0.06 -0.07,0.15 -0.07,0.22 -0,0.09 0.08,0.32 0.06,0.19z"/>
      <path class="fil2" d="M161.53 62.66c-0.24,0.07 -0.47,0.14 -0.71,0.21 -0.14,0.04 -0.27,0.08 -0.4,0.13 -0.04,0.01 -0.42,0.14 -0.22,0.08 -0.14,0.04 -0.27,0.16 -0.34,0.3 -0.09,0.02 -0.15,0.07 -0.21,0.13 -0.03,-0.35 -0.06,-0.7 -0.06,-1.05 -0,-0.23 0,-0.46 0.11,-0.66 0.27,-0.48 0.95,-0.48 1.5,-0.42 1.1,0.12 2.2,0.18 3.31,0.2 0.02,0.04 0.04,0.08 0.05,0.14 0,0 0,0.01 0,0.01 -0.01,0 -0.01,0.01 -0.02,0.01 -0.07,0.03 -0.1,0.05 -0.2,0.08 -0.46,0.15 -0.93,0.28 -1.39,0.41 -0.47,0.14 -0.94,0.28 -1.42,0.42z"/>
      <path class="fil2" d="M154.3 56.19c0.1,0.02 0.19,-0 0.27,-0.04 -0.16,0.33 -0.37,0.63 -0.66,0.87 -0.13,0.11 -0.28,0.21 -0.45,0.21 -0.19,0 -0.36,-0.13 -0.51,-0.25 -0.77,-0.64 -1.44,-1.39 -2.03,-2.2 0.03,-0.01 0.05,-0.03 0.09,-0.04 0.28,-0.05 0.6,0.15 0.83,0.27 0.4,0.2 0.81,0.41 1.21,0.61 0.39,0.2 0.82,0.49 1.26,0.56z"/>
      <path class="fil2" d="M151.42 59.98c0.03,-0.03 0.04,-0.08 0.05,-0.12 0.13,-0.06 0.23,-0.18 0.28,-0.31 0.15,0.18 0.28,0.37 0.38,0.59 0.27,0.56 0.29,1.29 -0.13,1.74 -0.49,0.53 -1.32,0.48 -2.05,0.51 -0.51,0.02 -1.02,0.1 -1.52,0.24 0.05,-0.33 0.26,-0.61 0.49,-0.85 0.36,-0.36 0.78,-0.66 1.21,-0.92 0.44,-0.27 0.95,-0.46 1.28,-0.88z"/>
     </g>
     <path class="fil6" d="M156.96 55.5c0.02,-0.06 0.05,-0.12 0.07,-0.17 0.05,-0.1 0.14,-0.17 0.23,-0.23 0.05,-0.03 0.1,-0.07 0.15,-0.11 -0.04,0.03 -0.07,0.05 -0.11,0.08 0.06,-0.04 0.12,-0.09 0.17,-0.13 0.05,-0.04 0.1,-0.08 0.15,-0.13 0.03,-0.02 0.05,-0.05 0.07,-0.07 0.05,-0.06 0.1,-0.1 0.17,-0.15 -0.03,0.03 -0.06,0.05 -0.09,0.07 0.18,-0.14 0.43,-0.42 0.68,-0.26 0.21,0.13 0.19,0.42 0.13,0.63 -0.03,0.09 -0.06,0.18 -0.11,0.26 -0.04,0.07 -0.09,0.14 -0.15,0.2 -0.1,0.13 -0.21,0.25 -0.34,0.35 -0.07,0.05 -0.13,0.1 -0.2,0.14 -0.15,0.1 -0.34,0.11 -0.51,0.07 -0.23,-0.06 -0.4,-0.33 -0.32,-0.57z"/>
     <path class="fil6" d="M156.13 56.5c0.01,-0.09 0.02,-0.16 0.06,-0.24 0.03,-0.06 0.07,-0.12 0.11,-0.16 0.02,-0.02 0.05,-0.04 0.07,-0.07 0.06,-0.05 0.12,-0.11 0.2,-0.13 0.04,-0.01 0.09,-0.02 0.13,-0.02l0.1 0.01c0.05,0.01 0.09,0.03 0.13,0.07 0.03,0.02 0.05,0.04 0.07,0.07 0.03,0.04 0.06,0.08 0.07,0.13 0,0 0,0.01 0,0.02 0.01,0.03 0.02,0.09 0.02,0.12 -0.01,0.04 -0.01,0.07 -0.02,0.11l-0.04 0.1c-0,0.01 -0.01,0.02 -0.01,0.02 -0.01,0.03 -0.03,0.06 -0.04,0.09 -0.02,0.03 -0.05,0.07 -0.07,0.1 -0.01,0.01 -0.01,0.01 -0.02,0.02 -0.01,0.01 -0.02,0.02 -0.03,0.03 -0.01,0.02 -0.03,0.03 -0.05,0.04 -0.02,0.01 -0.03,0.03 -0.05,0.04 -0.01,0 -0.01,0.01 -0.02,0.01 -0.01,0.01 -0.03,0.01 -0.04,0.02 -0.06,0.04 -0.13,0.05 -0.2,0.05 -0.07,0 -0.14,-0.02 -0.2,-0.05 -0.06,-0.03 -0.11,-0.08 -0.14,-0.14 -0.04,-0.06 -0.05,-0.13 -0.05,-0.2l0 -0.04z"/>
     <path class="fil6" d="M161.26 60.17c-0,-0.08 0.06,-0.14 0.12,-0.16 0.02,-0.01 0.09,-0.02 0.05,-0.01 -0.03,0.01 0.01,-0 0.01,-0 -0.03,0.02 -0.07,0.04 -0.1,0.06 0.06,-0.06 0.13,-0.09 0.21,-0.1 0.1,-0.02 0.11,-0.02 0.21,-0 0.02,0 0.05,0.01 0.07,0.01 0.08,0.02 0.17,0.06 0.25,0.09 0.11,0.03 0.23,0.09 0.32,0.16 0.07,0.05 0.15,0.1 0.23,0.14 0.13,0.07 0.2,0.25 0.16,0.39 -0.04,0.14 -0.18,0.26 -0.33,0.25 -0.24,-0.02 -0.5,-0.02 -0.71,-0.15 -0.1,-0.06 -0.21,-0.13 -0.29,-0.21 -0.1,-0.1 -0.19,-0.25 -0.18,-0.41 -0,-0.02 -0.01,-0.04 -0.01,-0.07z"/>
     <path class="fil6" d="M157.9 63.88c0,-0.06 0,-0.12 0,-0.18 0,-0.1 0.03,-0.19 0.04,-0.29 -0.01,0.04 -0.01,0.07 -0.02,0.11 0.01,-0.05 0.01,-0.1 0.02,-0.15 0.01,-0.05 0.03,-0.09 0.06,-0.13 0.02,-0.03 0.03,-0.06 0.04,-0.09 -0.01,0.02 -0.02,0.04 -0.02,0.06 0.04,-0.1 0.1,-0.18 0.21,-0.21 0.1,-0.03 0.22,0 0.29,0.08 0.03,0.03 0.05,0.05 0.08,0.08 0.07,0.07 0.11,0.14 0.14,0.24 0.02,0.04 0.03,0.09 0.05,0.13 0.03,0.07 0.03,0.15 0.04,0.23 0.01,0.1 0.02,0.21 0.01,0.31 -0.01,0.06 -0.02,0.12 -0.04,0.18 -0.04,0.14 -0.11,0.23 -0.23,0.31 -0.07,0.05 -0.17,0.06 -0.26,0.05 -0.09,-0.01 -0.16,-0.05 -0.23,-0.11 -0.09,-0.08 -0.13,-0.19 -0.15,-0.31 -0.01,-0.06 -0.03,-0.13 -0.02,-0.19 0,-0.03 0,-0.07 0,-0.1z"/>
     <g>
      <path class="fil6" d="M152.74 62.22c-0.02,0 -0.03,0 -0.05,0.01 -0.01,-0 -0.02,-0 -0.02,-0 0.02,0 0.05,-0 0.07,-0z"/>
      <path class="fil6" d="M151.95 62.41c0.07,-0.08 0.16,-0.11 0.26,-0.12 0,0 0,0 0,0 0.04,-0.01 0.08,-0.02 0.12,-0.03 0.09,-0.03 0.18,-0.01 0.26,-0.02 -0.02,0 -0.04,0.01 -0.06,0.01 0.09,-0.02 0.17,-0.02 0.25,0 -0.03,-0 -0.06,-0.01 -0.09,-0.01 0.15,-0.03 0.29,0.02 0.38,0.14 0.04,0.06 0.07,0.11 0.08,0.18 0.01,0.03 0.01,0.07 0,0.1 -0,0.05 -0.02,0.1 -0.05,0.14 -0.06,0.12 -0.15,0.23 -0.27,0.3 -0.16,0.09 -0.35,0.15 -0.54,0.1 -0.07,-0.02 -0.13,-0.05 -0.19,-0.08 -0.06,-0.03 -0.12,-0.07 -0.16,-0.11 -0.08,-0.08 -0.13,-0.19 -0.13,-0.31 -0,-0.11 0.04,-0.22 0.12,-0.29z"/>
      <path class="fil6" d="M152.68 62.23c0,-0 0.01,0 0.01,0 -0.02,0 -0.04,0.01 -0.06,0.01 0.02,-0 0.03,-0.01 0.05,-0.01z"/>
      <path class="fil6" d="M152.7 62.23c0,0 0,0 0.01,0 -0,0 -0.01,-0 -0.01,-0 0,0 0,0 0,0z"/>
     </g>
     <path class="fil6" d="M151.09 56.95c0,-0.09 0.03,-0.19 0.1,-0.25 0,-0 0.01,-0.01 0.01,-0.01 0.07,-0.06 0.06,-0.05 0.12,-0.08 0.02,-0.01 0.03,-0.02 0.05,-0.02 0.03,-0 0.07,-0.01 0.1,-0.01 0.02,-0 0.04,-0 0.06,-0 0.03,0 0.09,0.01 0.13,0.02 0,0 0.01,0 0.01,0 0.04,0.02 0.09,0.04 0.13,0.06 0.01,0 0.01,0.01 0.02,0.01 0.03,0.02 0.07,0.05 0.1,0.08 0.01,0.01 0.02,0.02 0.03,0.03 0.04,0.04 0.08,0.1 0.12,0.15 0.01,0.01 0.02,0.02 0.02,0.03 0.01,0.02 0.02,0.04 0.03,0.06 0.01,0.02 0.02,0.04 0.03,0.06 0,0.01 0,0.01 0,0.02 0.01,0.03 0.01,0.06 0.02,0.1 0.01,0.02 0.01,0.05 0.01,0.07 -0.01,0.04 -0.01,0.08 -0.02,0.13 -0,0.01 -0,0.01 -0,0.02 -0,0.02 -0.01,0.05 -0.02,0.07 -0.02,0.03 -0.03,0.07 -0.04,0.1l-0.07 0.09 -0.09 0.07c-0.05,0.03 -0.1,0.05 -0.16,0.05 -0.04,0.01 -0.08,0.01 -0.11,0 -0.04,0 -0.08,-0.01 -0.11,-0.03 -0.04,-0.01 -0.07,-0.03 -0.09,-0.06 -0.05,-0.03 -0.08,-0.07 -0.11,-0.12 -0.01,-0.02 -0.02,-0.04 -0.04,-0.06 0.02,0.03 0.05,0.06 0.07,0.09 -0.03,-0.04 -0.07,-0.08 -0.09,-0.12 -0.01,-0.01 -0.01,-0.03 -0.02,-0.04 -0.02,-0.04 -0.03,-0.08 -0.04,-0.12 -0,-0.01 -0.01,-0.01 -0.01,-0.02 -0.03,-0.05 -0.05,-0.1 -0.07,-0.15 0.02,0.03 0.03,0.07 0.04,0.11 -0.02,-0.05 -0.05,-0.09 -0.06,-0.14 -0,-0.01 -0.01,-0.03 -0.01,-0.04 0.01,0.03 0.03,0.06 0.04,0.09 -0.03,-0.08 -0.06,-0.13 -0.06,-0.22z"/>
    </g>
    <g>
     <g>
      <path class="fil3" d="M144.97 200.64c-0.16,0.05 -0.32,0.1 -0.48,0.15 -0.05,0.02 -0.49,0.17 -0.26,0.1 -0.17,0.05 -0.32,0.19 -0.4,0.36 -0.62,0.17 -0.62,1.18 -0.67,1.7 -0.07,0.64 -0.13,1.29 -0.2,1.94 -0.03,0.28 -0.04,0.6 -0.15,0.86 -0.06,0.14 -0.1,0.18 -0.2,0.24 -0.24,0.16 -0.58,0.18 -0.88,0.1 -0.35,-0.09 -0.73,-0.4 -1.02,-0.75 -0.34,-0.4 -0.6,-0.87 -0.85,-1.33 -0.29,-0.53 -0.57,-1.07 -0.81,-1.62 -0.24,-0.54 -0.46,-1.1 -0.76,-1.62 -0.13,-0.22 -0.4,-0.25 -0.61,-0.16 -0.36,-0.1 -0.63,0.06 -0.95,0.19 -0.25,0.1 -0.5,0.19 -0.76,0.27 -0.51,0.16 -1.04,0.29 -1.57,0.35 -1.12,0.14 -2.24,0.12 -3.34,-0.15 -0.42,-0.11 -0.74,-0.24 -0.78,-0.71 -0.04,-0.49 0.27,-0.91 0.6,-1.24 0.42,-0.43 0.93,-0.78 1.44,-1.09 0.52,-0.32 1.12,-0.55 1.51,-1.04 0.03,-0.04 0.04,-0.09 0.06,-0.14 0.32,-0.15 0.5,-0.59 0.3,-0.93 -0.43,-0.75 -0.83,-1.45 -1.06,-2.29 -0.2,-0.71 -0.35,-1.59 -0.19,-2.32 0.05,-0.23 0.13,-0.48 0.39,-0.52 0.33,-0.06 0.71,0.18 0.99,0.32 0.48,0.24 0.95,0.48 1.43,0.72 0.46,0.23 0.97,0.58 1.49,0.66 0.26,0.04 0.47,-0.1 0.57,-0.3 0.08,0.04 0.16,0.06 0.25,0.03 0.55,-0.18 1.07,-0.59 1.54,-0.92 0.49,-0.34 0.97,-0.68 1.45,-1.04 0.43,-0.31 0.84,-0.66 1.29,-0.93 0.29,-0.17 0.65,-0.33 0.99,-0.19 0.85,0.36 0.78,1.61 0.76,2.35 -0.01,0.59 -0.04,1.17 -0.06,1.76 -0.01,0.32 -0.03,0.64 -0.04,0.95 -0.01,0.15 -0.01,0.29 -0.02,0.44 0,0 -0,0.02 -0,0.03 -0.05,0.08 -0.08,0.17 -0.09,0.26 -0,0.1 0.09,0.38 0.07,0.22 0.04,0.41 0.35,0.75 0.78,0.74 0.09,-0 0.17,-0.03 0.25,-0.06 0.76,0.33 1.52,0.69 2.23,1.13 0.41,0.26 0.8,0.54 1.16,0.86 0.34,0.3 0.74,0.62 0.95,1.02 0.03,0.05 0.05,0.11 0.07,0.18 0,0 0,0.01 0,0.02 -0.01,0 -0.01,0.01 -0.03,0.01 -0.08,0.04 -0.12,0.05 -0.24,0.09 -0.55,0.17 -1.1,0.33 -1.64,0.49 -0.56,0.17 -1.12,0.33 -1.68,0.5 -0.28,0.08 -0.56,0.17 -0.84,0.25z"/>
     </g>
     <path class="fil5" d="M146.91 201.69l1.68 -0.51c0.51,-0.15 1.07,-0.27 1.55,-0.53 1.08,-0.59 0.93,-1.87 0.28,-2.71 -0.63,-0.81 -1.54,-1.46 -2.41,-1.98 -0.78,-0.47 -1.61,-0.82 -2.49,-1.01 0.04,-0.59 0.03,-1.2 0.03,-1.78 -0,-0.65 -0,-1.31 -0.04,-1.97 -0.06,-1.15 -0.44,-2.44 -1.58,-2.97 -1.16,-0.53 -2.2,0.17 -3.1,0.87 -0.55,0.43 -1.09,0.87 -1.63,1.32 -0.52,0.43 -1.15,0.88 -1.53,1.44 -0.35,-0.33 -0.83,-0.52 -1.25,-0.74 -0.42,-0.22 -0.85,-0.43 -1.27,-0.65 -0.69,-0.35 -1.5,-0.82 -2.29,-0.52 -0.81,0.31 -1.08,1.16 -1.11,1.95 -0.03,0.8 0.08,1.61 0.27,2.39 0.18,0.76 0.48,1.56 0.9,2.23 -0.5,0.11 -0.96,0.38 -1.41,0.66 -0.63,0.4 -1.29,0.85 -1.78,1.42 -0.92,1.04 -1.25,2.85 0.12,3.7 0.59,0.37 1.38,0.49 2.06,0.58 0.73,0.1 1.47,0.16 2.2,0.11 0.73,-0.05 1.47,-0.18 2.17,-0.38 0.34,-0.1 0.68,-0.21 1.01,-0.35 0.13,-0.05 0.24,-0.1 0.35,-0.16 0.2,0.73 0.51,1.45 0.82,2.13 0.42,0.93 0.9,1.93 1.67,2.62 0.74,0.66 1.73,0.99 2.7,0.72 0.43,-0.12 0.83,-0.37 1.11,-0.71 0.41,-0.52 0.5,-1.13 0.57,-1.76l0.21 -1.94c0.03,-0.23 0.08,-0.56 0.1,-0.87 0.17,-0.03 0.33,-0.08 0.49,-0.12 0.54,-0.16 1.08,-0.33 1.62,-0.49zm0.58 -1.8l0 0c-0.56,0.17 -1.12,0.33 -1.68,0.5 -0.28,0.08 -0.56,0.17 -0.84,0.25 -0.16,0.05 -0.32,0.1 -0.48,0.15 -0.05,0.02 -0.49,0.17 -0.26,0.1 -0.17,0.05 -0.32,0.19 -0.4,0.36 -0.62,0.17 -0.62,1.18 -0.67,1.7 -0.07,0.64 -0.13,1.29 -0.2,1.94 -0.03,0.28 -0.04,0.6 -0.15,0.86 -0.06,0.14 -0.1,0.18 -0.2,0.24 -0.24,0.16 -0.58,0.18 -0.88,0.1 -0.35,-0.09 -0.73,-0.4 -1.02,-0.75 -0.34,-0.4 -0.6,-0.87 -0.85,-1.33 -0.29,-0.53 -0.57,-1.07 -0.81,-1.62 -0.24,-0.54 -0.46,-1.1 -0.76,-1.62 -0.13,-0.22 -0.4,-0.25 -0.61,-0.16 -0.36,-0.1 -0.63,0.06 -0.95,0.19 -0.25,0.1 -0.5,0.19 -0.76,0.27 -0.51,0.16 -1.04,0.29 -1.57,0.35 -1.12,0.14 -2.24,0.12 -3.34,-0.15 -0.42,-0.11 -0.74,-0.24 -0.78,-0.71 -0.04,-0.49 0.27,-0.91 0.6,-1.24 0.42,-0.43 0.93,-0.78 1.44,-1.09 0.52,-0.32 1.12,-0.55 1.51,-1.04 0.03,-0.04 0.04,-0.09 0.06,-0.14 0.32,-0.15 0.5,-0.59 0.3,-0.93 -0.43,-0.75 -0.83,-1.45 -1.06,-2.29 -0.2,-0.71 -0.35,-1.59 -0.19,-2.32 0.05,-0.23 0.13,-0.48 0.39,-0.52 0.33,-0.06 0.71,0.18 0.99,0.32 0.48,0.24 0.95,0.48 1.43,0.72 0.46,0.23 0.97,0.58 1.49,0.66 0.26,0.04 0.47,-0.1 0.57,-0.3 0.08,0.04 0.16,0.06 0.25,0.03 0.55,-0.18 1.07,-0.59 1.54,-0.92 0.49,-0.34 0.97,-0.68 1.45,-1.04 0.43,-0.31 0.84,-0.66 1.29,-0.93 0.29,-0.17 0.65,-0.33 0.99,-0.19 0.85,0.36 0.78,1.61 0.76,2.35 -0.01,0.59 -0.04,1.17 -0.06,1.76 -0.01,0.32 -0.03,0.64 -0.04,0.95 -0.01,0.15 -0.01,0.29 -0.02,0.44 0,0 -0,0.02 -0,0.03 -0.05,0.08 -0.08,0.17 -0.09,0.26 -0,0.1 0.09,0.38 0.07,0.22 0.04,0.41 0.35,0.75 0.78,0.74 0.09,-0 0.17,-0.03 0.25,-0.06 0.76,0.33 1.52,0.69 2.23,1.13 0.41,0.26 0.8,0.54 1.16,0.86 0.34,0.3 0.74,0.62 0.95,1.02 0.03,0.05 0.05,0.11 0.07,0.18 0,0 0,0.01 0,0.02 -0.01,0 -0.01,0.01 -0.03,0.01 -0.08,0.04 -0.12,0.05 -0.24,0.09 -0.55,0.17 -1.1,0.33 -1.64,0.49z"/>
     <g>
      <path class="fil2" d="M141.81 206.11c-0.03,-0.01 -0.05,0 -0.08,-0.01 -0.35,-0.09 -0.73,-0.4 -1.02,-0.75 -0.34,-0.4 -0.6,-0.87 -0.85,-1.33 -0.29,-0.53 -0.57,-1.07 -0.81,-1.62 -0.24,-0.54 -0.46,-1.1 -0.76,-1.62 -0.13,-0.22 -0.4,-0.25 -0.61,-0.16 -0.16,-0.05 -0.31,-0.03 -0.45,0 0.25,-0.19 0.52,-0.36 0.8,-0.49 0.64,-0.28 1.48,-0.29 1.97,0.21 0.25,0.25 0.38,0.59 0.5,0.93 0.41,1.18 0.74,2.38 0.99,3.61 0.08,0.41 0.16,0.83 0.32,1.21z"/>
      <path class="fil2" d="M143.97 195.4c0,0.02 0.01,0.04 0.02,0.07 -0.15,-0.05 -0.3,-0.11 -0.45,-0.16 -0.42,-0.15 -0.87,-0.31 -1.16,-0.64 -0.66,-0.75 -0.3,-1.91 0.1,-2.82 0.34,-0.79 0.68,-1.58 1.02,-2.37 0.68,0.44 0.63,1.57 0.61,2.26 -0.01,0.59 -0.04,1.17 -0.06,1.76 -0.01,0.32 -0.03,0.64 -0.04,0.95 -0.01,0.15 -0.01,0.29 -0.02,0.44 0,0 -0,0.02 -0,0.03 -0.05,0.08 -0.08,0.17 -0.09,0.26 -0,0.1 0.09,0.38 0.07,0.22z"/>
      <path class="fil2" d="M145.81 200.39c-0.28,0.08 -0.56,0.17 -0.84,0.25 -0.16,0.05 -0.32,0.1 -0.48,0.15 -0.05,0.02 -0.49,0.17 -0.26,0.1 -0.17,0.05 -0.32,0.19 -0.4,0.36 -0.1,0.03 -0.18,0.08 -0.25,0.15 -0.04,-0.41 -0.07,-0.83 -0.07,-1.24 -0,-0.27 0,-0.55 0.13,-0.78 0.32,-0.57 1.13,-0.57 1.78,-0.5 1.3,0.14 2.61,0.22 3.92,0.24 0.02,0.05 0.04,0.1 0.06,0.16 0,0 0,0.01 0,0.02 -0.01,0 -0.01,0.01 -0.03,0.01 -0.08,0.04 -0.12,0.05 -0.24,0.09 -0.55,0.17 -1.1,0.33 -1.64,0.49 -0.56,0.17 -1.12,0.33 -1.68,0.5z"/>
      <path class="fil2" d="M137.24 192.73c0.12,0.02 0.22,-0 0.32,-0.05 -0.19,0.39 -0.44,0.75 -0.78,1.04 -0.15,0.13 -0.34,0.25 -0.54,0.25 -0.23,0 -0.43,-0.15 -0.6,-0.3 -0.91,-0.76 -1.71,-1.64 -2.4,-2.6 0.03,-0.02 0.06,-0.04 0.1,-0.04 0.33,-0.06 0.71,0.18 0.99,0.32 0.48,0.24 0.95,0.48 1.43,0.72 0.46,0.23 0.97,0.58 1.49,0.66z"/>
      <path class="fil2" d="M133.83 197.22c0.03,-0.04 0.04,-0.09 0.06,-0.14 0.15,-0.07 0.27,-0.21 0.33,-0.37 0.17,0.22 0.33,0.44 0.45,0.7 0.32,0.66 0.34,1.52 -0.15,2.06 -0.58,0.63 -1.57,0.57 -2.43,0.6 -0.61,0.02 -1.21,0.12 -1.8,0.28 0.06,-0.39 0.31,-0.73 0.58,-1 0.42,-0.43 0.93,-0.78 1.44,-1.09 0.52,-0.32 1.12,-0.55 1.51,-1.04z"/>
     </g>
     <path class="fil6" d="M140.4 191.9c0.02,-0.07 0.06,-0.14 0.09,-0.2 0.05,-0.12 0.16,-0.2 0.27,-0.27 0.06,-0.04 0.12,-0.08 0.18,-0.13 -0.04,0.03 -0.08,0.06 -0.13,0.1 0.07,-0.05 0.14,-0.1 0.21,-0.15 0.06,-0.05 0.12,-0.1 0.18,-0.15 0.03,-0.03 0.06,-0.06 0.09,-0.09 0.06,-0.07 0.12,-0.12 0.2,-0.17 -0.04,0.03 -0.07,0.06 -0.11,0.09 0.21,-0.17 0.5,-0.49 0.8,-0.31 0.25,0.15 0.23,0.5 0.16,0.74 -0.03,0.11 -0.07,0.22 -0.13,0.31 -0.05,0.08 -0.11,0.16 -0.17,0.24 -0.12,0.16 -0.24,0.3 -0.4,0.42 -0.08,0.06 -0.15,0.12 -0.24,0.17 -0.18,0.12 -0.4,0.13 -0.61,0.08 -0.27,-0.07 -0.47,-0.4 -0.38,-0.67z"/>
     <path class="fil6" d="M139.41 193.09c0.01,-0.11 0.02,-0.19 0.08,-0.29 0.04,-0.07 0.08,-0.14 0.14,-0.19 0.03,-0.03 0.06,-0.05 0.08,-0.08 0.07,-0.07 0.15,-0.13 0.24,-0.15 0.05,-0.01 0.11,-0.02 0.16,-0.02l0.12 0.02c0.06,0.01 0.11,0.04 0.15,0.08 0.03,0.02 0.06,0.05 0.08,0.08 0.04,0.04 0.07,0.1 0.08,0.15 0,0.01 0,0.01 0,0.02 0.01,0.04 0.02,0.1 0.02,0.14 -0.01,0.04 -0.01,0.09 -0.02,0.13l-0.05 0.12c-0,0.01 -0.01,0.02 -0.01,0.03 -0.02,0.03 -0.03,0.07 -0.05,0.1 -0.02,0.04 -0.06,0.08 -0.09,0.12 -0.01,0.01 -0.01,0.02 -0.02,0.02 -0.01,0.01 -0.02,0.03 -0.04,0.04 -0.02,0.02 -0.04,0.04 -0.06,0.05 -0.02,0.02 -0.04,0.03 -0.06,0.04 -0.01,0.01 -0.02,0.01 -0.03,0.01 -0.02,0.01 -0.03,0.02 -0.05,0.02 -0.07,0.04 -0.15,0.06 -0.23,0.06 -0.08,0 -0.16,-0.02 -0.24,-0.06 -0.07,-0.04 -0.13,-0.1 -0.17,-0.17 -0.04,-0.07 -0.06,-0.15 -0.06,-0.24l0.01 -0.05z"/>
     <path class="fil6" d="M145.49 197.44c-0.01,-0.09 0.07,-0.17 0.14,-0.19 0.02,-0.01 0.11,-0.02 0.06,-0.01 -0.04,0.01 0.01,-0 0.01,-0 -0.04,0.02 -0.08,0.05 -0.12,0.07 0.07,-0.07 0.15,-0.1 0.25,-0.12 0.12,-0.02 0.13,-0.02 0.25,-0 0.03,0 0.06,0.01 0.08,0.02 0.1,0.02 0.2,0.07 0.29,0.1 0.13,0.04 0.27,0.11 0.38,0.19 0.09,0.06 0.18,0.12 0.27,0.17 0.15,0.08 0.24,0.3 0.19,0.46 -0.05,0.16 -0.21,0.31 -0.39,0.3 -0.29,-0.02 -0.59,-0.03 -0.84,-0.18 -0.12,-0.07 -0.25,-0.15 -0.35,-0.25 -0.12,-0.12 -0.22,-0.3 -0.21,-0.48 -0.01,-0.03 -0.01,-0.05 -0.01,-0.08z"/>
     <path class="fil6" d="M141.5 201.84c0,-0.07 0,-0.14 0,-0.21 0,-0.11 0.03,-0.23 0.04,-0.34 -0.01,0.04 -0.01,0.09 -0.02,0.13 0.01,-0.06 0.01,-0.12 0.02,-0.18 0.01,-0.06 0.04,-0.11 0.07,-0.16 0.02,-0.03 0.03,-0.07 0.05,-0.11 -0.01,0.02 -0.02,0.05 -0.03,0.07 0.05,-0.12 0.12,-0.21 0.25,-0.25 0.12,-0.03 0.26,0 0.35,0.09 0.03,0.03 0.06,0.07 0.09,0.1 0.08,0.09 0.13,0.17 0.17,0.28 0.02,0.05 0.04,0.1 0.06,0.15 0.03,0.09 0.03,0.18 0.04,0.27 0.01,0.12 0.03,0.25 0.01,0.37 -0.01,0.07 -0.02,0.14 -0.04,0.21 -0.05,0.16 -0.13,0.27 -0.28,0.36 -0.09,0.06 -0.2,0.07 -0.3,0.06 -0.11,-0.01 -0.19,-0.06 -0.27,-0.13 -0.11,-0.1 -0.15,-0.23 -0.18,-0.37 -0.02,-0.08 -0.03,-0.15 -0.03,-0.23 0,-0.04 0,-0.08 0,-0.12z"/>
     <g>
      <path class="fil6" d="M135.4 199.87c-0.02,0 -0.04,0.01 -0.06,0.01 -0.01,-0 -0.02,-0 -0.03,-0 0.03,0 0.06,-0 0.08,-0z"/>
      <path class="fil6" d="M134.46 200.09c0.09,-0.09 0.19,-0.13 0.31,-0.14 0,0 0,0 0,0 0.05,-0.01 0.1,-0.02 0.14,-0.04 0.1,-0.04 0.21,-0.01 0.31,-0.03 -0.02,0 -0.05,0.01 -0.07,0.01 0.1,-0.02 0.2,-0.03 0.3,0 -0.03,-0 -0.07,-0.01 -0.11,-0.01 0.17,-0.03 0.35,0.02 0.46,0.16 0.05,0.07 0.08,0.14 0.09,0.22 0.01,0.04 0.01,0.08 0,0.12 -0,0.06 -0.02,0.12 -0.05,0.17 -0.07,0.15 -0.18,0.28 -0.31,0.35 -0.19,0.11 -0.42,0.18 -0.64,0.11 -0.08,-0.02 -0.16,-0.06 -0.23,-0.09 -0.07,-0.03 -0.14,-0.08 -0.19,-0.13 -0.09,-0.1 -0.16,-0.22 -0.16,-0.36 -0,-0.13 0.05,-0.26 0.14,-0.35z"/>
      <path class="fil6" d="M135.33 199.87c0,-0 0.01,0 0.01,0 -0.02,0 -0.05,0.01 -0.07,0.01 0.02,-0 0.04,-0.01 0.05,-0.01z"/>
      <path class="fil6" d="M135.35 199.87c0,0 0.01,0 0.01,0 -0,0 -0.01,-0 -0.01,0 0,-0 0,-0 0,-0z"/>
     </g>
     <path class="fil6" d="M133.44 193.62c0,-0.11 0.03,-0.22 0.12,-0.3 0,-0 0.01,-0.01 0.01,-0.01 0.08,-0.07 0.07,-0.06 0.14,-0.09 0.02,-0.01 0.04,-0.02 0.06,-0.02 0.04,-0.01 0.08,-0.01 0.12,-0.02 0.02,-0 0.05,-0 0.07,-0 0.04,0 0.11,0.01 0.15,0.02 0.01,0 0.01,0 0.02,0.01 0.05,0.02 0.1,0.04 0.16,0.07 0.01,0 0.02,0.01 0.02,0.01 0.04,0.02 0.08,0.06 0.12,0.09 0.01,0.01 0.02,0.02 0.04,0.03 0.05,0.05 0.1,0.12 0.14,0.17 0.01,0.01 0.02,0.02 0.03,0.04 0.01,0.02 0.02,0.05 0.03,0.07 0.01,0.03 0.02,0.05 0.03,0.08 0,0.01 0,0.01 0.01,0.02 0.01,0.04 0.01,0.08 0.02,0.11 0.01,0.03 0.01,0.06 0.01,0.08 -0.01,0.05 -0.01,0.1 -0.02,0.15 -0,0.01 -0,0.01 -0,0.02 -0.01,0.03 -0.02,0.06 -0.03,0.08 -0.02,0.04 -0.03,0.08 -0.05,0.12l-0.08 0.1 -0.1 0.08c-0.06,0.04 -0.12,0.06 -0.19,0.06 -0.05,0.01 -0.09,0.01 -0.14,0 -0.05,0 -0.09,-0.01 -0.13,-0.03 -0.04,-0.01 -0.08,-0.03 -0.11,-0.07 -0.06,-0.04 -0.1,-0.08 -0.13,-0.14 -0.01,-0.02 -0.03,-0.05 -0.05,-0.07 0.03,0.04 0.06,0.07 0.09,0.11 -0.04,-0.05 -0.08,-0.09 -0.11,-0.15 -0.01,-0.02 -0.02,-0.03 -0.03,-0.05 -0.03,-0.05 -0.04,-0.09 -0.05,-0.14 -0,-0.01 -0.01,-0.01 -0.01,-0.02 -0.03,-0.06 -0.05,-0.12 -0.08,-0.18 0.02,0.04 0.04,0.08 0.05,0.13 -0.02,-0.06 -0.05,-0.11 -0.07,-0.17 -0.01,-0.02 -0.01,-0.03 -0.02,-0.05 0.02,0.04 0.03,0.07 0.05,0.11 -0.04,-0.09 -0.07,-0.15 -0.07,-0.26z"/>
    </g>
   </g>
  </g>
 </g>
</svg>
