<svg xmlns="http://www.w3.org/2000/svg" width="201.468" height="159.913" viewBox="0 0 201.468 159.913"><defs><style>.a{fill:#d8eff2;}.b{fill:#99cdee;}.c{fill:#34416b;}.d{fill:#7aafdb;}.e{fill:#a6d4f1;}.f{fill:#a3d2f0;}.g{fill:#fefefe;}.h{fill:#fce26b;}.i{fill:#fce069;}.j{fill:#6897c6;}.k{fill:#88b5d9;}.l{fill:#e7e9f0;}.m{fill:#334e7b;}.n{fill:#85b1d2;}.o{fill:#324063;}.p{fill:#374c6f;}.q{fill:#d3d7de;}.r{fill:#fce997;}.s{fill:#e7f4e9;}.t{fill:#d32627;}.u{fill:#ffc516;}.v{fill:#fb0808;}</style></defs><g transform="translate(-88.745 -305.087)"><g transform="translate(133.022 338.136)"><g transform="translate(0 0)"><path class="a" d="M120.507,67.3A53.749,53.749,0,1,1,66.759,13.55,53.749,53.749,0,0,1,120.507,67.3Z" transform="translate(-12.281 -12.79)"/><path class="b" d="M319.017,1799.008v4.019H236.59v-4.019a3.577,3.577,0,0,1,3.578-3.578h75.271a3.577,3.577,0,0,1,3.578,3.578Z" transform="translate(-223.326 -1694.77)"/><path class="c" d="M224.569,1789.277h80.908v-3.159a2.778,2.778,0,0,0-2.818-2.729H227.388a2.778,2.778,0,0,0-2.818,2.729v3.159Zm81.668,1.519H223.81a.76.76,0,0,1-.76-.76v-3.918a4.3,4.3,0,0,1,4.338-4.249h75.271a4.3,4.3,0,0,1,4.338,4.249v3.918a.76.76,0,0,1-.76.76Z" transform="translate(-210.545 -1681.97)"/><path class="b" d="M520.537,1720.158v1.73H463.56v-1.73a2.638,2.638,0,0,1,2.638-2.638h51.7a2.638,2.638,0,0,1,2.638,2.638Z" transform="translate(-437.571 -1621.228)"/><path class="c" d="M451.539,1708.338H507v-.97a1.88,1.88,0,0,0-1.879-1.878h-51.7a1.88,1.88,0,0,0-1.878,1.878Zm56.218,1.519H450.78a.76.76,0,0,1-.76-.76v-1.73a3.4,3.4,0,0,1,3.4-3.4h51.7a3.4,3.4,0,0,1,3.4,3.4v1.73a.759.759,0,0,1-.76.76Z" transform="translate(-424.79 -1608.438)"/><path class="b" d="M319.027,13.55v4.019a3.577,3.577,0,0,1-3.578,3.578H240.178a3.577,3.577,0,0,1-3.578-3.578V13.55h82.427Z" transform="translate(-223.335 -12.79)"/><path class="d" d="M328.239,84.339H252.968a2.821,2.821,0,0,1-2.818-2.818V81.3h80.908v.22a2.821,2.821,0,0,1-2.818,2.818Z" transform="translate(-236.126 -76.742)"/><path class="d" d="M250.15,1866.029h80.907v-2.849H250.15Z" transform="translate(-236.125 -1758.722)"/><path class="c" d="M319.017,1866.979H236.59v-3.8h.76v2.849h80.907v-2.849h.76Z" transform="translate(-223.326 -1758.722)"/><path class="c" d="M224.579,1.519V4.778A2.821,2.821,0,0,0,227.4,7.6h75.271a2.821,2.821,0,0,0,2.818-2.818V1.519H224.578Zm78.09,7.6H227.4a4.343,4.343,0,0,1-4.338-4.338V.76a.76.76,0,0,1,.76-.76h82.427a.76.76,0,0,1,.76.76V4.778a4.343,4.343,0,0,1-4.338,4.338Z" transform="translate(-210.554 0)"/><path class="e" d="M520.547,149.05v1.73a2.638,2.638,0,0,1-2.638,2.638h-51.7a2.638,2.638,0,0,1-2.638-2.638v-1.73h56.977Z" transform="translate(-437.58 -140.694)"/><path class="c" d="M451.53,137.029V138a1.88,1.88,0,0,0,1.878,1.878h51.7A1.881,1.881,0,0,0,506.988,138v-.97Zm53.579,4.368h-51.7a3.4,3.4,0,0,1-3.4-3.4v-1.73a.76.76,0,0,1,.76-.76h56.977a.76.76,0,0,1,.76.76V138a3.4,3.4,0,0,1-3.4,3.4Z" transform="translate(-424.78 -127.913)"/><path class="b" d="M322.98,241.354h4.368v-92.3H322.98Z" transform="translate(-304.872 -140.694)"/><path class="d" d="M363.355,277.37H361.93V241.509h1.425Zm0-53.747-.131,0H361.93V188.01h1.425v35.612Z" transform="translate(-341.639 -177.469)"/><path class="c" d="M310.959,227.813h2.849V137.029h-2.849Zm3.609,1.519H310.2a.76.76,0,0,1-.76-.76v-92.3a.76.76,0,0,1,.76-.76h4.368a.76.76,0,0,1,.76.76v92.3A.76.76,0,0,1,314.568,229.332Z" transform="translate(-292.091 -127.913)"/><path class="b" d="M1542.52,241.354h4.368v-92.3h-4.368Z" transform="translate(-1456.039 -140.694)"/><path class="c" d="M1530.489,227.813h2.849V137.029h-2.849Zm3.608,1.519h-4.368a.76.76,0,0,1-.76-.76v-92.3a.76.76,0,0,1,.76-.76h4.368a.76.76,0,0,1,.76.76v92.3A.76.76,0,0,1,1534.1,229.332Z" transform="translate(-1443.249 -127.913)"/><path class="b" d="M274.716,840.954v6.765a4.216,4.216,0,0,1-4.214,4.214h-2.587a4.216,4.216,0,0,1-4.214-4.214v-6.765a4.215,4.215,0,0,1,4.214-4.214H270.5A4.215,4.215,0,0,1,274.716,840.954Z" transform="translate(-248.916 -789.829)"/><path class="f" d="M279.856,865.634a3.461,3.461,0,0,1-2.606-3.349v-6.765a3.461,3.461,0,0,1,2.606-3.349,4.209,4.209,0,0,0-1.657,3.349v6.765a4.207,4.207,0,0,0,1.657,3.349Z" transform="translate(-261.706 -804.393)"/><path class="d" d="M400.37,865.687a4.208,4.208,0,0,0,1.653-3.346v-6.765a4.209,4.209,0,0,0-1.652-3.346,3.461,3.461,0,0,1,2.593,3.346v6.765A3.46,3.46,0,0,1,400.37,865.687Z" transform="translate(-377.923 -804.45)"/><path class="c" d="M255.124,824.709a3.458,3.458,0,0,0-3.455,3.455v6.765a3.458,3.458,0,0,0,3.455,3.455h2.587a3.458,3.458,0,0,0,3.455-3.455v-6.765a3.458,3.458,0,0,0-3.455-3.455Zm2.587,15.194h-2.587a4.98,4.98,0,0,1-4.974-4.974v-6.765a4.98,4.98,0,0,1,4.974-4.974h2.587a4.98,4.98,0,0,1,4.974,4.974v6.765A4.98,4.98,0,0,1,257.711,839.9Z" transform="translate(-236.125 -777.038)"/><path class="g" d="M542.24,308.847h47.8V295.155a28.09,28.09,0,0,0-16.522-25.568l-.056-.027a2.661,2.661,0,0,1,0-4.8h0l.056-.027a28.089,28.089,0,0,0,16.522-25.568V225.471h-47.8v13.692a28.089,28.089,0,0,0,16.522,25.568l.056.028a2.661,2.661,0,0,1,0,4.8h0l-.056.027a28.089,28.089,0,0,0-16.522,25.568v13.692Zm47.986.19H542.05V295.155a28.28,28.28,0,0,1,16.578-25.716h0l.056-.027a2.471,2.471,0,0,0,0-4.506l-.056-.027a28.279,28.279,0,0,1-16.578-25.716V225.28h48.176v13.882a28.28,28.28,0,0,1-16.578,25.716h0l-.056.027a2.471,2.471,0,0,0,0,4.506l.056.027a28.28,28.28,0,0,1,16.578,25.716v13.882Z" transform="translate(-511.66 -212.65)"/><path class="g" d="M591.736,296.75v13.787H543.75V296.75A28.141,28.141,0,0,1,560.328,271.1v0a2.566,2.566,0,0,0,0-4.68v0a28.14,28.14,0,0,1-16.578-25.655V226.97h47.986v13.787a28.14,28.14,0,0,1-16.578,25.655v0a2.566,2.566,0,0,0,0,4.68v0A28.14,28.14,0,0,1,591.736,296.75Z" transform="translate(-513.265 -214.245)"/><path class="g" d="M1229.676,244.115v12.641a28.139,28.139,0,0,1-10.1,21.593c11.3-15.7,6.805-33.765,6.805-33.765l.95-.664,2.342.2Z" transform="translate(-1151.205 -230.245)"/><path class="c" d="M531.719,296.968h46.467V283.94a27.422,27.422,0,0,0-16.131-24.962l-.051-.025a3.325,3.325,0,0,1,0-6.017l.052-.026a27.423,27.423,0,0,0,16.131-24.962V214.921H531.719v13.027A27.422,27.422,0,0,0,547.85,252.91l.052.026a3.326,3.326,0,0,1,0,6.018l-.051.025a27.424,27.424,0,0,0-16.131,24.962v13.027Zm47.227,1.519H530.96a.76.76,0,0,1-.76-.76V283.94a28.944,28.944,0,0,1,16.98-26.327l.046-.023a1.807,1.807,0,0,0,0-3.294l-.048-.024A28.946,28.946,0,0,1,530.2,227.946V214.16a.76.76,0,0,1,.76-.76h47.986a.76.76,0,0,1,.76.76v13.787a28.946,28.946,0,0,1-16.979,26.326l-.048.024a1.807,1.807,0,0,0,0,3.294l.047.023a28.944,28.944,0,0,1,16.98,26.327v13.787A.76.76,0,0,1,578.946,298.487Z" transform="translate(-500.475 -201.436)"/><path class="c" d="M1857.611,1915.519h-3.531a.76.76,0,0,1,0-1.519h3.531a.76.76,0,1,1,0,1.519Z" transform="translate(-1749.414 -1806.692)"/><path class="c" d="M182.332,1915.519H86.61a.76.76,0,0,1,0-1.519h95.722a.76.76,0,0,1,0,1.519Z" transform="translate(-81.037 -1806.692)"/><path class="c" d="M2.946,1915.519H.76a.76.76,0,0,1,0-1.519H2.946a.76.76,0,0,1,0,1.519Z" transform="translate(0 -1806.692)"/><path class="h" d="M645.563,1292.8H614.4c-2.526,0-4.379-2.614-3.769-5.313,2.157-9.559,10-16.644,19.349-16.644s17.192,7.084,19.349,16.644C649.941,1290.183,648.088,1292.8,645.563,1292.8Z" transform="translate(-576.289 -1199.591)"/><path class="h" d="M844.448,819.366c0,1.761-3.837,3.2-8.472,3.12-3.456-.056-6.353-.933-7.372-2.129-.235-.276.25-.567,1.008-.609,1.451-.081,2.931-.095,4.012-.078,4.725.071,5.831.78,8.119.378a7.627,7.627,0,0,0,2.226-.742c.153-.078.48-.038.48.061Z" transform="translate(-782.091 -773.333)"/><path class="h" d="M851.217,826.439l-4.7,1.783a6.674,6.674,0,0,1-.859-.421l3.718-1.411.4,0c.52.008,1,.023,1.437.044Z" transform="translate(-798.248 -780.059)"/><path class="h" d="M873.255,827.972l-5.269,2c-.182-.056-.357-.114-.525-.174l4.973-1.888c.292.018.564.039.822.062Z" transform="translate(-818.826 -781.494)"/><path class="i" d="M958.91,1065.094a.76.76,0,0,1-.76-.76v-1.555a.76.76,0,0,1,1.519,0v1.555A.76.76,0,0,1,958.91,1065.094Z" transform="translate(-904.432 -1002.478)"/><path class="i" d="M958.91,963.893a.76.76,0,0,1-.76-.76V959.46a.76.76,0,0,1,1.519,0v3.673A.76.76,0,0,1,958.91,963.893Z" transform="translate(-904.432 -904.951)"/><path class="d" d="M336.53,164.034h1.424V162.61H336.53Z" transform="translate(-317.663 -153.493)"/><path class="j" d="M361.93,164.034h1.425V162.61H361.93Z" transform="translate(-341.639 -153.493)"/><path class="c" d="M327.348,151.234h-.76V149.81H323.74v1.424h-.76V149.05h4.368Z" transform="translate(-304.872 -140.694)"/><path class="d" d="M1556.07,164.034h1.424V162.61h-1.424Z" transform="translate(-1468.829 -153.493)"/><path class="c" d="M1543.28,151.234h-.76V149.05h2.184v.76h-1.424Z" transform="translate(-1456.039 -140.694)"/><path class="d" d="M1557.485,1122.686h-1.425v-1.426l.131,0h1.293Z" transform="translate(-1468.82 -1058.397)"/><path class="c" d="M1554.709,1119.684h-.439v-1.5q.223-.04.439-.1Zm-4.047,0h-.321v-1.445c.106.01.214.016.321.019Z" transform="translate(-1463.421 -1055.395)"/><path class="d" d="M337.945,1122.437H336.52v-1.177l.131,0h1.293Z" transform="translate(-317.653 -1058.397)"/><path class="j" d="M363.355,1122.437H361.93v-1.175h1.293l.131,0Z" transform="translate(-341.639 -1058.397)"/><path class="c" d="M323.478,1120.37h-.543v-1.177a4.976,4.976,0,0,0,.543-.044Zm-3.391,0h-.977v-1.3a4.917,4.917,0,0,0,.977.123Z" transform="translate(-301.219 -1056.33)"/><path class="c" d="M322.795,1104.309h-2.587l-.131,0a4.9,4.9,0,0,1-.977-.123v-.885h4.368v.964a5.088,5.088,0,0,1-.543.044l-.131,0Z" transform="translate(-301.21 -1041.444)"/><path class="k" d="M532.523,164.025H477.176a1.869,1.869,0,0,1-.055-.454v-.97h55.458v.97A1.872,1.872,0,0,1,532.523,164.025Z" transform="translate(-450.371 -153.484)"/><path class="c" d="M520.537,151.234h-.815a1.9,1.9,0,0,0,.055-.454v-.97H464.32v.97a1.871,1.871,0,0,0,.055.454h-.815V149.05h56.977v2.184Z" transform="translate(-437.571 -140.694)"/><path class="l" d="M596.177,272.352v0Zm.006-.01.011-.018Zm.015-.025.013-.022Zm.015-.025.031-.053Zm.033-.055.013-.022Zm.017-.029.011-.019Zm.016-.026.011-.018Zm.015-.026.012-.02Zm.015-.025.013-.022Zm.015-.026.03-.052Zm.034-.058.012-.02Zm.016-.027.011-.018Zm.015-.026.011-.018Zm.015-.026.011-.019Zm.015-.025.014-.024Zm.015-.025.015-.026Zm.018-.032.011-.02Zm.016-.027.01-.017Zm.015-.026.01-.017Zm.015-.025c0-.006.007-.011.01-.017Zm.015-.026.012-.021Zm.014-.025.03-.052Zm.034-.059.01-.017Zm.016-.027.009-.016Zm.015-.026.009-.016Zm.015-.025.01-.017Zm.015-.025.012-.021Zm.014-.025.015-.026Zm.015-.027.014-.025Zm.017-.031.011-.02Zm.015-.027.011-.018Zm.015-.026.011-.018Zm.014-.025.012-.022Zm.015-.025.03-.053Zm.031-.054.013-.024Zm.016-.029.011-.02Zm.015-.027.011-.019Zm.015-.026.011-.018Zm.015-.026.013-.024Zm.014-.025.03-.053Zm.031-.055.012-.022Zm.016-.029.011-.02Zm.014-.026.011-.02Zm.015-.026.012-.021Zm.014-.026.043-.078Zm.045-.082.012-.022Zm.015-.028.011-.02Zm.015-.026.011-.021Zm.014-.026.013-.023Zm.014-.026.029-.053Zm.03-.054.013-.024Zm.015-.029c0-.007.008-.014.011-.021Zm.015-.027.011-.021Zm.014-.025.012-.023Zm.014-.026.056-.1Zm.058-.109.012-.022Zm.014-.026.012-.022Zm.014-.026.013-.025Zm.014-.026.042-.08Zm.043-.082.013-.024Zm.015-.028.011-.022Zm.014-.027.012-.022Zm.013-.025.013-.026Zm.014-.026.028-.054Zm.028-.054.014-.026Zm.015-.028.012-.024Zm.015-.029.011-.021Zm.013-.026.012-.022Zm.013-.026.054-.105C597.43,270.1,597.412,270.133,597.394,270.168Zm.056-.109.012-.023Zm.014-.027.012-.023Zm.013-.026.054-.107Zm.054-.107.013-.026Zm.014-.027.012-.025Zm.013-.027.013-.025Zm.013-.026.054-.107Zm.054-.108.013-.025Zm.014-.027.012-.024Zm.013-.026.012-.025Zm.013-.026.053-.107Zm.054-.108.012-.025Zm.013-.026.013-.026C597.742,269.479,597.738,269.487,597.733,269.5Zm.013-.027c.022-.045.044-.089.066-.134Zm.066-.135.013-.026Zm.013-.027c.053-.108.1-.215.155-.322C597.929,269.092,597.877,269.2,597.825,269.307Zm.155-.323c.059-.126.118-.25.177-.376C598.1,268.734,598.041,268.858,597.981,268.984Zm.177-.377.074-.16C598.207,268.5,598.182,268.554,598.157,268.607Zm.074-.161.085-.187Zm.085-.188.012-.025Zm.012-.027.072-.16Zm.072-.161a41.072,41.072,0,0,0,2.123-6A41.072,41.072,0,0,1,598.4,268.069Zm2.123-6.005c.014-.052.028-.1.042-.156C600.551,261.96,600.537,262.012,600.523,262.064Zm.042-.156.007-.026Zm.007-.026c.011-.043.022-.086.034-.129C600.594,261.8,600.584,261.839,600.572,261.882Zm.034-.131.007-.025Zm.007-.025.007-.026Zm.007-.026c.009-.035.018-.068.026-.1C600.637,261.631,600.628,261.667,600.62,261.7Zm.027-.105.006-.023Zm.007-.026.006-.022C600.658,261.554,600.655,261.561,600.654,261.569Zm.007-.027c0-.008,0-.015.006-.022C600.664,261.527,600.662,261.534,600.66,261.542Zm.006-.025c.007-.025.013-.05.019-.076C600.679,261.467,600.673,261.492,600.667,261.517Zm.021-.082.005-.02Zm.006-.025.005-.02Zm.006-.025c0-.008,0-.014.006-.021S600.7,261.378,600.7,261.386Zm.006-.025.006-.023Zm.006-.025.013-.051C600.72,261.3,600.717,261.319,600.712,261.336Zm.013-.053.006-.022C600.729,261.268,600.727,261.276,600.725,261.283Zm.007-.029c0-.006,0-.012,0-.018S600.733,261.249,600.732,261.254Zm.007-.026c0-.006,0-.012,0-.017S600.741,261.223,600.739,261.229Zm.006-.025,0-.018C600.748,261.191,600.746,261.2,600.745,261.2Zm.006-.025c0-.007,0-.015.006-.021S600.753,261.173,600.751,261.179Zm.006-.025.006-.025C600.761,261.138,600.759,261.146,600.757,261.155Zm.006-.025c0-.008,0-.017.006-.025C600.768,261.113,600.765,261.121,600.764,261.129Zm.007-.03c0-.007,0-.013.005-.02Zm.007-.027,0-.017Zm.006-.025,0-.016C600.787,261.037,600.786,261.042,600.784,261.048Zm.006-.025c0-.006,0-.013,0-.018ZM600.8,261c0-.008,0-.016.006-.024Zm.006-.025.006-.025C600.806,260.957,600.8,260.966,600.8,260.974Zm.007-.028c0-.007,0-.014.006-.021S600.81,260.94,600.808,260.946Zm.007-.029c0-.006,0-.011,0-.017Zm.006-.025c0-.006,0-.011,0-.016A.158.158,0,0,1,600.821,260.892Zm.006-.025c0-.006,0-.012,0-.018S600.828,260.861,600.826,260.867Zm.006-.024,0-.019Zm.006-.025c0-.016.008-.033.011-.049Zm.013-.054,0-.019Zm.006-.026c0-.005,0-.011,0-.016S600.859,260.731,600.857,260.737Zm.006-.026c0-.006,0-.01,0-.015A.155.155,0,0,1,600.863,260.711Zm.006-.024a.13.13,0,0,1,0-.016A.131.131,0,0,1,600.869,260.687Zm.006-.024,0-.018C600.877,260.651,600.876,260.657,600.875,260.663Zm.006-.025c0-.007,0-.016.006-.024Zm.008-.035a.107.107,0,0,0,0-.013Zm.006-.024,0-.014S600.895,260.576,600.894,260.58Zm.006-.025a.108.108,0,0,0,0-.013Zm.006-.024,0-.012Zm.006-.025,0-.013Zm.006-.024,0-.016Zm.007-.03c0-.006,0-.012,0-.017Zm.007-.029a.082.082,0,0,1,0-.012S600.931,260.42,600.93,260.424Zm.006-.025,0-.012Zm.006-.024,0-.011S600.941,260.371,600.941,260.375Zm.005-.024,0-.013Zm.006-.023s0-.009,0-.013Zm.006-.024s0-.009,0-.013A.107.107,0,0,0,600.957,260.3Zm.008-.035s0-.007,0-.011S600.965,260.264,600.965,260.268Zm.006-.025s0-.006,0-.009Zm.006-.024,0-.008A.046.046,0,0,0,600.976,260.219Zm.006-.025,0-.007Zm.005-.023,0-.008Zm.005-.024s0,0,0,0A.013.013,0,0,1,600.992,260.147Zm.014-.064s0,0,0,0S601.006,260.082,601.006,260.083Zm0-.022v0A.011.011,0,0,1,601.01,260.061Zm.005-.022,0-.006Zm.005-.024a.01.01,0,0,0,0,0A.01.01,0,0,0,601.02,260.015Zm.005-.023s0,0,0,0S601.025,259.991,601.025,259.992Zm.019-.089h0Zm0-.021v0Zm0-.022v0Zm1-10.366a8.325,8.325,0,0,0-8.327-8.168H557.24v-.854h46.467v.322l-1.582-.132-.95.664a39.617,39.617,0,0,1,.878,8.168Z" transform="translate(-525.998 -226.988)"/><path class="l" d="M1251.75,275.561v0l0-.008.011-.018,0-.007.013-.022,0,0,.031-.053,0,0,.013-.022,0-.006.011-.019,0-.007.011-.018,0-.007.012-.02,0-.005.013-.022,0,0,.03-.052,0-.006.012-.02,0-.007.011-.018.005-.008.011-.018,0-.008.011-.019,0-.006.014-.024h0c.005-.009.01-.017.015-.026l0-.006.011-.02,0-.008.01-.017.005-.009.01-.017.005-.008.01-.017.005-.008.012-.021,0,0,.03-.052,0-.007.01-.017.006-.01c0-.005.007-.011.009-.016l.005-.01.009-.016.006-.01.01-.017,0-.008.012-.021s0,0,0,0l.015-.026h0l.014-.025,0-.006.011-.02,0-.007c0-.007.006-.012.011-.018l0-.008.011-.019,0-.007.012-.022,0,0,.03-.053v0l.013-.024,0-.005.011-.02,0-.007.011-.019,0-.007.011-.019,0-.007.013-.024h0l.03-.053,0,0,.012-.022,0-.007.011-.02,0-.006.011-.02,0-.006.012-.021,0,0,.043-.078a.008.008,0,0,0,0,0l.012-.022,0-.006.011-.02,0-.007.011-.021,0-.005.013-.023v0l.029-.053v0l.013-.024,0,0,.011-.021,0-.006.011-.021,0,0,.012-.023,0,0,.056-.1,0,0,.012-.022,0,0,.012-.022,0,0,.013-.025h0l.042-.08v0l.013-.024,0,0,.011-.022,0-.006.012-.022,0,0,.014-.026h0l.028-.054h0l.014-.026v0l.012-.024a.03.03,0,0,0,0-.005l.011-.021,0,0,.012-.022,0,0,.054-.105,0,0,.012-.023,0,0,.012-.023,0,0,.054-.107h0l.013-.026a0,0,0,0,0,0,0l.012-.025v0l.013-.025h0l.054-.107h0l.013-.025v0l.012-.024v0l.012-.025h0l.053-.107v0c0-.009.008-.016.012-.025h0l.013-.026h0l.066-.134h0l.013-.026h0c.052-.107.1-.215.155-.322h0c.06-.126.118-.25.177-.376h0l.074-.16h0l.085-.187h0l.012-.025v0l.072-.16h0a41.094,41.094,0,0,0,2.123-6h0c.014-.052.028-.1.042-.156h0l.007-.026h0c.011-.043.022-.086.034-.129a0,0,0,0,1,0,0l.007-.025h0l.007-.026h0c.009-.034.018-.069.026-.1v0c0-.007,0-.016.006-.024a0,0,0,0,1,0,0c0-.008,0-.015.006-.022v0c0-.007,0-.015.006-.022v0c.007-.025.013-.05.019-.076a.024.024,0,0,1,0-.006l.005-.02s0,0,0-.005,0-.014.005-.02,0,0,0-.005,0-.014.005-.021a.007.007,0,0,0,0,0l.006-.023v0c0-.017.008-.034.013-.051v0l.006-.022a.029.029,0,0,1,0-.006c0-.006,0-.013,0-.018l0-.008,0-.017,0-.007,0-.018a.019.019,0,0,1,0-.006c0-.007,0-.015.006-.021s0,0,0,0,0-.017.006-.025h0c0-.008,0-.016.005-.025a.015.015,0,0,0,0-.005c0-.007,0-.013.005-.02l0-.007,0-.017a.03.03,0,0,1,0-.008.155.155,0,0,1,0-.016l0-.008,0-.019,0-.006.006-.024h0c0-.008,0-.017.006-.025s0,0,0,0,0-.015.005-.021l0-.008,0-.017s0-.006,0-.008a.159.159,0,0,1,0-.016l0-.008c0-.006,0-.012,0-.018l0-.006,0-.018,0-.007c0-.017.008-.031.011-.049l0-.006,0-.019,0-.007c0-.006,0-.011,0-.016a.086.086,0,0,0,0-.01c0-.006,0-.01,0-.015l0-.009a.142.142,0,0,1,0-.016l0-.008c0-.006,0-.012,0-.018a.023.023,0,0,1,0-.007l.006-.024,0-.011s0-.008,0-.013a.056.056,0,0,0,0-.011s0-.01,0-.014a.093.093,0,0,0,0-.011l0-.013,0-.011,0-.012,0-.012,0-.013,0-.01,0-.016,0-.015c0-.006,0-.012,0-.017l0-.012a.081.081,0,0,1,0-.012s0-.008,0-.013l0-.012,0-.012s0-.007,0-.011,0-.008,0-.013l0-.013,0-.011s0-.008,0-.013,0-.007,0-.011,0-.009,0-.013l.005-.022s0-.007,0-.011l0-.014,0-.009,0-.015,0-.008,0-.016,0-.007a.144.144,0,0,1,0-.016s0,0,0-.008l0-.016s0,0,0,0l.014-.06s0,0,0,0,0-.012,0-.018,0,0,0,0l0-.017,0-.006c0-.007,0-.011,0-.018a.008.008,0,0,0,0,0l0-.019s0,0,0,0l.019-.085h0c0-.007,0-.014,0-.021v0l0-.021v0a46.6,46.6,0,0,0,1-10.327c0-.013,0-.026,0-.038a39.617,39.617,0,0,0-.878-8.168l.95-.664,1.582.132v12.7a27.417,27.417,0,0,1-7.532,18.853Z" transform="translate(-1181.571 -230.197)"/><path class="c" d="M581.64,252.749q.979-1.36,1.8-2.74h0a27.417,27.417,0,0,0,7.532-18.853V218.13H544.51v.854h-.76V216.8h47.986v14.356A28.138,28.138,0,0,1,581.64,252.749Z" transform="translate(-513.265 -204.645)"/><path class="d" d="M532.578,1757.895H477.12v-.97a1.87,1.87,0,0,1,.055-.454h55.347a1.9,1.9,0,0,1,.055.454Z" transform="translate(-450.371 -1657.994)"/><path class="c" d="M520.537,1758.654H463.56v-2.184h.815a1.868,1.868,0,0,0-.055.454v.97h55.458v-.97a1.867,1.867,0,0,0-.056-.454h.815Z" transform="translate(-437.571 -1657.994)"/><path class="d" d="M1581.47,1182.311h1.425V1146.7h-1.425Z" transform="translate(-1492.806 -1082.411)"/><path class="c" d="M1583.654,1183.071h-2.184v-.76h1.425V1146.7h.76Z" transform="translate(-1492.806 -1082.411)"/><path class="j" d="M1582.895,1122.686h-1.425v-1.424h1.293l.131,0Z" transform="translate(-1492.806 -1058.397)"/><path class="c" d="M1607.64,1121.374h-.76v-1.426a4.987,4.987,0,0,0,.76-.078Z" transform="translate(-1516.791 -1057.085)"/><path class="d" d="M1582.895,223.623l-.131,0h-1.293V188.01h1.425v35.612Z" transform="translate(-1492.806 -177.469)"/><path class="c" d="M1607.64,186.925a4.983,4.983,0,0,0-.76-.079V151.234h.76v35.691Z" transform="translate(-1516.791 -140.694)"/><path class="j" d="M1581.47,164.034h1.425V162.61h-1.425Z" transform="translate(-1492.806 -153.493)"/><path class="c" d="M1583.654,151.234h-.76V149.81h-1.425v-.76h2.184Z" transform="translate(-1492.806 -140.694)"/><path class="b" d="M1494.245,840.954v6.765a4.215,4.215,0,0,1-4.214,4.214h-2.587a4.216,4.216,0,0,1-4.214-4.214v-6.765a4.215,4.215,0,0,1,4.214-4.214h2.587A4.215,4.215,0,0,1,1494.245,840.954Z" transform="translate(-1400.073 -789.829)"/><path class="c" d="M1474.654,824.709a3.458,3.458,0,0,0-3.455,3.455v6.765a3.458,3.458,0,0,0,3.455,3.455h2.587a3.458,3.458,0,0,0,3.455-3.455v-6.765a3.458,3.458,0,0,0-3.455-3.455Zm2.587,15.194h-2.587a4.98,4.98,0,0,1-4.974-4.974v-6.765a4.98,4.98,0,0,1,4.974-4.974h2.587a4.98,4.98,0,0,1,4.974,4.974v6.765A4.98,4.98,0,0,1,1477.241,839.9Z" transform="translate(-1387.283 -777.038)"/><path class="f" d="M1499.38,865.651a3.461,3.461,0,0,1-2.6-3.348v-6.765a3.461,3.461,0,0,1,2.6-3.348,4.207,4.207,0,0,0-1.655,3.348V862.3A4.21,4.21,0,0,0,1499.38,865.651Z" transform="translate(-1412.864 -804.412)"/><path class="m" d="M1488.251,851.934h-.886a4.216,4.216,0,0,1-4.214-4.214v-6.765a4.215,4.215,0,0,1,4.214-4.214h.886c.139,0,.276.007.412.02a4.192,4.192,0,0,0-2.148.847,3.462,3.462,0,0,0-2.6,3.348v6.765a3.462,3.462,0,0,0,2.6,3.348,4.191,4.191,0,0,0,2.148.847Q1488.459,851.934,1488.251,851.934Z" transform="translate(-1399.998 -789.829)"/><path class="n" d="M1619.79,865.651a4.209,4.209,0,0,0,1.655-3.348v-6.765a4.207,4.207,0,0,0-1.655-3.348,3.461,3.461,0,0,1,2.6,3.348V862.3A3.462,3.462,0,0,1,1619.79,865.651Z" transform="translate(-1528.977 -804.412)"/><path class="o" d="M1575.839,851.934h-.886q-.209,0-.411-.02a4.2,4.2,0,0,0,2.148-.847,3.461,3.461,0,0,0,2.6-3.348v-6.765a3.461,3.461,0,0,0-2.6-3.348,4.191,4.191,0,0,0-2.148-.847q.2-.019.411-.02h.886a4.215,4.215,0,0,1,4.214,4.214v6.765a4.216,4.216,0,0,1-4.214,4.214Z" transform="translate(-1485.877 -789.829)"/><path class="p" d="M1574.953,851.934h-.823c.139,0,.276-.007.411-.02Q1574.744,851.934,1574.953,851.934Zm-.411-15.174q-.2-.019-.411-.02h.823Q1574.745,836.74,1574.542,836.76Z" transform="translate(-1485.877 -789.829)"/><path class="q" d="M1239.366,1147.444h-3.453a30.008,30.008,0,0,0,1.717-10.129c0-9.147-3.812-17.537-6.98-22.925a27.424,27.424,0,0,1,8.716,20.026v13.027Z" transform="translate(-1161.654 -1051.912)"/><path class="c" d="M1218.132,1112.476h-4.5q.147-.38.283-.76h3.453v-13.027a27.422,27.422,0,0,0-8.716-20.026h0c-.453-.771-.893-1.481-1.307-2.123a28.142,28.142,0,0,1,10.782,22.149Z" transform="translate(-1139.661 -1016.184)"/><path class="g" d="M817.662,811.188a9.948,9.948,0,0,1-1.262-.618l.8-.3a3.743,3.743,0,0,0,.891.68h0l0,0,.079.044-.515.2Zm1.448-1.646,2.745-1.042c.2,0,.4,0,.591.007.764.012,1.464.035,2.109.065l-2.463.935-.334,0h0l-.426,0c-.676,0-1.439.012-2.222.04Z" transform="translate(-770.629 -763.172)"/><path class="r" d="M831.615,827.807l0,0Zm0,0a3.753,3.753,0,0,1-.891-.68l1.907-.724c.783-.029,1.546-.04,2.222-.04l.426,0-3.718,1.411Z" transform="translate(-784.146 -780.031)"/><path class="r" d="M845.777,827.889l-.079-.044,0,0h0l-.054-.031,3.718-1.411.334,0Z" transform="translate(-798.23 -780.068)"/><path class="g" d="M849.171,813.746c-.266-.081-.524-.167-.771-.256l.448-.17.048.021q.271.12.573.23h0l.084.03Zm5.409-2.053c-.39-.026-.812-.049-1.272-.066l2.389-.907c.427.027.828.058,1.207.09l-2.324.882Z" transform="translate(-800.835 -765.267)"/><path class="r" d="M857.813,828.854q-.3-.109-.573-.23c.068.03.138.06.21.09l4.7-1.783q-.24-.012-.5-.021h0c.46.016.883.039,1.272.066h0l-.138-.009Z" transform="translate(-809.179 -780.55)"/><path class="r" d="M856.647,828.714c-.072-.029-.141-.059-.21-.09l-.048-.021,4.459-1.693q.256.009.5.021l-4.7,1.783Z" transform="translate(-808.377 -780.55)"/><path class="r" d="M867.534,829.837l-.083-.03h0l4.972-1.887.138.009-5.027,1.909Z" transform="translate(-818.817 -781.503)"/><path class="g" d="M582.239,1271.5a40.574,40.574,0,0,1-3.949-5.61l2.414-2.658q-.28.9-.49,1.827a4.289,4.289,0,0,0,3.106,5.252l-1.08,1.189Zm10.841-21.9,2.287-2.519c.64.012,1.258.032,1.85.06,2.392.1,4.582.315,6.6.592l-.9.99a18.308,18.308,0,0,0-9.84.877Z" transform="translate(-545.868 -1177.163)"/><path class="r" d="M613.731,1292.735a4.289,4.289,0,0,1-3.106-5.252q.21-.929.49-1.827l12.376-13.63a18.312,18.312,0,0,1,9.84-.877l-19.6,21.586Z" transform="translate(-576.28 -1199.591)"/><path class="g" d="M759.478,1404.018a.84.84,0,0,1-.588-.169l2.077-2.077h3.4l-2.1,2.089a.89.89,0,0,0-.559-.144,6.6,6.6,0,0,0-1.119.15,6.542,6.542,0,0,1-1.119.15Zm18.394-15.708a15.1,15.1,0,0,0-2.428-1.016l.855-.855c1.02.17,1.976.362,2.879.568l-1.306,1.3Z" transform="translate(-716.343 -1308.71)"/><path class="r" d="M731.536,1310.222H727.07l19-20.922a18.871,18.871,0,0,1,3.186,1.468Z" transform="translate(-686.307 -1217.016)"/></g></g><g transform="translate(159.845 305.087)"><path class="s" d="M723.064,1523.98l.115,3.473,3.325.971-3.26,1.168.1,3.473-2.124-2.748-3.259,1.169,1.942-2.864-2.123-2.749,3.342.971Z" transform="translate(-713.879 -1521.034)"/><path class="s" d="M3762.544,5151.25l.1,3.473,3.341.972-3.275,1.168.115,3.474-2.123-2.749-3.26,1.169,1.942-2.864-2.123-2.732,3.325.955Z" transform="translate(-3639.338 -5035.407)"/><path class="t" d="M2738.782,2083.91l2.041,2.8,3.292-1.07-2.025,2.8,2.041,2.8-3.309-1.054-2.025,2.8-.016-3.456-3.292-1.07,3.292-1.07Z" transform="translate(-2649.32 -2058.133)"/><path class="u" d="M3621.654,4220.71l.115,3.457,3.325.971-3.259,1.168.1,3.473-2.124-2.748-3.259,1.185,1.943-2.881-2.124-2.732,3.341.971Z" transform="translate(-3522.924 -4132.104)"/><path class="u" d="M3689.057,1635.4l.116,3.457,3.325.971-3.259,1.185.1,3.457-2.124-2.732-3.259,1.169,1.958-2.864-2.124-2.749,3.326.971Z" transform="translate(-3570.213 -1594.911)"/><path class="u" d="M707.948,5151.649l2.173,2.7,3.243-1.235-1.909,2.9,2.172,2.716-3.341-.921-1.91,2.9-.165-3.457-3.341-.906,3.242-1.235Z" transform="translate(-701.496 -5000.79)"/><circle class="u" cx="2.897" cy="2.897" r="2.897" transform="translate(29.645 20.987)"/><circle class="t" cx="2.041" cy="2.041" r="2.041" transform="translate(103.7 132.852)"/><circle class="s" cx="1.021" cy="1.021" r="1.021" transform="translate(114.498 33.579)"/><circle class="s" cx="1.021" cy="1.021" r="1.021" transform="translate(62.912 30.303)"/><circle class="s" cx="2.206" cy="2.206" r="2.206" transform="translate(25.629 138.185)"/><circle class="s" cx="2.206" cy="2.206" r="2.206" transform="translate(95.602 5.283)"/><circle class="s" cx="1.843" cy="1.843" r="1.843" transform="translate(61.496)"/><circle class="u" cx="1.481" cy="1.481" r="1.481" transform="translate(113.577 65.884)"/><circle class="s" cx="1.185" cy="1.185" r="1.185" transform="translate(127.996 97.676)"/></g><g transform="translate(10.803 310.831)"><path class="v" d="M5179.7,1847.768l-3.473.115-.971,3.325-1.169-3.259-3.456.1,2.732-2.124-1.169-3.259,2.864,1.958,2.75-2.123-.971,3.325Z" transform="translate(-5071.011 -1807.077)"/><path class="s" d="M3999,3483.294l-4.411,2.008.543,4.823-3.276-3.589-4.412,2.008,2.387-4.214-3.259-3.588,4.74.971,2.4-4.214.543,4.823Z" transform="translate(-3886.952 -3406.934)"/><path class="u" d="M2482.976,4746.374l-3.473.1-.971,3.324-1.169-3.259-3.474.1,2.749-2.123-1.168-3.26,2.864,1.96,2.732-2.124-.971,3.325Z" transform="translate(-2395.948 -4643.282)"/><path class="u" d="M5068.27,4813.384l-3.457.1-.972,3.325-1.168-3.259-3.473.115,2.749-2.123-1.185-3.276,2.864,1.959,2.749-2.124-.971,3.325Z" transform="translate(-4915.846 -4683.281)"/><circle class="u" cx="2.897" cy="2.897" r="2.897" transform="translate(133.132 29.629)"/><circle class="s" cx="1.021" cy="1.021" r="1.021" transform="translate(124.293 114.482)"/><circle class="s" cx="1.021" cy="1.021" r="1.021" transform="translate(127.568 62.895)"/><circle class="s" cx="2.206" cy="2.206" r="2.206" transform="translate(150.218 95.602)"/><circle class="s" cx="1.843" cy="1.843" r="1.843" transform="translate(156.226 61.48)"/><circle class="u" cx="1.481" cy="1.481" r="1.481" transform="translate(133.066 136.539)"/><circle class="s" cx="1.185" cy="1.185" r="1.185" transform="translate(87.028 124.82)"/></g></g></svg>