<svg xmlns="http://www.w3.org/2000/svg" width="20.281" height="21.407" viewBox="0 0 20.281 21.407">
  <g id="bx-user" transform="translate(-4.5 -3)">
    <path id="Path_98" data-name="Path 98" d="M25.668,12.084A6.084,6.084,0,1,1,19.584,6,6.084,6.084,0,0,1,25.668,12.084Z" transform="translate(-4.944 -0.228)" fill="none"/>
    <path id="Path_99" data-name="Path 99" d="M14.64,3a5.634,5.634,0,1,0,5.634,5.634A5.64,5.64,0,0,0,14.64,3Zm0,9.014a3.38,3.38,0,1,1,3.38-3.38A3.384,3.384,0,0,1,14.64,12.014Zm10.14,12.394V23.281a7.9,7.9,0,0,0-7.887-7.887H12.387A7.9,7.9,0,0,0,4.5,23.281v1.127H6.753V23.281a5.639,5.639,0,0,1,5.634-5.634h4.507a5.639,5.639,0,0,1,5.634,5.634v1.127Z" transform="translate(0 0)" fill="#6f6f6f"/>
  </g>
</svg>
